G04 #@! TF.FileFunction,Legend,Top*
%FSLAX46Y46*%
G04 Gerber Fmt 4.6, Leading zero omitted, Abs format (unit mm)*
G04 Created by KiCad (PCBNEW 4.0.0-stable) date 2/14/2016 1:15:28 AM*
%MOMM*%
G01*
G04 APERTURE LIST*
%ADD10C,0.100000*%
%ADD11C,0.300000*%
%ADD12C,0.150000*%
%ADD13C,0.200000*%
%ADD14C,0.203200*%
%ADD15C,0.152400*%
%ADD16C,2.540000*%
%ADD17C,6.500000*%
%ADD18O,2.160000X1.260000*%
%ADD19R,1.260000X1.360000*%
%ADD20O,1.260000X2.160000*%
%ADD21R,1.860000X1.360000*%
%ADD22O,1.860000X1.360000*%
%ADD23R,1.060000X1.160000*%
%ADD24R,1.310000X1.610000*%
%ADD25R,1.110000X1.160000*%
%ADD26R,1.610000X1.310000*%
%ADD27O,0.420000X0.965000*%
%ADD28R,1.115000X0.840000*%
%ADD29C,0.668000*%
%ADD30R,1.887200X2.192000*%
%ADD31O,1.887200X2.192000*%
%ADD32R,1.960000X3.760000*%
%ADD33R,1.887200X1.887200*%
%ADD34O,1.887200X1.887200*%
G04 APERTURE END LIST*
D10*
D11*
X92329000Y-89768680D02*
G75*
G03X92329000Y-89768680I-1190683J0D01*
G01*
D12*
X84720683Y-87229317D02*
G75*
G03X84720683Y-87229317I-1190683J0D01*
G01*
D11*
X124306286Y-106909142D02*
X126106286Y-106480571D01*
X124820571Y-106137714D01*
X126106286Y-105794856D01*
X124306286Y-105366285D01*
X126106286Y-104680571D02*
X124906286Y-104680571D01*
X124306286Y-104680571D02*
X124392000Y-104766285D01*
X124477714Y-104680571D01*
X124392000Y-104594856D01*
X124306286Y-104680571D01*
X124477714Y-104680571D01*
X125163429Y-103223428D02*
X125163429Y-103823428D01*
X126106286Y-103823428D02*
X124306286Y-103823428D01*
X124306286Y-102966285D01*
X126106286Y-102280571D02*
X124906286Y-102280571D01*
X124306286Y-102280571D02*
X124392000Y-102366285D01*
X124477714Y-102280571D01*
X124392000Y-102194856D01*
X124306286Y-102280571D01*
X124477714Y-102280571D01*
X126106286Y-100051999D02*
X124306286Y-100051999D01*
X124306286Y-99366284D01*
X124392000Y-99194856D01*
X124477714Y-99109141D01*
X124649143Y-99023427D01*
X124906286Y-99023427D01*
X125077714Y-99109141D01*
X125163429Y-99194856D01*
X125249143Y-99366284D01*
X125249143Y-100051999D01*
X126106286Y-97480570D02*
X125163429Y-97480570D01*
X124992000Y-97566284D01*
X124906286Y-97737713D01*
X124906286Y-98080570D01*
X124992000Y-98251999D01*
X126020571Y-97480570D02*
X126106286Y-97651999D01*
X126106286Y-98080570D01*
X126020571Y-98251999D01*
X125849143Y-98337713D01*
X125677714Y-98337713D01*
X125506286Y-98251999D01*
X125420571Y-98080570D01*
X125420571Y-97651999D01*
X125334857Y-97480570D01*
X124906286Y-96623428D02*
X126106286Y-96623428D01*
X125077714Y-96623428D02*
X124992000Y-96537713D01*
X124906286Y-96366285D01*
X124906286Y-96109142D01*
X124992000Y-95937713D01*
X125163429Y-95851999D01*
X126106286Y-95851999D01*
X124906286Y-95251999D02*
X124906286Y-94566285D01*
X124306286Y-94994857D02*
X125849143Y-94994857D01*
X126020571Y-94909142D01*
X126106286Y-94737714D01*
X126106286Y-94566285D01*
X126020571Y-94052000D02*
X126106286Y-93880571D01*
X126106286Y-93537714D01*
X126020571Y-93366286D01*
X125849143Y-93280571D01*
X125763429Y-93280571D01*
X125592000Y-93366286D01*
X125506286Y-93537714D01*
X125506286Y-93794857D01*
X125420571Y-93966286D01*
X125249143Y-94052000D01*
X125163429Y-94052000D01*
X124992000Y-93966286D01*
X124906286Y-93794857D01*
X124906286Y-93537714D01*
X124992000Y-93366286D01*
D13*
X119090000Y-103600000D02*
X119090000Y-113120000D01*
X116550000Y-103600000D02*
X116550000Y-113120000D01*
X114010000Y-103600000D02*
X114010000Y-113120000D01*
X111470000Y-103600000D02*
X111470000Y-113120000D01*
X120240372Y-107630000D02*
X120240000Y-110240000D01*
X117700372Y-107630000D02*
X117700000Y-110220000D01*
X115160372Y-107630000D02*
X115160000Y-107760000D01*
X112620372Y-107630000D02*
X112620000Y-107990000D01*
X119140372Y-106624412D02*
X120240372Y-107624412D01*
X116600372Y-106624412D02*
X117700372Y-107624412D01*
X114060372Y-106624412D02*
X115160372Y-107624412D01*
X111520372Y-106624412D02*
X112620372Y-107624412D01*
X108930000Y-103600000D02*
X108930000Y-113120000D01*
X110080372Y-107630000D02*
X110080000Y-110100000D01*
X108980372Y-106624412D02*
X110080372Y-107624412D01*
D11*
X121856572Y-97389143D02*
X122999429Y-97389143D01*
X122428000Y-97960571D02*
X122428000Y-96817714D01*
X122408143Y-95821428D02*
X122408143Y-94678571D01*
X110978143Y-95821428D02*
X110978143Y-94678571D01*
X110426572Y-97389143D02*
X111569429Y-97389143D01*
X110998000Y-97960571D02*
X110998000Y-96817714D01*
D12*
X118342381Y-112410476D02*
X117866190Y-112743810D01*
X118342381Y-112981905D02*
X117342381Y-112981905D01*
X117342381Y-112600952D01*
X117390000Y-112505714D01*
X117437619Y-112458095D01*
X117532857Y-112410476D01*
X117675714Y-112410476D01*
X117770952Y-112458095D01*
X117818571Y-112505714D01*
X117866190Y-112600952D01*
X117866190Y-112981905D01*
X117342381Y-112077143D02*
X118342381Y-111410476D01*
X117342381Y-111410476D02*
X118342381Y-112077143D01*
X118342381Y-111029524D02*
X117342381Y-111029524D01*
X117342381Y-110791429D01*
X117390000Y-110648571D01*
X117485238Y-110553333D01*
X117580476Y-110505714D01*
X117770952Y-110458095D01*
X117913810Y-110458095D01*
X118104286Y-110505714D01*
X118199524Y-110553333D01*
X118294762Y-110648571D01*
X118342381Y-110791429D01*
X118342381Y-111029524D01*
X119792381Y-112894762D02*
X119792381Y-112323333D01*
X120792381Y-112609048D02*
X119792381Y-112609048D01*
X119792381Y-112085238D02*
X120792381Y-111418571D01*
X119792381Y-111418571D02*
X120792381Y-112085238D01*
X120792381Y-111037619D02*
X119792381Y-111037619D01*
X119792381Y-110799524D01*
X119840000Y-110656666D01*
X119935238Y-110561428D01*
X120030476Y-110513809D01*
X120220952Y-110466190D01*
X120363810Y-110466190D01*
X120554286Y-110513809D01*
X120649524Y-110561428D01*
X120744762Y-110656666D01*
X120792381Y-110799524D01*
X120792381Y-111037619D01*
X115822381Y-112991905D02*
X114822381Y-112991905D01*
X114822381Y-112610952D01*
X114870000Y-112515714D01*
X114917619Y-112468095D01*
X115012857Y-112420476D01*
X115155714Y-112420476D01*
X115250952Y-112468095D01*
X115298571Y-112515714D01*
X115346190Y-112610952D01*
X115346190Y-112991905D01*
X114822381Y-112087143D02*
X115822381Y-111849048D01*
X115108095Y-111658571D01*
X115822381Y-111468095D01*
X114822381Y-111230000D01*
X115822381Y-110277619D02*
X115346190Y-110610953D01*
X115822381Y-110849048D02*
X114822381Y-110849048D01*
X114822381Y-110468095D01*
X114870000Y-110372857D01*
X114917619Y-110325238D01*
X115012857Y-110277619D01*
X115155714Y-110277619D01*
X115250952Y-110325238D01*
X115298571Y-110372857D01*
X115346190Y-110468095D01*
X115346190Y-110849048D01*
X115917619Y-110087143D02*
X115917619Y-109325238D01*
X115822381Y-109087143D02*
X114822381Y-109087143D01*
X115822381Y-108610953D02*
X114822381Y-108610953D01*
X115822381Y-108039524D01*
X114822381Y-108039524D01*
X82180000Y-87240000D02*
G75*
G03X82180000Y-87240000I-1190683J0D01*
G01*
X112244762Y-112157619D02*
X113530476Y-113014762D01*
X113244762Y-111871905D02*
X113292381Y-111729048D01*
X113292381Y-111490952D01*
X113244762Y-111395714D01*
X113197143Y-111348095D01*
X113101905Y-111300476D01*
X113006667Y-111300476D01*
X112911429Y-111348095D01*
X112863810Y-111395714D01*
X112816190Y-111490952D01*
X112768571Y-111681429D01*
X112720952Y-111776667D01*
X112673333Y-111824286D01*
X112578095Y-111871905D01*
X112482857Y-111871905D01*
X112387619Y-111824286D01*
X112340000Y-111776667D01*
X112292381Y-111681429D01*
X112292381Y-111443333D01*
X112340000Y-111300476D01*
X113292381Y-110871905D02*
X112292381Y-110871905D01*
X112768571Y-110871905D02*
X112768571Y-110300476D01*
X113292381Y-110300476D02*
X112292381Y-110300476D01*
X113292381Y-109824286D02*
X112292381Y-109824286D01*
X112292381Y-109586191D01*
X112340000Y-109443333D01*
X112435238Y-109348095D01*
X112530476Y-109300476D01*
X112720952Y-109252857D01*
X112863810Y-109252857D01*
X113054286Y-109300476D01*
X113149524Y-109348095D01*
X113244762Y-109443333D01*
X113292381Y-109586191D01*
X113292381Y-109824286D01*
X113292381Y-108824286D02*
X112292381Y-108824286D01*
X113292381Y-108252857D01*
X112292381Y-108252857D01*
X109780000Y-112438095D02*
X109732381Y-112533333D01*
X109732381Y-112676190D01*
X109780000Y-112819048D01*
X109875238Y-112914286D01*
X109970476Y-112961905D01*
X110160952Y-113009524D01*
X110303810Y-113009524D01*
X110494286Y-112961905D01*
X110589524Y-112914286D01*
X110684762Y-112819048D01*
X110732381Y-112676190D01*
X110732381Y-112580952D01*
X110684762Y-112438095D01*
X110637143Y-112390476D01*
X110303810Y-112390476D01*
X110303810Y-112580952D01*
X110732381Y-111961905D02*
X109732381Y-111961905D01*
X110732381Y-111390476D01*
X109732381Y-111390476D01*
X110732381Y-110914286D02*
X109732381Y-110914286D01*
X109732381Y-110676191D01*
X109780000Y-110533333D01*
X109875238Y-110438095D01*
X109970476Y-110390476D01*
X110160952Y-110342857D01*
X110303810Y-110342857D01*
X110494286Y-110390476D01*
X110589524Y-110438095D01*
X110684762Y-110533333D01*
X110732381Y-110676191D01*
X110732381Y-110914286D01*
D11*
X120281123Y-89766717D02*
G75*
G03X120281123Y-89766717I-1190683J0D01*
G01*
D12*
X107579160Y-89773760D02*
G75*
G03X107579160Y-89773760I-1190683J0D01*
G01*
D11*
X99959160Y-87233760D02*
G75*
G03X99959160Y-87233760I-1190683J0D01*
G01*
X92341123Y-87233760D02*
G75*
G03X92341123Y-87233760I-1190683J0D01*
G01*
X94884240Y-87228680D02*
G75*
G03X94884240Y-87228680I-1190683J0D01*
G01*
X89799160Y-89768680D02*
G75*
G03X89799160Y-89768680I-1190683J0D01*
G01*
X71892857Y-105071428D02*
X71892857Y-104571428D01*
X72678571Y-104357142D02*
X72678571Y-105071428D01*
X71178571Y-105071428D01*
X71178571Y-104357142D01*
X72607143Y-103785714D02*
X72678571Y-103571428D01*
X72678571Y-103214285D01*
X72607143Y-103071428D01*
X72535714Y-102999999D01*
X72392857Y-102928571D01*
X72250000Y-102928571D01*
X72107143Y-102999999D01*
X72035714Y-103071428D01*
X71964286Y-103214285D01*
X71892857Y-103499999D01*
X71821429Y-103642857D01*
X71750000Y-103714285D01*
X71607143Y-103785714D01*
X71464286Y-103785714D01*
X71321429Y-103714285D01*
X71250000Y-103642857D01*
X71178571Y-103499999D01*
X71178571Y-103142857D01*
X71250000Y-102928571D01*
X72678571Y-102285714D02*
X71178571Y-102285714D01*
X71178571Y-101714286D01*
X71250000Y-101571428D01*
X71321429Y-101500000D01*
X71464286Y-101428571D01*
X71678571Y-101428571D01*
X71821429Y-101500000D01*
X71892857Y-101571428D01*
X71964286Y-101714286D01*
X71964286Y-102285714D01*
X72107143Y-100785714D02*
X72107143Y-99642857D01*
X72678571Y-98142857D02*
X72678571Y-99000000D01*
X72678571Y-98571428D02*
X71178571Y-98571428D01*
X71392857Y-98714285D01*
X71535714Y-98857143D01*
X71607143Y-99000000D01*
X71321429Y-97571429D02*
X71250000Y-97500000D01*
X71178571Y-97357143D01*
X71178571Y-97000000D01*
X71250000Y-96857143D01*
X71321429Y-96785714D01*
X71464286Y-96714286D01*
X71607143Y-96714286D01*
X71821429Y-96785714D01*
X72678571Y-97642857D01*
X72678571Y-96714286D01*
X71892857Y-96071429D02*
X71892857Y-95571429D01*
X72678571Y-95357143D02*
X72678571Y-96071429D01*
X71178571Y-96071429D01*
X71178571Y-95357143D01*
X75078571Y-100821428D02*
X75007143Y-100964286D01*
X74935714Y-101035714D01*
X74792857Y-101107143D01*
X74364286Y-101107143D01*
X74221429Y-101035714D01*
X74150000Y-100964286D01*
X74078571Y-100821428D01*
X74078571Y-100607143D01*
X74150000Y-100464286D01*
X74221429Y-100392857D01*
X74364286Y-100321428D01*
X74792857Y-100321428D01*
X74935714Y-100392857D01*
X75007143Y-100464286D01*
X75078571Y-100607143D01*
X75078571Y-100821428D01*
X75078571Y-99678571D02*
X74078571Y-99678571D01*
X74364286Y-99678571D02*
X74221429Y-99607143D01*
X74150000Y-99535714D01*
X74078571Y-99392857D01*
X74078571Y-99250000D01*
X76692857Y-105035713D02*
X76692857Y-104535713D01*
X77478571Y-104321427D02*
X77478571Y-105035713D01*
X75978571Y-105035713D01*
X75978571Y-104321427D01*
X77407143Y-103749999D02*
X77478571Y-103535713D01*
X77478571Y-103178570D01*
X77407143Y-103035713D01*
X77335714Y-102964284D01*
X77192857Y-102892856D01*
X77050000Y-102892856D01*
X76907143Y-102964284D01*
X76835714Y-103035713D01*
X76764286Y-103178570D01*
X76692857Y-103464284D01*
X76621429Y-103607142D01*
X76550000Y-103678570D01*
X76407143Y-103749999D01*
X76264286Y-103749999D01*
X76121429Y-103678570D01*
X76050000Y-103607142D01*
X75978571Y-103464284D01*
X75978571Y-103107142D01*
X76050000Y-102892856D01*
X77478571Y-102249999D02*
X75978571Y-102249999D01*
X75978571Y-101678571D01*
X76050000Y-101535713D01*
X76121429Y-101464285D01*
X76264286Y-101392856D01*
X76478571Y-101392856D01*
X76621429Y-101464285D01*
X76692857Y-101535713D01*
X76764286Y-101678571D01*
X76764286Y-102249999D01*
X76907143Y-100749999D02*
X76907143Y-99607142D01*
X77478571Y-98107142D02*
X77478571Y-98964285D01*
X77478571Y-98535713D02*
X75978571Y-98535713D01*
X76192857Y-98678570D01*
X76335714Y-98821428D01*
X76407143Y-98964285D01*
X76121429Y-97535714D02*
X76050000Y-97464285D01*
X75978571Y-97321428D01*
X75978571Y-96964285D01*
X76050000Y-96821428D01*
X76121429Y-96749999D01*
X76264286Y-96678571D01*
X76407143Y-96678571D01*
X76621429Y-96749999D01*
X77478571Y-97607142D01*
X77478571Y-96678571D01*
X76692857Y-95535714D02*
X76692857Y-96035714D01*
X77478571Y-96035714D02*
X75978571Y-96035714D01*
X75978571Y-95321428D01*
D12*
X120260000Y-96890000D02*
X116010000Y-96890000D01*
X116010000Y-96890000D02*
X116010000Y-95890000D01*
X116010000Y-95890000D02*
X120260000Y-95890000D01*
X114260000Y-98290000D02*
X114260000Y-98640000D01*
X114260000Y-98640000D02*
X112660000Y-98640000D01*
X112660000Y-98640000D02*
X112660000Y-99340000D01*
X112660000Y-99340000D02*
X120260000Y-99340000D01*
X120260000Y-99340000D02*
X120260000Y-93440000D01*
X120260000Y-93440000D02*
X112660000Y-93440000D01*
X112660000Y-93440000D02*
X112660000Y-94140000D01*
X112660000Y-94140000D02*
X114260000Y-94140000D01*
X114260000Y-94140000D02*
X114260000Y-94490000D01*
X114260000Y-99340000D02*
X114260000Y-98640000D01*
X114260000Y-93440000D02*
X114260000Y-94140000D01*
X116510000Y-98690000D02*
X118110000Y-98690000D01*
X118110000Y-98690000D02*
X118110000Y-97690000D01*
X118110000Y-97690000D02*
X116510000Y-97690000D01*
X116510000Y-97690000D02*
X116510000Y-98690000D01*
X116510000Y-94090000D02*
X118110000Y-94090000D01*
X118110000Y-94090000D02*
X118110000Y-95090000D01*
X118110000Y-95090000D02*
X116510000Y-95090000D01*
X116510000Y-95090000D02*
X116510000Y-94090000D01*
X118110000Y-97690000D02*
X120260000Y-97690000D01*
X118110000Y-98190000D02*
X120260000Y-98190000D01*
X114260000Y-96490000D02*
X114260000Y-96290000D01*
D14*
X89000000Y-101760000D02*
X88500000Y-101760000D01*
X89000000Y-101260000D02*
X89000000Y-101760000D01*
X89000000Y-100260000D02*
X89000000Y-100760000D01*
X88500000Y-100260000D02*
X89000000Y-100260000D01*
X86000000Y-100260000D02*
X86500000Y-100260000D01*
X86000000Y-100760000D02*
X86000000Y-100260000D01*
X86000000Y-101760000D02*
X86000000Y-101260000D01*
X86000000Y-101760000D02*
X86500000Y-101760000D01*
X88300000Y-101410000D02*
X88300000Y-100610000D01*
X88300000Y-100610000D02*
X86700000Y-100610000D01*
X86700000Y-100610000D02*
X86700000Y-101410000D01*
X86700000Y-101410000D02*
X88300000Y-101410000D01*
X89000000Y-103760000D02*
X88500000Y-103760000D01*
X89000000Y-103260000D02*
X89000000Y-103760000D01*
X89000000Y-102260000D02*
X89000000Y-102760000D01*
X88500000Y-102260000D02*
X89000000Y-102260000D01*
X86000000Y-102260000D02*
X86500000Y-102260000D01*
X86000000Y-102760000D02*
X86000000Y-102260000D01*
X86000000Y-103760000D02*
X86000000Y-103260000D01*
X86000000Y-103760000D02*
X86500000Y-103760000D01*
X88300000Y-103410000D02*
X88300000Y-102610000D01*
X88300000Y-102610000D02*
X86700000Y-102610000D01*
X86700000Y-102610000D02*
X86700000Y-103410000D01*
X86700000Y-103410000D02*
X88300000Y-103410000D01*
X89000000Y-97760000D02*
X88500000Y-97760000D01*
X89000000Y-97260000D02*
X89000000Y-97760000D01*
X89000000Y-96260000D02*
X89000000Y-96760000D01*
X88500000Y-96260000D02*
X89000000Y-96260000D01*
X86000000Y-96260000D02*
X86500000Y-96260000D01*
X86000000Y-96760000D02*
X86000000Y-96260000D01*
X86000000Y-97760000D02*
X86000000Y-97260000D01*
X86000000Y-97760000D02*
X86500000Y-97760000D01*
X88300000Y-97410000D02*
X88300000Y-96610000D01*
X88300000Y-96610000D02*
X86700000Y-96610000D01*
X86700000Y-96610000D02*
X86700000Y-97410000D01*
X86700000Y-97410000D02*
X88300000Y-97410000D01*
X89000000Y-99760000D02*
X88500000Y-99760000D01*
X89000000Y-99260000D02*
X89000000Y-99760000D01*
X89000000Y-98260000D02*
X89000000Y-98760000D01*
X88500000Y-98260000D02*
X89000000Y-98260000D01*
X86000000Y-98260000D02*
X86500000Y-98260000D01*
X86000000Y-98760000D02*
X86000000Y-98260000D01*
X86000000Y-99760000D02*
X86000000Y-99260000D01*
X86000000Y-99760000D02*
X86500000Y-99760000D01*
X88300000Y-99410000D02*
X88300000Y-98610000D01*
X88300000Y-98610000D02*
X86700000Y-98610000D01*
X86700000Y-98610000D02*
X86700000Y-99410000D01*
X86700000Y-99410000D02*
X88300000Y-99410000D01*
X89000000Y-93760000D02*
X88500000Y-93760000D01*
X89000000Y-93260000D02*
X89000000Y-93760000D01*
X89000000Y-92260000D02*
X89000000Y-92760000D01*
X88500000Y-92260000D02*
X89000000Y-92260000D01*
X86000000Y-92260000D02*
X86500000Y-92260000D01*
X86000000Y-92760000D02*
X86000000Y-92260000D01*
X86000000Y-93760000D02*
X86000000Y-93260000D01*
X86000000Y-93760000D02*
X86500000Y-93760000D01*
X88300000Y-93410000D02*
X88300000Y-92610000D01*
X88300000Y-92610000D02*
X86700000Y-92610000D01*
X86700000Y-92610000D02*
X86700000Y-93410000D01*
X86700000Y-93410000D02*
X88300000Y-93410000D01*
X89000000Y-95760000D02*
X88500000Y-95760000D01*
X89000000Y-95260000D02*
X89000000Y-95760000D01*
X89000000Y-94260000D02*
X89000000Y-94760000D01*
X88500000Y-94260000D02*
X89000000Y-94260000D01*
X86000000Y-94260000D02*
X86500000Y-94260000D01*
X86000000Y-94760000D02*
X86000000Y-94260000D01*
X86000000Y-95760000D02*
X86000000Y-95260000D01*
X86000000Y-95760000D02*
X86500000Y-95760000D01*
X88300000Y-95410000D02*
X88300000Y-94610000D01*
X88300000Y-94610000D02*
X86700000Y-94610000D01*
X86700000Y-94610000D02*
X86700000Y-95410000D01*
X86700000Y-95410000D02*
X88300000Y-95410000D01*
X79750000Y-110920000D02*
X79750000Y-109620000D01*
X80750000Y-110920000D02*
X80750000Y-109620000D01*
X81250000Y-110920000D02*
X81250000Y-109620000D01*
X81250000Y-109620000D02*
X79250000Y-109620000D01*
X79250000Y-109620000D02*
X79250000Y-110920000D01*
X79250000Y-110920000D02*
X81250000Y-110920000D01*
X78500000Y-109770000D02*
X78500000Y-109270000D01*
X78500000Y-109270000D02*
X79000000Y-109270000D01*
X79000000Y-111270000D02*
X78500000Y-111270000D01*
X78500000Y-111270000D02*
X78500000Y-110770000D01*
X82000000Y-109770000D02*
X82000000Y-109270000D01*
X82000000Y-109270000D02*
X81500000Y-109270000D01*
X81500000Y-111270000D02*
X82000000Y-111270000D01*
X82000000Y-111270000D02*
X82000000Y-110770000D01*
X90025000Y-112350000D02*
X90025000Y-111850000D01*
X90025000Y-112350000D02*
X90525000Y-112350000D01*
X90025000Y-110850000D02*
X90025000Y-111350000D01*
X90025000Y-110850000D02*
X90525000Y-110850000D01*
X93125000Y-110850000D02*
X92625000Y-110850000D01*
X93125000Y-110850000D02*
X93125000Y-111350000D01*
X93125000Y-112350000D02*
X92625000Y-112350000D01*
X93125000Y-112350000D02*
X93125000Y-111850000D01*
X91175000Y-112000000D02*
X91175000Y-111200000D01*
X91975000Y-112000000D02*
X91975000Y-111200000D01*
X92375000Y-112000000D02*
X92375000Y-111200000D01*
X92375000Y-111200000D02*
X90775000Y-111200000D01*
X90775000Y-111200000D02*
X90775000Y-112000000D01*
X90775000Y-112000000D02*
X92375000Y-112000000D01*
X98250000Y-110306000D02*
X99550000Y-110306000D01*
X98250000Y-111306000D02*
X99550000Y-111306000D01*
X98250000Y-111806000D02*
X99550000Y-111806000D01*
X99550000Y-111806000D02*
X99550000Y-109806000D01*
X99550000Y-109806000D02*
X98250000Y-109806000D01*
X98250000Y-109806000D02*
X98250000Y-111806000D01*
X99400000Y-109056000D02*
X99900000Y-109056000D01*
X99900000Y-109056000D02*
X99900000Y-109556000D01*
X97900000Y-109556000D02*
X97900000Y-109056000D01*
X97900000Y-109056000D02*
X98400000Y-109056000D01*
X99400000Y-112556000D02*
X99900000Y-112556000D01*
X99900000Y-112556000D02*
X99900000Y-112056000D01*
X97900000Y-112056000D02*
X97900000Y-112556000D01*
X97900000Y-112556000D02*
X98400000Y-112556000D01*
X92750000Y-109300000D02*
X91450000Y-109300000D01*
X92750000Y-108300000D02*
X91450000Y-108300000D01*
X92750000Y-107800000D02*
X91450000Y-107800000D01*
X91450000Y-107800000D02*
X91450000Y-109800000D01*
X91450000Y-109800000D02*
X92750000Y-109800000D01*
X92750000Y-109800000D02*
X92750000Y-107800000D01*
X91600000Y-110550000D02*
X91100000Y-110550000D01*
X91100000Y-110550000D02*
X91100000Y-110050000D01*
X93100000Y-110050000D02*
X93100000Y-110550000D01*
X93100000Y-110550000D02*
X92600000Y-110550000D01*
X91600000Y-107050000D02*
X91100000Y-107050000D01*
X91100000Y-107050000D02*
X91100000Y-107550000D01*
X93100000Y-107550000D02*
X93100000Y-107050000D01*
X93100000Y-107050000D02*
X92600000Y-107050000D01*
X87950000Y-109300000D02*
X86650000Y-109300000D01*
X87950000Y-108300000D02*
X86650000Y-108300000D01*
X87950000Y-107800000D02*
X86650000Y-107800000D01*
X86650000Y-107800000D02*
X86650000Y-109800000D01*
X86650000Y-109800000D02*
X87950000Y-109800000D01*
X87950000Y-109800000D02*
X87950000Y-107800000D01*
X86800000Y-110550000D02*
X86300000Y-110550000D01*
X86300000Y-110550000D02*
X86300000Y-110050000D01*
X88300000Y-110050000D02*
X88300000Y-110550000D01*
X88300000Y-110550000D02*
X87800000Y-110550000D01*
X86800000Y-107050000D02*
X86300000Y-107050000D01*
X86300000Y-107050000D02*
X86300000Y-107550000D01*
X88300000Y-107550000D02*
X88300000Y-107050000D01*
X88300000Y-107050000D02*
X87800000Y-107050000D01*
X90350000Y-109300000D02*
X89050000Y-109300000D01*
X90350000Y-108300000D02*
X89050000Y-108300000D01*
X90350000Y-107800000D02*
X89050000Y-107800000D01*
X89050000Y-107800000D02*
X89050000Y-109800000D01*
X89050000Y-109800000D02*
X90350000Y-109800000D01*
X90350000Y-109800000D02*
X90350000Y-107800000D01*
X89200000Y-110550000D02*
X88700000Y-110550000D01*
X88700000Y-110550000D02*
X88700000Y-110050000D01*
X90700000Y-110050000D02*
X90700000Y-110550000D01*
X90700000Y-110550000D02*
X90200000Y-110550000D01*
X89200000Y-107050000D02*
X88700000Y-107050000D01*
X88700000Y-107050000D02*
X88700000Y-107550000D01*
X90700000Y-107550000D02*
X90700000Y-107050000D01*
X90700000Y-107050000D02*
X90200000Y-107050000D01*
X100608000Y-110850000D02*
X101108000Y-110850000D01*
X100608000Y-111350000D02*
X100608000Y-110850000D01*
X100608000Y-112350000D02*
X100608000Y-111850000D01*
X101108000Y-112350000D02*
X100608000Y-112350000D01*
X103608000Y-112350000D02*
X103108000Y-112350000D01*
X103608000Y-111850000D02*
X103608000Y-112350000D01*
X103608000Y-110850000D02*
X103608000Y-111350000D01*
X103608000Y-110850000D02*
X103108000Y-110850000D01*
X101308000Y-111200000D02*
X101308000Y-112000000D01*
X101308000Y-112000000D02*
X102908000Y-112000000D01*
X102908000Y-112000000D02*
X102908000Y-111200000D01*
X102908000Y-111200000D02*
X101308000Y-111200000D01*
D12*
X97700000Y-108500000D02*
X97700000Y-108000000D01*
X93700000Y-111500000D02*
X93700000Y-112000000D01*
X93700000Y-112000000D02*
X94200000Y-112000000D01*
X97200000Y-112000000D02*
X97700000Y-112000000D01*
X97700000Y-112000000D02*
X97700000Y-111500000D01*
X94200000Y-108000000D02*
X93700000Y-108000000D01*
X93700000Y-108000000D02*
X93700000Y-108500000D01*
X107380000Y-101160000D02*
X108930000Y-101160000D01*
X107380000Y-102460000D02*
X107380000Y-101160000D01*
X102400000Y-108500000D02*
X100000000Y-108500000D01*
X100000000Y-98100000D02*
X102400000Y-98100000D01*
X122900000Y-85960000D02*
X72100000Y-85960000D01*
X74640000Y-91040000D02*
X122900000Y-91040000D01*
X122900000Y-85960000D02*
X122900000Y-91040000D01*
X72100000Y-85960000D02*
X72100000Y-88500000D01*
X73370000Y-91320000D02*
X71820000Y-91320000D01*
X72100000Y-88500000D02*
X74640000Y-88500000D01*
X74640000Y-88500000D02*
X74640000Y-91040000D01*
X71820000Y-91320000D02*
X71820000Y-89770000D01*
X97389860Y-93281220D02*
X98860520Y-92920540D01*
X98860520Y-92920540D02*
X97798800Y-92641140D01*
X97798800Y-92641140D02*
X98870680Y-92331260D01*
X98870680Y-92331260D02*
X97420340Y-91990900D01*
X98080740Y-94701080D02*
X98070580Y-93911140D01*
X98070580Y-93911140D02*
X98080740Y-93900980D01*
X98080740Y-93900980D02*
X98070580Y-93900980D01*
X97359380Y-93860340D02*
X98901160Y-93860340D01*
X97349220Y-94749340D02*
X98918940Y-94749340D01*
X98918940Y-94749340D02*
X98908780Y-94739180D01*
X97450820Y-95300520D02*
X97369540Y-95651040D01*
X97369540Y-95651040D02*
X97359380Y-95971080D01*
X97359380Y-95971080D02*
X97560040Y-96209840D01*
X97560040Y-96209840D02*
X97829280Y-96240320D01*
X97829280Y-96240320D02*
X98070580Y-95999020D01*
X98070580Y-95999020D02*
X98200120Y-95610400D01*
X98200120Y-95610400D02*
X98360140Y-95430060D01*
X98360140Y-95430060D02*
X98659860Y-95389420D01*
X98659860Y-95389420D02*
X98880840Y-95620560D01*
X98880840Y-95620560D02*
X98908780Y-95940600D01*
X98908780Y-95940600D02*
X98799560Y-96291120D01*
X97349220Y-97329980D02*
X97369540Y-97578900D01*
X97369540Y-97578900D02*
X97610840Y-97820200D01*
X97610840Y-97820200D02*
X98101060Y-97909100D01*
X98101060Y-97909100D02*
X98449040Y-97881160D01*
X98449040Y-97881160D02*
X98769080Y-97680500D01*
X98769080Y-97680500D02*
X98891000Y-97429040D01*
X98891000Y-97429040D02*
X98819880Y-97119160D01*
X98819880Y-97119160D02*
X98639540Y-96900720D01*
X98639540Y-96900720D02*
X98179800Y-96829600D01*
X98179800Y-96829600D02*
X97770860Y-96880400D01*
X97770860Y-96880400D02*
X97488920Y-96989620D01*
X97488920Y-96989620D02*
X97359380Y-97350300D01*
X95629640Y-96730540D02*
X96190980Y-96989620D01*
X96190980Y-96989620D02*
X96709140Y-96451140D01*
X96709140Y-96451140D02*
X96439900Y-95930440D01*
X96439900Y-95930440D02*
X96599920Y-95651040D01*
X96579600Y-94210860D02*
X96389100Y-93880660D01*
X96389100Y-93880660D02*
X96719300Y-93441240D01*
X96719300Y-93441240D02*
X96229080Y-92968800D01*
X96229080Y-92968800D02*
X95749020Y-93250740D01*
X95749020Y-93250740D02*
X95279120Y-93060240D01*
X95279120Y-93060240D02*
X95091160Y-92450640D01*
X95091160Y-92450640D02*
X94410440Y-92450640D01*
X94410440Y-92450640D02*
X94270740Y-93009440D01*
X94270740Y-93009440D02*
X93699240Y-93210100D01*
X93699240Y-93210100D02*
X93229340Y-92940860D01*
X93229340Y-92940860D02*
X92718800Y-93410760D01*
X92718800Y-93410760D02*
X92980420Y-93928920D01*
X92980420Y-93928920D02*
X92779760Y-94398820D01*
X92779760Y-94398820D02*
X92238740Y-94569000D01*
X92238740Y-94569000D02*
X92220960Y-95259880D01*
X92220960Y-95259880D02*
X92769600Y-95470700D01*
X92769600Y-95470700D02*
X92939780Y-95889800D01*
X92939780Y-95889800D02*
X92670540Y-96440980D01*
X92670540Y-96440980D02*
X93198860Y-96959140D01*
X93198860Y-96959140D02*
X93739880Y-96710220D01*
X93739880Y-96710220D02*
X94219940Y-96880400D01*
X94219940Y-96880400D02*
X94319000Y-97429040D01*
X94319000Y-97429040D02*
X95020040Y-97439200D01*
X95020040Y-97439200D02*
X95220700Y-96880400D01*
X95220700Y-96880400D02*
X95619480Y-96740700D01*
X95599160Y-94599480D02*
X95449300Y-94299760D01*
X95449300Y-94299760D02*
X95251180Y-94099100D01*
X95251180Y-94099100D02*
X94849860Y-93949240D01*
X94849860Y-93949240D02*
X94451080Y-93949240D01*
X94451080Y-93949240D02*
X94100560Y-94099100D01*
X94100560Y-94099100D02*
X93750040Y-94551220D01*
X93750040Y-94551220D02*
X93699240Y-95000800D01*
X93699240Y-95000800D02*
X93800840Y-95399580D01*
X93800840Y-95399580D02*
X94148820Y-95800900D01*
X94148820Y-95800900D02*
X94600940Y-95950760D01*
X94600940Y-95950760D02*
X95098780Y-95899960D01*
X95098780Y-95899960D02*
X95401040Y-95651040D01*
X95401040Y-95651040D02*
X95599160Y-95300520D01*
X95599160Y-95300520D02*
X96599920Y-95651040D01*
X95599160Y-94599480D02*
X96599920Y-94200700D01*
X72752381Y-110461905D02*
X73561905Y-110461905D01*
X73657143Y-110414286D01*
X73704762Y-110366667D01*
X73752381Y-110271429D01*
X73752381Y-110080952D01*
X73704762Y-109985714D01*
X73657143Y-109938095D01*
X73561905Y-109890476D01*
X72752381Y-109890476D01*
X73752381Y-108890476D02*
X73752381Y-109461905D01*
X73752381Y-109176191D02*
X72752381Y-109176191D01*
X72895238Y-109271429D01*
X72990476Y-109366667D01*
X73038095Y-109461905D01*
X111852381Y-93688095D02*
X110852381Y-93688095D01*
X110852381Y-93307142D01*
X110900000Y-93211904D01*
X110947619Y-93164285D01*
X111042857Y-93116666D01*
X111185714Y-93116666D01*
X111280952Y-93164285D01*
X111328571Y-93211904D01*
X111376190Y-93307142D01*
X111376190Y-93688095D01*
X110852381Y-92783333D02*
X110852381Y-92164285D01*
X111233333Y-92497619D01*
X111233333Y-92354761D01*
X111280952Y-92259523D01*
X111328571Y-92211904D01*
X111423810Y-92164285D01*
X111661905Y-92164285D01*
X111757143Y-92211904D01*
X111804762Y-92259523D01*
X111852381Y-92354761D01*
X111852381Y-92640476D01*
X111804762Y-92735714D01*
X111757143Y-92783333D01*
D15*
X90844714Y-101127000D02*
X90481857Y-101381000D01*
X90844714Y-101562428D02*
X90082714Y-101562428D01*
X90082714Y-101272143D01*
X90119000Y-101199571D01*
X90155286Y-101163286D01*
X90227857Y-101127000D01*
X90336714Y-101127000D01*
X90409286Y-101163286D01*
X90445571Y-101199571D01*
X90481857Y-101272143D01*
X90481857Y-101562428D01*
X90082714Y-100437571D02*
X90082714Y-100800428D01*
X90445571Y-100836714D01*
X90409286Y-100800428D01*
X90373000Y-100727857D01*
X90373000Y-100546428D01*
X90409286Y-100473857D01*
X90445571Y-100437571D01*
X90518143Y-100401286D01*
X90699571Y-100401286D01*
X90772143Y-100437571D01*
X90808429Y-100473857D01*
X90844714Y-100546428D01*
X90844714Y-100727857D01*
X90808429Y-100800428D01*
X90772143Y-100836714D01*
X90844714Y-103127000D02*
X90481857Y-103381000D01*
X90844714Y-103562428D02*
X90082714Y-103562428D01*
X90082714Y-103272143D01*
X90119000Y-103199571D01*
X90155286Y-103163286D01*
X90227857Y-103127000D01*
X90336714Y-103127000D01*
X90409286Y-103163286D01*
X90445571Y-103199571D01*
X90481857Y-103272143D01*
X90481857Y-103562428D01*
X90082714Y-102473857D02*
X90082714Y-102619000D01*
X90119000Y-102691571D01*
X90155286Y-102727857D01*
X90264143Y-102800428D01*
X90409286Y-102836714D01*
X90699571Y-102836714D01*
X90772143Y-102800428D01*
X90808429Y-102764143D01*
X90844714Y-102691571D01*
X90844714Y-102546428D01*
X90808429Y-102473857D01*
X90772143Y-102437571D01*
X90699571Y-102401286D01*
X90518143Y-102401286D01*
X90445571Y-102437571D01*
X90409286Y-102473857D01*
X90373000Y-102546428D01*
X90373000Y-102691571D01*
X90409286Y-102764143D01*
X90445571Y-102800428D01*
X90518143Y-102836714D01*
X90844714Y-97127000D02*
X90481857Y-97381000D01*
X90844714Y-97562428D02*
X90082714Y-97562428D01*
X90082714Y-97272143D01*
X90119000Y-97199571D01*
X90155286Y-97163286D01*
X90227857Y-97127000D01*
X90336714Y-97127000D01*
X90409286Y-97163286D01*
X90445571Y-97199571D01*
X90481857Y-97272143D01*
X90481857Y-97562428D01*
X90082714Y-96873000D02*
X90082714Y-96401286D01*
X90373000Y-96655286D01*
X90373000Y-96546428D01*
X90409286Y-96473857D01*
X90445571Y-96437571D01*
X90518143Y-96401286D01*
X90699571Y-96401286D01*
X90772143Y-96437571D01*
X90808429Y-96473857D01*
X90844714Y-96546428D01*
X90844714Y-96764143D01*
X90808429Y-96836714D01*
X90772143Y-96873000D01*
X90844714Y-99127000D02*
X90481857Y-99381000D01*
X90844714Y-99562428D02*
X90082714Y-99562428D01*
X90082714Y-99272143D01*
X90119000Y-99199571D01*
X90155286Y-99163286D01*
X90227857Y-99127000D01*
X90336714Y-99127000D01*
X90409286Y-99163286D01*
X90445571Y-99199571D01*
X90481857Y-99272143D01*
X90481857Y-99562428D01*
X90336714Y-98473857D02*
X90844714Y-98473857D01*
X90046429Y-98655286D02*
X90590714Y-98836714D01*
X90590714Y-98365000D01*
X90844714Y-93127000D02*
X90481857Y-93381000D01*
X90844714Y-93562428D02*
X90082714Y-93562428D01*
X90082714Y-93272143D01*
X90119000Y-93199571D01*
X90155286Y-93163286D01*
X90227857Y-93127000D01*
X90336714Y-93127000D01*
X90409286Y-93163286D01*
X90445571Y-93199571D01*
X90481857Y-93272143D01*
X90481857Y-93562428D01*
X90844714Y-92401286D02*
X90844714Y-92836714D01*
X90844714Y-92619000D02*
X90082714Y-92619000D01*
X90191571Y-92691571D01*
X90264143Y-92764143D01*
X90300429Y-92836714D01*
X90844714Y-95127000D02*
X90481857Y-95381000D01*
X90844714Y-95562428D02*
X90082714Y-95562428D01*
X90082714Y-95272143D01*
X90119000Y-95199571D01*
X90155286Y-95163286D01*
X90227857Y-95127000D01*
X90336714Y-95127000D01*
X90409286Y-95163286D01*
X90445571Y-95199571D01*
X90481857Y-95272143D01*
X90481857Y-95562428D01*
X90155286Y-94836714D02*
X90119000Y-94800428D01*
X90082714Y-94727857D01*
X90082714Y-94546428D01*
X90119000Y-94473857D01*
X90155286Y-94437571D01*
X90227857Y-94401286D01*
X90300429Y-94401286D01*
X90409286Y-94437571D01*
X90844714Y-94873000D01*
X90844714Y-94401286D01*
X80522143Y-111947000D02*
X80558429Y-111983286D01*
X80594714Y-112092143D01*
X80594714Y-112164714D01*
X80558429Y-112273571D01*
X80485857Y-112346143D01*
X80413286Y-112382428D01*
X80268143Y-112418714D01*
X80159286Y-112418714D01*
X80014143Y-112382428D01*
X79941571Y-112346143D01*
X79869000Y-112273571D01*
X79832714Y-112164714D01*
X79832714Y-112092143D01*
X79869000Y-111983286D01*
X79905286Y-111947000D01*
X80594714Y-111221286D02*
X80594714Y-111656714D01*
X80594714Y-111439000D02*
X79832714Y-111439000D01*
X79941571Y-111511571D01*
X80014143Y-111584143D01*
X80050429Y-111656714D01*
X91872143Y-113277000D02*
X91908429Y-113313286D01*
X91944714Y-113422143D01*
X91944714Y-113494714D01*
X91908429Y-113603571D01*
X91835857Y-113676143D01*
X91763286Y-113712428D01*
X91618143Y-113748714D01*
X91509286Y-113748714D01*
X91364143Y-113712428D01*
X91291571Y-113676143D01*
X91219000Y-113603571D01*
X91182714Y-113494714D01*
X91182714Y-113422143D01*
X91219000Y-113313286D01*
X91255286Y-113277000D01*
X91182714Y-112587571D02*
X91182714Y-112950428D01*
X91545571Y-112986714D01*
X91509286Y-112950428D01*
X91473000Y-112877857D01*
X91473000Y-112696428D01*
X91509286Y-112623857D01*
X91545571Y-112587571D01*
X91618143Y-112551286D01*
X91799571Y-112551286D01*
X91872143Y-112587571D01*
X91908429Y-112623857D01*
X91944714Y-112696428D01*
X91944714Y-112877857D01*
X91908429Y-112950428D01*
X91872143Y-112986714D01*
X99172143Y-113627000D02*
X99208429Y-113663286D01*
X99244714Y-113772143D01*
X99244714Y-113844714D01*
X99208429Y-113953571D01*
X99135857Y-114026143D01*
X99063286Y-114062428D01*
X98918143Y-114098714D01*
X98809286Y-114098714D01*
X98664143Y-114062428D01*
X98591571Y-114026143D01*
X98519000Y-113953571D01*
X98482714Y-113844714D01*
X98482714Y-113772143D01*
X98519000Y-113663286D01*
X98555286Y-113627000D01*
X98482714Y-112973857D02*
X98482714Y-113119000D01*
X98519000Y-113191571D01*
X98555286Y-113227857D01*
X98664143Y-113300428D01*
X98809286Y-113336714D01*
X99099571Y-113336714D01*
X99172143Y-113300428D01*
X99208429Y-113264143D01*
X99244714Y-113191571D01*
X99244714Y-113046428D01*
X99208429Y-112973857D01*
X99172143Y-112937571D01*
X99099571Y-112901286D01*
X98918143Y-112901286D01*
X98845571Y-112937571D01*
X98809286Y-112973857D01*
X98773000Y-113046428D01*
X98773000Y-113191571D01*
X98809286Y-113264143D01*
X98845571Y-113300428D01*
X98918143Y-113336714D01*
X92372143Y-106427000D02*
X92408429Y-106463286D01*
X92444714Y-106572143D01*
X92444714Y-106644714D01*
X92408429Y-106753571D01*
X92335857Y-106826143D01*
X92263286Y-106862428D01*
X92118143Y-106898714D01*
X92009286Y-106898714D01*
X91864143Y-106862428D01*
X91791571Y-106826143D01*
X91719000Y-106753571D01*
X91682714Y-106644714D01*
X91682714Y-106572143D01*
X91719000Y-106463286D01*
X91755286Y-106427000D01*
X91936714Y-105773857D02*
X92444714Y-105773857D01*
X91646429Y-105955286D02*
X92190714Y-106136714D01*
X92190714Y-105665000D01*
X87572143Y-106427000D02*
X87608429Y-106463286D01*
X87644714Y-106572143D01*
X87644714Y-106644714D01*
X87608429Y-106753571D01*
X87535857Y-106826143D01*
X87463286Y-106862428D01*
X87318143Y-106898714D01*
X87209286Y-106898714D01*
X87064143Y-106862428D01*
X86991571Y-106826143D01*
X86919000Y-106753571D01*
X86882714Y-106644714D01*
X86882714Y-106572143D01*
X86919000Y-106463286D01*
X86955286Y-106427000D01*
X86955286Y-106136714D02*
X86919000Y-106100428D01*
X86882714Y-106027857D01*
X86882714Y-105846428D01*
X86919000Y-105773857D01*
X86955286Y-105737571D01*
X87027857Y-105701286D01*
X87100429Y-105701286D01*
X87209286Y-105737571D01*
X87644714Y-106173000D01*
X87644714Y-105701286D01*
X89972143Y-106427000D02*
X90008429Y-106463286D01*
X90044714Y-106572143D01*
X90044714Y-106644714D01*
X90008429Y-106753571D01*
X89935857Y-106826143D01*
X89863286Y-106862428D01*
X89718143Y-106898714D01*
X89609286Y-106898714D01*
X89464143Y-106862428D01*
X89391571Y-106826143D01*
X89319000Y-106753571D01*
X89282714Y-106644714D01*
X89282714Y-106572143D01*
X89319000Y-106463286D01*
X89355286Y-106427000D01*
X89282714Y-106173000D02*
X89282714Y-105701286D01*
X89573000Y-105955286D01*
X89573000Y-105846428D01*
X89609286Y-105773857D01*
X89645571Y-105737571D01*
X89718143Y-105701286D01*
X89899571Y-105701286D01*
X89972143Y-105737571D01*
X90008429Y-105773857D01*
X90044714Y-105846428D01*
X90044714Y-106064143D01*
X90008429Y-106136714D01*
X89972143Y-106173000D01*
X102444714Y-113327000D02*
X102081857Y-113581000D01*
X102444714Y-113762428D02*
X101682714Y-113762428D01*
X101682714Y-113472143D01*
X101719000Y-113399571D01*
X101755286Y-113363286D01*
X101827857Y-113327000D01*
X101936714Y-113327000D01*
X102009286Y-113363286D01*
X102045571Y-113399571D01*
X102081857Y-113472143D01*
X102081857Y-113762428D01*
X101682714Y-113073000D02*
X101682714Y-112565000D01*
X102444714Y-112891571D01*
D12*
X95152381Y-107561905D02*
X95961905Y-107561905D01*
X96057143Y-107514286D01*
X96104762Y-107466667D01*
X96152381Y-107371429D01*
X96152381Y-107180952D01*
X96104762Y-107085714D01*
X96057143Y-107038095D01*
X95961905Y-106990476D01*
X95152381Y-106990476D01*
X95247619Y-106561905D02*
X95200000Y-106514286D01*
X95152381Y-106419048D01*
X95152381Y-106180952D01*
X95200000Y-106085714D01*
X95247619Y-106038095D01*
X95342857Y-105990476D01*
X95438095Y-105990476D01*
X95580952Y-106038095D01*
X96152381Y-106609524D01*
X96152381Y-105990476D01*
X109852381Y-100788095D02*
X108852381Y-100788095D01*
X108852381Y-100407142D01*
X108900000Y-100311904D01*
X108947619Y-100264285D01*
X109042857Y-100216666D01*
X109185714Y-100216666D01*
X109280952Y-100264285D01*
X109328571Y-100311904D01*
X109376190Y-100407142D01*
X109376190Y-100788095D01*
X108947619Y-99835714D02*
X108900000Y-99788095D01*
X108852381Y-99692857D01*
X108852381Y-99454761D01*
X108900000Y-99359523D01*
X108947619Y-99311904D01*
X109042857Y-99264285D01*
X109138095Y-99264285D01*
X109280952Y-99311904D01*
X109852381Y-99883333D01*
X109852381Y-99264285D01*
X101652381Y-97266666D02*
X101652381Y-97742857D01*
X100652381Y-97742857D01*
X101652381Y-96409523D02*
X101652381Y-96980952D01*
X101652381Y-96695238D02*
X100652381Y-96695238D01*
X100795238Y-96790476D01*
X100890476Y-96885714D01*
X100938095Y-96980952D01*
%LPC*%
D16*
X128016000Y-93472000D03*
D17*
X126500000Y-88500000D03*
X126500000Y-111500000D03*
D18*
X82825000Y-105010000D03*
X82825000Y-103010000D03*
X82825000Y-101010000D03*
X82825000Y-99010000D03*
X82825000Y-97010000D03*
X82825000Y-95010000D03*
D19*
X67275000Y-107400000D03*
X69275000Y-107400000D03*
D20*
X71275000Y-107800000D03*
X73275000Y-107800000D03*
X75275000Y-107800000D03*
X77275000Y-107800000D03*
X79275000Y-107800000D03*
X81275000Y-107800000D03*
X81275000Y-92200000D03*
X79275000Y-92200000D03*
X77275000Y-92200000D03*
X75275000Y-92200000D03*
X73275000Y-92200000D03*
X71275000Y-92200000D03*
D19*
X69275000Y-92600000D03*
X67275000Y-92600000D03*
D17*
X68500000Y-88500000D03*
X68500000Y-111500000D03*
D21*
X114010000Y-97390000D03*
D22*
X114010000Y-95390000D03*
D23*
X88300000Y-101010000D03*
X86700000Y-101010000D03*
X88300000Y-103010000D03*
X86700000Y-103010000D03*
X88300000Y-97010000D03*
X86700000Y-97010000D03*
X88300000Y-99010000D03*
X86700000Y-99010000D03*
X88300000Y-93010000D03*
X86700000Y-93010000D03*
X88300000Y-95010000D03*
X86700000Y-95010000D03*
D24*
X81150000Y-110270000D03*
X79350000Y-110270000D03*
D25*
X92375000Y-111600000D03*
X90775000Y-111600000D03*
D26*
X98900000Y-111706000D03*
X98900000Y-109906000D03*
X92100000Y-107900000D03*
X92100000Y-109700000D03*
X87300000Y-107900000D03*
X87300000Y-109700000D03*
X89700000Y-107900000D03*
X89700000Y-109700000D03*
D23*
X101308000Y-111600000D03*
X102908000Y-111600000D03*
D27*
X96700000Y-108512500D03*
X96200000Y-108512500D03*
X95700000Y-108512500D03*
X95200000Y-108512500D03*
X94700000Y-108512500D03*
X94700000Y-111487500D03*
X95200000Y-111487500D03*
X95700000Y-111487500D03*
X96200000Y-111487500D03*
X96700000Y-111487500D03*
D28*
X95162500Y-109600000D03*
X95162500Y-110400000D03*
X96237500Y-110400000D03*
X96237500Y-109600000D03*
D29*
X95700000Y-110000000D03*
D30*
X108930000Y-102460000D03*
D31*
X111470000Y-102460000D03*
X114010000Y-102460000D03*
X116550000Y-102460000D03*
X119090000Y-102460000D03*
D16*
X73406000Y-113030000D03*
D32*
X105700000Y-103300000D03*
X96700000Y-103300000D03*
D33*
X73370000Y-89770000D03*
D34*
X73370000Y-87230000D03*
X75910000Y-89770000D03*
X75910000Y-87230000D03*
X78450000Y-89770000D03*
X78450000Y-87230000D03*
X80990000Y-89770000D03*
X80990000Y-87230000D03*
X83530000Y-89770000D03*
X83530000Y-87230000D03*
X86070000Y-89770000D03*
X86070000Y-87230000D03*
X88610000Y-89770000D03*
X88610000Y-87230000D03*
X91150000Y-89770000D03*
X91150000Y-87230000D03*
X93690000Y-89770000D03*
X93690000Y-87230000D03*
X96230000Y-89770000D03*
X96230000Y-87230000D03*
X98770000Y-89770000D03*
X98770000Y-87230000D03*
X101310000Y-89770000D03*
X101310000Y-87230000D03*
X103850000Y-89770000D03*
X103850000Y-87230000D03*
X106390000Y-89770000D03*
X106390000Y-87230000D03*
X108930000Y-89770000D03*
X108930000Y-87230000D03*
X111470000Y-89770000D03*
X111470000Y-87230000D03*
X114010000Y-89770000D03*
X114010000Y-87230000D03*
X116550000Y-89770000D03*
X116550000Y-87230000D03*
X119090000Y-89770000D03*
X119090000Y-87230000D03*
X121630000Y-89770000D03*
X121630000Y-87230000D03*
M02*
