M48
;DRILL file {KiCad 4.0.0-stable} date 1/17/2016 1:01:34 AM
;FORMAT={-:-/ absolute / inch / decimal}
FMAT,2
INCH,TZ
T1C0.016
T2C0.040
T3C0.108
%
G90
G05
M72
T1
X2.852Y-3.6772
X2.8607Y-3.3782
X2.874Y-3.8189
X2.874Y-3.937
X2.874Y-4.0551
X2.874Y-4.1732
X2.874Y-4.3307
X2.874Y-4.4882
X2.89Y-3.69
X2.9409Y-3.4803
X2.965Y-4.335
X2.97Y-3.69
X3.0128Y-3.7717
X3.0393Y-3.5678
X3.045Y-4.34
X3.0679Y-3.9596
X3.0935Y-3.7736
X3.0972Y-4.4858
X3.1201Y-4.3228
X3.123Y-3.9055
X3.1479Y-3.487
X3.166Y-3.587
X3.2029Y-3.3756
X3.2055Y-3.698
X3.21Y-4.33
X3.239Y-3.9625
X3.25Y-4.35
X3.2556Y-3.4861
X3.282Y-3.852
X3.2842Y-3.698
X3.2844Y-4.0581
X3.2864Y-4.1781
X3.34Y-4.48
X3.363Y-3.698
X3.3681Y-4.17
X3.38Y-4.38
X3.4Y-4.31
X3.4Y-4.48
X3.4193Y-4.0744
X3.4292Y-3.8986
X3.438Y-4.1594
X3.439Y-3.4839
X3.4449Y-3.7831
X3.4594Y-4.0138
X3.4602Y-4.0996
X3.4768Y-3.6857
X3.4871Y-4.3072
X3.532Y-4.188
X3.5438Y-3.6774
X3.5442Y-3.4725
X3.5488Y-4.0161
X3.5488Y-4.0953
X3.5847Y-3.714
X3.628Y-3.9555
X3.6365Y-3.5033
X3.6522Y-3.6076
X3.71Y-4.32
X3.7184Y-3.6293
X3.7422Y-3.4793
X3.7843Y-3.777
X3.7871Y-4.1858
X3.788Y-3.8189
X3.8062Y-3.9728
X3.8266Y-4.3768
X3.8383Y-3.482
X3.8399Y-3.5787
X3.8649Y-3.8189
X3.8664Y-3.7737
X3.8937Y-3.8571
X3.9213Y-4.4331
X3.9348Y-3.6077
X3.9724Y-3.77
X3.9815Y-4.0299
X4.002Y-4.1791
X4.0177Y-4.4941
X4.0293Y-3.4767
X4.0472Y-3.6059
X4.05Y-4.37
X4.1476Y-4.2461
X4.186Y-3.8583
X4.2387Y-3.5826
X4.2884Y-4.1949
X4.437Y-3.4882
X4.4409Y-3.8543
X4.5315Y-3.6339
X4.5394Y-3.4882
X4.6378Y-3.8701
X4.6378Y-4.0591
X4.6378Y-4.1604
X4.8346Y-3.8543
X4.8504Y-3.3858
X4.8622Y-4.4882
X5.0787Y-3.6142
X5.0787Y-4.252
T2
X2.8886Y-3.4343
X2.8886Y-3.5343
X2.9886Y-3.4343
X2.9886Y-3.5343
X3.0886Y-3.4343
X3.0886Y-3.5343
X3.1886Y-3.4343
X3.1886Y-3.5343
X3.2886Y-3.4343
X3.2886Y-3.5343
X3.3886Y-3.4343
X3.3886Y-3.5343
X3.4886Y-3.4343
X3.4886Y-3.5343
X3.5886Y-3.4343
X3.5886Y-3.5343
X3.6886Y-3.4343
X3.6886Y-3.5343
X3.7886Y-3.4343
X3.7886Y-3.5343
X3.8884Y-4.1083
X3.8886Y-3.4343
X3.8886Y-3.5343
X3.9884Y-4.1083
X3.9886Y-3.4343
X3.9886Y-3.5343
X4.0884Y-4.1083
X4.0886Y-3.4343
X4.0886Y-3.5343
X4.1884Y-4.1083
X4.1886Y-3.4343
X4.1886Y-3.5343
X4.2884Y-4.1083
X4.2886Y-3.4343
X4.2886Y-3.5343
X4.3884Y-4.1083
X4.3886Y-3.4343
X4.3886Y-3.5343
X4.4884Y-4.1083
X4.4886Y-3.4343
X4.4886Y-3.5343
X4.5884Y-4.1083
X4.5886Y-3.4343
X4.5886Y-3.5343
X4.6884Y-4.1083
X4.6886Y-3.4343
X4.6886Y-3.5343
X4.7884Y-4.1083
X4.7886Y-3.4343
X4.7886Y-3.5343
T3
X2.6969Y-3.4843
X2.6969Y-4.3898
X4.9803Y-3.4843
X4.9803Y-4.3898
T0
M30
