M48
;DRILL file {KiCad 4.0.2-4+6225~38~ubuntu15.10.1-stable} date Sun 20 Mar 2016 03:01:44 AM CDT
;FORMAT={-:-/ absolute / metric / decimal}
FMAT,2
METRIC,TZ
T1C0.330
T2C0.400
T3C0.600
T4C0.700
T5C1.016
%
G90
G05
M71
T1
X94.95Y-109.5
X94.95Y-110.5
X95.7Y-110.
X96.45Y-109.5
X96.45Y-110.5
T2
X65.8Y-91.35
X65.8Y-94.
X65.8Y-97.
X65.8Y-100.
X65.8Y-103.
X65.8Y-106.
X65.8Y-108.65
X70.866Y-104.902
X71.3Y-98.95
X71.4Y-85.75
X71.45Y-114.2
X72.5Y-110.998
X72.55Y-94.65
X74.32Y-95.49
X74.93Y-109.728
X75.25Y-104.902
X75.75Y-114.2
X75.8Y-110.4
X76.708Y-98.044
X76.95Y-96.15
X77.14Y-93.76
X78.24Y-109.98
X78.25Y-91.25
X78.3Y-105.918
X79.33Y-113.08
X79.502Y-101.092
X80.21Y-109.01
X80.247Y-91.25
X80.264Y-97.282
X80.264Y-106.426
X80.8Y-93.7
X82.45Y-108.65
X82.804Y-109.982
X83.3Y-93.8
X83.312Y-110.998
X83.4Y-91.5
X83.6Y-106.2
X83.8Y-113.09
X84.1Y-95.9
X84.85Y-88.45
X85.1Y-97.2
X85.1Y-99.6
X85.4Y-104.4
X85.6Y-102.
X85.81Y-109.7
X86.35Y-106.5
X86.428Y-110.96
X86.428Y-111.96
X87.3Y-91.5
X87.428Y-110.96
X87.428Y-111.96
X87.5Y-94.05
X87.5Y-96.
X87.5Y-100.
X87.5Y-102.
X87.5Y-104.2
X88.428Y-110.96
X88.428Y-111.96
X88.5Y-109.7
X89.35Y-97.05
X89.428Y-110.96
X89.428Y-111.96
X89.475Y-99.775
X89.475Y-101.275
X89.475Y-102.725
X89.475Y-104.3
X90.9Y-109.7
X91.8Y-91.05
X93.35Y-105.9
X93.6Y-102.6
X93.6Y-109.2
X93.6Y-110.1
X93.6Y-111.
X93.6Y-113.
X93.85Y-91.5
X95.45Y-113.15
X96.2Y-91.5
X96.4Y-99.8
X99.85Y-103.85
X100.Y-91.5
X100.05Y-88.5
X103.2Y-95.6
X103.45Y-112.95
X104.85Y-109.05
X106.15Y-108.85
X106.4Y-113.2
X107.1Y-105.7
X107.215Y-98.515
X107.215Y-99.515
X108.2Y-91.5
X108.215Y-98.515
X108.215Y-99.515
X108.897Y-94.895
X108.897Y-95.895
X109.897Y-94.895
X109.897Y-95.895
X110.179Y-98.545
X111.7Y-98.5
X111.9Y-91.5
X114.3Y-114.2
X114.5Y-91.5
X115.3Y-100.4
X117.4Y-93.1
X117.7Y-100.4
X117.85Y-88.5
X123.5Y-114.2
X123.6Y-85.8
X129.15Y-91.35
X129.15Y-100.
X129.2Y-108.65
T3
X73.99Y-102.53
X75.74Y-99.22
X84.7Y-112.1
T4
X114.01Y-95.39
X114.01Y-97.39
T5
X73.37Y-87.23
X73.37Y-89.77
X75.91Y-87.23
X75.91Y-89.77
X78.45Y-87.23
X78.45Y-89.77
X80.99Y-87.23
X80.99Y-89.77
X83.53Y-87.23
X83.53Y-89.77
X86.07Y-87.23
X86.07Y-89.77
X88.61Y-87.23
X88.61Y-89.77
X91.15Y-87.23
X91.15Y-89.77
X93.69Y-87.23
X93.69Y-89.77
X96.23Y-87.23
X96.23Y-89.77
X98.77Y-87.23
X98.77Y-89.77
X101.31Y-87.23
X101.31Y-89.77
X103.85Y-87.23
X103.85Y-89.77
X106.39Y-87.23
X106.39Y-89.77
X108.93Y-87.23
X108.93Y-89.77
X108.93Y-102.46
X111.47Y-87.23
X111.47Y-89.77
X111.47Y-102.46
X114.01Y-87.23
X114.01Y-89.77
X114.01Y-102.46
X116.55Y-87.23
X116.55Y-89.77
X116.55Y-102.46
X119.09Y-87.23
X119.09Y-89.77
X119.09Y-102.46
X121.63Y-87.23
X121.63Y-89.77
T0
M30
