G04 #@! TF.FileFunction,Paste,Top*
%FSLAX46Y46*%
G04 Gerber Fmt 4.6, Leading zero omitted, Abs format (unit mm)*
G04 Created by KiCad (PCBNEW 4.0.2-4+6225~38~ubuntu15.10.1-stable) date Sun 20 Mar 2016 03:01:37 AM CDT*
%MOMM*%
G01*
G04 APERTURE LIST*
%ADD10C,0.100000*%
%ADD11O,2.000000X1.100000*%
%ADD12R,1.100000X1.200000*%
%ADD13O,1.100000X2.000000*%
%ADD14R,0.900000X1.000000*%
%ADD15R,1.150000X1.450000*%
%ADD16R,0.950000X1.000000*%
%ADD17R,1.450000X1.150000*%
%ADD18R,1.000000X0.900000*%
%ADD19O,0.240000X0.785000*%
%ADD20R,0.775000X0.500000*%
%ADD21C,0.508000*%
G04 APERTURE END LIST*
D10*
D11*
X82825000Y-105010000D03*
X82825000Y-103010000D03*
X82825000Y-101010000D03*
X82825000Y-99010000D03*
X82825000Y-97010000D03*
X82825000Y-95010000D03*
D12*
X67275000Y-107400000D03*
X69275000Y-107400000D03*
D13*
X71275000Y-107800000D03*
X73275000Y-107800000D03*
X75275000Y-107800000D03*
X77275000Y-107800000D03*
X79275000Y-107800000D03*
X81275000Y-107800000D03*
X81275000Y-92200000D03*
X79275000Y-92200000D03*
X77275000Y-92200000D03*
X75275000Y-92200000D03*
X73275000Y-92200000D03*
X71275000Y-92200000D03*
D12*
X69275000Y-92600000D03*
X67275000Y-92600000D03*
D14*
X88300000Y-101010000D03*
X86700000Y-101010000D03*
X88300000Y-103010000D03*
X86700000Y-103010000D03*
X88300000Y-97010000D03*
X86700000Y-97010000D03*
X88300000Y-99010000D03*
X86700000Y-99010000D03*
X88300000Y-93010000D03*
X86700000Y-93010000D03*
X88300000Y-95010000D03*
X86700000Y-95010000D03*
D15*
X81150000Y-110270000D03*
X79350000Y-110270000D03*
D16*
X92375000Y-111600000D03*
X90775000Y-111600000D03*
D17*
X98900000Y-111706000D03*
X98900000Y-109906000D03*
X92100000Y-107900000D03*
X92100000Y-109700000D03*
X87300000Y-107900000D03*
X87300000Y-109700000D03*
X89700000Y-107900000D03*
X89700000Y-109700000D03*
D18*
X102000000Y-110250000D03*
X102000000Y-111850000D03*
D19*
X96700000Y-108512500D03*
X96200000Y-108512500D03*
X95700000Y-108512500D03*
X95200000Y-108512500D03*
X94700000Y-108512500D03*
X94700000Y-111487500D03*
X95200000Y-111487500D03*
X95700000Y-111487500D03*
X96200000Y-111487500D03*
X96700000Y-111487500D03*
D20*
X95162500Y-109600000D03*
X95162500Y-110400000D03*
X96237500Y-110400000D03*
X96237500Y-109600000D03*
D21*
X95700000Y-110000000D03*
X96450000Y-110500000D03*
X94950000Y-110500000D03*
X94950000Y-109500000D03*
X96450000Y-109500000D03*
D10*
G36*
X103445585Y-97958831D02*
X105991169Y-100504415D01*
X104718377Y-101777207D01*
X102172793Y-99231623D01*
X103445585Y-97958831D01*
X103445585Y-97958831D01*
G37*
G36*
X97081623Y-104322793D02*
X99627207Y-106868377D01*
X98354415Y-108141169D01*
X95808831Y-105595585D01*
X97081623Y-104322793D01*
X97081623Y-104322793D01*
G37*
D18*
X103750000Y-110250000D03*
X103750000Y-111850000D03*
X105500000Y-111850000D03*
X105500000Y-110250000D03*
M02*
