G04 #@! TF.FileFunction,Soldermask,Top*
%FSLAX46Y46*%
G04 Gerber Fmt 4.6, Leading zero omitted, Abs format (unit mm)*
G04 Created by KiCad (PCBNEW 4.0.0-stable) date 1/17/2016 1:01:26 AM*
%MOMM*%
G01*
G04 APERTURE LIST*
%ADD10C,0.150000*%
%ADD11R,1.900000X1.650000*%
%ADD12R,2.127200X2.127200*%
%ADD13O,2.127200X2.127200*%
%ADD14R,2.127200X2.432000*%
%ADD15O,2.127200X2.432000*%
%ADD16R,1.600000X1.300000*%
%ADD17C,6.500000*%
%ADD18O,2.400000X1.500000*%
%ADD19R,1.500000X2.400000*%
%ADD20O,1.500000X2.400000*%
%ADD21R,1.300000X1.600000*%
G04 APERTURE END LIST*
D10*
D11*
X119114000Y-101646000D03*
X121614000Y-101646000D03*
D12*
X73370000Y-89770000D03*
D13*
X73370000Y-87230000D03*
X75910000Y-89770000D03*
X75910000Y-87230000D03*
X78450000Y-89770000D03*
X78450000Y-87230000D03*
X80990000Y-89770000D03*
X80990000Y-87230000D03*
X83530000Y-89770000D03*
X83530000Y-87230000D03*
X86070000Y-89770000D03*
X86070000Y-87230000D03*
X88610000Y-89770000D03*
X88610000Y-87230000D03*
X91150000Y-89770000D03*
X91150000Y-87230000D03*
X93690000Y-89770000D03*
X93690000Y-87230000D03*
X96230000Y-89770000D03*
X96230000Y-87230000D03*
X98770000Y-89770000D03*
X98770000Y-87230000D03*
X101310000Y-89770000D03*
X101310000Y-87230000D03*
X103850000Y-89770000D03*
X103850000Y-87230000D03*
X106390000Y-89770000D03*
X106390000Y-87230000D03*
X108930000Y-89770000D03*
X108930000Y-87230000D03*
X111470000Y-89770000D03*
X111470000Y-87230000D03*
X114010000Y-89770000D03*
X114010000Y-87230000D03*
X116550000Y-89770000D03*
X116550000Y-87230000D03*
X119090000Y-89770000D03*
X119090000Y-87230000D03*
X121630000Y-89770000D03*
X121630000Y-87230000D03*
D11*
X121594000Y-99360000D03*
X119094000Y-99360000D03*
D14*
X98765000Y-104350000D03*
D15*
X101305000Y-104350000D03*
X103845000Y-104350000D03*
X106385000Y-104350000D03*
X108925000Y-104350000D03*
X111465000Y-104350000D03*
X114005000Y-104350000D03*
X116545000Y-104350000D03*
X119085000Y-104350000D03*
X121625000Y-104350000D03*
D16*
X95100000Y-105010000D03*
X92900000Y-105010000D03*
X95100000Y-103010000D03*
X92900000Y-103010000D03*
X95100000Y-97010000D03*
X92900000Y-97010000D03*
X95100000Y-95010000D03*
X92900000Y-95010000D03*
X95105400Y-99034600D03*
X92905400Y-99034600D03*
D11*
X91002800Y-108077000D03*
X93502800Y-108077000D03*
D17*
X68500000Y-111500000D03*
X126500000Y-111500000D03*
X126500000Y-88500000D03*
X68500000Y-88500000D03*
D18*
X88969200Y-105010000D03*
X88969200Y-103010000D03*
X88969200Y-101010000D03*
X88969200Y-99010000D03*
X88969200Y-97010000D03*
X88969200Y-95010000D03*
D19*
X73419200Y-107800000D03*
D20*
X75419200Y-107800000D03*
X77419200Y-107800000D03*
X79419200Y-107800000D03*
X81419200Y-107800000D03*
X83419200Y-107800000D03*
X85419200Y-107800000D03*
X87419200Y-107800000D03*
X87419200Y-92200000D03*
X85419200Y-92200000D03*
X83419200Y-92200000D03*
X81419200Y-92200000D03*
X79419200Y-92200000D03*
X77419200Y-92200000D03*
X75419200Y-92200000D03*
X73419200Y-92200000D03*
D11*
X114054000Y-99360000D03*
X116554000Y-99360000D03*
X116554000Y-101646000D03*
X114054000Y-101646000D03*
D21*
X116600000Y-93180000D03*
X116600000Y-95380000D03*
X119000000Y-93180000D03*
X119000000Y-95380000D03*
D16*
X114438000Y-97328000D03*
X116638000Y-97328000D03*
X121126000Y-97328000D03*
X118926000Y-97328000D03*
M02*
