G04 #@! TF.FileFunction,Soldermask,Bot*
%FSLAX46Y46*%
G04 Gerber Fmt 4.6, Leading zero omitted, Abs format (unit mm)*
G04 Created by KiCad (PCBNEW 4.0.0-stable) date 2/14/2016 1:15:28 AM*
%MOMM*%
G01*
G04 APERTURE LIST*
%ADD10C,0.100000*%
%ADD11C,6.500000*%
%ADD12R,1.430000X1.125200*%
%ADD13R,1.860000X1.360000*%
%ADD14O,1.860000X1.360000*%
%ADD15R,1.125200X1.430000*%
%ADD16R,1.887200X2.192000*%
%ADD17O,1.887200X2.192000*%
%ADD18R,1.887200X1.887200*%
%ADD19O,1.887200X1.887200*%
G04 APERTURE END LIST*
D10*
D11*
X126500000Y-88500000D03*
X126500000Y-111500000D03*
D12*
X78439137Y-94869000D03*
X78439137Y-96139000D03*
D11*
X68500000Y-88500000D03*
X68500000Y-111500000D03*
D13*
X114010000Y-97390000D03*
D14*
X114010000Y-95390000D03*
D15*
X106195000Y-111120000D03*
X104925000Y-111120000D03*
X111470000Y-100000000D03*
X110200000Y-100000000D03*
D16*
X108930000Y-102460000D03*
D17*
X111470000Y-102460000D03*
X114010000Y-102460000D03*
X116550000Y-102460000D03*
X119090000Y-102460000D03*
D18*
X73370000Y-89770000D03*
D19*
X73370000Y-87230000D03*
X75910000Y-89770000D03*
X75910000Y-87230000D03*
X78450000Y-89770000D03*
X78450000Y-87230000D03*
X80990000Y-89770000D03*
X80990000Y-87230000D03*
X83530000Y-89770000D03*
X83530000Y-87230000D03*
X86070000Y-89770000D03*
X86070000Y-87230000D03*
X88610000Y-89770000D03*
X88610000Y-87230000D03*
X91150000Y-89770000D03*
X91150000Y-87230000D03*
X93690000Y-89770000D03*
X93690000Y-87230000D03*
X96230000Y-89770000D03*
X96230000Y-87230000D03*
X98770000Y-89770000D03*
X98770000Y-87230000D03*
X101310000Y-89770000D03*
X101310000Y-87230000D03*
X103850000Y-89770000D03*
X103850000Y-87230000D03*
X106390000Y-89770000D03*
X106390000Y-87230000D03*
X108930000Y-89770000D03*
X108930000Y-87230000D03*
X111470000Y-89770000D03*
X111470000Y-87230000D03*
X114010000Y-89770000D03*
X114010000Y-87230000D03*
X116550000Y-89770000D03*
X116550000Y-87230000D03*
X119090000Y-89770000D03*
X119090000Y-87230000D03*
X121630000Y-89770000D03*
X121630000Y-87230000D03*
M02*
