G04 #@! TF.FileFunction,Legend,Top*
%FSLAX46Y46*%
G04 Gerber Fmt 4.6, Leading zero omitted, Abs format (unit mm)*
G04 Created by KiCad (PCBNEW 4.0.0-stable) date 1/17/2016 1:01:26 AM*
%MOMM*%
G01*
G04 APERTURE LIST*
%ADD10C,0.150000*%
%ADD11C,0.300000*%
%ADD12R,1.900000X1.650000*%
%ADD13R,2.127200X2.127200*%
%ADD14O,2.127200X2.127200*%
%ADD15R,2.127200X2.432000*%
%ADD16O,2.127200X2.432000*%
%ADD17R,1.600000X1.300000*%
%ADD18C,6.500000*%
%ADD19O,2.400000X1.500000*%
%ADD20R,1.500000X2.400000*%
%ADD21O,1.500000X2.400000*%
%ADD22R,1.300000X1.600000*%
G04 APERTURE END LIST*
D10*
D11*
X77892857Y-105071428D02*
X77892857Y-104571428D01*
X78678571Y-104357142D02*
X78678571Y-105071428D01*
X77178571Y-105071428D01*
X77178571Y-104357142D01*
X78607143Y-103785714D02*
X78678571Y-103571428D01*
X78678571Y-103214285D01*
X78607143Y-103071428D01*
X78535714Y-102999999D01*
X78392857Y-102928571D01*
X78250000Y-102928571D01*
X78107143Y-102999999D01*
X78035714Y-103071428D01*
X77964286Y-103214285D01*
X77892857Y-103499999D01*
X77821429Y-103642857D01*
X77750000Y-103714285D01*
X77607143Y-103785714D01*
X77464286Y-103785714D01*
X77321429Y-103714285D01*
X77250000Y-103642857D01*
X77178571Y-103499999D01*
X77178571Y-103142857D01*
X77250000Y-102928571D01*
X78678571Y-102285714D02*
X77178571Y-102285714D01*
X77178571Y-101714286D01*
X77250000Y-101571428D01*
X77321429Y-101500000D01*
X77464286Y-101428571D01*
X77678571Y-101428571D01*
X77821429Y-101500000D01*
X77892857Y-101571428D01*
X77964286Y-101714286D01*
X77964286Y-102285714D01*
X78107143Y-100785714D02*
X78107143Y-99642857D01*
X78678571Y-98142857D02*
X78678571Y-99000000D01*
X78678571Y-98571428D02*
X77178571Y-98571428D01*
X77392857Y-98714285D01*
X77535714Y-98857143D01*
X77607143Y-99000000D01*
X77321429Y-97571429D02*
X77250000Y-97500000D01*
X77178571Y-97357143D01*
X77178571Y-97000000D01*
X77250000Y-96857143D01*
X77321429Y-96785714D01*
X77464286Y-96714286D01*
X77607143Y-96714286D01*
X77821429Y-96785714D01*
X78678571Y-97642857D01*
X78678571Y-96714286D01*
X77892857Y-96071429D02*
X77892857Y-95571429D01*
X78678571Y-95357143D02*
X78678571Y-96071429D01*
X77178571Y-96071429D01*
X77178571Y-95357143D01*
X81078571Y-100821428D02*
X81007143Y-100964286D01*
X80935714Y-101035714D01*
X80792857Y-101107143D01*
X80364286Y-101107143D01*
X80221429Y-101035714D01*
X80150000Y-100964286D01*
X80078571Y-100821428D01*
X80078571Y-100607143D01*
X80150000Y-100464286D01*
X80221429Y-100392857D01*
X80364286Y-100321428D01*
X80792857Y-100321428D01*
X80935714Y-100392857D01*
X81007143Y-100464286D01*
X81078571Y-100607143D01*
X81078571Y-100821428D01*
X81078571Y-99678571D02*
X80078571Y-99678571D01*
X80364286Y-99678571D02*
X80221429Y-99607143D01*
X80150000Y-99535714D01*
X80078571Y-99392857D01*
X80078571Y-99250000D01*
X82692857Y-105035713D02*
X82692857Y-104535713D01*
X83478571Y-104321427D02*
X83478571Y-105035713D01*
X81978571Y-105035713D01*
X81978571Y-104321427D01*
X83407143Y-103749999D02*
X83478571Y-103535713D01*
X83478571Y-103178570D01*
X83407143Y-103035713D01*
X83335714Y-102964284D01*
X83192857Y-102892856D01*
X83050000Y-102892856D01*
X82907143Y-102964284D01*
X82835714Y-103035713D01*
X82764286Y-103178570D01*
X82692857Y-103464284D01*
X82621429Y-103607142D01*
X82550000Y-103678570D01*
X82407143Y-103749999D01*
X82264286Y-103749999D01*
X82121429Y-103678570D01*
X82050000Y-103607142D01*
X81978571Y-103464284D01*
X81978571Y-103107142D01*
X82050000Y-102892856D01*
X83478571Y-102249999D02*
X81978571Y-102249999D01*
X81978571Y-101678571D01*
X82050000Y-101535713D01*
X82121429Y-101464285D01*
X82264286Y-101392856D01*
X82478571Y-101392856D01*
X82621429Y-101464285D01*
X82692857Y-101535713D01*
X82764286Y-101678571D01*
X82764286Y-102249999D01*
X82907143Y-100749999D02*
X82907143Y-99607142D01*
X83478571Y-98107142D02*
X83478571Y-98964285D01*
X83478571Y-98535713D02*
X81978571Y-98535713D01*
X82192857Y-98678570D01*
X82335714Y-98821428D01*
X82407143Y-98964285D01*
X82121429Y-97535714D02*
X82050000Y-97464285D01*
X81978571Y-97321428D01*
X81978571Y-96964285D01*
X82050000Y-96821428D01*
X82121429Y-96749999D01*
X82264286Y-96678571D01*
X82407143Y-96678571D01*
X82621429Y-96749999D01*
X83478571Y-97607142D01*
X83478571Y-96678571D01*
X82692857Y-95535714D02*
X82692857Y-96035714D01*
X83478571Y-96035714D02*
X81978571Y-96035714D01*
X81978571Y-95321428D01*
D10*
X120864000Y-100796000D02*
X119864000Y-100796000D01*
X119864000Y-102496000D02*
X120864000Y-102496000D01*
X119844000Y-100210000D02*
X120844000Y-100210000D01*
X120844000Y-98510000D02*
X119844000Y-98510000D01*
X97215000Y-103050000D02*
X98765000Y-103050000D01*
X97215000Y-104350000D02*
X97215000Y-103050000D01*
X98638000Y-108541000D02*
X98638000Y-114383000D01*
X98638000Y-114383000D02*
X98892000Y-114383000D01*
X98892000Y-114383000D02*
X98892000Y-108541000D01*
X98892000Y-108541000D02*
X98765000Y-108541000D01*
X98765000Y-108541000D02*
X98765000Y-114383000D01*
X116291000Y-105874000D02*
X116291000Y-105493000D01*
X116799000Y-105874000D02*
X116799000Y-105493000D01*
X118831000Y-105874000D02*
X118831000Y-105493000D01*
X119339000Y-105874000D02*
X119339000Y-105493000D01*
X121371000Y-105874000D02*
X121371000Y-105493000D01*
X121879000Y-105874000D02*
X121879000Y-105493000D01*
X98511000Y-105874000D02*
X98511000Y-105493000D01*
X99019000Y-105874000D02*
X99019000Y-105493000D01*
X101051000Y-105874000D02*
X101051000Y-105493000D01*
X101559000Y-105874000D02*
X101559000Y-105493000D01*
X103591000Y-105874000D02*
X103591000Y-105493000D01*
X104099000Y-105874000D02*
X104099000Y-105493000D01*
X114259000Y-105874000D02*
X114259000Y-105493000D01*
X113751000Y-105874000D02*
X113751000Y-105493000D01*
X111719000Y-105874000D02*
X111719000Y-105493000D01*
X111211000Y-105874000D02*
X111211000Y-105493000D01*
X109179000Y-105874000D02*
X109179000Y-105493000D01*
X108671000Y-105874000D02*
X108671000Y-105493000D01*
X106639000Y-105874000D02*
X106639000Y-105493000D01*
X106131000Y-105874000D02*
X106131000Y-105493000D01*
X112735000Y-105874000D02*
X112735000Y-108414000D01*
X112735000Y-105874000D02*
X115275000Y-105874000D01*
X115275000Y-105874000D02*
X115275000Y-108414000D01*
X113751000Y-108414000D02*
X113751000Y-114510000D01*
X113751000Y-114510000D02*
X114259000Y-114510000D01*
X114259000Y-114510000D02*
X114259000Y-108414000D01*
X115275000Y-108414000D02*
X112735000Y-108414000D01*
X117815000Y-108414000D02*
X115275000Y-108414000D01*
X116799000Y-114510000D02*
X116799000Y-108414000D01*
X116291000Y-114510000D02*
X116799000Y-114510000D01*
X116291000Y-108414000D02*
X116291000Y-114510000D01*
X117815000Y-105874000D02*
X117815000Y-108414000D01*
X115275000Y-105874000D02*
X117815000Y-105874000D01*
X115275000Y-105874000D02*
X115275000Y-108414000D01*
X120355000Y-105874000D02*
X120355000Y-108414000D01*
X120355000Y-105874000D02*
X122895000Y-105874000D01*
X121371000Y-108414000D02*
X121371000Y-114510000D01*
X121371000Y-114510000D02*
X121879000Y-114510000D01*
X121879000Y-114510000D02*
X121879000Y-108414000D01*
X122895000Y-108414000D02*
X120355000Y-108414000D01*
X120355000Y-108414000D02*
X117815000Y-108414000D01*
X119339000Y-114510000D02*
X119339000Y-108414000D01*
X118831000Y-114510000D02*
X119339000Y-114510000D01*
X118831000Y-108414000D02*
X118831000Y-114510000D01*
X120355000Y-105874000D02*
X120355000Y-108414000D01*
X117815000Y-105874000D02*
X120355000Y-105874000D01*
X117815000Y-105874000D02*
X117815000Y-108414000D01*
X122895000Y-105874000D02*
X122895000Y-108414000D01*
X97495000Y-105874000D02*
X97495000Y-108414000D01*
X100035000Y-105874000D02*
X100035000Y-108414000D01*
X100035000Y-105874000D02*
X102575000Y-105874000D01*
X102575000Y-105874000D02*
X102575000Y-108414000D01*
X101051000Y-108414000D02*
X101051000Y-114510000D01*
X101051000Y-114510000D02*
X101559000Y-114510000D01*
X101559000Y-114510000D02*
X101559000Y-108414000D01*
X102575000Y-108414000D02*
X100035000Y-108414000D01*
X100035000Y-108414000D02*
X97495000Y-108414000D01*
X99019000Y-114510000D02*
X99019000Y-108414000D01*
X98511000Y-114510000D02*
X99019000Y-114510000D01*
X98511000Y-108414000D02*
X98511000Y-114510000D01*
X100035000Y-105874000D02*
X100035000Y-108414000D01*
X97495000Y-105874000D02*
X100035000Y-105874000D01*
X107655000Y-105874000D02*
X107655000Y-108414000D01*
X107655000Y-105874000D02*
X110195000Y-105874000D01*
X110195000Y-105874000D02*
X110195000Y-108414000D01*
X108671000Y-108414000D02*
X108671000Y-114510000D01*
X108671000Y-114510000D02*
X109179000Y-114510000D01*
X109179000Y-114510000D02*
X109179000Y-108414000D01*
X110195000Y-108414000D02*
X107655000Y-108414000D01*
X112735000Y-108414000D02*
X110195000Y-108414000D01*
X111719000Y-114510000D02*
X111719000Y-108414000D01*
X111211000Y-114510000D02*
X111719000Y-114510000D01*
X111211000Y-108414000D02*
X111211000Y-114510000D01*
X112735000Y-105874000D02*
X112735000Y-108414000D01*
X110195000Y-105874000D02*
X112735000Y-105874000D01*
X110195000Y-105874000D02*
X110195000Y-108414000D01*
X105115000Y-105874000D02*
X105115000Y-108414000D01*
X105115000Y-105874000D02*
X107655000Y-105874000D01*
X107655000Y-105874000D02*
X107655000Y-108414000D01*
X106131000Y-108414000D02*
X106131000Y-114510000D01*
X106131000Y-114510000D02*
X106639000Y-114510000D01*
X106639000Y-114510000D02*
X106639000Y-108414000D01*
X107655000Y-108414000D02*
X105115000Y-108414000D01*
X105115000Y-108414000D02*
X102575000Y-108414000D01*
X104099000Y-114510000D02*
X104099000Y-108414000D01*
X103591000Y-114510000D02*
X104099000Y-114510000D01*
X103591000Y-108414000D02*
X103591000Y-114510000D01*
X105115000Y-105874000D02*
X105115000Y-108414000D01*
X102575000Y-105874000D02*
X105115000Y-105874000D01*
X102575000Y-105874000D02*
X102575000Y-108414000D01*
X93500000Y-104335000D02*
X94500000Y-104335000D01*
X94500000Y-105685000D02*
X93500000Y-105685000D01*
X93500000Y-102335000D02*
X94500000Y-102335000D01*
X94500000Y-103685000D02*
X93500000Y-103685000D01*
X93500000Y-96335000D02*
X94500000Y-96335000D01*
X94500000Y-97685000D02*
X93500000Y-97685000D01*
X93500000Y-94335000D02*
X94500000Y-94335000D01*
X94500000Y-95685000D02*
X93500000Y-95685000D01*
X93505400Y-98359600D02*
X94505400Y-98359600D01*
X94505400Y-99709600D02*
X93505400Y-99709600D01*
X92752800Y-107227000D02*
X91752800Y-107227000D01*
X91752800Y-108927000D02*
X92752800Y-108927000D01*
X115804000Y-98510000D02*
X114804000Y-98510000D01*
X114804000Y-100210000D02*
X115804000Y-100210000D01*
X114804000Y-102496000D02*
X115804000Y-102496000D01*
X115804000Y-100796000D02*
X114804000Y-100796000D01*
X115925000Y-94780000D02*
X115925000Y-93780000D01*
X117275000Y-93780000D02*
X117275000Y-94780000D01*
X118325000Y-94780000D02*
X118325000Y-93780000D01*
X119675000Y-93780000D02*
X119675000Y-94780000D01*
X116038000Y-98003000D02*
X115038000Y-98003000D01*
X115038000Y-96653000D02*
X116038000Y-96653000D01*
X119526000Y-96653000D02*
X120526000Y-96653000D01*
X120526000Y-98003000D02*
X119526000Y-98003000D01*
X107993780Y-100739860D02*
X108354460Y-102210520D01*
X108354460Y-102210520D02*
X108633860Y-101148800D01*
X108633860Y-101148800D02*
X108943740Y-102220680D01*
X108943740Y-102220680D02*
X109284100Y-100770340D01*
X106573920Y-101430740D02*
X107363860Y-101420580D01*
X107363860Y-101420580D02*
X107374020Y-101430740D01*
X107374020Y-101430740D02*
X107374020Y-101420580D01*
X107414660Y-100709380D02*
X107414660Y-102251160D01*
X106525660Y-100699220D02*
X106525660Y-102268940D01*
X106525660Y-102268940D02*
X106535820Y-102258780D01*
X105974480Y-100800820D02*
X105623960Y-100719540D01*
X105623960Y-100719540D02*
X105303920Y-100709380D01*
X105303920Y-100709380D02*
X105065160Y-100910040D01*
X105065160Y-100910040D02*
X105034680Y-101179280D01*
X105034680Y-101179280D02*
X105275980Y-101420580D01*
X105275980Y-101420580D02*
X105664600Y-101550120D01*
X105664600Y-101550120D02*
X105844940Y-101710140D01*
X105844940Y-101710140D02*
X105885580Y-102009860D01*
X105885580Y-102009860D02*
X105654440Y-102230840D01*
X105654440Y-102230840D02*
X105334400Y-102258780D01*
X105334400Y-102258780D02*
X104983880Y-102149560D01*
X103945020Y-100699220D02*
X103696100Y-100719540D01*
X103696100Y-100719540D02*
X103454800Y-100960840D01*
X103454800Y-100960840D02*
X103365900Y-101451060D01*
X103365900Y-101451060D02*
X103393840Y-101799040D01*
X103393840Y-101799040D02*
X103594500Y-102119080D01*
X103594500Y-102119080D02*
X103845960Y-102241000D01*
X103845960Y-102241000D02*
X104155840Y-102169880D01*
X104155840Y-102169880D02*
X104374280Y-101989540D01*
X104374280Y-101989540D02*
X104445400Y-101529800D01*
X104445400Y-101529800D02*
X104394600Y-101120860D01*
X104394600Y-101120860D02*
X104285380Y-100838920D01*
X104285380Y-100838920D02*
X103924700Y-100709380D01*
X104544460Y-98979640D02*
X104285380Y-99540980D01*
X104285380Y-99540980D02*
X104823860Y-100059140D01*
X104823860Y-100059140D02*
X105344560Y-99789900D01*
X105344560Y-99789900D02*
X105623960Y-99949920D01*
X107064140Y-99929600D02*
X107394340Y-99739100D01*
X107394340Y-99739100D02*
X107833760Y-100069300D01*
X107833760Y-100069300D02*
X108306200Y-99579080D01*
X108306200Y-99579080D02*
X108024260Y-99099020D01*
X108024260Y-99099020D02*
X108214760Y-98629120D01*
X108214760Y-98629120D02*
X108824360Y-98441160D01*
X108824360Y-98441160D02*
X108824360Y-97760440D01*
X108824360Y-97760440D02*
X108265560Y-97620740D01*
X108265560Y-97620740D02*
X108064900Y-97049240D01*
X108064900Y-97049240D02*
X108334140Y-96579340D01*
X108334140Y-96579340D02*
X107864240Y-96068800D01*
X107864240Y-96068800D02*
X107346080Y-96330420D01*
X107346080Y-96330420D02*
X106876180Y-96129760D01*
X106876180Y-96129760D02*
X106706000Y-95588740D01*
X106706000Y-95588740D02*
X106015120Y-95570960D01*
X106015120Y-95570960D02*
X105804300Y-96119600D01*
X105804300Y-96119600D02*
X105385200Y-96289780D01*
X105385200Y-96289780D02*
X104834020Y-96020540D01*
X104834020Y-96020540D02*
X104315860Y-96548860D01*
X104315860Y-96548860D02*
X104564780Y-97089880D01*
X104564780Y-97089880D02*
X104394600Y-97569940D01*
X104394600Y-97569940D02*
X103845960Y-97669000D01*
X103845960Y-97669000D02*
X103835800Y-98370040D01*
X103835800Y-98370040D02*
X104394600Y-98570700D01*
X104394600Y-98570700D02*
X104534300Y-98969480D01*
X106675520Y-98949160D02*
X106975240Y-98799300D01*
X106975240Y-98799300D02*
X107175900Y-98601180D01*
X107175900Y-98601180D02*
X107325760Y-98199860D01*
X107325760Y-98199860D02*
X107325760Y-97801080D01*
X107325760Y-97801080D02*
X107175900Y-97450560D01*
X107175900Y-97450560D02*
X106723780Y-97100040D01*
X106723780Y-97100040D02*
X106274200Y-97049240D01*
X106274200Y-97049240D02*
X105875420Y-97150840D01*
X105875420Y-97150840D02*
X105474100Y-97498820D01*
X105474100Y-97498820D02*
X105324240Y-97950940D01*
X105324240Y-97950940D02*
X105375040Y-98448780D01*
X105375040Y-98448780D02*
X105623960Y-98751040D01*
X105623960Y-98751040D02*
X105974480Y-98949160D01*
X105974480Y-98949160D02*
X105623960Y-99949920D01*
X106675520Y-98949160D02*
X107074300Y-99949920D01*
X123553334Y-101937143D02*
X123505715Y-101984762D01*
X123362858Y-102032381D01*
X123267620Y-102032381D01*
X123124762Y-101984762D01*
X123029524Y-101889524D01*
X122981905Y-101794286D01*
X122934286Y-101603810D01*
X122934286Y-101460952D01*
X122981905Y-101270476D01*
X123029524Y-101175238D01*
X123124762Y-101080000D01*
X123267620Y-101032381D01*
X123362858Y-101032381D01*
X123505715Y-101080000D01*
X123553334Y-101127619D01*
X124458096Y-101032381D02*
X123981905Y-101032381D01*
X123934286Y-101508571D01*
X123981905Y-101460952D01*
X124077143Y-101413333D01*
X124315239Y-101413333D01*
X124410477Y-101460952D01*
X124458096Y-101508571D01*
X124505715Y-101603810D01*
X124505715Y-101841905D01*
X124458096Y-101937143D01*
X124410477Y-101984762D01*
X124315239Y-102032381D01*
X124077143Y-102032381D01*
X123981905Y-101984762D01*
X123934286Y-101937143D01*
X123543334Y-99737143D02*
X123495715Y-99784762D01*
X123352858Y-99832381D01*
X123257620Y-99832381D01*
X123114762Y-99784762D01*
X123019524Y-99689524D01*
X122971905Y-99594286D01*
X122924286Y-99403810D01*
X122924286Y-99260952D01*
X122971905Y-99070476D01*
X123019524Y-98975238D01*
X123114762Y-98880000D01*
X123257620Y-98832381D01*
X123352858Y-98832381D01*
X123495715Y-98880000D01*
X123543334Y-98927619D01*
X123876667Y-98832381D02*
X124495715Y-98832381D01*
X124162381Y-99213333D01*
X124305239Y-99213333D01*
X124400477Y-99260952D01*
X124448096Y-99308571D01*
X124495715Y-99403810D01*
X124495715Y-99641905D01*
X124448096Y-99737143D01*
X124400477Y-99784762D01*
X124305239Y-99832381D01*
X124019524Y-99832381D01*
X123924286Y-99784762D01*
X123876667Y-99737143D01*
X98331905Y-102372381D02*
X98331905Y-101372381D01*
X98712858Y-101372381D01*
X98808096Y-101420000D01*
X98855715Y-101467619D01*
X98903334Y-101562857D01*
X98903334Y-101705714D01*
X98855715Y-101800952D01*
X98808096Y-101848571D01*
X98712858Y-101896190D01*
X98331905Y-101896190D01*
X99284286Y-101467619D02*
X99331905Y-101420000D01*
X99427143Y-101372381D01*
X99665239Y-101372381D01*
X99760477Y-101420000D01*
X99808096Y-101467619D01*
X99855715Y-101562857D01*
X99855715Y-101658095D01*
X99808096Y-101800952D01*
X99236667Y-102372381D01*
X99855715Y-102372381D01*
X91033334Y-105452381D02*
X90700000Y-104976190D01*
X90461905Y-105452381D02*
X90461905Y-104452381D01*
X90842858Y-104452381D01*
X90938096Y-104500000D01*
X90985715Y-104547619D01*
X91033334Y-104642857D01*
X91033334Y-104785714D01*
X90985715Y-104880952D01*
X90938096Y-104928571D01*
X90842858Y-104976190D01*
X90461905Y-104976190D01*
X91985715Y-105452381D02*
X91414286Y-105452381D01*
X91700000Y-105452381D02*
X91700000Y-104452381D01*
X91604762Y-104595238D01*
X91509524Y-104690476D01*
X91414286Y-104738095D01*
X91033334Y-103482381D02*
X90700000Y-103006190D01*
X90461905Y-103482381D02*
X90461905Y-102482381D01*
X90842858Y-102482381D01*
X90938096Y-102530000D01*
X90985715Y-102577619D01*
X91033334Y-102672857D01*
X91033334Y-102815714D01*
X90985715Y-102910952D01*
X90938096Y-102958571D01*
X90842858Y-103006190D01*
X90461905Y-103006190D01*
X91414286Y-102577619D02*
X91461905Y-102530000D01*
X91557143Y-102482381D01*
X91795239Y-102482381D01*
X91890477Y-102530000D01*
X91938096Y-102577619D01*
X91985715Y-102672857D01*
X91985715Y-102768095D01*
X91938096Y-102910952D01*
X91366667Y-103482381D01*
X91985715Y-103482381D01*
X91033334Y-97462381D02*
X90700000Y-96986190D01*
X90461905Y-97462381D02*
X90461905Y-96462381D01*
X90842858Y-96462381D01*
X90938096Y-96510000D01*
X90985715Y-96557619D01*
X91033334Y-96652857D01*
X91033334Y-96795714D01*
X90985715Y-96890952D01*
X90938096Y-96938571D01*
X90842858Y-96986190D01*
X90461905Y-96986190D01*
X91890477Y-96795714D02*
X91890477Y-97462381D01*
X91652381Y-96414762D02*
X91414286Y-97129048D01*
X92033334Y-97129048D01*
X91033334Y-95462381D02*
X90700000Y-94986190D01*
X90461905Y-95462381D02*
X90461905Y-94462381D01*
X90842858Y-94462381D01*
X90938096Y-94510000D01*
X90985715Y-94557619D01*
X91033334Y-94652857D01*
X91033334Y-94795714D01*
X90985715Y-94890952D01*
X90938096Y-94938571D01*
X90842858Y-94986190D01*
X90461905Y-94986190D01*
X91938096Y-94462381D02*
X91461905Y-94462381D01*
X91414286Y-94938571D01*
X91461905Y-94890952D01*
X91557143Y-94843333D01*
X91795239Y-94843333D01*
X91890477Y-94890952D01*
X91938096Y-94938571D01*
X91985715Y-95033810D01*
X91985715Y-95271905D01*
X91938096Y-95367143D01*
X91890477Y-95414762D01*
X91795239Y-95462381D01*
X91557143Y-95462381D01*
X91461905Y-95414762D01*
X91414286Y-95367143D01*
X91038734Y-99502381D02*
X90705400Y-99026190D01*
X90467305Y-99502381D02*
X90467305Y-98502381D01*
X90848258Y-98502381D01*
X90943496Y-98550000D01*
X90991115Y-98597619D01*
X91038734Y-98692857D01*
X91038734Y-98835714D01*
X90991115Y-98930952D01*
X90943496Y-98978571D01*
X90848258Y-99026190D01*
X90467305Y-99026190D01*
X91372067Y-98502381D02*
X91991115Y-98502381D01*
X91657781Y-98883333D01*
X91800639Y-98883333D01*
X91895877Y-98930952D01*
X91943496Y-98978571D01*
X91991115Y-99073810D01*
X91991115Y-99311905D01*
X91943496Y-99407143D01*
X91895877Y-99454762D01*
X91800639Y-99502381D01*
X91514924Y-99502381D01*
X91419686Y-99454762D01*
X91372067Y-99407143D01*
X95433334Y-108557143D02*
X95385715Y-108604762D01*
X95242858Y-108652381D01*
X95147620Y-108652381D01*
X95004762Y-108604762D01*
X94909524Y-108509524D01*
X94861905Y-108414286D01*
X94814286Y-108223810D01*
X94814286Y-108080952D01*
X94861905Y-107890476D01*
X94909524Y-107795238D01*
X95004762Y-107700000D01*
X95147620Y-107652381D01*
X95242858Y-107652381D01*
X95385715Y-107700000D01*
X95433334Y-107747619D01*
X96385715Y-108652381D02*
X95814286Y-108652381D01*
X96100000Y-108652381D02*
X96100000Y-107652381D01*
X96004762Y-107795238D01*
X95909524Y-107890476D01*
X95814286Y-107938095D01*
X72892381Y-111821905D02*
X73701905Y-111821905D01*
X73797143Y-111774286D01*
X73844762Y-111726667D01*
X73892381Y-111631429D01*
X73892381Y-111440952D01*
X73844762Y-111345714D01*
X73797143Y-111298095D01*
X73701905Y-111250476D01*
X72892381Y-111250476D01*
X73892381Y-110250476D02*
X73892381Y-110821905D01*
X73892381Y-110536191D02*
X72892381Y-110536191D01*
X73035238Y-110631429D01*
X73130476Y-110726667D01*
X73178095Y-110821905D01*
X111753334Y-99737143D02*
X111705715Y-99784762D01*
X111562858Y-99832381D01*
X111467620Y-99832381D01*
X111324762Y-99784762D01*
X111229524Y-99689524D01*
X111181905Y-99594286D01*
X111134286Y-99403810D01*
X111134286Y-99260952D01*
X111181905Y-99070476D01*
X111229524Y-98975238D01*
X111324762Y-98880000D01*
X111467620Y-98832381D01*
X111562858Y-98832381D01*
X111705715Y-98880000D01*
X111753334Y-98927619D01*
X112134286Y-98927619D02*
X112181905Y-98880000D01*
X112277143Y-98832381D01*
X112515239Y-98832381D01*
X112610477Y-98880000D01*
X112658096Y-98927619D01*
X112705715Y-99022857D01*
X112705715Y-99118095D01*
X112658096Y-99260952D01*
X112086667Y-99832381D01*
X112705715Y-99832381D01*
X111753334Y-101977143D02*
X111705715Y-102024762D01*
X111562858Y-102072381D01*
X111467620Y-102072381D01*
X111324762Y-102024762D01*
X111229524Y-101929524D01*
X111181905Y-101834286D01*
X111134286Y-101643810D01*
X111134286Y-101500952D01*
X111181905Y-101310476D01*
X111229524Y-101215238D01*
X111324762Y-101120000D01*
X111467620Y-101072381D01*
X111562858Y-101072381D01*
X111705715Y-101120000D01*
X111753334Y-101167619D01*
X112610477Y-101405714D02*
X112610477Y-102072381D01*
X112372381Y-101024762D02*
X112134286Y-101739048D01*
X112753334Y-101739048D01*
X114633334Y-94732381D02*
X114300000Y-94256190D01*
X114061905Y-94732381D02*
X114061905Y-93732381D01*
X114442858Y-93732381D01*
X114538096Y-93780000D01*
X114585715Y-93827619D01*
X114633334Y-93922857D01*
X114633334Y-94065714D01*
X114585715Y-94160952D01*
X114538096Y-94208571D01*
X114442858Y-94256190D01*
X114061905Y-94256190D01*
X115490477Y-93732381D02*
X115300000Y-93732381D01*
X115204762Y-93780000D01*
X115157143Y-93827619D01*
X115061905Y-93970476D01*
X115014286Y-94160952D01*
X115014286Y-94541905D01*
X115061905Y-94637143D01*
X115109524Y-94684762D01*
X115204762Y-94732381D01*
X115395239Y-94732381D01*
X115490477Y-94684762D01*
X115538096Y-94637143D01*
X115585715Y-94541905D01*
X115585715Y-94303810D01*
X115538096Y-94208571D01*
X115490477Y-94160952D01*
X115395239Y-94113333D01*
X115204762Y-94113333D01*
X115109524Y-94160952D01*
X115061905Y-94208571D01*
X115014286Y-94303810D01*
X120633334Y-94852381D02*
X120300000Y-94376190D01*
X120061905Y-94852381D02*
X120061905Y-93852381D01*
X120442858Y-93852381D01*
X120538096Y-93900000D01*
X120585715Y-93947619D01*
X120633334Y-94042857D01*
X120633334Y-94185714D01*
X120585715Y-94280952D01*
X120538096Y-94328571D01*
X120442858Y-94376190D01*
X120061905Y-94376190D01*
X120966667Y-93852381D02*
X121633334Y-93852381D01*
X121204762Y-94852381D01*
X112233334Y-97452381D02*
X111900000Y-96976190D01*
X111661905Y-97452381D02*
X111661905Y-96452381D01*
X112042858Y-96452381D01*
X112138096Y-96500000D01*
X112185715Y-96547619D01*
X112233334Y-96642857D01*
X112233334Y-96785714D01*
X112185715Y-96880952D01*
X112138096Y-96928571D01*
X112042858Y-96976190D01*
X111661905Y-96976190D01*
X112804762Y-96880952D02*
X112709524Y-96833333D01*
X112661905Y-96785714D01*
X112614286Y-96690476D01*
X112614286Y-96642857D01*
X112661905Y-96547619D01*
X112709524Y-96500000D01*
X112804762Y-96452381D01*
X112995239Y-96452381D01*
X113090477Y-96500000D01*
X113138096Y-96547619D01*
X113185715Y-96642857D01*
X113185715Y-96690476D01*
X113138096Y-96785714D01*
X113090477Y-96833333D01*
X112995239Y-96880952D01*
X112804762Y-96880952D01*
X112709524Y-96928571D01*
X112661905Y-96976190D01*
X112614286Y-97071429D01*
X112614286Y-97261905D01*
X112661905Y-97357143D01*
X112709524Y-97404762D01*
X112804762Y-97452381D01*
X112995239Y-97452381D01*
X113090477Y-97404762D01*
X113138096Y-97357143D01*
X113185715Y-97261905D01*
X113185715Y-97071429D01*
X113138096Y-96976190D01*
X113090477Y-96928571D01*
X112995239Y-96880952D01*
X123033334Y-97452381D02*
X122700000Y-96976190D01*
X122461905Y-97452381D02*
X122461905Y-96452381D01*
X122842858Y-96452381D01*
X122938096Y-96500000D01*
X122985715Y-96547619D01*
X123033334Y-96642857D01*
X123033334Y-96785714D01*
X122985715Y-96880952D01*
X122938096Y-96928571D01*
X122842858Y-96976190D01*
X122461905Y-96976190D01*
X123509524Y-97452381D02*
X123700000Y-97452381D01*
X123795239Y-97404762D01*
X123842858Y-97357143D01*
X123938096Y-97214286D01*
X123985715Y-97023810D01*
X123985715Y-96642857D01*
X123938096Y-96547619D01*
X123890477Y-96500000D01*
X123795239Y-96452381D01*
X123604762Y-96452381D01*
X123509524Y-96500000D01*
X123461905Y-96547619D01*
X123414286Y-96642857D01*
X123414286Y-96880952D01*
X123461905Y-96976190D01*
X123509524Y-97023810D01*
X123604762Y-97071429D01*
X123795239Y-97071429D01*
X123890477Y-97023810D01*
X123938096Y-96976190D01*
X123985715Y-96880952D01*
%LPC*%
D12*
X119114000Y-101646000D03*
X121614000Y-101646000D03*
D13*
X73370000Y-89770000D03*
D14*
X73370000Y-87230000D03*
X75910000Y-89770000D03*
X75910000Y-87230000D03*
X78450000Y-89770000D03*
X78450000Y-87230000D03*
X80990000Y-89770000D03*
X80990000Y-87230000D03*
X83530000Y-89770000D03*
X83530000Y-87230000D03*
X86070000Y-89770000D03*
X86070000Y-87230000D03*
X88610000Y-89770000D03*
X88610000Y-87230000D03*
X91150000Y-89770000D03*
X91150000Y-87230000D03*
X93690000Y-89770000D03*
X93690000Y-87230000D03*
X96230000Y-89770000D03*
X96230000Y-87230000D03*
X98770000Y-89770000D03*
X98770000Y-87230000D03*
X101310000Y-89770000D03*
X101310000Y-87230000D03*
X103850000Y-89770000D03*
X103850000Y-87230000D03*
X106390000Y-89770000D03*
X106390000Y-87230000D03*
X108930000Y-89770000D03*
X108930000Y-87230000D03*
X111470000Y-89770000D03*
X111470000Y-87230000D03*
X114010000Y-89770000D03*
X114010000Y-87230000D03*
X116550000Y-89770000D03*
X116550000Y-87230000D03*
X119090000Y-89770000D03*
X119090000Y-87230000D03*
X121630000Y-89770000D03*
X121630000Y-87230000D03*
D12*
X121594000Y-99360000D03*
X119094000Y-99360000D03*
D15*
X98765000Y-104350000D03*
D16*
X101305000Y-104350000D03*
X103845000Y-104350000D03*
X106385000Y-104350000D03*
X108925000Y-104350000D03*
X111465000Y-104350000D03*
X114005000Y-104350000D03*
X116545000Y-104350000D03*
X119085000Y-104350000D03*
X121625000Y-104350000D03*
D17*
X95100000Y-105010000D03*
X92900000Y-105010000D03*
X95100000Y-103010000D03*
X92900000Y-103010000D03*
X95100000Y-97010000D03*
X92900000Y-97010000D03*
X95100000Y-95010000D03*
X92900000Y-95010000D03*
X95105400Y-99034600D03*
X92905400Y-99034600D03*
D12*
X91002800Y-108077000D03*
X93502800Y-108077000D03*
D18*
X68500000Y-111500000D03*
X126500000Y-111500000D03*
X126500000Y-88500000D03*
X68500000Y-88500000D03*
D19*
X88969200Y-105010000D03*
X88969200Y-103010000D03*
X88969200Y-101010000D03*
X88969200Y-99010000D03*
X88969200Y-97010000D03*
X88969200Y-95010000D03*
D20*
X73419200Y-107800000D03*
D21*
X75419200Y-107800000D03*
X77419200Y-107800000D03*
X79419200Y-107800000D03*
X81419200Y-107800000D03*
X83419200Y-107800000D03*
X85419200Y-107800000D03*
X87419200Y-107800000D03*
X87419200Y-92200000D03*
X85419200Y-92200000D03*
X83419200Y-92200000D03*
X81419200Y-92200000D03*
X79419200Y-92200000D03*
X77419200Y-92200000D03*
X75419200Y-92200000D03*
X73419200Y-92200000D03*
D12*
X114054000Y-99360000D03*
X116554000Y-99360000D03*
X116554000Y-101646000D03*
X114054000Y-101646000D03*
D22*
X116600000Y-93180000D03*
X116600000Y-95380000D03*
X119000000Y-93180000D03*
X119000000Y-95380000D03*
D17*
X114438000Y-97328000D03*
X116638000Y-97328000D03*
X121126000Y-97328000D03*
X118926000Y-97328000D03*
M02*
