G04 #@! TF.FileFunction,Copper,L1,Top,Signal*
%FSLAX46Y46*%
G04 Gerber Fmt 4.6, Leading zero omitted, Abs format (unit mm)*
G04 Created by KiCad (PCBNEW 4.0.0-stable) date 1/17/2016 1:01:26 AM*
%MOMM*%
G01*
G04 APERTURE LIST*
%ADD10C,0.150000*%
%ADD11C,0.690000*%
%ADD12R,1.500000X1.250000*%
%ADD13R,1.727200X1.727200*%
%ADD14O,1.727200X1.727200*%
%ADD15R,1.727200X2.032000*%
%ADD16O,1.727200X2.032000*%
%ADD17R,1.200000X0.900000*%
%ADD18O,2.000000X1.100000*%
%ADD19R,1.100000X2.000000*%
%ADD20O,1.100000X2.000000*%
%ADD21R,0.900000X1.200000*%
%ADD22C,0.685800*%
%ADD23C,0.800000*%
%ADD24C,0.250000*%
%ADD25C,0.500000*%
%ADD26C,0.254000*%
G04 APERTURE END LIST*
D10*
D11*
X79250000Y-109800000D03*
X106325000Y-98000000D03*
X105350000Y-107850000D03*
X108925000Y-106550000D03*
X117800000Y-105675000D03*
X72440000Y-93400000D03*
X86850000Y-103490000D03*
X101130000Y-102360000D03*
X90140000Y-102010000D03*
X90140000Y-104020000D03*
X78670000Y-113940000D03*
X87500000Y-96090000D03*
X99600000Y-112600000D03*
X102050000Y-114150000D03*
X123200000Y-86000000D03*
X129000000Y-91800000D03*
X129000000Y-108000000D03*
X123500000Y-114000000D03*
X74700000Y-88400000D03*
X73000000Y-97000000D03*
X73000000Y-100000000D03*
X73000000Y-103000000D03*
X73000000Y-106000000D03*
X73000000Y-110000000D03*
X73000000Y-114000000D03*
X122800000Y-97900000D03*
X112800000Y-97900000D03*
X115300000Y-88600000D03*
X112700000Y-88600000D03*
X115100000Y-92300000D03*
X117800000Y-103100000D03*
X117800000Y-98300000D03*
D12*
X119114000Y-101646000D03*
X121614000Y-101646000D03*
D13*
X73370000Y-89770000D03*
D14*
X73370000Y-87230000D03*
X75910000Y-89770000D03*
X75910000Y-87230000D03*
X78450000Y-89770000D03*
X78450000Y-87230000D03*
X80990000Y-89770000D03*
X80990000Y-87230000D03*
X83530000Y-89770000D03*
X83530000Y-87230000D03*
X86070000Y-89770000D03*
X86070000Y-87230000D03*
X88610000Y-89770000D03*
X88610000Y-87230000D03*
X91150000Y-89770000D03*
X91150000Y-87230000D03*
X93690000Y-89770000D03*
X93690000Y-87230000D03*
X96230000Y-89770000D03*
X96230000Y-87230000D03*
X98770000Y-89770000D03*
X98770000Y-87230000D03*
X101310000Y-89770000D03*
X101310000Y-87230000D03*
X103850000Y-89770000D03*
X103850000Y-87230000D03*
X106390000Y-89770000D03*
X106390000Y-87230000D03*
X108930000Y-89770000D03*
X108930000Y-87230000D03*
X111470000Y-89770000D03*
X111470000Y-87230000D03*
X114010000Y-89770000D03*
X114010000Y-87230000D03*
X116550000Y-89770000D03*
X116550000Y-87230000D03*
X119090000Y-89770000D03*
X119090000Y-87230000D03*
X121630000Y-89770000D03*
X121630000Y-87230000D03*
D12*
X121594000Y-99360000D03*
X119094000Y-99360000D03*
D15*
X98765000Y-104350000D03*
D16*
X101305000Y-104350000D03*
X103845000Y-104350000D03*
X106385000Y-104350000D03*
X108925000Y-104350000D03*
X111465000Y-104350000D03*
X114005000Y-104350000D03*
X116545000Y-104350000D03*
X119085000Y-104350000D03*
X121625000Y-104350000D03*
D11*
X85852000Y-111252000D03*
X81534000Y-109982000D03*
X84836000Y-113792000D03*
X101650000Y-106150000D03*
X83425000Y-103075000D03*
X83475000Y-106125000D03*
X86360000Y-109474000D03*
X85550000Y-105918000D03*
X77925000Y-100575000D03*
X76525000Y-95800000D03*
X79325000Y-99200000D03*
X100900000Y-95758000D03*
X97195640Y-111170720D03*
X82692240Y-88546940D03*
X78575000Y-95850000D03*
X98900000Y-97970000D03*
X92151200Y-100469700D03*
X88572340Y-109402880D03*
X107662980Y-90998040D03*
X102798880Y-91589860D03*
X72661780Y-85806280D03*
X81353660Y-85740240D03*
X102344220Y-88308180D03*
X99943920Y-91635580D03*
X91051380Y-94335600D03*
X94234000Y-109728000D03*
X96192340Y-106319320D03*
X89712800Y-106375200D03*
X87101680Y-99024440D03*
X88310720Y-93616780D03*
X96677480Y-100909120D03*
X97533460Y-90898980D03*
X98206560Y-95851980D03*
X94447360Y-92184220D03*
X90012520Y-93405960D03*
X92765880Y-91633040D03*
D17*
X95100000Y-105010000D03*
X92900000Y-105010000D03*
X95100000Y-103010000D03*
X92900000Y-103010000D03*
X95100000Y-97010000D03*
X92900000Y-97010000D03*
X95100000Y-95010000D03*
X92900000Y-95010000D03*
X95105400Y-99034600D03*
X92905400Y-99034600D03*
D12*
X91002800Y-108077000D03*
X93502800Y-108077000D03*
D18*
X88969200Y-105010000D03*
X88969200Y-103010000D03*
X88969200Y-101010000D03*
X88969200Y-99010000D03*
X88969200Y-97010000D03*
X88969200Y-95010000D03*
D19*
X73419200Y-107800000D03*
D20*
X75419200Y-107800000D03*
X77419200Y-107800000D03*
X79419200Y-107800000D03*
X81419200Y-107800000D03*
X83419200Y-107800000D03*
X85419200Y-107800000D03*
X87419200Y-107800000D03*
X87419200Y-92200000D03*
X85419200Y-92200000D03*
X83419200Y-92200000D03*
X81419200Y-92200000D03*
X79419200Y-92200000D03*
X77419200Y-92200000D03*
X75419200Y-92200000D03*
X73419200Y-92200000D03*
D11*
X96121220Y-95935800D03*
D12*
X114054000Y-99360000D03*
X116554000Y-99360000D03*
X116554000Y-101646000D03*
X114054000Y-101646000D03*
D21*
X116600000Y-93180000D03*
X116600000Y-95380000D03*
X119000000Y-93180000D03*
X119000000Y-95380000D03*
D17*
X114438000Y-97328000D03*
X116638000Y-97328000D03*
X121126000Y-97328000D03*
X118926000Y-97328000D03*
D22*
X97492820Y-88442800D03*
X95051880Y-88374220D03*
X87350000Y-88490000D03*
X90022141Y-88200354D03*
X79956660Y-88569800D03*
D23*
X83362800Y-97840800D03*
D22*
X82270328Y-100647140D03*
D23*
X87325000Y-105650000D03*
D22*
X92366525Y-88983045D03*
X96215300Y-97000000D03*
X98167910Y-97000000D03*
X82550000Y-110489996D03*
X77343000Y-110236000D03*
X85419200Y-93930000D03*
X87870000Y-101950000D03*
X87890000Y-104130000D03*
X83419200Y-93930000D03*
X81419200Y-93930000D03*
X75438000Y-93726000D03*
X73406000Y-93725998D03*
X75311000Y-110109000D03*
X80416400Y-91109800D03*
D23*
X102870000Y-110998000D03*
X86360000Y-113792000D03*
X77199263Y-90621218D03*
D24*
X97424240Y-88374220D02*
X97492820Y-88442800D01*
X95085780Y-88374220D02*
X95051880Y-88374220D01*
X96230000Y-87230000D02*
X95085780Y-88374220D01*
X90022141Y-88200354D02*
X90022141Y-88317469D01*
X78450000Y-87230000D02*
X78616860Y-87230000D01*
X78616860Y-87230000D02*
X79956660Y-88569800D01*
X87419200Y-92200000D02*
X87350000Y-92130800D01*
X87350000Y-92130800D02*
X87350000Y-88490000D01*
X87350000Y-88490000D02*
X88610000Y-87230000D01*
D25*
X86512400Y-96926400D02*
X85598000Y-97840800D01*
X85598000Y-97840800D02*
X83362800Y-97840800D01*
X86512400Y-94606800D02*
X86512400Y-96926400D01*
X87419200Y-92200000D02*
X87419200Y-93700000D01*
X87419200Y-93700000D02*
X86512400Y-94606800D01*
D24*
X114005360Y-104531160D02*
X114005360Y-104378760D01*
X114466868Y-97454322D02*
X114290028Y-97277482D01*
X114456708Y-99387642D02*
X114466868Y-99377482D01*
X86410800Y-98120200D02*
X83883860Y-100647140D01*
X94041000Y-98120200D02*
X86410800Y-98120200D01*
X94955400Y-99034600D02*
X94041000Y-98120200D01*
X95105400Y-99034600D02*
X94955400Y-99034600D01*
X82755261Y-100647140D02*
X82270328Y-100647140D01*
X83883860Y-100647140D02*
X82755261Y-100647140D01*
D25*
X87325000Y-106215685D02*
X87325000Y-105650000D01*
X87325000Y-107905800D02*
X87325000Y-106215685D01*
X87419200Y-108000000D02*
X87325000Y-107905800D01*
X91002800Y-108077000D02*
X87496200Y-108077000D01*
X87496200Y-108077000D02*
X87419200Y-108000000D01*
D24*
X87419200Y-106951800D02*
X87419200Y-108000000D01*
X91150000Y-89305960D02*
X90705940Y-88861900D01*
X91150000Y-89770000D02*
X91150000Y-89305960D01*
X89918540Y-91523820D02*
X89342519Y-92099841D01*
X89918540Y-89057480D02*
X89918540Y-91523820D01*
X90114120Y-88861900D02*
X89918540Y-89057480D01*
X90705940Y-88861900D02*
X90114120Y-88861900D01*
X91805965Y-93730093D02*
X91853468Y-93682590D01*
X89690919Y-94075961D02*
X90334121Y-94075961D01*
X89342519Y-93727561D02*
X89690919Y-94075961D01*
X89342519Y-92099841D02*
X89342519Y-93727561D01*
X90855800Y-93070680D02*
X91018919Y-92907561D01*
X90855800Y-93554282D02*
X90855800Y-93070680D01*
X90334121Y-94075961D02*
X90855800Y-93554282D01*
X91085675Y-92915082D02*
X91149084Y-92937270D01*
X91018919Y-92907561D02*
X91085675Y-92915082D01*
X91149084Y-92937270D02*
X91205965Y-92973011D01*
X91205965Y-92973011D02*
X91253468Y-93020514D01*
X91253468Y-93020514D02*
X91289209Y-93077395D01*
X91289209Y-93077395D02*
X91311397Y-93140804D01*
X91311397Y-93140804D02*
X91318919Y-93207561D01*
X91348628Y-93625709D02*
X91384369Y-93682590D01*
X91318919Y-93207561D02*
X91318919Y-93495544D01*
X91318919Y-93495544D02*
X91326440Y-93562300D01*
X91326440Y-93562300D02*
X91348628Y-93625709D01*
X91384369Y-93682590D02*
X91431872Y-93730093D01*
X91431872Y-93730093D02*
X91488753Y-93765834D01*
X91488753Y-93765834D02*
X91552162Y-93788022D01*
X91552162Y-93788022D02*
X91618919Y-93795544D01*
X91618919Y-93795544D02*
X91685675Y-93788022D01*
X94431872Y-92973011D02*
X94488753Y-92937270D01*
X95506200Y-93368200D02*
X95506200Y-93903800D01*
X91749084Y-93765834D02*
X91805965Y-93730093D01*
X91685675Y-93788022D02*
X91749084Y-93765834D01*
X91853468Y-93682590D02*
X91889209Y-93625709D01*
X91911397Y-93562300D02*
X91918919Y-93495544D01*
X91889209Y-93625709D02*
X91911397Y-93562300D01*
X91918919Y-93495544D02*
X91918919Y-92569578D01*
X91948628Y-92439413D02*
X91984369Y-92382532D01*
X91926440Y-92502822D02*
X91948628Y-92439413D01*
X91918919Y-92569578D02*
X91926440Y-92502822D01*
X94384369Y-93020514D02*
X94431872Y-92973011D01*
X91984369Y-92382532D02*
X92031872Y-92335029D01*
X93711397Y-92402822D02*
X93718919Y-92469578D01*
X92152162Y-92277100D02*
X92218919Y-92269578D01*
X92088753Y-92299288D02*
X92152162Y-92277100D01*
X92031872Y-92335029D02*
X92088753Y-92299288D01*
X92218919Y-92269578D02*
X92285675Y-92277100D01*
X92285675Y-92277100D02*
X92349084Y-92299288D01*
X92405965Y-92335029D02*
X92453468Y-92382532D01*
X92349084Y-92299288D02*
X92405965Y-92335029D01*
X92453468Y-92382532D02*
X92489209Y-92439413D01*
X94205965Y-93730093D02*
X94253468Y-93682590D01*
X94318919Y-93207561D02*
X94326440Y-93140804D01*
X94552162Y-92915082D02*
X94618919Y-92907561D01*
X95100000Y-94310000D02*
X95100000Y-95010000D01*
X92489209Y-92439413D02*
X92511397Y-92502822D01*
X92511397Y-92502822D02*
X92518919Y-92569578D01*
X92518919Y-93495544D02*
X92526440Y-93562300D01*
X92518919Y-92569578D02*
X92518919Y-93495544D01*
X92548628Y-93625709D02*
X92584369Y-93682590D01*
X92526440Y-93562300D02*
X92548628Y-93625709D01*
X92584369Y-93682590D02*
X92631872Y-93730093D01*
X92631872Y-93730093D02*
X92688753Y-93765834D01*
X92688753Y-93765834D02*
X92752162Y-93788022D01*
X93748628Y-93625709D02*
X93784369Y-93682590D01*
X93831872Y-93730093D02*
X93888753Y-93765834D01*
X92752162Y-93788022D02*
X92818919Y-93795544D01*
X94326440Y-93140804D02*
X94348628Y-93077395D01*
X92949084Y-93765834D02*
X93005965Y-93730093D01*
X92885675Y-93788022D02*
X92949084Y-93765834D01*
X92818919Y-93795544D02*
X92885675Y-93788022D01*
X93726440Y-93562300D02*
X93748628Y-93625709D01*
X94348628Y-93077395D02*
X94384369Y-93020514D01*
X93053468Y-93682590D02*
X93089209Y-93625709D01*
X93005965Y-93730093D02*
X93053468Y-93682590D01*
X93089209Y-93625709D02*
X93111397Y-93562300D01*
X93111397Y-93562300D02*
X93118919Y-93495544D01*
X93118919Y-93495544D02*
X93118919Y-92469578D01*
X93118919Y-92469578D02*
X93126440Y-92402822D01*
X93126440Y-92402822D02*
X93148628Y-92339413D01*
X93148628Y-92339413D02*
X93184369Y-92282532D01*
X93184369Y-92282532D02*
X93231872Y-92235029D01*
X93718919Y-92469578D02*
X93718919Y-93495544D01*
X93231872Y-92235029D02*
X93288753Y-92199288D01*
X93288753Y-92199288D02*
X93352162Y-92177100D01*
X93352162Y-92177100D02*
X93418919Y-92169578D01*
X93418919Y-92169578D02*
X93485675Y-92177100D01*
X93485675Y-92177100D02*
X93549084Y-92199288D01*
X93549084Y-92199288D02*
X93605965Y-92235029D01*
X93605965Y-92235029D02*
X93653468Y-92282532D01*
X93653468Y-92282532D02*
X93689209Y-92339413D01*
X93689209Y-92339413D02*
X93711397Y-92402822D01*
X93718919Y-93495544D02*
X93726440Y-93562300D01*
X94253468Y-93682590D02*
X94289209Y-93625709D01*
X94618919Y-92907561D02*
X95045561Y-92907561D01*
X93784369Y-93682590D02*
X93831872Y-93730093D01*
X93888753Y-93765834D02*
X93952162Y-93788022D01*
X93952162Y-93788022D02*
X94018919Y-93795544D01*
X94018919Y-93795544D02*
X94085675Y-93788022D01*
X94085675Y-93788022D02*
X94149084Y-93765834D01*
X94311397Y-93562300D02*
X94318919Y-93495544D01*
X94149084Y-93765834D02*
X94205965Y-93730093D01*
X94289209Y-93625709D02*
X94311397Y-93562300D01*
X94318919Y-93495544D02*
X94318919Y-93207561D01*
X94488753Y-92937270D02*
X94552162Y-92915082D01*
X95045561Y-92907561D02*
X95506200Y-93368200D01*
X95506200Y-93903800D02*
X95100000Y-94310000D01*
X94150945Y-88418601D02*
X92788682Y-88418601D01*
X95041399Y-89309055D02*
X94150945Y-88418601D01*
X97500000Y-93250000D02*
X95041399Y-90791399D01*
X97500000Y-102760000D02*
X97500000Y-93250000D01*
X95100000Y-105010000D02*
X95250000Y-105010000D01*
X92788682Y-88418601D02*
X92463680Y-88093599D01*
X92463680Y-88093599D02*
X92013599Y-88093599D01*
X92013599Y-88093599D02*
X91150000Y-87230000D01*
X95041399Y-90791399D02*
X95041399Y-89309055D01*
X95250000Y-105010000D02*
X97500000Y-102760000D01*
X95100000Y-103010000D02*
X95100000Y-102389940D01*
X95681336Y-102089940D02*
X95748092Y-102082418D01*
X94226186Y-101123183D02*
X94248374Y-101059774D01*
X95107521Y-102323183D02*
X95129709Y-102259774D01*
X95034550Y-100776986D02*
X95070291Y-100720105D01*
X94284115Y-101376986D02*
X94248374Y-101320105D01*
X95100000Y-102389940D02*
X95107521Y-102323183D01*
X95269834Y-102119649D02*
X95333243Y-102097461D01*
X95129709Y-102259774D02*
X95165450Y-102202893D01*
X94388499Y-101460230D02*
X94331618Y-101424489D01*
X95165450Y-102202893D02*
X95212953Y-102155390D01*
X95212953Y-102155390D02*
X95269834Y-102119649D01*
X94226186Y-101256696D02*
X94218664Y-101189940D01*
X95333243Y-102097461D02*
X95400000Y-102089940D01*
X94930166Y-100860230D02*
X94987047Y-100824489D01*
X95973814Y-101723183D02*
X95951626Y-101659774D01*
X94218664Y-101189940D02*
X94226186Y-101123183D01*
X95400000Y-102089940D02*
X95681336Y-102089940D01*
X95070291Y-100720105D02*
X95092479Y-100656696D01*
X94331618Y-101424489D02*
X94284115Y-101376986D01*
X95748092Y-102082418D02*
X95811501Y-102060230D01*
X95092479Y-100656696D02*
X95100000Y-100589940D01*
X95811501Y-102060230D02*
X95868382Y-102024489D01*
X95868382Y-102024489D02*
X95915885Y-101976986D01*
X95915885Y-101976986D02*
X95951626Y-101920105D01*
X95951626Y-101920105D02*
X95973814Y-101856696D01*
X95973814Y-101856696D02*
X95981336Y-101789940D01*
X95981336Y-101789940D02*
X95973814Y-101723183D01*
X95951626Y-101659774D02*
X95915885Y-101602893D01*
X95915885Y-101602893D02*
X95868382Y-101555390D01*
X94518664Y-101489940D02*
X94451908Y-101482418D01*
X95868382Y-101555390D02*
X95811501Y-101519649D01*
X95811501Y-101519649D02*
X95748092Y-101497461D01*
X94331618Y-100955390D02*
X94388499Y-100919649D01*
X95100000Y-100589940D02*
X95100000Y-100426660D01*
X95260160Y-100266500D02*
X95508502Y-100266500D01*
X95748092Y-101497461D02*
X95681336Y-101489940D01*
X94500000Y-91250000D02*
X93410870Y-91250000D01*
X95681336Y-101489940D02*
X94518664Y-101489940D01*
X94451908Y-101482418D02*
X94388499Y-101460230D01*
X94248374Y-101320105D02*
X94226186Y-101256696D01*
X96883220Y-98891782D02*
X96883220Y-93633220D01*
X96883220Y-93633220D02*
X94500000Y-91250000D01*
X93410870Y-91250000D02*
X92366525Y-90205655D01*
X94248374Y-101059774D02*
X94284115Y-101002893D01*
X94284115Y-101002893D02*
X94331618Y-100955390D01*
X94388499Y-100919649D02*
X94451908Y-100897461D01*
X94451908Y-100897461D02*
X94518664Y-100889940D01*
X94518664Y-100889940D02*
X94800000Y-100889940D01*
X94800000Y-100889940D02*
X94866757Y-100882418D01*
X95508502Y-100266500D02*
X96883220Y-98891782D01*
X94866757Y-100882418D02*
X94930166Y-100860230D01*
X94987047Y-100824489D02*
X95034550Y-100776986D01*
X95100000Y-100426660D02*
X95260160Y-100266500D01*
X92366525Y-90205655D02*
X92366525Y-88983045D01*
X99958601Y-90291399D02*
X99958601Y-88418601D01*
X99958601Y-88418601D02*
X98770000Y-87230000D01*
X99000000Y-96500000D02*
X99000000Y-91250000D01*
X98167910Y-97000000D02*
X98500000Y-97000000D01*
X98500000Y-97000000D02*
X99000000Y-96500000D01*
X99000000Y-91250000D02*
X99958601Y-90291399D01*
X96205300Y-97010000D02*
X96215300Y-97000000D01*
X95100000Y-97010000D02*
X96205300Y-97010000D01*
X108930000Y-89770000D02*
X107741399Y-88581399D01*
X107741399Y-88581399D02*
X103279471Y-88581399D01*
X103279471Y-88581399D02*
X102600760Y-89260110D01*
X102600760Y-89260110D02*
X102600760Y-90310829D01*
X102600760Y-90310829D02*
X100076000Y-92835589D01*
X100076000Y-92835589D02*
X100076000Y-106324000D01*
X100076000Y-106324000D02*
X95910004Y-110489996D01*
X95910004Y-110489996D02*
X83034933Y-110489996D01*
X83034933Y-110489996D02*
X82550000Y-110489996D01*
X77343000Y-110236000D02*
X77343000Y-107876200D01*
X77343000Y-107876200D02*
X77419200Y-107800000D01*
X77419200Y-108650000D02*
X77419200Y-108000000D01*
X85419200Y-93930000D02*
X85419200Y-92200000D01*
X85420200Y-92201000D02*
X85419200Y-92200000D01*
X88969200Y-101010000D02*
X88699200Y-101280000D01*
X88699200Y-101280000D02*
X88460000Y-101280000D01*
X88460000Y-101280000D02*
X87870000Y-101870000D01*
X87870000Y-101870000D02*
X87870000Y-101950000D01*
X88969200Y-101010000D02*
X88321600Y-101010000D01*
X88969200Y-105010000D02*
X88810000Y-105010000D01*
X88810000Y-105010000D02*
X87930000Y-104130000D01*
X87930000Y-104130000D02*
X87890000Y-104130000D01*
X90474800Y-105010000D02*
X92900000Y-105010000D01*
X89169200Y-105010000D02*
X90474800Y-105010000D01*
X90474800Y-105010000D02*
X90754200Y-105010000D01*
X89169200Y-105010000D02*
X88246000Y-105010000D01*
X83419200Y-93930000D02*
X83419200Y-92200000D01*
X83413600Y-92205600D02*
X83419200Y-92200000D01*
X81419200Y-93930000D02*
X81419200Y-92200000D01*
X81432400Y-92213200D02*
X81419200Y-92200000D01*
X89169200Y-103010000D02*
X92900000Y-103010000D01*
X89169200Y-97010000D02*
X92900000Y-97010000D01*
X89169200Y-95010000D02*
X90619200Y-95010000D01*
X90619200Y-95010000D02*
X92900000Y-95010000D01*
X92863200Y-99010000D02*
X92887800Y-99034600D01*
X89169200Y-99010000D02*
X92900000Y-99010000D01*
X75419200Y-93707200D02*
X75438000Y-93726000D01*
X75419200Y-92200000D02*
X75419200Y-93707200D01*
X73419200Y-93712798D02*
X73406000Y-93725998D01*
X73419200Y-92200000D02*
X73419200Y-93712798D01*
X84393599Y-88093599D02*
X83530000Y-87230000D01*
X80324405Y-112046899D02*
X80010000Y-111732494D01*
X96774000Y-112014000D02*
X96763012Y-112024988D01*
X106385000Y-104502400D02*
X104461400Y-106426000D01*
X80010000Y-109728000D02*
X80544190Y-109193810D01*
X106385000Y-104350000D02*
X106385000Y-104502400D01*
X85318688Y-112046899D02*
X80324405Y-112046899D01*
X84388960Y-94029670D02*
X84388960Y-90711020D01*
X104461400Y-106426000D02*
X102931962Y-106426000D01*
X102931962Y-106426000D02*
X97343962Y-112014000D01*
X97343962Y-112014000D02*
X96774000Y-112014000D01*
X96763012Y-112024988D02*
X85340599Y-112024988D01*
X84785200Y-90314780D02*
X84785200Y-88485200D01*
X85340599Y-112024988D02*
X85318688Y-112046899D01*
X80010000Y-111732494D02*
X80010000Y-109728000D01*
X80544190Y-109193810D02*
X80544190Y-97874440D01*
X80544190Y-97874440D02*
X84388960Y-94029670D01*
X84388960Y-90711020D02*
X84785200Y-90314780D01*
X84785200Y-88485200D02*
X84393599Y-88093599D01*
X78475840Y-110834745D02*
X80138005Y-112496910D01*
X85526999Y-112474999D02*
X86223001Y-112474999D01*
X85505088Y-112496910D02*
X85526999Y-112474999D01*
X80138005Y-112496910D02*
X85505088Y-112496910D01*
X78475840Y-106959400D02*
X78475840Y-110834745D01*
X82405220Y-95377000D02*
X80094179Y-97688040D01*
X80094179Y-105341061D02*
X78475840Y-106959400D01*
X82405220Y-90404350D02*
X82405220Y-95377000D01*
X82199480Y-90198610D02*
X82405220Y-90404350D01*
X82199480Y-89045782D02*
X82199480Y-90198610D01*
X81860658Y-88706960D02*
X82199480Y-89045782D01*
X81860658Y-88100658D02*
X81860658Y-88706960D01*
X80990000Y-87230000D02*
X81860658Y-88100658D01*
X80094179Y-97688040D02*
X80094179Y-105341061D01*
X108925000Y-104350000D02*
X108925000Y-104502400D01*
X108925000Y-104502400D02*
X106493400Y-106934000D01*
X106493400Y-106934000D02*
X103124000Y-106934000D01*
X103124000Y-106934000D02*
X97583001Y-112474999D01*
X97583001Y-112474999D02*
X86223001Y-112474999D01*
X86223001Y-112474999D02*
X86244912Y-112496910D01*
X80416400Y-91109800D02*
X80416400Y-92890251D01*
X80416400Y-92890251D02*
X76544190Y-96762461D01*
X76544190Y-108875810D02*
X75311000Y-110109000D01*
X76544190Y-96762461D02*
X76544190Y-108875810D01*
X111470000Y-87230000D02*
X111470000Y-87630000D01*
X111470000Y-87630000D02*
X110200000Y-88900000D01*
X110200000Y-88900000D02*
X110200000Y-90259130D01*
X110200000Y-90259130D02*
X113120870Y-93180000D01*
X113120870Y-93180000D02*
X115900000Y-93180000D01*
X115900000Y-93180000D02*
X116600000Y-93180000D01*
X114010000Y-89770000D02*
X115640000Y-91400000D01*
X115640000Y-91400000D02*
X118500000Y-91400000D01*
X118500000Y-91400000D02*
X119000000Y-91900000D01*
X119000000Y-91900000D02*
X119000000Y-93180000D01*
X119000000Y-93180000D02*
X119000000Y-93030000D01*
X116554000Y-99360000D02*
X116340000Y-99360000D01*
X116340000Y-99360000D02*
X114054000Y-101646000D01*
X116600000Y-95380000D02*
X116600000Y-97290000D01*
X116600000Y-97290000D02*
X116638000Y-97328000D01*
X116638000Y-97328000D02*
X116638000Y-99276000D01*
X116638000Y-99276000D02*
X116554000Y-99360000D01*
X119094000Y-99360000D02*
X119360000Y-99360000D01*
X119360000Y-99360000D02*
X121614000Y-101614000D01*
X121614000Y-101614000D02*
X121614000Y-101646000D01*
X119000000Y-95380000D02*
X119000000Y-97254000D01*
X119000000Y-97254000D02*
X118926000Y-97328000D01*
X118926000Y-97328000D02*
X118926000Y-99192000D01*
X118926000Y-99192000D02*
X119094000Y-99360000D01*
X119114000Y-99380000D02*
X119094000Y-99360000D01*
X119094000Y-97496000D02*
X118926000Y-97328000D01*
X116554000Y-101646000D02*
X116554000Y-104341000D01*
X116554000Y-104341000D02*
X116545000Y-104350000D01*
X116545000Y-104350000D02*
X116545000Y-103445000D01*
X119114000Y-101646000D02*
X119114000Y-104321000D01*
X119114000Y-104321000D02*
X119085000Y-104350000D01*
X119085000Y-104197600D02*
X119085000Y-104350000D01*
D25*
X102870000Y-110998000D02*
X100076000Y-113792000D01*
X100076000Y-113792000D02*
X86925685Y-113792000D01*
X86925685Y-113792000D02*
X86360000Y-113792000D01*
X75910000Y-87230000D02*
X73370000Y-87230000D01*
D24*
X77199263Y-90621218D02*
X77098601Y-90721880D01*
X77098601Y-90721880D02*
X77098601Y-88748601D01*
X77098601Y-88748601D02*
X75580000Y-87230000D01*
X77199263Y-90621218D02*
X77261399Y-90559082D01*
X77261399Y-90559082D02*
X77261399Y-88581399D01*
X77261399Y-88581399D02*
X76773599Y-88093599D01*
X76773599Y-88093599D02*
X75910000Y-87230000D01*
D26*
G36*
X124589582Y-85635450D02*
X123638788Y-86584586D01*
X123123588Y-87825326D01*
X123122415Y-89168780D01*
X123635450Y-90410418D01*
X124584586Y-91361212D01*
X125825326Y-91876412D01*
X127168780Y-91877585D01*
X128410418Y-91364550D01*
X129361212Y-90415414D01*
X129638000Y-89748834D01*
X129638000Y-110251381D01*
X129364550Y-109589582D01*
X128415414Y-108638788D01*
X127174674Y-108123588D01*
X125831220Y-108122415D01*
X124589582Y-108635450D01*
X123638788Y-109584586D01*
X123123588Y-110825326D01*
X123122415Y-112168780D01*
X123635450Y-113410418D01*
X124584586Y-114361212D01*
X125251166Y-114638000D01*
X72127000Y-114638000D01*
X72127000Y-113935975D01*
X85632874Y-113935975D01*
X85743320Y-114203275D01*
X85947650Y-114407961D01*
X86214756Y-114518874D01*
X86503975Y-114519126D01*
X86771275Y-114408680D01*
X86811024Y-114369000D01*
X100075995Y-114369000D01*
X100076000Y-114369001D01*
X100296808Y-114325078D01*
X100484001Y-114200001D01*
X102958923Y-111725078D01*
X103013975Y-111725126D01*
X103281275Y-111614680D01*
X103485961Y-111410350D01*
X103596874Y-111143244D01*
X103597126Y-110854025D01*
X103486680Y-110586725D01*
X103282350Y-110382039D01*
X103015244Y-110271126D01*
X102726025Y-110270874D01*
X102458725Y-110381320D01*
X102254039Y-110585650D01*
X102143126Y-110852756D01*
X102143077Y-110908922D01*
X99836998Y-113215000D01*
X86811243Y-113215000D01*
X86772350Y-113176039D01*
X86505244Y-113065126D01*
X86216025Y-113064874D01*
X85948725Y-113175320D01*
X85744039Y-113379650D01*
X85633126Y-113646756D01*
X85632874Y-113935975D01*
X72127000Y-113935975D01*
X72127000Y-106800000D01*
X72535794Y-106800000D01*
X72535794Y-108800000D01*
X72558595Y-108921179D01*
X72630212Y-109032474D01*
X72739486Y-109107138D01*
X72869200Y-109133406D01*
X73969200Y-109133406D01*
X74090379Y-109110605D01*
X74201674Y-109038988D01*
X74276338Y-108929714D01*
X74302606Y-108800000D01*
X74302606Y-106800000D01*
X74279805Y-106678821D01*
X74208188Y-106567526D01*
X74098914Y-106492862D01*
X73969200Y-106466594D01*
X72869200Y-106466594D01*
X72748021Y-106489395D01*
X72636726Y-106561012D01*
X72562062Y-106670286D01*
X72535794Y-106800000D01*
X72127000Y-106800000D01*
X72127000Y-88906400D01*
X72172994Y-88906400D01*
X72172994Y-90633600D01*
X72195795Y-90754779D01*
X72267412Y-90866074D01*
X72376686Y-90940738D01*
X72506400Y-90967006D01*
X73003900Y-90967006D01*
X72799067Y-91103870D01*
X72608958Y-91388390D01*
X72542200Y-91724003D01*
X72542200Y-92675997D01*
X72608958Y-93011610D01*
X72799067Y-93296130D01*
X72852587Y-93331891D01*
X72838418Y-93346035D01*
X72736217Y-93592162D01*
X72735984Y-93858665D01*
X72837755Y-94104970D01*
X73026037Y-94293580D01*
X73272164Y-94395781D01*
X73538667Y-94396014D01*
X73784972Y-94294243D01*
X73973582Y-94105961D01*
X74075783Y-93859834D01*
X74076016Y-93593331D01*
X73974245Y-93347026D01*
X73969810Y-93342583D01*
X74039333Y-93296130D01*
X74229442Y-93011610D01*
X74296200Y-92675997D01*
X74296200Y-91724003D01*
X74229442Y-91388390D01*
X74039333Y-91103870D01*
X73834500Y-90967006D01*
X74233600Y-90967006D01*
X74354779Y-90944205D01*
X74466074Y-90872588D01*
X74540738Y-90763314D01*
X74567006Y-90633600D01*
X74567006Y-88906400D01*
X74544205Y-88785221D01*
X74472588Y-88673926D01*
X74363314Y-88599262D01*
X74233600Y-88572994D01*
X72506400Y-88572994D01*
X72385221Y-88595795D01*
X72273926Y-88667412D01*
X72199262Y-88776686D01*
X72172994Y-88906400D01*
X72127000Y-88906400D01*
X72127000Y-87230000D01*
X72156075Y-87230000D01*
X72246704Y-87685623D01*
X72504794Y-88071881D01*
X72891052Y-88329971D01*
X73346675Y-88420600D01*
X73393325Y-88420600D01*
X73848948Y-88329971D01*
X74235206Y-88071881D01*
X74412194Y-87807000D01*
X74867806Y-87807000D01*
X75044794Y-88071881D01*
X75431052Y-88329971D01*
X75886675Y-88420600D01*
X75933325Y-88420600D01*
X76098517Y-88387741D01*
X76378783Y-88668007D01*
X75933325Y-88579400D01*
X75886675Y-88579400D01*
X75431052Y-88670029D01*
X75044794Y-88928119D01*
X74786704Y-89314377D01*
X74696075Y-89770000D01*
X74786704Y-90225623D01*
X75044794Y-90611881D01*
X75401845Y-90850455D01*
X75083587Y-90913761D01*
X74799067Y-91103870D01*
X74608958Y-91388390D01*
X74542200Y-91724003D01*
X74542200Y-92675997D01*
X74608958Y-93011610D01*
X74799067Y-93296130D01*
X74871757Y-93344700D01*
X74870418Y-93346037D01*
X74768217Y-93592164D01*
X74767984Y-93858667D01*
X74869755Y-94104972D01*
X75058037Y-94293582D01*
X75304164Y-94395783D01*
X75570667Y-94396016D01*
X75816972Y-94294245D01*
X76005582Y-94105963D01*
X76107783Y-93859836D01*
X76108016Y-93593333D01*
X76006245Y-93347028D01*
X75989005Y-93329758D01*
X76039333Y-93296130D01*
X76229442Y-93011610D01*
X76296200Y-92675997D01*
X76296200Y-91724003D01*
X76229442Y-91388390D01*
X76039333Y-91103870D01*
X75798733Y-90943107D01*
X75886675Y-90960600D01*
X75933325Y-90960600D01*
X76388948Y-90869971D01*
X76488065Y-90803743D01*
X76582583Y-91032493D01*
X76740835Y-91191021D01*
X76608958Y-91388390D01*
X76542200Y-91724003D01*
X76542200Y-92675997D01*
X76608958Y-93011610D01*
X76799067Y-93296130D01*
X77083587Y-93486239D01*
X77419200Y-93552997D01*
X77754813Y-93486239D01*
X78039333Y-93296130D01*
X78229442Y-93011610D01*
X78296200Y-92675997D01*
X78296200Y-91724003D01*
X78229442Y-91388390D01*
X78039333Y-91103870D01*
X77841047Y-90971380D01*
X77902246Y-90823996D01*
X77971052Y-90869971D01*
X78426675Y-90960600D01*
X78473325Y-90960600D01*
X78928948Y-90869971D01*
X79315206Y-90611881D01*
X79573296Y-90225623D01*
X79663925Y-89770000D01*
X79573296Y-89314377D01*
X79315206Y-88928119D01*
X78928948Y-88670029D01*
X78867136Y-88657734D01*
X79338490Y-88436821D01*
X79732688Y-88004947D01*
X79866134Y-87682760D01*
X79866704Y-87685623D01*
X80124794Y-88071881D01*
X80511052Y-88329971D01*
X80966675Y-88420600D01*
X81013325Y-88420600D01*
X81408658Y-88341963D01*
X81408658Y-88658037D01*
X81013325Y-88579400D01*
X80966675Y-88579400D01*
X80511052Y-88670029D01*
X80124794Y-88928119D01*
X79866704Y-89314377D01*
X79776075Y-89770000D01*
X79866704Y-90225623D01*
X80069068Y-90528482D01*
X80037428Y-90541555D01*
X79848818Y-90729837D01*
X79768616Y-90922984D01*
X79754813Y-90913761D01*
X79419200Y-90847003D01*
X79083587Y-90913761D01*
X78799067Y-91103870D01*
X78608958Y-91388390D01*
X78542200Y-91724003D01*
X78542200Y-92675997D01*
X78608958Y-93011610D01*
X78799067Y-93296130D01*
X79083587Y-93486239D01*
X79164995Y-93502432D01*
X76224578Y-96442849D01*
X76126596Y-96589488D01*
X76092190Y-96762461D01*
X76092190Y-106782977D01*
X76039333Y-106703870D01*
X75754813Y-106513761D01*
X75419200Y-106447003D01*
X75083587Y-106513761D01*
X74799067Y-106703870D01*
X74608958Y-106988390D01*
X74542200Y-107324003D01*
X74542200Y-108275997D01*
X74608958Y-108611610D01*
X74799067Y-108896130D01*
X75083587Y-109086239D01*
X75419200Y-109152997D01*
X75679570Y-109101206D01*
X75341649Y-109439127D01*
X75178333Y-109438984D01*
X74932028Y-109540755D01*
X74743418Y-109729037D01*
X74641217Y-109975164D01*
X74640984Y-110241667D01*
X74742755Y-110487972D01*
X74931037Y-110676582D01*
X75177164Y-110778783D01*
X75443667Y-110779016D01*
X75689972Y-110677245D01*
X75878582Y-110488963D01*
X75980783Y-110242836D01*
X75980927Y-110078297D01*
X76863802Y-109195422D01*
X76891000Y-109154718D01*
X76891000Y-109740656D01*
X76775418Y-109856037D01*
X76673217Y-110102164D01*
X76672984Y-110368667D01*
X76774755Y-110614972D01*
X76963037Y-110803582D01*
X77209164Y-110905783D01*
X77475667Y-110906016D01*
X77721972Y-110804245D01*
X77910582Y-110615963D01*
X78012783Y-110369836D01*
X78013016Y-110103333D01*
X77911245Y-109857028D01*
X77795000Y-109740580D01*
X77795000Y-109059387D01*
X78023840Y-108906482D01*
X78023840Y-110834745D01*
X78058246Y-111007718D01*
X78156228Y-111154357D01*
X79818393Y-112816522D01*
X79965032Y-112914504D01*
X80138005Y-112948910D01*
X85505088Y-112948910D01*
X85615244Y-112926999D01*
X86134756Y-112926999D01*
X86244912Y-112948910D01*
X86355068Y-112926999D01*
X97583001Y-112926999D01*
X97755974Y-112892593D01*
X97902613Y-112794611D01*
X103311224Y-107386000D01*
X106493400Y-107386000D01*
X106666373Y-107351594D01*
X106813012Y-107253612D01*
X108450533Y-105616091D01*
X108469377Y-105628682D01*
X108925000Y-105719311D01*
X109380623Y-105628682D01*
X109766881Y-105370592D01*
X110024971Y-104984334D01*
X110115600Y-104528711D01*
X110115600Y-104171289D01*
X110274400Y-104171289D01*
X110274400Y-104528711D01*
X110365029Y-104984334D01*
X110623119Y-105370592D01*
X111009377Y-105628682D01*
X111465000Y-105719311D01*
X111920623Y-105628682D01*
X112306881Y-105370592D01*
X112564971Y-104984334D01*
X112583146Y-104892961D01*
X112713046Y-105264320D01*
X113102964Y-105700732D01*
X113630209Y-105954709D01*
X113645974Y-105957358D01*
X113878000Y-105836217D01*
X113878000Y-104477000D01*
X113858000Y-104477000D01*
X113858000Y-104223000D01*
X113878000Y-104223000D01*
X113878000Y-102863783D01*
X114132000Y-102863783D01*
X114132000Y-104223000D01*
X114152000Y-104223000D01*
X114152000Y-104477000D01*
X114132000Y-104477000D01*
X114132000Y-105836217D01*
X114364026Y-105957358D01*
X114379791Y-105954709D01*
X114907036Y-105700732D01*
X115296954Y-105264320D01*
X115426854Y-104892961D01*
X115445029Y-104984334D01*
X115703119Y-105370592D01*
X116089377Y-105628682D01*
X116545000Y-105719311D01*
X117000623Y-105628682D01*
X117386881Y-105370592D01*
X117644971Y-104984334D01*
X117735600Y-104528711D01*
X117735600Y-104171289D01*
X117894400Y-104171289D01*
X117894400Y-104528711D01*
X117985029Y-104984334D01*
X118243119Y-105370592D01*
X118629377Y-105628682D01*
X119085000Y-105719311D01*
X119540623Y-105628682D01*
X119926881Y-105370592D01*
X120184971Y-104984334D01*
X120203146Y-104892961D01*
X120333046Y-105264320D01*
X120722964Y-105700732D01*
X121250209Y-105954709D01*
X121265974Y-105957358D01*
X121498000Y-105836217D01*
X121498000Y-104477000D01*
X121752000Y-104477000D01*
X121752000Y-105836217D01*
X121984026Y-105957358D01*
X121999791Y-105954709D01*
X122527036Y-105700732D01*
X122916954Y-105264320D01*
X123110184Y-104711913D01*
X122965924Y-104477000D01*
X121752000Y-104477000D01*
X121498000Y-104477000D01*
X121478000Y-104477000D01*
X121478000Y-104223000D01*
X121498000Y-104223000D01*
X121498000Y-102863783D01*
X121752000Y-102863783D01*
X121752000Y-104223000D01*
X122965924Y-104223000D01*
X123110184Y-103988087D01*
X122916954Y-103435680D01*
X122527036Y-102999268D01*
X121999791Y-102745291D01*
X121984026Y-102742642D01*
X121752000Y-102863783D01*
X121498000Y-102863783D01*
X121265974Y-102742642D01*
X121250209Y-102745291D01*
X120722964Y-102999268D01*
X120333046Y-103435680D01*
X120203146Y-103807039D01*
X120184971Y-103715666D01*
X119926881Y-103329408D01*
X119566000Y-103088274D01*
X119566000Y-102604406D01*
X119864000Y-102604406D01*
X119985179Y-102581605D01*
X120096474Y-102509988D01*
X120171138Y-102400714D01*
X120197406Y-102271000D01*
X120197406Y-101021000D01*
X120174605Y-100899821D01*
X120102988Y-100788526D01*
X119993714Y-100713862D01*
X119864000Y-100687594D01*
X118364000Y-100687594D01*
X118242821Y-100710395D01*
X118131526Y-100782012D01*
X118056862Y-100891286D01*
X118030594Y-101021000D01*
X118030594Y-102271000D01*
X118053395Y-102392179D01*
X118125012Y-102503474D01*
X118234286Y-102578138D01*
X118364000Y-102604406D01*
X118662000Y-102604406D01*
X118662000Y-103064829D01*
X118629377Y-103071318D01*
X118243119Y-103329408D01*
X117985029Y-103715666D01*
X117894400Y-104171289D01*
X117735600Y-104171289D01*
X117644971Y-103715666D01*
X117386881Y-103329408D01*
X117006000Y-103074911D01*
X117006000Y-102604406D01*
X117304000Y-102604406D01*
X117425179Y-102581605D01*
X117536474Y-102509988D01*
X117611138Y-102400714D01*
X117637406Y-102271000D01*
X117637406Y-101021000D01*
X117614605Y-100899821D01*
X117542988Y-100788526D01*
X117433714Y-100713862D01*
X117304000Y-100687594D01*
X115804000Y-100687594D01*
X115682821Y-100710395D01*
X115571526Y-100782012D01*
X115496862Y-100891286D01*
X115470594Y-101021000D01*
X115470594Y-102271000D01*
X115493395Y-102392179D01*
X115565012Y-102503474D01*
X115674286Y-102578138D01*
X115804000Y-102604406D01*
X116102000Y-102604406D01*
X116102000Y-103068807D01*
X116089377Y-103071318D01*
X115703119Y-103329408D01*
X115445029Y-103715666D01*
X115426854Y-103807039D01*
X115296954Y-103435680D01*
X114907036Y-102999268D01*
X114379791Y-102745291D01*
X114364026Y-102742642D01*
X114132000Y-102863783D01*
X113878000Y-102863783D01*
X113645974Y-102742642D01*
X113630209Y-102745291D01*
X113102964Y-102999268D01*
X112713046Y-103435680D01*
X112583146Y-103807039D01*
X112564971Y-103715666D01*
X112306881Y-103329408D01*
X111920623Y-103071318D01*
X111465000Y-102980689D01*
X111009377Y-103071318D01*
X110623119Y-103329408D01*
X110365029Y-103715666D01*
X110274400Y-104171289D01*
X110115600Y-104171289D01*
X110024971Y-103715666D01*
X109766881Y-103329408D01*
X109380623Y-103071318D01*
X108925000Y-102980689D01*
X108469377Y-103071318D01*
X108083119Y-103329408D01*
X107825029Y-103715666D01*
X107734400Y-104171289D01*
X107734400Y-104528711D01*
X107821514Y-104966662D01*
X106306176Y-106482000D01*
X105044624Y-106482000D01*
X105910533Y-105616091D01*
X105929377Y-105628682D01*
X106385000Y-105719311D01*
X106840623Y-105628682D01*
X107226881Y-105370592D01*
X107484971Y-104984334D01*
X107575600Y-104528711D01*
X107575600Y-104171289D01*
X107484971Y-103715666D01*
X107226881Y-103329408D01*
X106840623Y-103071318D01*
X106385000Y-102980689D01*
X105929377Y-103071318D01*
X105543119Y-103329408D01*
X105285029Y-103715666D01*
X105194400Y-104171289D01*
X105194400Y-104528711D01*
X105281514Y-104966662D01*
X104274176Y-105974000D01*
X102931962Y-105974000D01*
X102758989Y-106008406D01*
X102612349Y-106106388D01*
X97156738Y-111562000D01*
X96774000Y-111562000D01*
X96718759Y-111572988D01*
X85340599Y-111572988D01*
X85230443Y-111594899D01*
X80511629Y-111594899D01*
X80462000Y-111545270D01*
X80462000Y-109915224D01*
X80863802Y-109513422D01*
X80961784Y-109366783D01*
X80996190Y-109193810D01*
X80996190Y-109027843D01*
X81083587Y-109086239D01*
X81419200Y-109152997D01*
X81754813Y-109086239D01*
X82039333Y-108896130D01*
X82229442Y-108611610D01*
X82296200Y-108275997D01*
X82296200Y-107324003D01*
X82542200Y-107324003D01*
X82542200Y-108275997D01*
X82608958Y-108611610D01*
X82799067Y-108896130D01*
X83083587Y-109086239D01*
X83419200Y-109152997D01*
X83754813Y-109086239D01*
X84039333Y-108896130D01*
X84229442Y-108611610D01*
X84296200Y-108275997D01*
X84296200Y-107324003D01*
X84542200Y-107324003D01*
X84542200Y-108275997D01*
X84608958Y-108611610D01*
X84799067Y-108896130D01*
X85083587Y-109086239D01*
X85419200Y-109152997D01*
X85754813Y-109086239D01*
X86039333Y-108896130D01*
X86229442Y-108611610D01*
X86296200Y-108275997D01*
X86296200Y-107324003D01*
X86542200Y-107324003D01*
X86542200Y-108275997D01*
X86608958Y-108611610D01*
X86799067Y-108896130D01*
X87083587Y-109086239D01*
X87419200Y-109152997D01*
X87754813Y-109086239D01*
X88039333Y-108896130D01*
X88201118Y-108654000D01*
X89919394Y-108654000D01*
X89919394Y-108702000D01*
X89942195Y-108823179D01*
X90013812Y-108934474D01*
X90123086Y-109009138D01*
X90252800Y-109035406D01*
X91752800Y-109035406D01*
X91873979Y-109012605D01*
X91985274Y-108940988D01*
X92059938Y-108831714D01*
X92086206Y-108702000D01*
X92086206Y-107452000D01*
X92063405Y-107330821D01*
X91991788Y-107219526D01*
X91882514Y-107144862D01*
X91752800Y-107118594D01*
X90252800Y-107118594D01*
X90131621Y-107141395D01*
X90020326Y-107213012D01*
X89945662Y-107322286D01*
X89919394Y-107452000D01*
X89919394Y-107500000D01*
X88296200Y-107500000D01*
X88296200Y-107324003D01*
X88229442Y-106988390D01*
X88039333Y-106703870D01*
X87902000Y-106612108D01*
X87902000Y-106101243D01*
X87940961Y-106062350D01*
X88051874Y-105795244D01*
X88051914Y-105749632D01*
X88157590Y-105820242D01*
X88493203Y-105887000D01*
X89445197Y-105887000D01*
X89780810Y-105820242D01*
X90065330Y-105630133D01*
X90177672Y-105462000D01*
X91966970Y-105462000D01*
X91989395Y-105581179D01*
X92061012Y-105692474D01*
X92170286Y-105767138D01*
X92300000Y-105793406D01*
X93500000Y-105793406D01*
X93621179Y-105770605D01*
X93732474Y-105698988D01*
X93807138Y-105589714D01*
X93833406Y-105460000D01*
X93833406Y-104560000D01*
X93810605Y-104438821D01*
X93738988Y-104327526D01*
X93629714Y-104252862D01*
X93500000Y-104226594D01*
X92300000Y-104226594D01*
X92178821Y-104249395D01*
X92067526Y-104321012D01*
X91992862Y-104430286D01*
X91966999Y-104558000D01*
X90177672Y-104558000D01*
X90065330Y-104389867D01*
X89780810Y-104199758D01*
X89445197Y-104133000D01*
X88572224Y-104133000D01*
X88559908Y-104120684D01*
X88560016Y-103997333D01*
X88514427Y-103887000D01*
X89445197Y-103887000D01*
X89780810Y-103820242D01*
X90065330Y-103630133D01*
X90177672Y-103462000D01*
X91966970Y-103462000D01*
X91989395Y-103581179D01*
X92061012Y-103692474D01*
X92170286Y-103767138D01*
X92300000Y-103793406D01*
X93500000Y-103793406D01*
X93621179Y-103770605D01*
X93732474Y-103698988D01*
X93807138Y-103589714D01*
X93833406Y-103460000D01*
X93833406Y-102560000D01*
X93810605Y-102438821D01*
X93738988Y-102327526D01*
X93629714Y-102252862D01*
X93500000Y-102226594D01*
X92300000Y-102226594D01*
X92178821Y-102249395D01*
X92067526Y-102321012D01*
X91992862Y-102430286D01*
X91966999Y-102558000D01*
X90177672Y-102558000D01*
X90065330Y-102389867D01*
X89780810Y-102199758D01*
X89445197Y-102133000D01*
X88519368Y-102133000D01*
X88539783Y-102083836D01*
X88539955Y-101887000D01*
X89445197Y-101887000D01*
X89780810Y-101820242D01*
X90065330Y-101630133D01*
X90255439Y-101345613D01*
X90322197Y-101010000D01*
X90255439Y-100674387D01*
X90065330Y-100389867D01*
X89780810Y-100199758D01*
X89445197Y-100133000D01*
X88493203Y-100133000D01*
X88157590Y-100199758D01*
X87873070Y-100389867D01*
X87682961Y-100674387D01*
X87616203Y-101010000D01*
X87675027Y-101305728D01*
X87491028Y-101381755D01*
X87302418Y-101570037D01*
X87200217Y-101816164D01*
X87199984Y-102082667D01*
X87301755Y-102328972D01*
X87490037Y-102517582D01*
X87723077Y-102614349D01*
X87682961Y-102674387D01*
X87616203Y-103010000D01*
X87682961Y-103345613D01*
X87759382Y-103459986D01*
X87757333Y-103459984D01*
X87511028Y-103561755D01*
X87322418Y-103750037D01*
X87220217Y-103996164D01*
X87219984Y-104262667D01*
X87321755Y-104508972D01*
X87510037Y-104697582D01*
X87665506Y-104762138D01*
X87621029Y-104985738D01*
X87470244Y-104923126D01*
X87181025Y-104922874D01*
X86913725Y-105033320D01*
X86709039Y-105237650D01*
X86598126Y-105504756D01*
X86597874Y-105793975D01*
X86708320Y-106061275D01*
X86748000Y-106101024D01*
X86748000Y-106780298D01*
X86608958Y-106988390D01*
X86542200Y-107324003D01*
X86296200Y-107324003D01*
X86229442Y-106988390D01*
X86039333Y-106703870D01*
X85754813Y-106513761D01*
X85419200Y-106447003D01*
X85083587Y-106513761D01*
X84799067Y-106703870D01*
X84608958Y-106988390D01*
X84542200Y-107324003D01*
X84296200Y-107324003D01*
X84229442Y-106988390D01*
X84039333Y-106703870D01*
X83754813Y-106513761D01*
X83419200Y-106447003D01*
X83083587Y-106513761D01*
X82799067Y-106703870D01*
X82608958Y-106988390D01*
X82542200Y-107324003D01*
X82296200Y-107324003D01*
X82229442Y-106988390D01*
X82039333Y-106703870D01*
X81754813Y-106513761D01*
X81419200Y-106447003D01*
X81083587Y-106513761D01*
X80996190Y-106572157D01*
X80996190Y-100779807D01*
X81600312Y-100779807D01*
X81702083Y-101026112D01*
X81890365Y-101214722D01*
X82136492Y-101316923D01*
X82402995Y-101317156D01*
X82649300Y-101215385D01*
X82765748Y-101099140D01*
X83883860Y-101099140D01*
X84056833Y-101064734D01*
X84203472Y-100966752D01*
X86598024Y-98572200D01*
X87751240Y-98572200D01*
X87682961Y-98674387D01*
X87616203Y-99010000D01*
X87682961Y-99345613D01*
X87873070Y-99630133D01*
X88157590Y-99820242D01*
X88493203Y-99887000D01*
X89445197Y-99887000D01*
X89780810Y-99820242D01*
X90065330Y-99630133D01*
X90177672Y-99462000D01*
X91971994Y-99462000D01*
X91971994Y-99484600D01*
X91994795Y-99605779D01*
X92066412Y-99717074D01*
X92175686Y-99791738D01*
X92305400Y-99818006D01*
X93505400Y-99818006D01*
X93626579Y-99795205D01*
X93737874Y-99723588D01*
X93812538Y-99614314D01*
X93838806Y-99484600D01*
X93838806Y-98584600D01*
X93836473Y-98572200D01*
X93853776Y-98572200D01*
X94171994Y-98890418D01*
X94171994Y-99484600D01*
X94194795Y-99605779D01*
X94266412Y-99717074D01*
X94375686Y-99791738D01*
X94505400Y-99818006D01*
X95242534Y-99818006D01*
X95087187Y-99848906D01*
X94940547Y-99946888D01*
X94780388Y-100107048D01*
X94682406Y-100253687D01*
X94648000Y-100426660D01*
X94648000Y-100437940D01*
X94518664Y-100437940D01*
X94493561Y-100442933D01*
X94468060Y-100440782D01*
X94401304Y-100448303D01*
X94352914Y-100463726D01*
X94302621Y-100470826D01*
X94239211Y-100493014D01*
X94195464Y-100518820D01*
X94148019Y-100536931D01*
X94091138Y-100572672D01*
X94054235Y-100607561D01*
X94012005Y-100635778D01*
X93964503Y-100683281D01*
X93936287Y-100725508D01*
X93901397Y-100762413D01*
X93865656Y-100819294D01*
X93847545Y-100866739D01*
X93821739Y-100910486D01*
X93799551Y-100973895D01*
X93792451Y-101024184D01*
X93777028Y-101072574D01*
X93769506Y-101139330D01*
X93773775Y-101189941D01*
X93769506Y-101240551D01*
X93777028Y-101307306D01*
X93792451Y-101355695D01*
X93799551Y-101405984D01*
X93821739Y-101469393D01*
X93847545Y-101513140D01*
X93865656Y-101560585D01*
X93901397Y-101617466D01*
X93936287Y-101654371D01*
X93964503Y-101696598D01*
X94012005Y-101744101D01*
X94054235Y-101772318D01*
X94091138Y-101807207D01*
X94148019Y-101842948D01*
X94195464Y-101861059D01*
X94239211Y-101886865D01*
X94302621Y-101909053D01*
X94352907Y-101916152D01*
X94401297Y-101931576D01*
X94468053Y-101939098D01*
X94493560Y-101936947D01*
X94518664Y-101941940D01*
X94802088Y-101941940D01*
X94782732Y-101962413D01*
X94746991Y-102019294D01*
X94728880Y-102066739D01*
X94703074Y-102110486D01*
X94680886Y-102173895D01*
X94673785Y-102224190D01*
X94673019Y-102226594D01*
X94500000Y-102226594D01*
X94378821Y-102249395D01*
X94267526Y-102321012D01*
X94192862Y-102430286D01*
X94166594Y-102560000D01*
X94166594Y-103460000D01*
X94189395Y-103581179D01*
X94261012Y-103692474D01*
X94370286Y-103767138D01*
X94500000Y-103793406D01*
X95700000Y-103793406D01*
X95821179Y-103770605D01*
X95902499Y-103718277D01*
X95394182Y-104226594D01*
X94500000Y-104226594D01*
X94378821Y-104249395D01*
X94267526Y-104321012D01*
X94192862Y-104430286D01*
X94166594Y-104560000D01*
X94166594Y-105460000D01*
X94189395Y-105581179D01*
X94261012Y-105692474D01*
X94370286Y-105767138D01*
X94500000Y-105793406D01*
X95700000Y-105793406D01*
X95821179Y-105770605D01*
X95932474Y-105698988D01*
X96007138Y-105589714D01*
X96033406Y-105460000D01*
X96033406Y-104865818D01*
X96263474Y-104635750D01*
X97266400Y-104635750D01*
X97266400Y-105492309D01*
X97363073Y-105725698D01*
X97541701Y-105904327D01*
X97775090Y-106001000D01*
X98479250Y-106001000D01*
X98638000Y-105842250D01*
X98638000Y-104477000D01*
X97425150Y-104477000D01*
X97266400Y-104635750D01*
X96263474Y-104635750D01*
X97266400Y-103632825D01*
X97266400Y-104064250D01*
X97425150Y-104223000D01*
X98638000Y-104223000D01*
X98638000Y-102857750D01*
X98479250Y-102699000D01*
X97952000Y-102699000D01*
X97952000Y-97635703D01*
X98034074Y-97669783D01*
X98300577Y-97670016D01*
X98546882Y-97568245D01*
X98735492Y-97379963D01*
X98737873Y-97374229D01*
X98819612Y-97319612D01*
X99319612Y-96819612D01*
X99417594Y-96672973D01*
X99452000Y-96500000D01*
X99452000Y-91437224D01*
X100278214Y-90611011D01*
X100361213Y-90486794D01*
X100444794Y-90611881D01*
X100831052Y-90869971D01*
X101286675Y-90960600D01*
X101311765Y-90960600D01*
X99756388Y-92515977D01*
X99658406Y-92662616D01*
X99624000Y-92835589D01*
X99624000Y-102699000D01*
X99050750Y-102699000D01*
X98892000Y-102857750D01*
X98892000Y-104223000D01*
X98912000Y-104223000D01*
X98912000Y-104477000D01*
X98892000Y-104477000D01*
X98892000Y-105842250D01*
X99050750Y-106001000D01*
X99624000Y-106001000D01*
X99624000Y-106136776D01*
X95722780Y-110037996D01*
X83045344Y-110037996D01*
X82929963Y-109922414D01*
X82683836Y-109820213D01*
X82417333Y-109819980D01*
X82171028Y-109921751D01*
X81982418Y-110110033D01*
X81880217Y-110356160D01*
X81879984Y-110622663D01*
X81981755Y-110868968D01*
X82170037Y-111057578D01*
X82416164Y-111159779D01*
X82682667Y-111160012D01*
X82928972Y-111058241D01*
X83045420Y-110941996D01*
X95910004Y-110941996D01*
X96082977Y-110907590D01*
X96229616Y-110809608D01*
X100395612Y-106643612D01*
X100493594Y-106496973D01*
X100528000Y-106324000D01*
X100528000Y-105413944D01*
X100849377Y-105628682D01*
X101305000Y-105719311D01*
X101760623Y-105628682D01*
X102146881Y-105370592D01*
X102404971Y-104984334D01*
X102495600Y-104528711D01*
X102495600Y-104171289D01*
X102654400Y-104171289D01*
X102654400Y-104528711D01*
X102745029Y-104984334D01*
X103003119Y-105370592D01*
X103389377Y-105628682D01*
X103845000Y-105719311D01*
X104300623Y-105628682D01*
X104686881Y-105370592D01*
X104944971Y-104984334D01*
X105035600Y-104528711D01*
X105035600Y-104171289D01*
X104944971Y-103715666D01*
X104686881Y-103329408D01*
X104300623Y-103071318D01*
X103845000Y-102980689D01*
X103389377Y-103071318D01*
X103003119Y-103329408D01*
X102745029Y-103715666D01*
X102654400Y-104171289D01*
X102495600Y-104171289D01*
X102404971Y-103715666D01*
X102146881Y-103329408D01*
X101760623Y-103071318D01*
X101305000Y-102980689D01*
X100849377Y-103071318D01*
X100528000Y-103286056D01*
X100528000Y-101021000D01*
X112970594Y-101021000D01*
X112970594Y-102271000D01*
X112993395Y-102392179D01*
X113065012Y-102503474D01*
X113174286Y-102578138D01*
X113304000Y-102604406D01*
X114804000Y-102604406D01*
X114925179Y-102581605D01*
X115036474Y-102509988D01*
X115111138Y-102400714D01*
X115137406Y-102271000D01*
X115137406Y-101201818D01*
X116020818Y-100318406D01*
X117304000Y-100318406D01*
X117425179Y-100295605D01*
X117536474Y-100223988D01*
X117611138Y-100114714D01*
X117637406Y-99985000D01*
X117637406Y-98735000D01*
X117614605Y-98613821D01*
X117542988Y-98502526D01*
X117433714Y-98427862D01*
X117304000Y-98401594D01*
X117090000Y-98401594D01*
X117090000Y-98111406D01*
X117238000Y-98111406D01*
X117359179Y-98088605D01*
X117470474Y-98016988D01*
X117545138Y-97907714D01*
X117571406Y-97778000D01*
X117571406Y-96878000D01*
X117992594Y-96878000D01*
X117992594Y-97778000D01*
X118015395Y-97899179D01*
X118087012Y-98010474D01*
X118196286Y-98085138D01*
X118326000Y-98111406D01*
X118474000Y-98111406D01*
X118474000Y-98401594D01*
X118344000Y-98401594D01*
X118222821Y-98424395D01*
X118111526Y-98496012D01*
X118036862Y-98605286D01*
X118010594Y-98735000D01*
X118010594Y-99985000D01*
X118033395Y-100106179D01*
X118105012Y-100217474D01*
X118214286Y-100292138D01*
X118344000Y-100318406D01*
X119679182Y-100318406D01*
X120530594Y-101169819D01*
X120530594Y-102271000D01*
X120553395Y-102392179D01*
X120625012Y-102503474D01*
X120734286Y-102578138D01*
X120864000Y-102604406D01*
X122364000Y-102604406D01*
X122485179Y-102581605D01*
X122596474Y-102509988D01*
X122671138Y-102400714D01*
X122697406Y-102271000D01*
X122697406Y-101021000D01*
X122674605Y-100899821D01*
X122602988Y-100788526D01*
X122493714Y-100713862D01*
X122364000Y-100687594D01*
X121326819Y-100687594D01*
X120177406Y-99538182D01*
X120177406Y-98735000D01*
X120154605Y-98613821D01*
X120082988Y-98502526D01*
X119973714Y-98427862D01*
X119844000Y-98401594D01*
X119378000Y-98401594D01*
X119378000Y-98111406D01*
X119526000Y-98111406D01*
X119647179Y-98088605D01*
X119758474Y-98016988D01*
X119833138Y-97907714D01*
X119859406Y-97778000D01*
X119859406Y-96878000D01*
X119836605Y-96756821D01*
X119764988Y-96645526D01*
X119655714Y-96570862D01*
X119526000Y-96544594D01*
X119452000Y-96544594D01*
X119452000Y-96313030D01*
X119571179Y-96290605D01*
X119682474Y-96218988D01*
X119757138Y-96109714D01*
X119783406Y-95980000D01*
X119783406Y-94780000D01*
X119760605Y-94658821D01*
X119688988Y-94547526D01*
X119579714Y-94472862D01*
X119450000Y-94446594D01*
X118550000Y-94446594D01*
X118428821Y-94469395D01*
X118317526Y-94541012D01*
X118242862Y-94650286D01*
X118216594Y-94780000D01*
X118216594Y-95980000D01*
X118239395Y-96101179D01*
X118311012Y-96212474D01*
X118420286Y-96287138D01*
X118548000Y-96313001D01*
X118548000Y-96544594D01*
X118326000Y-96544594D01*
X118204821Y-96567395D01*
X118093526Y-96639012D01*
X118018862Y-96748286D01*
X117992594Y-96878000D01*
X117571406Y-96878000D01*
X117548605Y-96756821D01*
X117476988Y-96645526D01*
X117367714Y-96570862D01*
X117238000Y-96544594D01*
X117052000Y-96544594D01*
X117052000Y-96313030D01*
X117171179Y-96290605D01*
X117282474Y-96218988D01*
X117357138Y-96109714D01*
X117383406Y-95980000D01*
X117383406Y-94780000D01*
X117360605Y-94658821D01*
X117288988Y-94547526D01*
X117179714Y-94472862D01*
X117050000Y-94446594D01*
X116150000Y-94446594D01*
X116028821Y-94469395D01*
X115917526Y-94541012D01*
X115842862Y-94650286D01*
X115816594Y-94780000D01*
X115816594Y-95980000D01*
X115839395Y-96101179D01*
X115911012Y-96212474D01*
X116020286Y-96287138D01*
X116148000Y-96313001D01*
X116148000Y-96544594D01*
X116038000Y-96544594D01*
X115916821Y-96567395D01*
X115805526Y-96639012D01*
X115730862Y-96748286D01*
X115704594Y-96878000D01*
X115704594Y-97778000D01*
X115727395Y-97899179D01*
X115799012Y-98010474D01*
X115908286Y-98085138D01*
X116038000Y-98111406D01*
X116186000Y-98111406D01*
X116186000Y-98401594D01*
X115804000Y-98401594D01*
X115682821Y-98424395D01*
X115571526Y-98496012D01*
X115496862Y-98605286D01*
X115470594Y-98735000D01*
X115470594Y-99590182D01*
X114373182Y-100687594D01*
X113304000Y-100687594D01*
X113182821Y-100710395D01*
X113071526Y-100782012D01*
X112996862Y-100891286D01*
X112970594Y-101021000D01*
X100528000Y-101021000D01*
X100528000Y-93022813D01*
X102776588Y-90774225D01*
X102961510Y-90976821D01*
X103490973Y-91224968D01*
X103723000Y-91104469D01*
X103723000Y-89897000D01*
X103703000Y-89897000D01*
X103703000Y-89643000D01*
X103723000Y-89643000D01*
X103723000Y-89623000D01*
X103977000Y-89623000D01*
X103977000Y-89643000D01*
X103997000Y-89643000D01*
X103997000Y-89897000D01*
X103977000Y-89897000D01*
X103977000Y-91104469D01*
X104209027Y-91224968D01*
X104738490Y-90976821D01*
X105132688Y-90544947D01*
X105266134Y-90222760D01*
X105266704Y-90225623D01*
X105524794Y-90611881D01*
X105911052Y-90869971D01*
X106366675Y-90960600D01*
X106413325Y-90960600D01*
X106868948Y-90869971D01*
X107255206Y-90611881D01*
X107513296Y-90225623D01*
X107603925Y-89770000D01*
X107513296Y-89314377D01*
X107325552Y-89033399D01*
X107554175Y-89033399D01*
X107818099Y-89297323D01*
X107806704Y-89314377D01*
X107716075Y-89770000D01*
X107806704Y-90225623D01*
X108064794Y-90611881D01*
X108451052Y-90869971D01*
X108906675Y-90960600D01*
X108953325Y-90960600D01*
X109408948Y-90869971D01*
X109795206Y-90611881D01*
X109848868Y-90531570D01*
X109880388Y-90578742D01*
X112801258Y-93499612D01*
X112947897Y-93597594D01*
X113120870Y-93632000D01*
X115816594Y-93632000D01*
X115816594Y-93780000D01*
X115839395Y-93901179D01*
X115911012Y-94012474D01*
X116020286Y-94087138D01*
X116150000Y-94113406D01*
X117050000Y-94113406D01*
X117171179Y-94090605D01*
X117282474Y-94018988D01*
X117357138Y-93909714D01*
X117383406Y-93780000D01*
X117383406Y-92580000D01*
X117360605Y-92458821D01*
X117288988Y-92347526D01*
X117179714Y-92272862D01*
X117050000Y-92246594D01*
X116150000Y-92246594D01*
X116028821Y-92269395D01*
X115917526Y-92341012D01*
X115842862Y-92450286D01*
X115816594Y-92580000D01*
X115816594Y-92728000D01*
X113308094Y-92728000D01*
X111532835Y-90952741D01*
X111948948Y-90869971D01*
X112335206Y-90611881D01*
X112593296Y-90225623D01*
X112683925Y-89770000D01*
X112593296Y-89314377D01*
X112335206Y-88928119D01*
X111948948Y-88670029D01*
X111493325Y-88579400D01*
X111446675Y-88579400D01*
X111088598Y-88650626D01*
X111339869Y-88399355D01*
X111446675Y-88420600D01*
X111493325Y-88420600D01*
X111948948Y-88329971D01*
X112335206Y-88071881D01*
X112593296Y-87685623D01*
X112593866Y-87682760D01*
X112727312Y-88004947D01*
X113121510Y-88436821D01*
X113592864Y-88657734D01*
X113531052Y-88670029D01*
X113144794Y-88928119D01*
X112886704Y-89314377D01*
X112796075Y-89770000D01*
X112886704Y-90225623D01*
X113144794Y-90611881D01*
X113531052Y-90869971D01*
X113986675Y-90960600D01*
X114033325Y-90960600D01*
X114473767Y-90872991D01*
X115320388Y-91719612D01*
X115467027Y-91817594D01*
X115640000Y-91852000D01*
X118312776Y-91852000D01*
X118548000Y-92087224D01*
X118548000Y-92246970D01*
X118428821Y-92269395D01*
X118317526Y-92341012D01*
X118242862Y-92450286D01*
X118216594Y-92580000D01*
X118216594Y-93780000D01*
X118239395Y-93901179D01*
X118311012Y-94012474D01*
X118420286Y-94087138D01*
X118550000Y-94113406D01*
X119450000Y-94113406D01*
X119571179Y-94090605D01*
X119682474Y-94018988D01*
X119757138Y-93909714D01*
X119783406Y-93780000D01*
X119783406Y-92580000D01*
X119760605Y-92458821D01*
X119688988Y-92347526D01*
X119579714Y-92272862D01*
X119452000Y-92246999D01*
X119452000Y-91900000D01*
X119417594Y-91727027D01*
X119319612Y-91580388D01*
X118819612Y-91080388D01*
X118672973Y-90982406D01*
X118500000Y-90948000D01*
X116636670Y-90948000D01*
X117028948Y-90869971D01*
X117415206Y-90611881D01*
X117673296Y-90225623D01*
X117763925Y-89770000D01*
X117876075Y-89770000D01*
X117966704Y-90225623D01*
X118224794Y-90611881D01*
X118611052Y-90869971D01*
X119066675Y-90960600D01*
X119113325Y-90960600D01*
X119568948Y-90869971D01*
X119955206Y-90611881D01*
X120213296Y-90225623D01*
X120213866Y-90222760D01*
X120347312Y-90544947D01*
X120741510Y-90976821D01*
X121270973Y-91224968D01*
X121503000Y-91104469D01*
X121503000Y-89897000D01*
X121757000Y-89897000D01*
X121757000Y-91104469D01*
X121989027Y-91224968D01*
X122518490Y-90976821D01*
X122912688Y-90544947D01*
X123084958Y-90129026D01*
X122963817Y-89897000D01*
X121757000Y-89897000D01*
X121503000Y-89897000D01*
X121483000Y-89897000D01*
X121483000Y-89643000D01*
X121503000Y-89643000D01*
X121503000Y-89623000D01*
X121757000Y-89623000D01*
X121757000Y-89643000D01*
X122963817Y-89643000D01*
X123084958Y-89410974D01*
X122912688Y-88995053D01*
X122518490Y-88563179D01*
X122047136Y-88342266D01*
X122108948Y-88329971D01*
X122495206Y-88071881D01*
X122753296Y-87685623D01*
X122843925Y-87230000D01*
X122753296Y-86774377D01*
X122495206Y-86388119D01*
X122108948Y-86130029D01*
X121653325Y-86039400D01*
X121606675Y-86039400D01*
X121151052Y-86130029D01*
X120764794Y-86388119D01*
X120506704Y-86774377D01*
X120416075Y-87230000D01*
X120506704Y-87685623D01*
X120764794Y-88071881D01*
X121151052Y-88329971D01*
X121212864Y-88342266D01*
X120741510Y-88563179D01*
X120347312Y-88995053D01*
X120213866Y-89317240D01*
X120213296Y-89314377D01*
X119955206Y-88928119D01*
X119568948Y-88670029D01*
X119113325Y-88579400D01*
X119066675Y-88579400D01*
X118611052Y-88670029D01*
X118224794Y-88928119D01*
X117966704Y-89314377D01*
X117876075Y-89770000D01*
X117763925Y-89770000D01*
X117673296Y-89314377D01*
X117415206Y-88928119D01*
X117028948Y-88670029D01*
X116573325Y-88579400D01*
X116526675Y-88579400D01*
X116071052Y-88670029D01*
X115684794Y-88928119D01*
X115426704Y-89314377D01*
X115336075Y-89770000D01*
X115426704Y-90225623D01*
X115684794Y-90611881D01*
X116071052Y-90869971D01*
X116463330Y-90948000D01*
X115827224Y-90948000D01*
X115121901Y-90242677D01*
X115133296Y-90225623D01*
X115223925Y-89770000D01*
X115133296Y-89314377D01*
X114875206Y-88928119D01*
X114488948Y-88670029D01*
X114427136Y-88657734D01*
X114898490Y-88436821D01*
X115292688Y-88004947D01*
X115426134Y-87682760D01*
X115426704Y-87685623D01*
X115684794Y-88071881D01*
X116071052Y-88329971D01*
X116526675Y-88420600D01*
X116573325Y-88420600D01*
X117028948Y-88329971D01*
X117415206Y-88071881D01*
X117673296Y-87685623D01*
X117763925Y-87230000D01*
X117876075Y-87230000D01*
X117966704Y-87685623D01*
X118224794Y-88071881D01*
X118611052Y-88329971D01*
X119066675Y-88420600D01*
X119113325Y-88420600D01*
X119568948Y-88329971D01*
X119955206Y-88071881D01*
X120213296Y-87685623D01*
X120303925Y-87230000D01*
X120213296Y-86774377D01*
X119955206Y-86388119D01*
X119568948Y-86130029D01*
X119113325Y-86039400D01*
X119066675Y-86039400D01*
X118611052Y-86130029D01*
X118224794Y-86388119D01*
X117966704Y-86774377D01*
X117876075Y-87230000D01*
X117763925Y-87230000D01*
X117673296Y-86774377D01*
X117415206Y-86388119D01*
X117028948Y-86130029D01*
X116573325Y-86039400D01*
X116526675Y-86039400D01*
X116071052Y-86130029D01*
X115684794Y-86388119D01*
X115426704Y-86774377D01*
X115426134Y-86777240D01*
X115292688Y-86455053D01*
X114898490Y-86023179D01*
X114369027Y-85775032D01*
X114137000Y-85895531D01*
X114137000Y-87103000D01*
X114157000Y-87103000D01*
X114157000Y-87357000D01*
X114137000Y-87357000D01*
X114137000Y-87377000D01*
X113883000Y-87377000D01*
X113883000Y-87357000D01*
X113863000Y-87357000D01*
X113863000Y-87103000D01*
X113883000Y-87103000D01*
X113883000Y-85895531D01*
X113650973Y-85775032D01*
X113121510Y-86023179D01*
X112727312Y-86455053D01*
X112593866Y-86777240D01*
X112593296Y-86774377D01*
X112335206Y-86388119D01*
X111948948Y-86130029D01*
X111493325Y-86039400D01*
X111446675Y-86039400D01*
X110991052Y-86130029D01*
X110604794Y-86388119D01*
X110346704Y-86774377D01*
X110346134Y-86777240D01*
X110212688Y-86455053D01*
X109818490Y-86023179D01*
X109289027Y-85775032D01*
X109057000Y-85895531D01*
X109057000Y-87103000D01*
X109077000Y-87103000D01*
X109077000Y-87357000D01*
X109057000Y-87357000D01*
X109057000Y-87377000D01*
X108803000Y-87377000D01*
X108803000Y-87357000D01*
X108783000Y-87357000D01*
X108783000Y-87103000D01*
X108803000Y-87103000D01*
X108803000Y-85895531D01*
X108570973Y-85775032D01*
X108041510Y-86023179D01*
X107647312Y-86455053D01*
X107513866Y-86777240D01*
X107513296Y-86774377D01*
X107255206Y-86388119D01*
X106868948Y-86130029D01*
X106413325Y-86039400D01*
X106366675Y-86039400D01*
X105911052Y-86130029D01*
X105524794Y-86388119D01*
X105266704Y-86774377D01*
X105176075Y-87230000D01*
X105266704Y-87685623D01*
X105524794Y-88071881D01*
X105610876Y-88129399D01*
X104629124Y-88129399D01*
X104715206Y-88071881D01*
X104973296Y-87685623D01*
X105063925Y-87230000D01*
X104973296Y-86774377D01*
X104715206Y-86388119D01*
X104328948Y-86130029D01*
X103873325Y-86039400D01*
X103826675Y-86039400D01*
X103371052Y-86130029D01*
X102984794Y-86388119D01*
X102726704Y-86774377D01*
X102636075Y-87230000D01*
X102726704Y-87685623D01*
X102984794Y-88071881D01*
X103118727Y-88161373D01*
X103106498Y-88163805D01*
X102959859Y-88261787D01*
X102281148Y-88940498D01*
X102232313Y-89013585D01*
X102175206Y-88928119D01*
X101788948Y-88670029D01*
X101333325Y-88579400D01*
X101286675Y-88579400D01*
X100831052Y-88670029D01*
X100444794Y-88928119D01*
X100410601Y-88979292D01*
X100410601Y-88418601D01*
X100376195Y-88245628D01*
X100278214Y-88098989D01*
X99881901Y-87702677D01*
X99893296Y-87685623D01*
X99983925Y-87230000D01*
X100096075Y-87230000D01*
X100186704Y-87685623D01*
X100444794Y-88071881D01*
X100831052Y-88329971D01*
X101286675Y-88420600D01*
X101333325Y-88420600D01*
X101788948Y-88329971D01*
X102175206Y-88071881D01*
X102433296Y-87685623D01*
X102523925Y-87230000D01*
X102433296Y-86774377D01*
X102175206Y-86388119D01*
X101788948Y-86130029D01*
X101333325Y-86039400D01*
X101286675Y-86039400D01*
X100831052Y-86130029D01*
X100444794Y-86388119D01*
X100186704Y-86774377D01*
X100096075Y-87230000D01*
X99983925Y-87230000D01*
X99893296Y-86774377D01*
X99635206Y-86388119D01*
X99248948Y-86130029D01*
X98793325Y-86039400D01*
X98746675Y-86039400D01*
X98291052Y-86130029D01*
X97904794Y-86388119D01*
X97646704Y-86774377D01*
X97646134Y-86777240D01*
X97512688Y-86455053D01*
X97118490Y-86023179D01*
X96589027Y-85775032D01*
X96357000Y-85895531D01*
X96357000Y-87103000D01*
X96377000Y-87103000D01*
X96377000Y-87357000D01*
X96357000Y-87357000D01*
X96357000Y-87377000D01*
X96103000Y-87377000D01*
X96103000Y-87357000D01*
X96083000Y-87357000D01*
X96083000Y-87103000D01*
X96103000Y-87103000D01*
X96103000Y-85895531D01*
X95870973Y-85775032D01*
X95341510Y-86023179D01*
X94947312Y-86455053D01*
X94813866Y-86777240D01*
X94813296Y-86774377D01*
X94555206Y-86388119D01*
X94168948Y-86130029D01*
X93713325Y-86039400D01*
X93666675Y-86039400D01*
X93211052Y-86130029D01*
X92824794Y-86388119D01*
X92566704Y-86774377D01*
X92476075Y-87230000D01*
X92561830Y-87661122D01*
X92463680Y-87641599D01*
X92282053Y-87641599D01*
X92363925Y-87230000D01*
X92273296Y-86774377D01*
X92015206Y-86388119D01*
X91628948Y-86130029D01*
X91173325Y-86039400D01*
X91126675Y-86039400D01*
X90671052Y-86130029D01*
X90284794Y-86388119D01*
X90026704Y-86774377D01*
X90026134Y-86777240D01*
X89892688Y-86455053D01*
X89498490Y-86023179D01*
X88969027Y-85775032D01*
X88737000Y-85895531D01*
X88737000Y-87103000D01*
X88757000Y-87103000D01*
X88757000Y-87357000D01*
X88737000Y-87357000D01*
X88737000Y-87377000D01*
X88483000Y-87377000D01*
X88483000Y-87357000D01*
X88463000Y-87357000D01*
X88463000Y-87103000D01*
X88483000Y-87103000D01*
X88483000Y-85895531D01*
X88250973Y-85775032D01*
X87721510Y-86023179D01*
X87327312Y-86455053D01*
X87193866Y-86777240D01*
X87193296Y-86774377D01*
X86935206Y-86388119D01*
X86548948Y-86130029D01*
X86093325Y-86039400D01*
X86046675Y-86039400D01*
X85591052Y-86130029D01*
X85204794Y-86388119D01*
X84946704Y-86774377D01*
X84856075Y-87230000D01*
X84946704Y-87685623D01*
X85204794Y-88071881D01*
X85591052Y-88329971D01*
X86046675Y-88420600D01*
X86093325Y-88420600D01*
X86548948Y-88329971D01*
X86935206Y-88071881D01*
X87193296Y-87685623D01*
X87193866Y-87682760D01*
X87327312Y-88004947D01*
X87721510Y-88436821D01*
X88192864Y-88657734D01*
X88131052Y-88670029D01*
X87744794Y-88928119D01*
X87486704Y-89314377D01*
X87396075Y-89770000D01*
X87486704Y-90225623D01*
X87744794Y-90611881D01*
X88131052Y-90869971D01*
X88586675Y-90960600D01*
X88633325Y-90960600D01*
X89088948Y-90869971D01*
X89466540Y-90617671D01*
X89466540Y-91336596D01*
X89022907Y-91780229D01*
X88924925Y-91926868D01*
X88890519Y-92099841D01*
X88890519Y-93727561D01*
X88924925Y-93900534D01*
X89022907Y-94047173D01*
X89108734Y-94133000D01*
X88493203Y-94133000D01*
X88157590Y-94199758D01*
X87873070Y-94389867D01*
X87682961Y-94674387D01*
X87616203Y-95010000D01*
X87682961Y-95345613D01*
X87873070Y-95630133D01*
X88157590Y-95820242D01*
X88493203Y-95887000D01*
X89445197Y-95887000D01*
X89780810Y-95820242D01*
X90065330Y-95630133D01*
X90177672Y-95462000D01*
X91966970Y-95462000D01*
X91989395Y-95581179D01*
X92061012Y-95692474D01*
X92170286Y-95767138D01*
X92300000Y-95793406D01*
X93500000Y-95793406D01*
X93621179Y-95770605D01*
X93732474Y-95698988D01*
X93807138Y-95589714D01*
X93833406Y-95460000D01*
X93833406Y-94560000D01*
X93810605Y-94438821D01*
X93738988Y-94327526D01*
X93629714Y-94252862D01*
X93500000Y-94226594D01*
X92969498Y-94226594D01*
X92984674Y-94221757D01*
X93034963Y-94214657D01*
X93098372Y-94192469D01*
X93142119Y-94166663D01*
X93189564Y-94148552D01*
X93246445Y-94112811D01*
X93283350Y-94077921D01*
X93325577Y-94049705D01*
X93373080Y-94002203D01*
X93401297Y-93959973D01*
X93418918Y-93941334D01*
X93436541Y-93959975D01*
X93464757Y-94002202D01*
X93512259Y-94049705D01*
X93554489Y-94077922D01*
X93591392Y-94112811D01*
X93648273Y-94148552D01*
X93695718Y-94166663D01*
X93739465Y-94192469D01*
X93802875Y-94214657D01*
X93853162Y-94221757D01*
X93901552Y-94237180D01*
X93968309Y-94244702D01*
X94018919Y-94240433D01*
X94069530Y-94244702D01*
X94136285Y-94237180D01*
X94184674Y-94221757D01*
X94234963Y-94214657D01*
X94298372Y-94192469D01*
X94342119Y-94166663D01*
X94389564Y-94148552D01*
X94446445Y-94112811D01*
X94483350Y-94077921D01*
X94525577Y-94049705D01*
X94573080Y-94002203D01*
X94601297Y-93959973D01*
X94636186Y-93923070D01*
X94671927Y-93866189D01*
X94690038Y-93818744D01*
X94715844Y-93774997D01*
X94738032Y-93711587D01*
X94745131Y-93661301D01*
X94760555Y-93612911D01*
X94768077Y-93546155D01*
X94765926Y-93520648D01*
X94770919Y-93495544D01*
X94770919Y-93359561D01*
X94858337Y-93359561D01*
X95054200Y-93555424D01*
X95054200Y-93716575D01*
X94780388Y-93990388D01*
X94682406Y-94137027D01*
X94664590Y-94226594D01*
X94500000Y-94226594D01*
X94378821Y-94249395D01*
X94267526Y-94321012D01*
X94192862Y-94430286D01*
X94166594Y-94560000D01*
X94166594Y-95460000D01*
X94189395Y-95581179D01*
X94261012Y-95692474D01*
X94370286Y-95767138D01*
X94500000Y-95793406D01*
X95700000Y-95793406D01*
X95821179Y-95770605D01*
X95932474Y-95698988D01*
X96007138Y-95589714D01*
X96033406Y-95460000D01*
X96033406Y-94560000D01*
X96010605Y-94438821D01*
X95938988Y-94327526D01*
X95829714Y-94252862D01*
X95801979Y-94247246D01*
X95825813Y-94223412D01*
X95923794Y-94076773D01*
X95958200Y-93903800D01*
X95958200Y-93368200D01*
X95953041Y-93342265D01*
X96431220Y-93820444D01*
X96431220Y-96364301D01*
X96349136Y-96330217D01*
X96082633Y-96329984D01*
X95970408Y-96376354D01*
X95938988Y-96327526D01*
X95829714Y-96252862D01*
X95700000Y-96226594D01*
X94500000Y-96226594D01*
X94378821Y-96249395D01*
X94267526Y-96321012D01*
X94192862Y-96430286D01*
X94166594Y-96560000D01*
X94166594Y-97460000D01*
X94189395Y-97581179D01*
X94261012Y-97692474D01*
X94370286Y-97767138D01*
X94500000Y-97793406D01*
X95700000Y-97793406D01*
X95821179Y-97770605D01*
X95932474Y-97698988D01*
X95980948Y-97628045D01*
X96081464Y-97669783D01*
X96347967Y-97670016D01*
X96431220Y-97635617D01*
X96431220Y-98704558D01*
X96038806Y-99096972D01*
X96038806Y-98584600D01*
X96016005Y-98463421D01*
X95944388Y-98352126D01*
X95835114Y-98277462D01*
X95705400Y-98251194D01*
X94811218Y-98251194D01*
X94360612Y-97800588D01*
X94213973Y-97702606D01*
X94041000Y-97668200D01*
X93753511Y-97668200D01*
X93807138Y-97589714D01*
X93833406Y-97460000D01*
X93833406Y-96560000D01*
X93810605Y-96438821D01*
X93738988Y-96327526D01*
X93629714Y-96252862D01*
X93500000Y-96226594D01*
X92300000Y-96226594D01*
X92178821Y-96249395D01*
X92067526Y-96321012D01*
X91992862Y-96430286D01*
X91966999Y-96558000D01*
X90177672Y-96558000D01*
X90065330Y-96389867D01*
X89780810Y-96199758D01*
X89445197Y-96133000D01*
X88493203Y-96133000D01*
X88157590Y-96199758D01*
X87873070Y-96389867D01*
X87682961Y-96674387D01*
X87616203Y-97010000D01*
X87682961Y-97345613D01*
X87873070Y-97630133D01*
X87930042Y-97668200D01*
X86410800Y-97668200D01*
X86237827Y-97702606D01*
X86091188Y-97800588D01*
X83696636Y-100195140D01*
X82765672Y-100195140D01*
X82650291Y-100079558D01*
X82404164Y-99977357D01*
X82137661Y-99977124D01*
X81891356Y-100078895D01*
X81702746Y-100267177D01*
X81600545Y-100513304D01*
X81600312Y-100779807D01*
X80996190Y-100779807D01*
X80996190Y-98061664D01*
X84708572Y-94349282D01*
X84806554Y-94202643D01*
X84806706Y-94201880D01*
X84850955Y-94308972D01*
X85039237Y-94497582D01*
X85285364Y-94599783D01*
X85551867Y-94600016D01*
X85798172Y-94498245D01*
X85986782Y-94309963D01*
X86088983Y-94063836D01*
X86089216Y-93797333D01*
X85987445Y-93551028D01*
X85871200Y-93434580D01*
X85871200Y-93408472D01*
X86039333Y-93296130D01*
X86229442Y-93011610D01*
X86296200Y-92675997D01*
X86296200Y-91724003D01*
X86229442Y-91388390D01*
X86039333Y-91103870D01*
X85754813Y-90913761D01*
X85419200Y-90847003D01*
X85083587Y-90913761D01*
X84840960Y-91075878D01*
X84840960Y-90898244D01*
X85104812Y-90634392D01*
X85162324Y-90548320D01*
X85204794Y-90611881D01*
X85591052Y-90869971D01*
X86046675Y-90960600D01*
X86093325Y-90960600D01*
X86548948Y-90869971D01*
X86935206Y-90611881D01*
X87193296Y-90225623D01*
X87283925Y-89770000D01*
X87193296Y-89314377D01*
X86935206Y-88928119D01*
X86548948Y-88670029D01*
X86093325Y-88579400D01*
X86046675Y-88579400D01*
X85591052Y-88670029D01*
X85237200Y-88906466D01*
X85237200Y-88485200D01*
X85202794Y-88312227D01*
X85128552Y-88201117D01*
X85104812Y-88165587D01*
X84713213Y-87773989D01*
X84713211Y-87773986D01*
X84641901Y-87702676D01*
X84653296Y-87685623D01*
X84743925Y-87230000D01*
X84653296Y-86774377D01*
X84395206Y-86388119D01*
X84008948Y-86130029D01*
X83553325Y-86039400D01*
X83506675Y-86039400D01*
X83051052Y-86130029D01*
X82664794Y-86388119D01*
X82406704Y-86774377D01*
X82316075Y-87230000D01*
X82406704Y-87685623D01*
X82664794Y-88071881D01*
X83051052Y-88329971D01*
X83506675Y-88420600D01*
X83553325Y-88420600D01*
X83993766Y-88332991D01*
X84073986Y-88413211D01*
X84073989Y-88413213D01*
X84333200Y-88672425D01*
X84333200Y-88886688D01*
X84008948Y-88670029D01*
X83553325Y-88579400D01*
X83506675Y-88579400D01*
X83051052Y-88670029D01*
X82664794Y-88928119D01*
X82636499Y-88970466D01*
X82617074Y-88872809D01*
X82609785Y-88861900D01*
X82519093Y-88726170D01*
X82312658Y-88519736D01*
X82312658Y-88100658D01*
X82278252Y-87927685D01*
X82273535Y-87920626D01*
X82180270Y-87781045D01*
X82101901Y-87702676D01*
X82113296Y-87685623D01*
X82203925Y-87230000D01*
X82113296Y-86774377D01*
X81855206Y-86388119D01*
X81468948Y-86130029D01*
X81013325Y-86039400D01*
X80966675Y-86039400D01*
X80511052Y-86130029D01*
X80124794Y-86388119D01*
X79866704Y-86774377D01*
X79866134Y-86777240D01*
X79732688Y-86455053D01*
X79338490Y-86023179D01*
X78809027Y-85775032D01*
X78577000Y-85895531D01*
X78577000Y-87103000D01*
X78597000Y-87103000D01*
X78597000Y-87357000D01*
X78577000Y-87357000D01*
X78577000Y-87377000D01*
X78323000Y-87377000D01*
X78323000Y-87357000D01*
X78303000Y-87357000D01*
X78303000Y-87103000D01*
X78323000Y-87103000D01*
X78323000Y-85895531D01*
X78090973Y-85775032D01*
X77561510Y-86023179D01*
X77167312Y-86455053D01*
X77033866Y-86777240D01*
X77033296Y-86774377D01*
X76775206Y-86388119D01*
X76388948Y-86130029D01*
X75933325Y-86039400D01*
X75886675Y-86039400D01*
X75431052Y-86130029D01*
X75044794Y-86388119D01*
X74867806Y-86653000D01*
X74412194Y-86653000D01*
X74235206Y-86388119D01*
X73848948Y-86130029D01*
X73393325Y-86039400D01*
X73346675Y-86039400D01*
X72891052Y-86130029D01*
X72504794Y-86388119D01*
X72246704Y-86774377D01*
X72156075Y-87230000D01*
X72127000Y-87230000D01*
X72127000Y-85362000D01*
X125251381Y-85362000D01*
X124589582Y-85635450D01*
X124589582Y-85635450D01*
G37*
X124589582Y-85635450D02*
X123638788Y-86584586D01*
X123123588Y-87825326D01*
X123122415Y-89168780D01*
X123635450Y-90410418D01*
X124584586Y-91361212D01*
X125825326Y-91876412D01*
X127168780Y-91877585D01*
X128410418Y-91364550D01*
X129361212Y-90415414D01*
X129638000Y-89748834D01*
X129638000Y-110251381D01*
X129364550Y-109589582D01*
X128415414Y-108638788D01*
X127174674Y-108123588D01*
X125831220Y-108122415D01*
X124589582Y-108635450D01*
X123638788Y-109584586D01*
X123123588Y-110825326D01*
X123122415Y-112168780D01*
X123635450Y-113410418D01*
X124584586Y-114361212D01*
X125251166Y-114638000D01*
X72127000Y-114638000D01*
X72127000Y-113935975D01*
X85632874Y-113935975D01*
X85743320Y-114203275D01*
X85947650Y-114407961D01*
X86214756Y-114518874D01*
X86503975Y-114519126D01*
X86771275Y-114408680D01*
X86811024Y-114369000D01*
X100075995Y-114369000D01*
X100076000Y-114369001D01*
X100296808Y-114325078D01*
X100484001Y-114200001D01*
X102958923Y-111725078D01*
X103013975Y-111725126D01*
X103281275Y-111614680D01*
X103485961Y-111410350D01*
X103596874Y-111143244D01*
X103597126Y-110854025D01*
X103486680Y-110586725D01*
X103282350Y-110382039D01*
X103015244Y-110271126D01*
X102726025Y-110270874D01*
X102458725Y-110381320D01*
X102254039Y-110585650D01*
X102143126Y-110852756D01*
X102143077Y-110908922D01*
X99836998Y-113215000D01*
X86811243Y-113215000D01*
X86772350Y-113176039D01*
X86505244Y-113065126D01*
X86216025Y-113064874D01*
X85948725Y-113175320D01*
X85744039Y-113379650D01*
X85633126Y-113646756D01*
X85632874Y-113935975D01*
X72127000Y-113935975D01*
X72127000Y-106800000D01*
X72535794Y-106800000D01*
X72535794Y-108800000D01*
X72558595Y-108921179D01*
X72630212Y-109032474D01*
X72739486Y-109107138D01*
X72869200Y-109133406D01*
X73969200Y-109133406D01*
X74090379Y-109110605D01*
X74201674Y-109038988D01*
X74276338Y-108929714D01*
X74302606Y-108800000D01*
X74302606Y-106800000D01*
X74279805Y-106678821D01*
X74208188Y-106567526D01*
X74098914Y-106492862D01*
X73969200Y-106466594D01*
X72869200Y-106466594D01*
X72748021Y-106489395D01*
X72636726Y-106561012D01*
X72562062Y-106670286D01*
X72535794Y-106800000D01*
X72127000Y-106800000D01*
X72127000Y-88906400D01*
X72172994Y-88906400D01*
X72172994Y-90633600D01*
X72195795Y-90754779D01*
X72267412Y-90866074D01*
X72376686Y-90940738D01*
X72506400Y-90967006D01*
X73003900Y-90967006D01*
X72799067Y-91103870D01*
X72608958Y-91388390D01*
X72542200Y-91724003D01*
X72542200Y-92675997D01*
X72608958Y-93011610D01*
X72799067Y-93296130D01*
X72852587Y-93331891D01*
X72838418Y-93346035D01*
X72736217Y-93592162D01*
X72735984Y-93858665D01*
X72837755Y-94104970D01*
X73026037Y-94293580D01*
X73272164Y-94395781D01*
X73538667Y-94396014D01*
X73784972Y-94294243D01*
X73973582Y-94105961D01*
X74075783Y-93859834D01*
X74076016Y-93593331D01*
X73974245Y-93347026D01*
X73969810Y-93342583D01*
X74039333Y-93296130D01*
X74229442Y-93011610D01*
X74296200Y-92675997D01*
X74296200Y-91724003D01*
X74229442Y-91388390D01*
X74039333Y-91103870D01*
X73834500Y-90967006D01*
X74233600Y-90967006D01*
X74354779Y-90944205D01*
X74466074Y-90872588D01*
X74540738Y-90763314D01*
X74567006Y-90633600D01*
X74567006Y-88906400D01*
X74544205Y-88785221D01*
X74472588Y-88673926D01*
X74363314Y-88599262D01*
X74233600Y-88572994D01*
X72506400Y-88572994D01*
X72385221Y-88595795D01*
X72273926Y-88667412D01*
X72199262Y-88776686D01*
X72172994Y-88906400D01*
X72127000Y-88906400D01*
X72127000Y-87230000D01*
X72156075Y-87230000D01*
X72246704Y-87685623D01*
X72504794Y-88071881D01*
X72891052Y-88329971D01*
X73346675Y-88420600D01*
X73393325Y-88420600D01*
X73848948Y-88329971D01*
X74235206Y-88071881D01*
X74412194Y-87807000D01*
X74867806Y-87807000D01*
X75044794Y-88071881D01*
X75431052Y-88329971D01*
X75886675Y-88420600D01*
X75933325Y-88420600D01*
X76098517Y-88387741D01*
X76378783Y-88668007D01*
X75933325Y-88579400D01*
X75886675Y-88579400D01*
X75431052Y-88670029D01*
X75044794Y-88928119D01*
X74786704Y-89314377D01*
X74696075Y-89770000D01*
X74786704Y-90225623D01*
X75044794Y-90611881D01*
X75401845Y-90850455D01*
X75083587Y-90913761D01*
X74799067Y-91103870D01*
X74608958Y-91388390D01*
X74542200Y-91724003D01*
X74542200Y-92675997D01*
X74608958Y-93011610D01*
X74799067Y-93296130D01*
X74871757Y-93344700D01*
X74870418Y-93346037D01*
X74768217Y-93592164D01*
X74767984Y-93858667D01*
X74869755Y-94104972D01*
X75058037Y-94293582D01*
X75304164Y-94395783D01*
X75570667Y-94396016D01*
X75816972Y-94294245D01*
X76005582Y-94105963D01*
X76107783Y-93859836D01*
X76108016Y-93593333D01*
X76006245Y-93347028D01*
X75989005Y-93329758D01*
X76039333Y-93296130D01*
X76229442Y-93011610D01*
X76296200Y-92675997D01*
X76296200Y-91724003D01*
X76229442Y-91388390D01*
X76039333Y-91103870D01*
X75798733Y-90943107D01*
X75886675Y-90960600D01*
X75933325Y-90960600D01*
X76388948Y-90869971D01*
X76488065Y-90803743D01*
X76582583Y-91032493D01*
X76740835Y-91191021D01*
X76608958Y-91388390D01*
X76542200Y-91724003D01*
X76542200Y-92675997D01*
X76608958Y-93011610D01*
X76799067Y-93296130D01*
X77083587Y-93486239D01*
X77419200Y-93552997D01*
X77754813Y-93486239D01*
X78039333Y-93296130D01*
X78229442Y-93011610D01*
X78296200Y-92675997D01*
X78296200Y-91724003D01*
X78229442Y-91388390D01*
X78039333Y-91103870D01*
X77841047Y-90971380D01*
X77902246Y-90823996D01*
X77971052Y-90869971D01*
X78426675Y-90960600D01*
X78473325Y-90960600D01*
X78928948Y-90869971D01*
X79315206Y-90611881D01*
X79573296Y-90225623D01*
X79663925Y-89770000D01*
X79573296Y-89314377D01*
X79315206Y-88928119D01*
X78928948Y-88670029D01*
X78867136Y-88657734D01*
X79338490Y-88436821D01*
X79732688Y-88004947D01*
X79866134Y-87682760D01*
X79866704Y-87685623D01*
X80124794Y-88071881D01*
X80511052Y-88329971D01*
X80966675Y-88420600D01*
X81013325Y-88420600D01*
X81408658Y-88341963D01*
X81408658Y-88658037D01*
X81013325Y-88579400D01*
X80966675Y-88579400D01*
X80511052Y-88670029D01*
X80124794Y-88928119D01*
X79866704Y-89314377D01*
X79776075Y-89770000D01*
X79866704Y-90225623D01*
X80069068Y-90528482D01*
X80037428Y-90541555D01*
X79848818Y-90729837D01*
X79768616Y-90922984D01*
X79754813Y-90913761D01*
X79419200Y-90847003D01*
X79083587Y-90913761D01*
X78799067Y-91103870D01*
X78608958Y-91388390D01*
X78542200Y-91724003D01*
X78542200Y-92675997D01*
X78608958Y-93011610D01*
X78799067Y-93296130D01*
X79083587Y-93486239D01*
X79164995Y-93502432D01*
X76224578Y-96442849D01*
X76126596Y-96589488D01*
X76092190Y-96762461D01*
X76092190Y-106782977D01*
X76039333Y-106703870D01*
X75754813Y-106513761D01*
X75419200Y-106447003D01*
X75083587Y-106513761D01*
X74799067Y-106703870D01*
X74608958Y-106988390D01*
X74542200Y-107324003D01*
X74542200Y-108275997D01*
X74608958Y-108611610D01*
X74799067Y-108896130D01*
X75083587Y-109086239D01*
X75419200Y-109152997D01*
X75679570Y-109101206D01*
X75341649Y-109439127D01*
X75178333Y-109438984D01*
X74932028Y-109540755D01*
X74743418Y-109729037D01*
X74641217Y-109975164D01*
X74640984Y-110241667D01*
X74742755Y-110487972D01*
X74931037Y-110676582D01*
X75177164Y-110778783D01*
X75443667Y-110779016D01*
X75689972Y-110677245D01*
X75878582Y-110488963D01*
X75980783Y-110242836D01*
X75980927Y-110078297D01*
X76863802Y-109195422D01*
X76891000Y-109154718D01*
X76891000Y-109740656D01*
X76775418Y-109856037D01*
X76673217Y-110102164D01*
X76672984Y-110368667D01*
X76774755Y-110614972D01*
X76963037Y-110803582D01*
X77209164Y-110905783D01*
X77475667Y-110906016D01*
X77721972Y-110804245D01*
X77910582Y-110615963D01*
X78012783Y-110369836D01*
X78013016Y-110103333D01*
X77911245Y-109857028D01*
X77795000Y-109740580D01*
X77795000Y-109059387D01*
X78023840Y-108906482D01*
X78023840Y-110834745D01*
X78058246Y-111007718D01*
X78156228Y-111154357D01*
X79818393Y-112816522D01*
X79965032Y-112914504D01*
X80138005Y-112948910D01*
X85505088Y-112948910D01*
X85615244Y-112926999D01*
X86134756Y-112926999D01*
X86244912Y-112948910D01*
X86355068Y-112926999D01*
X97583001Y-112926999D01*
X97755974Y-112892593D01*
X97902613Y-112794611D01*
X103311224Y-107386000D01*
X106493400Y-107386000D01*
X106666373Y-107351594D01*
X106813012Y-107253612D01*
X108450533Y-105616091D01*
X108469377Y-105628682D01*
X108925000Y-105719311D01*
X109380623Y-105628682D01*
X109766881Y-105370592D01*
X110024971Y-104984334D01*
X110115600Y-104528711D01*
X110115600Y-104171289D01*
X110274400Y-104171289D01*
X110274400Y-104528711D01*
X110365029Y-104984334D01*
X110623119Y-105370592D01*
X111009377Y-105628682D01*
X111465000Y-105719311D01*
X111920623Y-105628682D01*
X112306881Y-105370592D01*
X112564971Y-104984334D01*
X112583146Y-104892961D01*
X112713046Y-105264320D01*
X113102964Y-105700732D01*
X113630209Y-105954709D01*
X113645974Y-105957358D01*
X113878000Y-105836217D01*
X113878000Y-104477000D01*
X113858000Y-104477000D01*
X113858000Y-104223000D01*
X113878000Y-104223000D01*
X113878000Y-102863783D01*
X114132000Y-102863783D01*
X114132000Y-104223000D01*
X114152000Y-104223000D01*
X114152000Y-104477000D01*
X114132000Y-104477000D01*
X114132000Y-105836217D01*
X114364026Y-105957358D01*
X114379791Y-105954709D01*
X114907036Y-105700732D01*
X115296954Y-105264320D01*
X115426854Y-104892961D01*
X115445029Y-104984334D01*
X115703119Y-105370592D01*
X116089377Y-105628682D01*
X116545000Y-105719311D01*
X117000623Y-105628682D01*
X117386881Y-105370592D01*
X117644971Y-104984334D01*
X117735600Y-104528711D01*
X117735600Y-104171289D01*
X117894400Y-104171289D01*
X117894400Y-104528711D01*
X117985029Y-104984334D01*
X118243119Y-105370592D01*
X118629377Y-105628682D01*
X119085000Y-105719311D01*
X119540623Y-105628682D01*
X119926881Y-105370592D01*
X120184971Y-104984334D01*
X120203146Y-104892961D01*
X120333046Y-105264320D01*
X120722964Y-105700732D01*
X121250209Y-105954709D01*
X121265974Y-105957358D01*
X121498000Y-105836217D01*
X121498000Y-104477000D01*
X121752000Y-104477000D01*
X121752000Y-105836217D01*
X121984026Y-105957358D01*
X121999791Y-105954709D01*
X122527036Y-105700732D01*
X122916954Y-105264320D01*
X123110184Y-104711913D01*
X122965924Y-104477000D01*
X121752000Y-104477000D01*
X121498000Y-104477000D01*
X121478000Y-104477000D01*
X121478000Y-104223000D01*
X121498000Y-104223000D01*
X121498000Y-102863783D01*
X121752000Y-102863783D01*
X121752000Y-104223000D01*
X122965924Y-104223000D01*
X123110184Y-103988087D01*
X122916954Y-103435680D01*
X122527036Y-102999268D01*
X121999791Y-102745291D01*
X121984026Y-102742642D01*
X121752000Y-102863783D01*
X121498000Y-102863783D01*
X121265974Y-102742642D01*
X121250209Y-102745291D01*
X120722964Y-102999268D01*
X120333046Y-103435680D01*
X120203146Y-103807039D01*
X120184971Y-103715666D01*
X119926881Y-103329408D01*
X119566000Y-103088274D01*
X119566000Y-102604406D01*
X119864000Y-102604406D01*
X119985179Y-102581605D01*
X120096474Y-102509988D01*
X120171138Y-102400714D01*
X120197406Y-102271000D01*
X120197406Y-101021000D01*
X120174605Y-100899821D01*
X120102988Y-100788526D01*
X119993714Y-100713862D01*
X119864000Y-100687594D01*
X118364000Y-100687594D01*
X118242821Y-100710395D01*
X118131526Y-100782012D01*
X118056862Y-100891286D01*
X118030594Y-101021000D01*
X118030594Y-102271000D01*
X118053395Y-102392179D01*
X118125012Y-102503474D01*
X118234286Y-102578138D01*
X118364000Y-102604406D01*
X118662000Y-102604406D01*
X118662000Y-103064829D01*
X118629377Y-103071318D01*
X118243119Y-103329408D01*
X117985029Y-103715666D01*
X117894400Y-104171289D01*
X117735600Y-104171289D01*
X117644971Y-103715666D01*
X117386881Y-103329408D01*
X117006000Y-103074911D01*
X117006000Y-102604406D01*
X117304000Y-102604406D01*
X117425179Y-102581605D01*
X117536474Y-102509988D01*
X117611138Y-102400714D01*
X117637406Y-102271000D01*
X117637406Y-101021000D01*
X117614605Y-100899821D01*
X117542988Y-100788526D01*
X117433714Y-100713862D01*
X117304000Y-100687594D01*
X115804000Y-100687594D01*
X115682821Y-100710395D01*
X115571526Y-100782012D01*
X115496862Y-100891286D01*
X115470594Y-101021000D01*
X115470594Y-102271000D01*
X115493395Y-102392179D01*
X115565012Y-102503474D01*
X115674286Y-102578138D01*
X115804000Y-102604406D01*
X116102000Y-102604406D01*
X116102000Y-103068807D01*
X116089377Y-103071318D01*
X115703119Y-103329408D01*
X115445029Y-103715666D01*
X115426854Y-103807039D01*
X115296954Y-103435680D01*
X114907036Y-102999268D01*
X114379791Y-102745291D01*
X114364026Y-102742642D01*
X114132000Y-102863783D01*
X113878000Y-102863783D01*
X113645974Y-102742642D01*
X113630209Y-102745291D01*
X113102964Y-102999268D01*
X112713046Y-103435680D01*
X112583146Y-103807039D01*
X112564971Y-103715666D01*
X112306881Y-103329408D01*
X111920623Y-103071318D01*
X111465000Y-102980689D01*
X111009377Y-103071318D01*
X110623119Y-103329408D01*
X110365029Y-103715666D01*
X110274400Y-104171289D01*
X110115600Y-104171289D01*
X110024971Y-103715666D01*
X109766881Y-103329408D01*
X109380623Y-103071318D01*
X108925000Y-102980689D01*
X108469377Y-103071318D01*
X108083119Y-103329408D01*
X107825029Y-103715666D01*
X107734400Y-104171289D01*
X107734400Y-104528711D01*
X107821514Y-104966662D01*
X106306176Y-106482000D01*
X105044624Y-106482000D01*
X105910533Y-105616091D01*
X105929377Y-105628682D01*
X106385000Y-105719311D01*
X106840623Y-105628682D01*
X107226881Y-105370592D01*
X107484971Y-104984334D01*
X107575600Y-104528711D01*
X107575600Y-104171289D01*
X107484971Y-103715666D01*
X107226881Y-103329408D01*
X106840623Y-103071318D01*
X106385000Y-102980689D01*
X105929377Y-103071318D01*
X105543119Y-103329408D01*
X105285029Y-103715666D01*
X105194400Y-104171289D01*
X105194400Y-104528711D01*
X105281514Y-104966662D01*
X104274176Y-105974000D01*
X102931962Y-105974000D01*
X102758989Y-106008406D01*
X102612349Y-106106388D01*
X97156738Y-111562000D01*
X96774000Y-111562000D01*
X96718759Y-111572988D01*
X85340599Y-111572988D01*
X85230443Y-111594899D01*
X80511629Y-111594899D01*
X80462000Y-111545270D01*
X80462000Y-109915224D01*
X80863802Y-109513422D01*
X80961784Y-109366783D01*
X80996190Y-109193810D01*
X80996190Y-109027843D01*
X81083587Y-109086239D01*
X81419200Y-109152997D01*
X81754813Y-109086239D01*
X82039333Y-108896130D01*
X82229442Y-108611610D01*
X82296200Y-108275997D01*
X82296200Y-107324003D01*
X82542200Y-107324003D01*
X82542200Y-108275997D01*
X82608958Y-108611610D01*
X82799067Y-108896130D01*
X83083587Y-109086239D01*
X83419200Y-109152997D01*
X83754813Y-109086239D01*
X84039333Y-108896130D01*
X84229442Y-108611610D01*
X84296200Y-108275997D01*
X84296200Y-107324003D01*
X84542200Y-107324003D01*
X84542200Y-108275997D01*
X84608958Y-108611610D01*
X84799067Y-108896130D01*
X85083587Y-109086239D01*
X85419200Y-109152997D01*
X85754813Y-109086239D01*
X86039333Y-108896130D01*
X86229442Y-108611610D01*
X86296200Y-108275997D01*
X86296200Y-107324003D01*
X86542200Y-107324003D01*
X86542200Y-108275997D01*
X86608958Y-108611610D01*
X86799067Y-108896130D01*
X87083587Y-109086239D01*
X87419200Y-109152997D01*
X87754813Y-109086239D01*
X88039333Y-108896130D01*
X88201118Y-108654000D01*
X89919394Y-108654000D01*
X89919394Y-108702000D01*
X89942195Y-108823179D01*
X90013812Y-108934474D01*
X90123086Y-109009138D01*
X90252800Y-109035406D01*
X91752800Y-109035406D01*
X91873979Y-109012605D01*
X91985274Y-108940988D01*
X92059938Y-108831714D01*
X92086206Y-108702000D01*
X92086206Y-107452000D01*
X92063405Y-107330821D01*
X91991788Y-107219526D01*
X91882514Y-107144862D01*
X91752800Y-107118594D01*
X90252800Y-107118594D01*
X90131621Y-107141395D01*
X90020326Y-107213012D01*
X89945662Y-107322286D01*
X89919394Y-107452000D01*
X89919394Y-107500000D01*
X88296200Y-107500000D01*
X88296200Y-107324003D01*
X88229442Y-106988390D01*
X88039333Y-106703870D01*
X87902000Y-106612108D01*
X87902000Y-106101243D01*
X87940961Y-106062350D01*
X88051874Y-105795244D01*
X88051914Y-105749632D01*
X88157590Y-105820242D01*
X88493203Y-105887000D01*
X89445197Y-105887000D01*
X89780810Y-105820242D01*
X90065330Y-105630133D01*
X90177672Y-105462000D01*
X91966970Y-105462000D01*
X91989395Y-105581179D01*
X92061012Y-105692474D01*
X92170286Y-105767138D01*
X92300000Y-105793406D01*
X93500000Y-105793406D01*
X93621179Y-105770605D01*
X93732474Y-105698988D01*
X93807138Y-105589714D01*
X93833406Y-105460000D01*
X93833406Y-104560000D01*
X93810605Y-104438821D01*
X93738988Y-104327526D01*
X93629714Y-104252862D01*
X93500000Y-104226594D01*
X92300000Y-104226594D01*
X92178821Y-104249395D01*
X92067526Y-104321012D01*
X91992862Y-104430286D01*
X91966999Y-104558000D01*
X90177672Y-104558000D01*
X90065330Y-104389867D01*
X89780810Y-104199758D01*
X89445197Y-104133000D01*
X88572224Y-104133000D01*
X88559908Y-104120684D01*
X88560016Y-103997333D01*
X88514427Y-103887000D01*
X89445197Y-103887000D01*
X89780810Y-103820242D01*
X90065330Y-103630133D01*
X90177672Y-103462000D01*
X91966970Y-103462000D01*
X91989395Y-103581179D01*
X92061012Y-103692474D01*
X92170286Y-103767138D01*
X92300000Y-103793406D01*
X93500000Y-103793406D01*
X93621179Y-103770605D01*
X93732474Y-103698988D01*
X93807138Y-103589714D01*
X93833406Y-103460000D01*
X93833406Y-102560000D01*
X93810605Y-102438821D01*
X93738988Y-102327526D01*
X93629714Y-102252862D01*
X93500000Y-102226594D01*
X92300000Y-102226594D01*
X92178821Y-102249395D01*
X92067526Y-102321012D01*
X91992862Y-102430286D01*
X91966999Y-102558000D01*
X90177672Y-102558000D01*
X90065330Y-102389867D01*
X89780810Y-102199758D01*
X89445197Y-102133000D01*
X88519368Y-102133000D01*
X88539783Y-102083836D01*
X88539955Y-101887000D01*
X89445197Y-101887000D01*
X89780810Y-101820242D01*
X90065330Y-101630133D01*
X90255439Y-101345613D01*
X90322197Y-101010000D01*
X90255439Y-100674387D01*
X90065330Y-100389867D01*
X89780810Y-100199758D01*
X89445197Y-100133000D01*
X88493203Y-100133000D01*
X88157590Y-100199758D01*
X87873070Y-100389867D01*
X87682961Y-100674387D01*
X87616203Y-101010000D01*
X87675027Y-101305728D01*
X87491028Y-101381755D01*
X87302418Y-101570037D01*
X87200217Y-101816164D01*
X87199984Y-102082667D01*
X87301755Y-102328972D01*
X87490037Y-102517582D01*
X87723077Y-102614349D01*
X87682961Y-102674387D01*
X87616203Y-103010000D01*
X87682961Y-103345613D01*
X87759382Y-103459986D01*
X87757333Y-103459984D01*
X87511028Y-103561755D01*
X87322418Y-103750037D01*
X87220217Y-103996164D01*
X87219984Y-104262667D01*
X87321755Y-104508972D01*
X87510037Y-104697582D01*
X87665506Y-104762138D01*
X87621029Y-104985738D01*
X87470244Y-104923126D01*
X87181025Y-104922874D01*
X86913725Y-105033320D01*
X86709039Y-105237650D01*
X86598126Y-105504756D01*
X86597874Y-105793975D01*
X86708320Y-106061275D01*
X86748000Y-106101024D01*
X86748000Y-106780298D01*
X86608958Y-106988390D01*
X86542200Y-107324003D01*
X86296200Y-107324003D01*
X86229442Y-106988390D01*
X86039333Y-106703870D01*
X85754813Y-106513761D01*
X85419200Y-106447003D01*
X85083587Y-106513761D01*
X84799067Y-106703870D01*
X84608958Y-106988390D01*
X84542200Y-107324003D01*
X84296200Y-107324003D01*
X84229442Y-106988390D01*
X84039333Y-106703870D01*
X83754813Y-106513761D01*
X83419200Y-106447003D01*
X83083587Y-106513761D01*
X82799067Y-106703870D01*
X82608958Y-106988390D01*
X82542200Y-107324003D01*
X82296200Y-107324003D01*
X82229442Y-106988390D01*
X82039333Y-106703870D01*
X81754813Y-106513761D01*
X81419200Y-106447003D01*
X81083587Y-106513761D01*
X80996190Y-106572157D01*
X80996190Y-100779807D01*
X81600312Y-100779807D01*
X81702083Y-101026112D01*
X81890365Y-101214722D01*
X82136492Y-101316923D01*
X82402995Y-101317156D01*
X82649300Y-101215385D01*
X82765748Y-101099140D01*
X83883860Y-101099140D01*
X84056833Y-101064734D01*
X84203472Y-100966752D01*
X86598024Y-98572200D01*
X87751240Y-98572200D01*
X87682961Y-98674387D01*
X87616203Y-99010000D01*
X87682961Y-99345613D01*
X87873070Y-99630133D01*
X88157590Y-99820242D01*
X88493203Y-99887000D01*
X89445197Y-99887000D01*
X89780810Y-99820242D01*
X90065330Y-99630133D01*
X90177672Y-99462000D01*
X91971994Y-99462000D01*
X91971994Y-99484600D01*
X91994795Y-99605779D01*
X92066412Y-99717074D01*
X92175686Y-99791738D01*
X92305400Y-99818006D01*
X93505400Y-99818006D01*
X93626579Y-99795205D01*
X93737874Y-99723588D01*
X93812538Y-99614314D01*
X93838806Y-99484600D01*
X93838806Y-98584600D01*
X93836473Y-98572200D01*
X93853776Y-98572200D01*
X94171994Y-98890418D01*
X94171994Y-99484600D01*
X94194795Y-99605779D01*
X94266412Y-99717074D01*
X94375686Y-99791738D01*
X94505400Y-99818006D01*
X95242534Y-99818006D01*
X95087187Y-99848906D01*
X94940547Y-99946888D01*
X94780388Y-100107048D01*
X94682406Y-100253687D01*
X94648000Y-100426660D01*
X94648000Y-100437940D01*
X94518664Y-100437940D01*
X94493561Y-100442933D01*
X94468060Y-100440782D01*
X94401304Y-100448303D01*
X94352914Y-100463726D01*
X94302621Y-100470826D01*
X94239211Y-100493014D01*
X94195464Y-100518820D01*
X94148019Y-100536931D01*
X94091138Y-100572672D01*
X94054235Y-100607561D01*
X94012005Y-100635778D01*
X93964503Y-100683281D01*
X93936287Y-100725508D01*
X93901397Y-100762413D01*
X93865656Y-100819294D01*
X93847545Y-100866739D01*
X93821739Y-100910486D01*
X93799551Y-100973895D01*
X93792451Y-101024184D01*
X93777028Y-101072574D01*
X93769506Y-101139330D01*
X93773775Y-101189941D01*
X93769506Y-101240551D01*
X93777028Y-101307306D01*
X93792451Y-101355695D01*
X93799551Y-101405984D01*
X93821739Y-101469393D01*
X93847545Y-101513140D01*
X93865656Y-101560585D01*
X93901397Y-101617466D01*
X93936287Y-101654371D01*
X93964503Y-101696598D01*
X94012005Y-101744101D01*
X94054235Y-101772318D01*
X94091138Y-101807207D01*
X94148019Y-101842948D01*
X94195464Y-101861059D01*
X94239211Y-101886865D01*
X94302621Y-101909053D01*
X94352907Y-101916152D01*
X94401297Y-101931576D01*
X94468053Y-101939098D01*
X94493560Y-101936947D01*
X94518664Y-101941940D01*
X94802088Y-101941940D01*
X94782732Y-101962413D01*
X94746991Y-102019294D01*
X94728880Y-102066739D01*
X94703074Y-102110486D01*
X94680886Y-102173895D01*
X94673785Y-102224190D01*
X94673019Y-102226594D01*
X94500000Y-102226594D01*
X94378821Y-102249395D01*
X94267526Y-102321012D01*
X94192862Y-102430286D01*
X94166594Y-102560000D01*
X94166594Y-103460000D01*
X94189395Y-103581179D01*
X94261012Y-103692474D01*
X94370286Y-103767138D01*
X94500000Y-103793406D01*
X95700000Y-103793406D01*
X95821179Y-103770605D01*
X95902499Y-103718277D01*
X95394182Y-104226594D01*
X94500000Y-104226594D01*
X94378821Y-104249395D01*
X94267526Y-104321012D01*
X94192862Y-104430286D01*
X94166594Y-104560000D01*
X94166594Y-105460000D01*
X94189395Y-105581179D01*
X94261012Y-105692474D01*
X94370286Y-105767138D01*
X94500000Y-105793406D01*
X95700000Y-105793406D01*
X95821179Y-105770605D01*
X95932474Y-105698988D01*
X96007138Y-105589714D01*
X96033406Y-105460000D01*
X96033406Y-104865818D01*
X96263474Y-104635750D01*
X97266400Y-104635750D01*
X97266400Y-105492309D01*
X97363073Y-105725698D01*
X97541701Y-105904327D01*
X97775090Y-106001000D01*
X98479250Y-106001000D01*
X98638000Y-105842250D01*
X98638000Y-104477000D01*
X97425150Y-104477000D01*
X97266400Y-104635750D01*
X96263474Y-104635750D01*
X97266400Y-103632825D01*
X97266400Y-104064250D01*
X97425150Y-104223000D01*
X98638000Y-104223000D01*
X98638000Y-102857750D01*
X98479250Y-102699000D01*
X97952000Y-102699000D01*
X97952000Y-97635703D01*
X98034074Y-97669783D01*
X98300577Y-97670016D01*
X98546882Y-97568245D01*
X98735492Y-97379963D01*
X98737873Y-97374229D01*
X98819612Y-97319612D01*
X99319612Y-96819612D01*
X99417594Y-96672973D01*
X99452000Y-96500000D01*
X99452000Y-91437224D01*
X100278214Y-90611011D01*
X100361213Y-90486794D01*
X100444794Y-90611881D01*
X100831052Y-90869971D01*
X101286675Y-90960600D01*
X101311765Y-90960600D01*
X99756388Y-92515977D01*
X99658406Y-92662616D01*
X99624000Y-92835589D01*
X99624000Y-102699000D01*
X99050750Y-102699000D01*
X98892000Y-102857750D01*
X98892000Y-104223000D01*
X98912000Y-104223000D01*
X98912000Y-104477000D01*
X98892000Y-104477000D01*
X98892000Y-105842250D01*
X99050750Y-106001000D01*
X99624000Y-106001000D01*
X99624000Y-106136776D01*
X95722780Y-110037996D01*
X83045344Y-110037996D01*
X82929963Y-109922414D01*
X82683836Y-109820213D01*
X82417333Y-109819980D01*
X82171028Y-109921751D01*
X81982418Y-110110033D01*
X81880217Y-110356160D01*
X81879984Y-110622663D01*
X81981755Y-110868968D01*
X82170037Y-111057578D01*
X82416164Y-111159779D01*
X82682667Y-111160012D01*
X82928972Y-111058241D01*
X83045420Y-110941996D01*
X95910004Y-110941996D01*
X96082977Y-110907590D01*
X96229616Y-110809608D01*
X100395612Y-106643612D01*
X100493594Y-106496973D01*
X100528000Y-106324000D01*
X100528000Y-105413944D01*
X100849377Y-105628682D01*
X101305000Y-105719311D01*
X101760623Y-105628682D01*
X102146881Y-105370592D01*
X102404971Y-104984334D01*
X102495600Y-104528711D01*
X102495600Y-104171289D01*
X102654400Y-104171289D01*
X102654400Y-104528711D01*
X102745029Y-104984334D01*
X103003119Y-105370592D01*
X103389377Y-105628682D01*
X103845000Y-105719311D01*
X104300623Y-105628682D01*
X104686881Y-105370592D01*
X104944971Y-104984334D01*
X105035600Y-104528711D01*
X105035600Y-104171289D01*
X104944971Y-103715666D01*
X104686881Y-103329408D01*
X104300623Y-103071318D01*
X103845000Y-102980689D01*
X103389377Y-103071318D01*
X103003119Y-103329408D01*
X102745029Y-103715666D01*
X102654400Y-104171289D01*
X102495600Y-104171289D01*
X102404971Y-103715666D01*
X102146881Y-103329408D01*
X101760623Y-103071318D01*
X101305000Y-102980689D01*
X100849377Y-103071318D01*
X100528000Y-103286056D01*
X100528000Y-101021000D01*
X112970594Y-101021000D01*
X112970594Y-102271000D01*
X112993395Y-102392179D01*
X113065012Y-102503474D01*
X113174286Y-102578138D01*
X113304000Y-102604406D01*
X114804000Y-102604406D01*
X114925179Y-102581605D01*
X115036474Y-102509988D01*
X115111138Y-102400714D01*
X115137406Y-102271000D01*
X115137406Y-101201818D01*
X116020818Y-100318406D01*
X117304000Y-100318406D01*
X117425179Y-100295605D01*
X117536474Y-100223988D01*
X117611138Y-100114714D01*
X117637406Y-99985000D01*
X117637406Y-98735000D01*
X117614605Y-98613821D01*
X117542988Y-98502526D01*
X117433714Y-98427862D01*
X117304000Y-98401594D01*
X117090000Y-98401594D01*
X117090000Y-98111406D01*
X117238000Y-98111406D01*
X117359179Y-98088605D01*
X117470474Y-98016988D01*
X117545138Y-97907714D01*
X117571406Y-97778000D01*
X117571406Y-96878000D01*
X117992594Y-96878000D01*
X117992594Y-97778000D01*
X118015395Y-97899179D01*
X118087012Y-98010474D01*
X118196286Y-98085138D01*
X118326000Y-98111406D01*
X118474000Y-98111406D01*
X118474000Y-98401594D01*
X118344000Y-98401594D01*
X118222821Y-98424395D01*
X118111526Y-98496012D01*
X118036862Y-98605286D01*
X118010594Y-98735000D01*
X118010594Y-99985000D01*
X118033395Y-100106179D01*
X118105012Y-100217474D01*
X118214286Y-100292138D01*
X118344000Y-100318406D01*
X119679182Y-100318406D01*
X120530594Y-101169819D01*
X120530594Y-102271000D01*
X120553395Y-102392179D01*
X120625012Y-102503474D01*
X120734286Y-102578138D01*
X120864000Y-102604406D01*
X122364000Y-102604406D01*
X122485179Y-102581605D01*
X122596474Y-102509988D01*
X122671138Y-102400714D01*
X122697406Y-102271000D01*
X122697406Y-101021000D01*
X122674605Y-100899821D01*
X122602988Y-100788526D01*
X122493714Y-100713862D01*
X122364000Y-100687594D01*
X121326819Y-100687594D01*
X120177406Y-99538182D01*
X120177406Y-98735000D01*
X120154605Y-98613821D01*
X120082988Y-98502526D01*
X119973714Y-98427862D01*
X119844000Y-98401594D01*
X119378000Y-98401594D01*
X119378000Y-98111406D01*
X119526000Y-98111406D01*
X119647179Y-98088605D01*
X119758474Y-98016988D01*
X119833138Y-97907714D01*
X119859406Y-97778000D01*
X119859406Y-96878000D01*
X119836605Y-96756821D01*
X119764988Y-96645526D01*
X119655714Y-96570862D01*
X119526000Y-96544594D01*
X119452000Y-96544594D01*
X119452000Y-96313030D01*
X119571179Y-96290605D01*
X119682474Y-96218988D01*
X119757138Y-96109714D01*
X119783406Y-95980000D01*
X119783406Y-94780000D01*
X119760605Y-94658821D01*
X119688988Y-94547526D01*
X119579714Y-94472862D01*
X119450000Y-94446594D01*
X118550000Y-94446594D01*
X118428821Y-94469395D01*
X118317526Y-94541012D01*
X118242862Y-94650286D01*
X118216594Y-94780000D01*
X118216594Y-95980000D01*
X118239395Y-96101179D01*
X118311012Y-96212474D01*
X118420286Y-96287138D01*
X118548000Y-96313001D01*
X118548000Y-96544594D01*
X118326000Y-96544594D01*
X118204821Y-96567395D01*
X118093526Y-96639012D01*
X118018862Y-96748286D01*
X117992594Y-96878000D01*
X117571406Y-96878000D01*
X117548605Y-96756821D01*
X117476988Y-96645526D01*
X117367714Y-96570862D01*
X117238000Y-96544594D01*
X117052000Y-96544594D01*
X117052000Y-96313030D01*
X117171179Y-96290605D01*
X117282474Y-96218988D01*
X117357138Y-96109714D01*
X117383406Y-95980000D01*
X117383406Y-94780000D01*
X117360605Y-94658821D01*
X117288988Y-94547526D01*
X117179714Y-94472862D01*
X117050000Y-94446594D01*
X116150000Y-94446594D01*
X116028821Y-94469395D01*
X115917526Y-94541012D01*
X115842862Y-94650286D01*
X115816594Y-94780000D01*
X115816594Y-95980000D01*
X115839395Y-96101179D01*
X115911012Y-96212474D01*
X116020286Y-96287138D01*
X116148000Y-96313001D01*
X116148000Y-96544594D01*
X116038000Y-96544594D01*
X115916821Y-96567395D01*
X115805526Y-96639012D01*
X115730862Y-96748286D01*
X115704594Y-96878000D01*
X115704594Y-97778000D01*
X115727395Y-97899179D01*
X115799012Y-98010474D01*
X115908286Y-98085138D01*
X116038000Y-98111406D01*
X116186000Y-98111406D01*
X116186000Y-98401594D01*
X115804000Y-98401594D01*
X115682821Y-98424395D01*
X115571526Y-98496012D01*
X115496862Y-98605286D01*
X115470594Y-98735000D01*
X115470594Y-99590182D01*
X114373182Y-100687594D01*
X113304000Y-100687594D01*
X113182821Y-100710395D01*
X113071526Y-100782012D01*
X112996862Y-100891286D01*
X112970594Y-101021000D01*
X100528000Y-101021000D01*
X100528000Y-93022813D01*
X102776588Y-90774225D01*
X102961510Y-90976821D01*
X103490973Y-91224968D01*
X103723000Y-91104469D01*
X103723000Y-89897000D01*
X103703000Y-89897000D01*
X103703000Y-89643000D01*
X103723000Y-89643000D01*
X103723000Y-89623000D01*
X103977000Y-89623000D01*
X103977000Y-89643000D01*
X103997000Y-89643000D01*
X103997000Y-89897000D01*
X103977000Y-89897000D01*
X103977000Y-91104469D01*
X104209027Y-91224968D01*
X104738490Y-90976821D01*
X105132688Y-90544947D01*
X105266134Y-90222760D01*
X105266704Y-90225623D01*
X105524794Y-90611881D01*
X105911052Y-90869971D01*
X106366675Y-90960600D01*
X106413325Y-90960600D01*
X106868948Y-90869971D01*
X107255206Y-90611881D01*
X107513296Y-90225623D01*
X107603925Y-89770000D01*
X107513296Y-89314377D01*
X107325552Y-89033399D01*
X107554175Y-89033399D01*
X107818099Y-89297323D01*
X107806704Y-89314377D01*
X107716075Y-89770000D01*
X107806704Y-90225623D01*
X108064794Y-90611881D01*
X108451052Y-90869971D01*
X108906675Y-90960600D01*
X108953325Y-90960600D01*
X109408948Y-90869971D01*
X109795206Y-90611881D01*
X109848868Y-90531570D01*
X109880388Y-90578742D01*
X112801258Y-93499612D01*
X112947897Y-93597594D01*
X113120870Y-93632000D01*
X115816594Y-93632000D01*
X115816594Y-93780000D01*
X115839395Y-93901179D01*
X115911012Y-94012474D01*
X116020286Y-94087138D01*
X116150000Y-94113406D01*
X117050000Y-94113406D01*
X117171179Y-94090605D01*
X117282474Y-94018988D01*
X117357138Y-93909714D01*
X117383406Y-93780000D01*
X117383406Y-92580000D01*
X117360605Y-92458821D01*
X117288988Y-92347526D01*
X117179714Y-92272862D01*
X117050000Y-92246594D01*
X116150000Y-92246594D01*
X116028821Y-92269395D01*
X115917526Y-92341012D01*
X115842862Y-92450286D01*
X115816594Y-92580000D01*
X115816594Y-92728000D01*
X113308094Y-92728000D01*
X111532835Y-90952741D01*
X111948948Y-90869971D01*
X112335206Y-90611881D01*
X112593296Y-90225623D01*
X112683925Y-89770000D01*
X112593296Y-89314377D01*
X112335206Y-88928119D01*
X111948948Y-88670029D01*
X111493325Y-88579400D01*
X111446675Y-88579400D01*
X111088598Y-88650626D01*
X111339869Y-88399355D01*
X111446675Y-88420600D01*
X111493325Y-88420600D01*
X111948948Y-88329971D01*
X112335206Y-88071881D01*
X112593296Y-87685623D01*
X112593866Y-87682760D01*
X112727312Y-88004947D01*
X113121510Y-88436821D01*
X113592864Y-88657734D01*
X113531052Y-88670029D01*
X113144794Y-88928119D01*
X112886704Y-89314377D01*
X112796075Y-89770000D01*
X112886704Y-90225623D01*
X113144794Y-90611881D01*
X113531052Y-90869971D01*
X113986675Y-90960600D01*
X114033325Y-90960600D01*
X114473767Y-90872991D01*
X115320388Y-91719612D01*
X115467027Y-91817594D01*
X115640000Y-91852000D01*
X118312776Y-91852000D01*
X118548000Y-92087224D01*
X118548000Y-92246970D01*
X118428821Y-92269395D01*
X118317526Y-92341012D01*
X118242862Y-92450286D01*
X118216594Y-92580000D01*
X118216594Y-93780000D01*
X118239395Y-93901179D01*
X118311012Y-94012474D01*
X118420286Y-94087138D01*
X118550000Y-94113406D01*
X119450000Y-94113406D01*
X119571179Y-94090605D01*
X119682474Y-94018988D01*
X119757138Y-93909714D01*
X119783406Y-93780000D01*
X119783406Y-92580000D01*
X119760605Y-92458821D01*
X119688988Y-92347526D01*
X119579714Y-92272862D01*
X119452000Y-92246999D01*
X119452000Y-91900000D01*
X119417594Y-91727027D01*
X119319612Y-91580388D01*
X118819612Y-91080388D01*
X118672973Y-90982406D01*
X118500000Y-90948000D01*
X116636670Y-90948000D01*
X117028948Y-90869971D01*
X117415206Y-90611881D01*
X117673296Y-90225623D01*
X117763925Y-89770000D01*
X117876075Y-89770000D01*
X117966704Y-90225623D01*
X118224794Y-90611881D01*
X118611052Y-90869971D01*
X119066675Y-90960600D01*
X119113325Y-90960600D01*
X119568948Y-90869971D01*
X119955206Y-90611881D01*
X120213296Y-90225623D01*
X120213866Y-90222760D01*
X120347312Y-90544947D01*
X120741510Y-90976821D01*
X121270973Y-91224968D01*
X121503000Y-91104469D01*
X121503000Y-89897000D01*
X121757000Y-89897000D01*
X121757000Y-91104469D01*
X121989027Y-91224968D01*
X122518490Y-90976821D01*
X122912688Y-90544947D01*
X123084958Y-90129026D01*
X122963817Y-89897000D01*
X121757000Y-89897000D01*
X121503000Y-89897000D01*
X121483000Y-89897000D01*
X121483000Y-89643000D01*
X121503000Y-89643000D01*
X121503000Y-89623000D01*
X121757000Y-89623000D01*
X121757000Y-89643000D01*
X122963817Y-89643000D01*
X123084958Y-89410974D01*
X122912688Y-88995053D01*
X122518490Y-88563179D01*
X122047136Y-88342266D01*
X122108948Y-88329971D01*
X122495206Y-88071881D01*
X122753296Y-87685623D01*
X122843925Y-87230000D01*
X122753296Y-86774377D01*
X122495206Y-86388119D01*
X122108948Y-86130029D01*
X121653325Y-86039400D01*
X121606675Y-86039400D01*
X121151052Y-86130029D01*
X120764794Y-86388119D01*
X120506704Y-86774377D01*
X120416075Y-87230000D01*
X120506704Y-87685623D01*
X120764794Y-88071881D01*
X121151052Y-88329971D01*
X121212864Y-88342266D01*
X120741510Y-88563179D01*
X120347312Y-88995053D01*
X120213866Y-89317240D01*
X120213296Y-89314377D01*
X119955206Y-88928119D01*
X119568948Y-88670029D01*
X119113325Y-88579400D01*
X119066675Y-88579400D01*
X118611052Y-88670029D01*
X118224794Y-88928119D01*
X117966704Y-89314377D01*
X117876075Y-89770000D01*
X117763925Y-89770000D01*
X117673296Y-89314377D01*
X117415206Y-88928119D01*
X117028948Y-88670029D01*
X116573325Y-88579400D01*
X116526675Y-88579400D01*
X116071052Y-88670029D01*
X115684794Y-88928119D01*
X115426704Y-89314377D01*
X115336075Y-89770000D01*
X115426704Y-90225623D01*
X115684794Y-90611881D01*
X116071052Y-90869971D01*
X116463330Y-90948000D01*
X115827224Y-90948000D01*
X115121901Y-90242677D01*
X115133296Y-90225623D01*
X115223925Y-89770000D01*
X115133296Y-89314377D01*
X114875206Y-88928119D01*
X114488948Y-88670029D01*
X114427136Y-88657734D01*
X114898490Y-88436821D01*
X115292688Y-88004947D01*
X115426134Y-87682760D01*
X115426704Y-87685623D01*
X115684794Y-88071881D01*
X116071052Y-88329971D01*
X116526675Y-88420600D01*
X116573325Y-88420600D01*
X117028948Y-88329971D01*
X117415206Y-88071881D01*
X117673296Y-87685623D01*
X117763925Y-87230000D01*
X117876075Y-87230000D01*
X117966704Y-87685623D01*
X118224794Y-88071881D01*
X118611052Y-88329971D01*
X119066675Y-88420600D01*
X119113325Y-88420600D01*
X119568948Y-88329971D01*
X119955206Y-88071881D01*
X120213296Y-87685623D01*
X120303925Y-87230000D01*
X120213296Y-86774377D01*
X119955206Y-86388119D01*
X119568948Y-86130029D01*
X119113325Y-86039400D01*
X119066675Y-86039400D01*
X118611052Y-86130029D01*
X118224794Y-86388119D01*
X117966704Y-86774377D01*
X117876075Y-87230000D01*
X117763925Y-87230000D01*
X117673296Y-86774377D01*
X117415206Y-86388119D01*
X117028948Y-86130029D01*
X116573325Y-86039400D01*
X116526675Y-86039400D01*
X116071052Y-86130029D01*
X115684794Y-86388119D01*
X115426704Y-86774377D01*
X115426134Y-86777240D01*
X115292688Y-86455053D01*
X114898490Y-86023179D01*
X114369027Y-85775032D01*
X114137000Y-85895531D01*
X114137000Y-87103000D01*
X114157000Y-87103000D01*
X114157000Y-87357000D01*
X114137000Y-87357000D01*
X114137000Y-87377000D01*
X113883000Y-87377000D01*
X113883000Y-87357000D01*
X113863000Y-87357000D01*
X113863000Y-87103000D01*
X113883000Y-87103000D01*
X113883000Y-85895531D01*
X113650973Y-85775032D01*
X113121510Y-86023179D01*
X112727312Y-86455053D01*
X112593866Y-86777240D01*
X112593296Y-86774377D01*
X112335206Y-86388119D01*
X111948948Y-86130029D01*
X111493325Y-86039400D01*
X111446675Y-86039400D01*
X110991052Y-86130029D01*
X110604794Y-86388119D01*
X110346704Y-86774377D01*
X110346134Y-86777240D01*
X110212688Y-86455053D01*
X109818490Y-86023179D01*
X109289027Y-85775032D01*
X109057000Y-85895531D01*
X109057000Y-87103000D01*
X109077000Y-87103000D01*
X109077000Y-87357000D01*
X109057000Y-87357000D01*
X109057000Y-87377000D01*
X108803000Y-87377000D01*
X108803000Y-87357000D01*
X108783000Y-87357000D01*
X108783000Y-87103000D01*
X108803000Y-87103000D01*
X108803000Y-85895531D01*
X108570973Y-85775032D01*
X108041510Y-86023179D01*
X107647312Y-86455053D01*
X107513866Y-86777240D01*
X107513296Y-86774377D01*
X107255206Y-86388119D01*
X106868948Y-86130029D01*
X106413325Y-86039400D01*
X106366675Y-86039400D01*
X105911052Y-86130029D01*
X105524794Y-86388119D01*
X105266704Y-86774377D01*
X105176075Y-87230000D01*
X105266704Y-87685623D01*
X105524794Y-88071881D01*
X105610876Y-88129399D01*
X104629124Y-88129399D01*
X104715206Y-88071881D01*
X104973296Y-87685623D01*
X105063925Y-87230000D01*
X104973296Y-86774377D01*
X104715206Y-86388119D01*
X104328948Y-86130029D01*
X103873325Y-86039400D01*
X103826675Y-86039400D01*
X103371052Y-86130029D01*
X102984794Y-86388119D01*
X102726704Y-86774377D01*
X102636075Y-87230000D01*
X102726704Y-87685623D01*
X102984794Y-88071881D01*
X103118727Y-88161373D01*
X103106498Y-88163805D01*
X102959859Y-88261787D01*
X102281148Y-88940498D01*
X102232313Y-89013585D01*
X102175206Y-88928119D01*
X101788948Y-88670029D01*
X101333325Y-88579400D01*
X101286675Y-88579400D01*
X100831052Y-88670029D01*
X100444794Y-88928119D01*
X100410601Y-88979292D01*
X100410601Y-88418601D01*
X100376195Y-88245628D01*
X100278214Y-88098989D01*
X99881901Y-87702677D01*
X99893296Y-87685623D01*
X99983925Y-87230000D01*
X100096075Y-87230000D01*
X100186704Y-87685623D01*
X100444794Y-88071881D01*
X100831052Y-88329971D01*
X101286675Y-88420600D01*
X101333325Y-88420600D01*
X101788948Y-88329971D01*
X102175206Y-88071881D01*
X102433296Y-87685623D01*
X102523925Y-87230000D01*
X102433296Y-86774377D01*
X102175206Y-86388119D01*
X101788948Y-86130029D01*
X101333325Y-86039400D01*
X101286675Y-86039400D01*
X100831052Y-86130029D01*
X100444794Y-86388119D01*
X100186704Y-86774377D01*
X100096075Y-87230000D01*
X99983925Y-87230000D01*
X99893296Y-86774377D01*
X99635206Y-86388119D01*
X99248948Y-86130029D01*
X98793325Y-86039400D01*
X98746675Y-86039400D01*
X98291052Y-86130029D01*
X97904794Y-86388119D01*
X97646704Y-86774377D01*
X97646134Y-86777240D01*
X97512688Y-86455053D01*
X97118490Y-86023179D01*
X96589027Y-85775032D01*
X96357000Y-85895531D01*
X96357000Y-87103000D01*
X96377000Y-87103000D01*
X96377000Y-87357000D01*
X96357000Y-87357000D01*
X96357000Y-87377000D01*
X96103000Y-87377000D01*
X96103000Y-87357000D01*
X96083000Y-87357000D01*
X96083000Y-87103000D01*
X96103000Y-87103000D01*
X96103000Y-85895531D01*
X95870973Y-85775032D01*
X95341510Y-86023179D01*
X94947312Y-86455053D01*
X94813866Y-86777240D01*
X94813296Y-86774377D01*
X94555206Y-86388119D01*
X94168948Y-86130029D01*
X93713325Y-86039400D01*
X93666675Y-86039400D01*
X93211052Y-86130029D01*
X92824794Y-86388119D01*
X92566704Y-86774377D01*
X92476075Y-87230000D01*
X92561830Y-87661122D01*
X92463680Y-87641599D01*
X92282053Y-87641599D01*
X92363925Y-87230000D01*
X92273296Y-86774377D01*
X92015206Y-86388119D01*
X91628948Y-86130029D01*
X91173325Y-86039400D01*
X91126675Y-86039400D01*
X90671052Y-86130029D01*
X90284794Y-86388119D01*
X90026704Y-86774377D01*
X90026134Y-86777240D01*
X89892688Y-86455053D01*
X89498490Y-86023179D01*
X88969027Y-85775032D01*
X88737000Y-85895531D01*
X88737000Y-87103000D01*
X88757000Y-87103000D01*
X88757000Y-87357000D01*
X88737000Y-87357000D01*
X88737000Y-87377000D01*
X88483000Y-87377000D01*
X88483000Y-87357000D01*
X88463000Y-87357000D01*
X88463000Y-87103000D01*
X88483000Y-87103000D01*
X88483000Y-85895531D01*
X88250973Y-85775032D01*
X87721510Y-86023179D01*
X87327312Y-86455053D01*
X87193866Y-86777240D01*
X87193296Y-86774377D01*
X86935206Y-86388119D01*
X86548948Y-86130029D01*
X86093325Y-86039400D01*
X86046675Y-86039400D01*
X85591052Y-86130029D01*
X85204794Y-86388119D01*
X84946704Y-86774377D01*
X84856075Y-87230000D01*
X84946704Y-87685623D01*
X85204794Y-88071881D01*
X85591052Y-88329971D01*
X86046675Y-88420600D01*
X86093325Y-88420600D01*
X86548948Y-88329971D01*
X86935206Y-88071881D01*
X87193296Y-87685623D01*
X87193866Y-87682760D01*
X87327312Y-88004947D01*
X87721510Y-88436821D01*
X88192864Y-88657734D01*
X88131052Y-88670029D01*
X87744794Y-88928119D01*
X87486704Y-89314377D01*
X87396075Y-89770000D01*
X87486704Y-90225623D01*
X87744794Y-90611881D01*
X88131052Y-90869971D01*
X88586675Y-90960600D01*
X88633325Y-90960600D01*
X89088948Y-90869971D01*
X89466540Y-90617671D01*
X89466540Y-91336596D01*
X89022907Y-91780229D01*
X88924925Y-91926868D01*
X88890519Y-92099841D01*
X88890519Y-93727561D01*
X88924925Y-93900534D01*
X89022907Y-94047173D01*
X89108734Y-94133000D01*
X88493203Y-94133000D01*
X88157590Y-94199758D01*
X87873070Y-94389867D01*
X87682961Y-94674387D01*
X87616203Y-95010000D01*
X87682961Y-95345613D01*
X87873070Y-95630133D01*
X88157590Y-95820242D01*
X88493203Y-95887000D01*
X89445197Y-95887000D01*
X89780810Y-95820242D01*
X90065330Y-95630133D01*
X90177672Y-95462000D01*
X91966970Y-95462000D01*
X91989395Y-95581179D01*
X92061012Y-95692474D01*
X92170286Y-95767138D01*
X92300000Y-95793406D01*
X93500000Y-95793406D01*
X93621179Y-95770605D01*
X93732474Y-95698988D01*
X93807138Y-95589714D01*
X93833406Y-95460000D01*
X93833406Y-94560000D01*
X93810605Y-94438821D01*
X93738988Y-94327526D01*
X93629714Y-94252862D01*
X93500000Y-94226594D01*
X92969498Y-94226594D01*
X92984674Y-94221757D01*
X93034963Y-94214657D01*
X93098372Y-94192469D01*
X93142119Y-94166663D01*
X93189564Y-94148552D01*
X93246445Y-94112811D01*
X93283350Y-94077921D01*
X93325577Y-94049705D01*
X93373080Y-94002203D01*
X93401297Y-93959973D01*
X93418918Y-93941334D01*
X93436541Y-93959975D01*
X93464757Y-94002202D01*
X93512259Y-94049705D01*
X93554489Y-94077922D01*
X93591392Y-94112811D01*
X93648273Y-94148552D01*
X93695718Y-94166663D01*
X93739465Y-94192469D01*
X93802875Y-94214657D01*
X93853162Y-94221757D01*
X93901552Y-94237180D01*
X93968309Y-94244702D01*
X94018919Y-94240433D01*
X94069530Y-94244702D01*
X94136285Y-94237180D01*
X94184674Y-94221757D01*
X94234963Y-94214657D01*
X94298372Y-94192469D01*
X94342119Y-94166663D01*
X94389564Y-94148552D01*
X94446445Y-94112811D01*
X94483350Y-94077921D01*
X94525577Y-94049705D01*
X94573080Y-94002203D01*
X94601297Y-93959973D01*
X94636186Y-93923070D01*
X94671927Y-93866189D01*
X94690038Y-93818744D01*
X94715844Y-93774997D01*
X94738032Y-93711587D01*
X94745131Y-93661301D01*
X94760555Y-93612911D01*
X94768077Y-93546155D01*
X94765926Y-93520648D01*
X94770919Y-93495544D01*
X94770919Y-93359561D01*
X94858337Y-93359561D01*
X95054200Y-93555424D01*
X95054200Y-93716575D01*
X94780388Y-93990388D01*
X94682406Y-94137027D01*
X94664590Y-94226594D01*
X94500000Y-94226594D01*
X94378821Y-94249395D01*
X94267526Y-94321012D01*
X94192862Y-94430286D01*
X94166594Y-94560000D01*
X94166594Y-95460000D01*
X94189395Y-95581179D01*
X94261012Y-95692474D01*
X94370286Y-95767138D01*
X94500000Y-95793406D01*
X95700000Y-95793406D01*
X95821179Y-95770605D01*
X95932474Y-95698988D01*
X96007138Y-95589714D01*
X96033406Y-95460000D01*
X96033406Y-94560000D01*
X96010605Y-94438821D01*
X95938988Y-94327526D01*
X95829714Y-94252862D01*
X95801979Y-94247246D01*
X95825813Y-94223412D01*
X95923794Y-94076773D01*
X95958200Y-93903800D01*
X95958200Y-93368200D01*
X95953041Y-93342265D01*
X96431220Y-93820444D01*
X96431220Y-96364301D01*
X96349136Y-96330217D01*
X96082633Y-96329984D01*
X95970408Y-96376354D01*
X95938988Y-96327526D01*
X95829714Y-96252862D01*
X95700000Y-96226594D01*
X94500000Y-96226594D01*
X94378821Y-96249395D01*
X94267526Y-96321012D01*
X94192862Y-96430286D01*
X94166594Y-96560000D01*
X94166594Y-97460000D01*
X94189395Y-97581179D01*
X94261012Y-97692474D01*
X94370286Y-97767138D01*
X94500000Y-97793406D01*
X95700000Y-97793406D01*
X95821179Y-97770605D01*
X95932474Y-97698988D01*
X95980948Y-97628045D01*
X96081464Y-97669783D01*
X96347967Y-97670016D01*
X96431220Y-97635617D01*
X96431220Y-98704558D01*
X96038806Y-99096972D01*
X96038806Y-98584600D01*
X96016005Y-98463421D01*
X95944388Y-98352126D01*
X95835114Y-98277462D01*
X95705400Y-98251194D01*
X94811218Y-98251194D01*
X94360612Y-97800588D01*
X94213973Y-97702606D01*
X94041000Y-97668200D01*
X93753511Y-97668200D01*
X93807138Y-97589714D01*
X93833406Y-97460000D01*
X93833406Y-96560000D01*
X93810605Y-96438821D01*
X93738988Y-96327526D01*
X93629714Y-96252862D01*
X93500000Y-96226594D01*
X92300000Y-96226594D01*
X92178821Y-96249395D01*
X92067526Y-96321012D01*
X91992862Y-96430286D01*
X91966999Y-96558000D01*
X90177672Y-96558000D01*
X90065330Y-96389867D01*
X89780810Y-96199758D01*
X89445197Y-96133000D01*
X88493203Y-96133000D01*
X88157590Y-96199758D01*
X87873070Y-96389867D01*
X87682961Y-96674387D01*
X87616203Y-97010000D01*
X87682961Y-97345613D01*
X87873070Y-97630133D01*
X87930042Y-97668200D01*
X86410800Y-97668200D01*
X86237827Y-97702606D01*
X86091188Y-97800588D01*
X83696636Y-100195140D01*
X82765672Y-100195140D01*
X82650291Y-100079558D01*
X82404164Y-99977357D01*
X82137661Y-99977124D01*
X81891356Y-100078895D01*
X81702746Y-100267177D01*
X81600545Y-100513304D01*
X81600312Y-100779807D01*
X80996190Y-100779807D01*
X80996190Y-98061664D01*
X84708572Y-94349282D01*
X84806554Y-94202643D01*
X84806706Y-94201880D01*
X84850955Y-94308972D01*
X85039237Y-94497582D01*
X85285364Y-94599783D01*
X85551867Y-94600016D01*
X85798172Y-94498245D01*
X85986782Y-94309963D01*
X86088983Y-94063836D01*
X86089216Y-93797333D01*
X85987445Y-93551028D01*
X85871200Y-93434580D01*
X85871200Y-93408472D01*
X86039333Y-93296130D01*
X86229442Y-93011610D01*
X86296200Y-92675997D01*
X86296200Y-91724003D01*
X86229442Y-91388390D01*
X86039333Y-91103870D01*
X85754813Y-90913761D01*
X85419200Y-90847003D01*
X85083587Y-90913761D01*
X84840960Y-91075878D01*
X84840960Y-90898244D01*
X85104812Y-90634392D01*
X85162324Y-90548320D01*
X85204794Y-90611881D01*
X85591052Y-90869971D01*
X86046675Y-90960600D01*
X86093325Y-90960600D01*
X86548948Y-90869971D01*
X86935206Y-90611881D01*
X87193296Y-90225623D01*
X87283925Y-89770000D01*
X87193296Y-89314377D01*
X86935206Y-88928119D01*
X86548948Y-88670029D01*
X86093325Y-88579400D01*
X86046675Y-88579400D01*
X85591052Y-88670029D01*
X85237200Y-88906466D01*
X85237200Y-88485200D01*
X85202794Y-88312227D01*
X85128552Y-88201117D01*
X85104812Y-88165587D01*
X84713213Y-87773989D01*
X84713211Y-87773986D01*
X84641901Y-87702676D01*
X84653296Y-87685623D01*
X84743925Y-87230000D01*
X84653296Y-86774377D01*
X84395206Y-86388119D01*
X84008948Y-86130029D01*
X83553325Y-86039400D01*
X83506675Y-86039400D01*
X83051052Y-86130029D01*
X82664794Y-86388119D01*
X82406704Y-86774377D01*
X82316075Y-87230000D01*
X82406704Y-87685623D01*
X82664794Y-88071881D01*
X83051052Y-88329971D01*
X83506675Y-88420600D01*
X83553325Y-88420600D01*
X83993766Y-88332991D01*
X84073986Y-88413211D01*
X84073989Y-88413213D01*
X84333200Y-88672425D01*
X84333200Y-88886688D01*
X84008948Y-88670029D01*
X83553325Y-88579400D01*
X83506675Y-88579400D01*
X83051052Y-88670029D01*
X82664794Y-88928119D01*
X82636499Y-88970466D01*
X82617074Y-88872809D01*
X82609785Y-88861900D01*
X82519093Y-88726170D01*
X82312658Y-88519736D01*
X82312658Y-88100658D01*
X82278252Y-87927685D01*
X82273535Y-87920626D01*
X82180270Y-87781045D01*
X82101901Y-87702676D01*
X82113296Y-87685623D01*
X82203925Y-87230000D01*
X82113296Y-86774377D01*
X81855206Y-86388119D01*
X81468948Y-86130029D01*
X81013325Y-86039400D01*
X80966675Y-86039400D01*
X80511052Y-86130029D01*
X80124794Y-86388119D01*
X79866704Y-86774377D01*
X79866134Y-86777240D01*
X79732688Y-86455053D01*
X79338490Y-86023179D01*
X78809027Y-85775032D01*
X78577000Y-85895531D01*
X78577000Y-87103000D01*
X78597000Y-87103000D01*
X78597000Y-87357000D01*
X78577000Y-87357000D01*
X78577000Y-87377000D01*
X78323000Y-87377000D01*
X78323000Y-87357000D01*
X78303000Y-87357000D01*
X78303000Y-87103000D01*
X78323000Y-87103000D01*
X78323000Y-85895531D01*
X78090973Y-85775032D01*
X77561510Y-86023179D01*
X77167312Y-86455053D01*
X77033866Y-86777240D01*
X77033296Y-86774377D01*
X76775206Y-86388119D01*
X76388948Y-86130029D01*
X75933325Y-86039400D01*
X75886675Y-86039400D01*
X75431052Y-86130029D01*
X75044794Y-86388119D01*
X74867806Y-86653000D01*
X74412194Y-86653000D01*
X74235206Y-86388119D01*
X73848948Y-86130029D01*
X73393325Y-86039400D01*
X73346675Y-86039400D01*
X72891052Y-86130029D01*
X72504794Y-86388119D01*
X72246704Y-86774377D01*
X72156075Y-87230000D01*
X72127000Y-87230000D01*
X72127000Y-85362000D01*
X125251381Y-85362000D01*
X124589582Y-85635450D01*
G36*
X80092190Y-109006586D02*
X79690388Y-109408388D01*
X79592406Y-109555027D01*
X79558000Y-109728000D01*
X79558000Y-111277681D01*
X78927840Y-110647521D01*
X78927840Y-108982173D01*
X79083587Y-109086239D01*
X79419200Y-109152997D01*
X79754813Y-109086239D01*
X80039333Y-108896130D01*
X80092190Y-108817023D01*
X80092190Y-109006586D01*
X80092190Y-109006586D01*
G37*
X80092190Y-109006586D02*
X79690388Y-109408388D01*
X79592406Y-109555027D01*
X79558000Y-109728000D01*
X79558000Y-111277681D01*
X78927840Y-110647521D01*
X78927840Y-108982173D01*
X79083587Y-109086239D01*
X79419200Y-109152997D01*
X79754813Y-109086239D01*
X80039333Y-108896130D01*
X80092190Y-108817023D01*
X80092190Y-109006586D01*
G36*
X80799067Y-93296130D02*
X80967200Y-93408472D01*
X80967200Y-93434656D01*
X80851618Y-93550037D01*
X80749417Y-93796164D01*
X80749184Y-94062667D01*
X80850955Y-94308972D01*
X81039237Y-94497582D01*
X81285364Y-94599783D01*
X81551867Y-94600016D01*
X81798172Y-94498245D01*
X81953220Y-94343467D01*
X81953220Y-95189776D01*
X79774567Y-97368428D01*
X79676585Y-97515067D01*
X79642179Y-97688040D01*
X79642179Y-105153837D01*
X78156228Y-106639788D01*
X78076371Y-106759301D01*
X78039333Y-106703870D01*
X77754813Y-106513761D01*
X77419200Y-106447003D01*
X77083587Y-106513761D01*
X76996190Y-106572157D01*
X76996190Y-96949685D01*
X80736012Y-93209863D01*
X80738719Y-93205812D01*
X80799067Y-93296130D01*
X80799067Y-93296130D01*
G37*
X80799067Y-93296130D02*
X80967200Y-93408472D01*
X80967200Y-93434656D01*
X80851618Y-93550037D01*
X80749417Y-93796164D01*
X80749184Y-94062667D01*
X80850955Y-94308972D01*
X81039237Y-94497582D01*
X81285364Y-94599783D01*
X81551867Y-94600016D01*
X81798172Y-94498245D01*
X81953220Y-94343467D01*
X81953220Y-95189776D01*
X79774567Y-97368428D01*
X79676585Y-97515067D01*
X79642179Y-97688040D01*
X79642179Y-105153837D01*
X78156228Y-106639788D01*
X78076371Y-106759301D01*
X78039333Y-106703870D01*
X77754813Y-106513761D01*
X77419200Y-106447003D01*
X77083587Y-106513761D01*
X76996190Y-106572157D01*
X76996190Y-96949685D01*
X80736012Y-93209863D01*
X80738719Y-93205812D01*
X80799067Y-93296130D01*
G36*
X97048000Y-102572775D02*
X95955528Y-103665248D01*
X96007138Y-103589714D01*
X96033406Y-103460000D01*
X96033406Y-102560000D01*
X96014102Y-102457408D01*
X96051981Y-102442948D01*
X96108862Y-102407207D01*
X96145767Y-102372317D01*
X96187994Y-102344101D01*
X96235497Y-102296599D01*
X96263714Y-102254369D01*
X96298603Y-102217466D01*
X96334344Y-102160585D01*
X96352455Y-102113140D01*
X96378261Y-102069393D01*
X96400449Y-102005983D01*
X96407548Y-101955697D01*
X96422972Y-101907307D01*
X96430494Y-101840551D01*
X96426225Y-101789940D01*
X96430494Y-101739330D01*
X96422972Y-101672573D01*
X96407549Y-101624183D01*
X96400449Y-101573896D01*
X96378261Y-101510486D01*
X96352455Y-101466739D01*
X96334344Y-101419294D01*
X96298603Y-101362413D01*
X96263714Y-101325510D01*
X96235497Y-101283280D01*
X96187994Y-101235778D01*
X96145767Y-101207562D01*
X96108862Y-101172672D01*
X96051981Y-101136931D01*
X96004536Y-101118820D01*
X95960789Y-101093014D01*
X95897380Y-101070826D01*
X95847085Y-101063725D01*
X95798696Y-101048303D01*
X95731940Y-101040782D01*
X95706438Y-101042933D01*
X95681336Y-101037940D01*
X95397912Y-101037940D01*
X95417268Y-101017466D01*
X95453009Y-100960585D01*
X95471120Y-100913140D01*
X95496926Y-100869393D01*
X95519114Y-100805983D01*
X95526214Y-100755690D01*
X95540069Y-100712221D01*
X95681475Y-100684094D01*
X95828114Y-100586112D01*
X97048000Y-99366226D01*
X97048000Y-102572775D01*
X97048000Y-102572775D01*
G37*
X97048000Y-102572775D02*
X95955528Y-103665248D01*
X96007138Y-103589714D01*
X96033406Y-103460000D01*
X96033406Y-102560000D01*
X96014102Y-102457408D01*
X96051981Y-102442948D01*
X96108862Y-102407207D01*
X96145767Y-102372317D01*
X96187994Y-102344101D01*
X96235497Y-102296599D01*
X96263714Y-102254369D01*
X96298603Y-102217466D01*
X96334344Y-102160585D01*
X96352455Y-102113140D01*
X96378261Y-102069393D01*
X96400449Y-102005983D01*
X96407548Y-101955697D01*
X96422972Y-101907307D01*
X96430494Y-101840551D01*
X96426225Y-101789940D01*
X96430494Y-101739330D01*
X96422972Y-101672573D01*
X96407549Y-101624183D01*
X96400449Y-101573896D01*
X96378261Y-101510486D01*
X96352455Y-101466739D01*
X96334344Y-101419294D01*
X96298603Y-101362413D01*
X96263714Y-101325510D01*
X96235497Y-101283280D01*
X96187994Y-101235778D01*
X96145767Y-101207562D01*
X96108862Y-101172672D01*
X96051981Y-101136931D01*
X96004536Y-101118820D01*
X95960789Y-101093014D01*
X95897380Y-101070826D01*
X95847085Y-101063725D01*
X95798696Y-101048303D01*
X95731940Y-101040782D01*
X95706438Y-101042933D01*
X95681336Y-101037940D01*
X95397912Y-101037940D01*
X95417268Y-101017466D01*
X95453009Y-100960585D01*
X95471120Y-100913140D01*
X95496926Y-100869393D01*
X95519114Y-100805983D01*
X95526214Y-100755690D01*
X95540069Y-100712221D01*
X95681475Y-100684094D01*
X95828114Y-100586112D01*
X97048000Y-99366226D01*
X97048000Y-102572775D01*
G36*
X97646704Y-87685623D02*
X97904794Y-88071881D01*
X98291052Y-88329971D01*
X98746675Y-88420600D01*
X98793325Y-88420600D01*
X99233766Y-88332991D01*
X99506601Y-88605826D01*
X99506601Y-88842188D01*
X99248948Y-88670029D01*
X98793325Y-88579400D01*
X98746675Y-88579400D01*
X98291052Y-88670029D01*
X97904794Y-88928119D01*
X97646704Y-89314377D01*
X97556075Y-89770000D01*
X97646704Y-90225623D01*
X97904794Y-90611881D01*
X98291052Y-90869971D01*
X98670346Y-90945417D01*
X98582406Y-91077027D01*
X98548000Y-91250000D01*
X98548000Y-96312776D01*
X98463424Y-96397352D01*
X98301746Y-96330217D01*
X98035243Y-96329984D01*
X97952000Y-96364379D01*
X97952000Y-93250000D01*
X97917594Y-93077027D01*
X97819612Y-92930388D01*
X95761217Y-90871993D01*
X96206675Y-90960600D01*
X96253325Y-90960600D01*
X96708948Y-90869971D01*
X97095206Y-90611881D01*
X97353296Y-90225623D01*
X97443925Y-89770000D01*
X97353296Y-89314377D01*
X97095206Y-88928119D01*
X96708948Y-88670029D01*
X96647136Y-88657734D01*
X97118490Y-88436821D01*
X97512688Y-88004947D01*
X97646134Y-87682760D01*
X97646704Y-87685623D01*
X97646704Y-87685623D01*
G37*
X97646704Y-87685623D02*
X97904794Y-88071881D01*
X98291052Y-88329971D01*
X98746675Y-88420600D01*
X98793325Y-88420600D01*
X99233766Y-88332991D01*
X99506601Y-88605826D01*
X99506601Y-88842188D01*
X99248948Y-88670029D01*
X98793325Y-88579400D01*
X98746675Y-88579400D01*
X98291052Y-88670029D01*
X97904794Y-88928119D01*
X97646704Y-89314377D01*
X97556075Y-89770000D01*
X97646704Y-90225623D01*
X97904794Y-90611881D01*
X98291052Y-90869971D01*
X98670346Y-90945417D01*
X98582406Y-91077027D01*
X98548000Y-91250000D01*
X98548000Y-96312776D01*
X98463424Y-96397352D01*
X98301746Y-96330217D01*
X98035243Y-96329984D01*
X97952000Y-96364379D01*
X97952000Y-93250000D01*
X97917594Y-93077027D01*
X97819612Y-92930388D01*
X95761217Y-90871993D01*
X96206675Y-90960600D01*
X96253325Y-90960600D01*
X96708948Y-90869971D01*
X97095206Y-90611881D01*
X97353296Y-90225623D01*
X97443925Y-89770000D01*
X97353296Y-89314377D01*
X97095206Y-88928119D01*
X96708948Y-88670029D01*
X96647136Y-88657734D01*
X97118490Y-88436821D01*
X97512688Y-88004947D01*
X97646134Y-87682760D01*
X97646704Y-87685623D01*
G36*
X92236541Y-93959975D02*
X92264757Y-94002202D01*
X92312259Y-94049705D01*
X92354489Y-94077922D01*
X92391392Y-94112811D01*
X92448273Y-94148552D01*
X92495718Y-94166663D01*
X92539465Y-94192469D01*
X92602875Y-94214657D01*
X92653162Y-94221757D01*
X92668339Y-94226594D01*
X92300000Y-94226594D01*
X92178821Y-94249395D01*
X92067526Y-94321012D01*
X91992862Y-94430286D01*
X91966999Y-94558000D01*
X90177672Y-94558000D01*
X90157601Y-94527961D01*
X90334121Y-94527961D01*
X90507094Y-94493555D01*
X90653733Y-94395573D01*
X91057686Y-93991620D01*
X91064757Y-94002202D01*
X91112259Y-94049705D01*
X91154489Y-94077922D01*
X91191392Y-94112811D01*
X91248273Y-94148552D01*
X91295718Y-94166663D01*
X91339465Y-94192469D01*
X91402875Y-94214657D01*
X91453162Y-94221757D01*
X91501552Y-94237180D01*
X91568309Y-94244702D01*
X91618919Y-94240433D01*
X91669530Y-94244702D01*
X91736285Y-94237180D01*
X91784674Y-94221757D01*
X91834963Y-94214657D01*
X91898372Y-94192469D01*
X91942119Y-94166663D01*
X91989564Y-94148552D01*
X92046445Y-94112811D01*
X92083350Y-94077921D01*
X92125577Y-94049705D01*
X92173080Y-94002203D01*
X92201297Y-93959973D01*
X92218918Y-93941334D01*
X92236541Y-93959975D01*
X92236541Y-93959975D01*
G37*
X92236541Y-93959975D02*
X92264757Y-94002202D01*
X92312259Y-94049705D01*
X92354489Y-94077922D01*
X92391392Y-94112811D01*
X92448273Y-94148552D01*
X92495718Y-94166663D01*
X92539465Y-94192469D01*
X92602875Y-94214657D01*
X92653162Y-94221757D01*
X92668339Y-94226594D01*
X92300000Y-94226594D01*
X92178821Y-94249395D01*
X92067526Y-94321012D01*
X91992862Y-94430286D01*
X91966999Y-94558000D01*
X90177672Y-94558000D01*
X90157601Y-94527961D01*
X90334121Y-94527961D01*
X90507094Y-94493555D01*
X90653733Y-94395573D01*
X91057686Y-93991620D01*
X91064757Y-94002202D01*
X91112259Y-94049705D01*
X91154489Y-94077922D01*
X91191392Y-94112811D01*
X91248273Y-94148552D01*
X91295718Y-94166663D01*
X91339465Y-94192469D01*
X91402875Y-94214657D01*
X91453162Y-94221757D01*
X91501552Y-94237180D01*
X91568309Y-94244702D01*
X91618919Y-94240433D01*
X91669530Y-94244702D01*
X91736285Y-94237180D01*
X91784674Y-94221757D01*
X91834963Y-94214657D01*
X91898372Y-94192469D01*
X91942119Y-94166663D01*
X91989564Y-94148552D01*
X92046445Y-94112811D01*
X92083350Y-94077921D01*
X92125577Y-94049705D01*
X92173080Y-94002203D01*
X92201297Y-93959973D01*
X92218918Y-93941334D01*
X92236541Y-93959975D01*
G36*
X93091258Y-91569612D02*
X93237897Y-91667594D01*
X93410870Y-91702000D01*
X94312776Y-91702000D01*
X95071496Y-92460720D01*
X95045561Y-92455561D01*
X94618919Y-92455561D01*
X94593817Y-92460554D01*
X94568315Y-92458403D01*
X94501559Y-92465924D01*
X94453168Y-92481347D01*
X94402875Y-92488447D01*
X94339465Y-92510635D01*
X94295718Y-92536441D01*
X94248273Y-92554552D01*
X94191392Y-92590293D01*
X94170919Y-92609649D01*
X94170919Y-92469578D01*
X94165926Y-92444474D01*
X94168077Y-92418967D01*
X94160555Y-92352211D01*
X94145131Y-92303821D01*
X94138032Y-92253535D01*
X94115844Y-92190125D01*
X94090038Y-92146378D01*
X94071927Y-92098933D01*
X94036186Y-92042052D01*
X94001297Y-92005149D01*
X93973080Y-91962919D01*
X93925577Y-91915417D01*
X93883350Y-91887201D01*
X93846445Y-91852311D01*
X93789564Y-91816570D01*
X93742119Y-91798459D01*
X93698372Y-91772653D01*
X93634963Y-91750465D01*
X93584674Y-91743365D01*
X93536285Y-91727942D01*
X93469530Y-91720420D01*
X93418919Y-91724689D01*
X93368309Y-91720420D01*
X93301552Y-91727942D01*
X93253162Y-91743365D01*
X93202875Y-91750465D01*
X93139465Y-91772653D01*
X93095718Y-91798459D01*
X93048273Y-91816570D01*
X92991392Y-91852311D01*
X92954489Y-91887200D01*
X92912259Y-91915417D01*
X92864757Y-91962920D01*
X92836541Y-92005147D01*
X92801651Y-92042052D01*
X92781047Y-92074843D01*
X92773080Y-92062919D01*
X92725577Y-92015417D01*
X92683350Y-91987201D01*
X92646445Y-91952311D01*
X92589564Y-91916570D01*
X92542119Y-91898459D01*
X92498372Y-91872653D01*
X92434963Y-91850465D01*
X92384674Y-91843365D01*
X92336285Y-91827942D01*
X92269530Y-91820420D01*
X92218919Y-91824689D01*
X92168309Y-91820420D01*
X92101552Y-91827942D01*
X92053162Y-91843365D01*
X92002875Y-91850465D01*
X91939465Y-91872653D01*
X91895718Y-91898459D01*
X91848273Y-91916570D01*
X91791392Y-91952311D01*
X91754489Y-91987200D01*
X91712259Y-92015417D01*
X91664757Y-92062920D01*
X91636541Y-92105147D01*
X91601651Y-92142052D01*
X91565910Y-92198933D01*
X91547799Y-92246378D01*
X91521993Y-92290125D01*
X91499805Y-92353534D01*
X91492704Y-92403829D01*
X91477282Y-92452218D01*
X91469761Y-92518974D01*
X91471912Y-92544476D01*
X91466919Y-92569578D01*
X91466919Y-92609649D01*
X91446445Y-92590293D01*
X91389564Y-92554552D01*
X91342119Y-92536441D01*
X91298372Y-92510635D01*
X91234963Y-92488447D01*
X91184668Y-92481346D01*
X91136279Y-92465924D01*
X91069523Y-92458403D01*
X91044021Y-92460554D01*
X91018919Y-92455561D01*
X90956849Y-92467907D01*
X90893785Y-92473227D01*
X90871047Y-92484974D01*
X90845946Y-92489967D01*
X90793323Y-92525129D01*
X90737099Y-92554176D01*
X90720587Y-92573730D01*
X90699307Y-92587949D01*
X90536188Y-92751068D01*
X90438206Y-92897707D01*
X90403800Y-93070680D01*
X90403800Y-93367057D01*
X90146897Y-93623961D01*
X89878143Y-93623961D01*
X89794519Y-93540337D01*
X89794519Y-92287065D01*
X90238152Y-91843432D01*
X90336134Y-91696793D01*
X90370540Y-91523820D01*
X90370540Y-90669175D01*
X90671052Y-90869971D01*
X91126675Y-90960600D01*
X91173325Y-90960600D01*
X91628948Y-90869971D01*
X92015206Y-90611881D01*
X92062599Y-90540953D01*
X93091258Y-91569612D01*
X93091258Y-91569612D01*
G37*
X93091258Y-91569612D02*
X93237897Y-91667594D01*
X93410870Y-91702000D01*
X94312776Y-91702000D01*
X95071496Y-92460720D01*
X95045561Y-92455561D01*
X94618919Y-92455561D01*
X94593817Y-92460554D01*
X94568315Y-92458403D01*
X94501559Y-92465924D01*
X94453168Y-92481347D01*
X94402875Y-92488447D01*
X94339465Y-92510635D01*
X94295718Y-92536441D01*
X94248273Y-92554552D01*
X94191392Y-92590293D01*
X94170919Y-92609649D01*
X94170919Y-92469578D01*
X94165926Y-92444474D01*
X94168077Y-92418967D01*
X94160555Y-92352211D01*
X94145131Y-92303821D01*
X94138032Y-92253535D01*
X94115844Y-92190125D01*
X94090038Y-92146378D01*
X94071927Y-92098933D01*
X94036186Y-92042052D01*
X94001297Y-92005149D01*
X93973080Y-91962919D01*
X93925577Y-91915417D01*
X93883350Y-91887201D01*
X93846445Y-91852311D01*
X93789564Y-91816570D01*
X93742119Y-91798459D01*
X93698372Y-91772653D01*
X93634963Y-91750465D01*
X93584674Y-91743365D01*
X93536285Y-91727942D01*
X93469530Y-91720420D01*
X93418919Y-91724689D01*
X93368309Y-91720420D01*
X93301552Y-91727942D01*
X93253162Y-91743365D01*
X93202875Y-91750465D01*
X93139465Y-91772653D01*
X93095718Y-91798459D01*
X93048273Y-91816570D01*
X92991392Y-91852311D01*
X92954489Y-91887200D01*
X92912259Y-91915417D01*
X92864757Y-91962920D01*
X92836541Y-92005147D01*
X92801651Y-92042052D01*
X92781047Y-92074843D01*
X92773080Y-92062919D01*
X92725577Y-92015417D01*
X92683350Y-91987201D01*
X92646445Y-91952311D01*
X92589564Y-91916570D01*
X92542119Y-91898459D01*
X92498372Y-91872653D01*
X92434963Y-91850465D01*
X92384674Y-91843365D01*
X92336285Y-91827942D01*
X92269530Y-91820420D01*
X92218919Y-91824689D01*
X92168309Y-91820420D01*
X92101552Y-91827942D01*
X92053162Y-91843365D01*
X92002875Y-91850465D01*
X91939465Y-91872653D01*
X91895718Y-91898459D01*
X91848273Y-91916570D01*
X91791392Y-91952311D01*
X91754489Y-91987200D01*
X91712259Y-92015417D01*
X91664757Y-92062920D01*
X91636541Y-92105147D01*
X91601651Y-92142052D01*
X91565910Y-92198933D01*
X91547799Y-92246378D01*
X91521993Y-92290125D01*
X91499805Y-92353534D01*
X91492704Y-92403829D01*
X91477282Y-92452218D01*
X91469761Y-92518974D01*
X91471912Y-92544476D01*
X91466919Y-92569578D01*
X91466919Y-92609649D01*
X91446445Y-92590293D01*
X91389564Y-92554552D01*
X91342119Y-92536441D01*
X91298372Y-92510635D01*
X91234963Y-92488447D01*
X91184668Y-92481346D01*
X91136279Y-92465924D01*
X91069523Y-92458403D01*
X91044021Y-92460554D01*
X91018919Y-92455561D01*
X90956849Y-92467907D01*
X90893785Y-92473227D01*
X90871047Y-92484974D01*
X90845946Y-92489967D01*
X90793323Y-92525129D01*
X90737099Y-92554176D01*
X90720587Y-92573730D01*
X90699307Y-92587949D01*
X90536188Y-92751068D01*
X90438206Y-92897707D01*
X90403800Y-93070680D01*
X90403800Y-93367057D01*
X90146897Y-93623961D01*
X89878143Y-93623961D01*
X89794519Y-93540337D01*
X89794519Y-92287065D01*
X90238152Y-91843432D01*
X90336134Y-91696793D01*
X90370540Y-91523820D01*
X90370540Y-90669175D01*
X90671052Y-90869971D01*
X91126675Y-90960600D01*
X91173325Y-90960600D01*
X91628948Y-90869971D01*
X92015206Y-90611881D01*
X92062599Y-90540953D01*
X93091258Y-91569612D01*
G36*
X94947312Y-88004947D02*
X95341510Y-88436821D01*
X95812864Y-88657734D01*
X95751052Y-88670029D01*
X95364794Y-88928119D01*
X95338716Y-88967148D01*
X94488213Y-88116645D01*
X94555206Y-88071881D01*
X94813296Y-87685623D01*
X94813866Y-87682760D01*
X94947312Y-88004947D01*
X94947312Y-88004947D01*
G37*
X94947312Y-88004947D02*
X95341510Y-88436821D01*
X95812864Y-88657734D01*
X95751052Y-88670029D01*
X95364794Y-88928119D01*
X95338716Y-88967148D01*
X94488213Y-88116645D01*
X94555206Y-88071881D01*
X94813296Y-87685623D01*
X94813866Y-87682760D01*
X94947312Y-88004947D01*
G36*
X90026704Y-87685623D02*
X90284794Y-88071881D01*
X90671052Y-88329971D01*
X91126675Y-88420600D01*
X91173325Y-88420600D01*
X91613766Y-88332991D01*
X91693986Y-88413211D01*
X91801725Y-88485200D01*
X91840626Y-88511193D01*
X91882624Y-88519547D01*
X91798943Y-88603082D01*
X91740260Y-88744406D01*
X91628948Y-88670029D01*
X91173325Y-88579400D01*
X91126675Y-88579400D01*
X91073284Y-88590020D01*
X91025552Y-88542288D01*
X90878913Y-88444306D01*
X90705940Y-88409900D01*
X90114120Y-88409900D01*
X89941147Y-88444306D01*
X89794508Y-88542288D01*
X89598928Y-88737868D01*
X89500946Y-88884507D01*
X89488356Y-88947800D01*
X89475206Y-88928119D01*
X89088948Y-88670029D01*
X89027136Y-88657734D01*
X89498490Y-88436821D01*
X89892688Y-88004947D01*
X90026134Y-87682760D01*
X90026704Y-87685623D01*
X90026704Y-87685623D01*
G37*
X90026704Y-87685623D02*
X90284794Y-88071881D01*
X90671052Y-88329971D01*
X91126675Y-88420600D01*
X91173325Y-88420600D01*
X91613766Y-88332991D01*
X91693986Y-88413211D01*
X91801725Y-88485200D01*
X91840626Y-88511193D01*
X91882624Y-88519547D01*
X91798943Y-88603082D01*
X91740260Y-88744406D01*
X91628948Y-88670029D01*
X91173325Y-88579400D01*
X91126675Y-88579400D01*
X91073284Y-88590020D01*
X91025552Y-88542288D01*
X90878913Y-88444306D01*
X90705940Y-88409900D01*
X90114120Y-88409900D01*
X89941147Y-88444306D01*
X89794508Y-88542288D01*
X89598928Y-88737868D01*
X89500946Y-88884507D01*
X89488356Y-88947800D01*
X89475206Y-88928119D01*
X89088948Y-88670029D01*
X89027136Y-88657734D01*
X89498490Y-88436821D01*
X89892688Y-88004947D01*
X90026134Y-87682760D01*
X90026704Y-87685623D01*
M02*
