G04 #@! TF.FileFunction,Soldermask,Bot*
%FSLAX46Y46*%
G04 Gerber Fmt 4.6, Leading zero omitted, Abs format (unit mm)*
G04 Created by KiCad (PCBNEW 4.0.0-stable) date 1/17/2016 1:01:26 AM*
%MOMM*%
G01*
G04 APERTURE LIST*
%ADD10C,0.150000*%
%ADD11R,2.127200X2.127200*%
%ADD12O,2.127200X2.127200*%
%ADD13R,2.127200X2.432000*%
%ADD14O,2.127200X2.432000*%
%ADD15R,1.670000X1.365200*%
%ADD16C,1.400000*%
%ADD17C,6.500000*%
%ADD18R,1.365200X1.670000*%
G04 APERTURE END LIST*
D10*
D11*
X73370000Y-89770000D03*
D12*
X73370000Y-87230000D03*
X75910000Y-89770000D03*
X75910000Y-87230000D03*
X78450000Y-89770000D03*
X78450000Y-87230000D03*
X80990000Y-89770000D03*
X80990000Y-87230000D03*
X83530000Y-89770000D03*
X83530000Y-87230000D03*
X86070000Y-89770000D03*
X86070000Y-87230000D03*
X88610000Y-89770000D03*
X88610000Y-87230000D03*
X91150000Y-89770000D03*
X91150000Y-87230000D03*
X93690000Y-89770000D03*
X93690000Y-87230000D03*
X96230000Y-89770000D03*
X96230000Y-87230000D03*
X98770000Y-89770000D03*
X98770000Y-87230000D03*
X101310000Y-89770000D03*
X101310000Y-87230000D03*
X103850000Y-89770000D03*
X103850000Y-87230000D03*
X106390000Y-89770000D03*
X106390000Y-87230000D03*
X108930000Y-89770000D03*
X108930000Y-87230000D03*
X111470000Y-89770000D03*
X111470000Y-87230000D03*
X114010000Y-89770000D03*
X114010000Y-87230000D03*
X116550000Y-89770000D03*
X116550000Y-87230000D03*
X119090000Y-89770000D03*
X119090000Y-87230000D03*
X121630000Y-89770000D03*
X121630000Y-87230000D03*
D13*
X98765000Y-104350000D03*
D14*
X101305000Y-104350000D03*
X103845000Y-104350000D03*
X106385000Y-104350000D03*
X108925000Y-104350000D03*
X111465000Y-104350000D03*
X114005000Y-104350000D03*
X116545000Y-104350000D03*
X119085000Y-104350000D03*
X121625000Y-104350000D03*
D15*
X88624000Y-103759000D03*
X88624000Y-102419300D03*
X86059137Y-94869000D03*
X86059137Y-96139000D03*
X83519137Y-94869000D03*
X83519137Y-96139000D03*
X80979137Y-94869000D03*
X80979137Y-96139000D03*
D16*
X73212452Y-94835497D03*
X75909195Y-94835497D03*
D17*
X68500000Y-111500000D03*
X126500000Y-111500000D03*
X126500000Y-88500000D03*
X68500000Y-88500000D03*
D18*
X75311000Y-111379000D03*
X76581000Y-111379000D03*
X78232000Y-111379000D03*
X79502000Y-111379000D03*
D15*
X103886000Y-108712000D03*
X103886000Y-109982000D03*
M02*
