G04 #@! TF.FileFunction,Copper,L2,Bot,Signal*
%FSLAX46Y46*%
G04 Gerber Fmt 4.6, Leading zero omitted, Abs format (unit mm)*
G04 Created by KiCad (PCBNEW 4.0.2-4+6225~38~ubuntu15.10.1-stable) date Sun 20 Mar 2016 03:01:37 AM CDT*
%MOMM*%
G01*
G04 APERTURE LIST*
%ADD10C,0.100000*%
%ADD11C,0.690000*%
%ADD12R,1.270000X0.965200*%
%ADD13R,1.700000X1.200000*%
%ADD14O,1.700000X1.200000*%
%ADD15R,0.965200X1.270000*%
%ADD16C,0.508000*%
%ADD17R,1.727200X2.032000*%
%ADD18O,1.727200X2.032000*%
%ADD19R,1.727200X1.727200*%
%ADD20O,1.727200X1.727200*%
%ADD21C,0.800000*%
%ADD22C,0.685800*%
%ADD23C,1.000000*%
%ADD24C,0.250000*%
%ADD25C,0.500000*%
%ADD26C,0.800000*%
%ADD27C,0.400000*%
%ADD28C,0.254000*%
G04 APERTURE END LIST*
D10*
D11*
X95450000Y-113150000D03*
X99850000Y-103850000D03*
X106400000Y-113200000D03*
X103450000Y-112950000D03*
X86350000Y-106500000D03*
X83312000Y-110998000D03*
X74930000Y-109728000D03*
X83800000Y-113090000D03*
X93600000Y-113000000D03*
X107100000Y-105700000D03*
X106150000Y-108850000D03*
X93600000Y-109200000D03*
X96400000Y-99800000D03*
X93600000Y-102600000D03*
X114300000Y-114200000D03*
X79330000Y-113080000D03*
X86428000Y-111960000D03*
X87428000Y-111960000D03*
X88428000Y-111960000D03*
X89428000Y-111960000D03*
X89428000Y-110960000D03*
X88428000Y-110960000D03*
X87428000Y-110960000D03*
X86428000Y-110960000D03*
X78240000Y-109980000D03*
X80210000Y-109010000D03*
X90900000Y-109700000D03*
X88500000Y-109700000D03*
X85810000Y-109700000D03*
X78300000Y-105918000D03*
X79502000Y-101092000D03*
X83600000Y-106200000D03*
X85400000Y-104400000D03*
X108897000Y-95895000D03*
X109897000Y-95895000D03*
X109897000Y-94895000D03*
X108897000Y-94895000D03*
X107215000Y-99515000D03*
X108215000Y-99515000D03*
X108215000Y-98515000D03*
X107215000Y-98515000D03*
X93600000Y-111000000D03*
X93600000Y-110100000D03*
X123600000Y-85800000D03*
X117400000Y-93100000D03*
X83300000Y-93800000D03*
X84100000Y-95900000D03*
X65800000Y-106000000D03*
X65800000Y-103000000D03*
X65800000Y-94000000D03*
X65800000Y-97000000D03*
X100050000Y-88500000D03*
X84850000Y-88450000D03*
X87300000Y-91500000D03*
X76708000Y-98044000D03*
X72500000Y-110998000D03*
X74320000Y-95490000D03*
X115300000Y-100400000D03*
X117700000Y-100400000D03*
X111700000Y-98500000D03*
X103200000Y-95600000D03*
X89475000Y-104300000D03*
X89475000Y-102725000D03*
X89475000Y-101275000D03*
X89475000Y-99775000D03*
X85600000Y-102000000D03*
X85100000Y-97200000D03*
X85100000Y-99600000D03*
X96200000Y-91500000D03*
X89350000Y-97050000D03*
X91800000Y-91050000D03*
X93850000Y-91500000D03*
X117850000Y-88500000D03*
X123500000Y-114200000D03*
X129150000Y-91350000D03*
X129200000Y-108650000D03*
X80800000Y-93700000D03*
X100000000Y-91500000D03*
X93350000Y-105900000D03*
X75250000Y-104902000D03*
X83400000Y-91500000D03*
X129150000Y-100000000D03*
X75750000Y-114200000D03*
X71450000Y-114200000D03*
X71300000Y-98950000D03*
X70866000Y-104902000D03*
X65800000Y-108650000D03*
X71400000Y-85750000D03*
X72550000Y-94650000D03*
X76950000Y-96150000D03*
X80264000Y-97282000D03*
X65800000Y-91350000D03*
X65800000Y-100000000D03*
X87500000Y-94050000D03*
X114500000Y-91500000D03*
X111900000Y-91500000D03*
X108200000Y-91500000D03*
X82450000Y-108650000D03*
D12*
X78439137Y-94869000D03*
X78439137Y-96139000D03*
D13*
X114010000Y-97390000D03*
D14*
X114010000Y-95390000D03*
D12*
X105560000Y-110485000D03*
X105560000Y-111755000D03*
D15*
X110200000Y-100000000D03*
X111470000Y-100000000D03*
D16*
X95700000Y-110000000D03*
X96450000Y-110500000D03*
X94950000Y-110500000D03*
X94950000Y-109500000D03*
X96450000Y-109500000D03*
D17*
X108930000Y-102460000D03*
D18*
X111470000Y-102460000D03*
X114010000Y-102460000D03*
X116550000Y-102460000D03*
X119090000Y-102460000D03*
D19*
X73370000Y-89770000D03*
D20*
X73370000Y-87230000D03*
X75910000Y-89770000D03*
X75910000Y-87230000D03*
X78450000Y-89770000D03*
X78450000Y-87230000D03*
X80990000Y-89770000D03*
X80990000Y-87230000D03*
X83530000Y-89770000D03*
X83530000Y-87230000D03*
X86070000Y-89770000D03*
X86070000Y-87230000D03*
X88610000Y-89770000D03*
X88610000Y-87230000D03*
X91150000Y-89770000D03*
X91150000Y-87230000D03*
X93690000Y-89770000D03*
X93690000Y-87230000D03*
X96230000Y-89770000D03*
X96230000Y-87230000D03*
X98770000Y-89770000D03*
X98770000Y-87230000D03*
X101310000Y-89770000D03*
X101310000Y-87230000D03*
X103850000Y-89770000D03*
X103850000Y-87230000D03*
X106390000Y-89770000D03*
X106390000Y-87230000D03*
X108930000Y-89770000D03*
X108930000Y-87230000D03*
X111470000Y-89770000D03*
X111470000Y-87230000D03*
X114010000Y-89770000D03*
X114010000Y-87230000D03*
X116550000Y-89770000D03*
X116550000Y-87230000D03*
X119090000Y-89770000D03*
X119090000Y-87230000D03*
X121630000Y-89770000D03*
X121630000Y-87230000D03*
D21*
X80264000Y-106426000D03*
D22*
X87500000Y-100000000D03*
X87500000Y-96000000D03*
X80246921Y-91250154D03*
X78250000Y-91250000D03*
D23*
X73990000Y-102530000D03*
X75740000Y-99220002D03*
X84700000Y-112100000D03*
D22*
X75800000Y-110400000D03*
X82804000Y-109982000D03*
X87500000Y-102000000D03*
X87500000Y-104200000D03*
D21*
X110179217Y-98545052D03*
D22*
X77140000Y-93760000D03*
X104850000Y-109050000D03*
D24*
X114010000Y-87230000D02*
X114010000Y-87265000D01*
X88610000Y-87230000D02*
X89051787Y-87230000D01*
D25*
X73370000Y-89770000D02*
X73370000Y-99532000D01*
X73370000Y-99532000D02*
X79248000Y-105410000D01*
X79248000Y-105410000D02*
X80264000Y-106426000D01*
D24*
X87500000Y-96000000D02*
X87500000Y-100000000D01*
X83530000Y-87230000D02*
X82250000Y-88510000D01*
X82250000Y-88510000D02*
X82250000Y-90269130D01*
X82250000Y-90269130D02*
X81560529Y-90958601D01*
X81560529Y-90958601D02*
X80491399Y-90958601D01*
X80491399Y-90958601D02*
X80246921Y-91203079D01*
X80246921Y-91203079D02*
X80246921Y-91250154D01*
X80990000Y-87230000D02*
X79700000Y-88520000D01*
X79700000Y-88520000D02*
X79700000Y-90300000D01*
X79700000Y-90300000D02*
X79041399Y-90958601D01*
X79041399Y-90958601D02*
X78541399Y-90958601D01*
X78541399Y-90958601D02*
X78400000Y-91100000D01*
X78400000Y-91100000D02*
X78250000Y-91250000D01*
D26*
X84700000Y-112100000D02*
X75270000Y-112100000D01*
X75270000Y-112100000D02*
X73984999Y-110814999D01*
X73984999Y-110814999D02*
X73984999Y-109274399D01*
X73984999Y-109274399D02*
X73990000Y-109269398D01*
X73990000Y-109269398D02*
X73990000Y-102530000D01*
X75740000Y-98512896D02*
X75740000Y-99220002D01*
X75600000Y-91300000D02*
X75740000Y-91440000D01*
X75740000Y-91440000D02*
X75740000Y-98512896D01*
D27*
X77150000Y-88470000D02*
X77200000Y-88520000D01*
X77200000Y-88520000D02*
X77200000Y-89149870D01*
X77200000Y-89149870D02*
X77186399Y-89163471D01*
X77186399Y-89163471D02*
X77186399Y-90363731D01*
X77186399Y-90363731D02*
X76516529Y-91033601D01*
X76516529Y-91033601D02*
X75303471Y-91033601D01*
X75303471Y-91033601D02*
X74646399Y-90376529D01*
X74646399Y-90376529D02*
X74646399Y-89163471D01*
X74646399Y-89163471D02*
X74650000Y-89159870D01*
X74650000Y-89159870D02*
X74650000Y-88000000D01*
D26*
X75910000Y-87230000D02*
X77150000Y-88470000D01*
X74650000Y-88000000D02*
X73880000Y-87230000D01*
X73880000Y-87230000D02*
X73370000Y-87230000D01*
D24*
X82804000Y-109982000D02*
X82043101Y-110742899D01*
X82043101Y-110742899D02*
X76142899Y-110742899D01*
X76142899Y-110742899D02*
X75800000Y-110400000D01*
X87500000Y-104200000D02*
X87500000Y-102000000D01*
D25*
X110179217Y-98545052D02*
X110179217Y-99979217D01*
X110179217Y-99979217D02*
X110200000Y-100000000D01*
D24*
X78286737Y-94869000D02*
X77177737Y-93760000D01*
X78439137Y-94869000D02*
X78286737Y-94869000D01*
X77177737Y-93760000D02*
X77140000Y-93760000D01*
X104850000Y-109050000D02*
X105560000Y-109760000D01*
X105560000Y-110485000D02*
X105560000Y-109760000D01*
X105560000Y-111755000D02*
X110645000Y-111755000D01*
X110645000Y-111755000D02*
X111470000Y-110930000D01*
X111470000Y-110930000D02*
X111470000Y-103726000D01*
X111470000Y-103726000D02*
X111470000Y-102460000D01*
X105560000Y-111755000D02*
X105560000Y-110485000D01*
D25*
X111470000Y-100000000D02*
X113066000Y-100000000D01*
X113066000Y-100000000D02*
X114010000Y-100944000D01*
X114010000Y-100944000D02*
X114010000Y-102460000D01*
D28*
G36*
X124589582Y-85635450D02*
X123638788Y-86584586D01*
X123123588Y-87825326D01*
X123122415Y-89168780D01*
X123635450Y-90410418D01*
X124584586Y-91361212D01*
X125825326Y-91876412D01*
X127168780Y-91877585D01*
X128410418Y-91364550D01*
X129361212Y-90415414D01*
X129638000Y-89748834D01*
X129638000Y-110251381D01*
X129364550Y-109589582D01*
X128415414Y-108638788D01*
X127174674Y-108123588D01*
X125831220Y-108122415D01*
X124589582Y-108635450D01*
X123638788Y-109584586D01*
X123123588Y-110825326D01*
X123122415Y-112168780D01*
X123635450Y-113410418D01*
X124584586Y-114361212D01*
X125251166Y-114638000D01*
X69748619Y-114638000D01*
X70410418Y-114364550D01*
X71361212Y-113415414D01*
X71876412Y-112174674D01*
X71877585Y-110831220D01*
X71364550Y-109589582D01*
X70415414Y-108638788D01*
X69174674Y-108123588D01*
X67831220Y-108122415D01*
X66589582Y-108635450D01*
X65638788Y-109584586D01*
X65362000Y-110251166D01*
X65362000Y-102693779D01*
X73162857Y-102693779D01*
X73263000Y-102936143D01*
X73263000Y-109249253D01*
X73257998Y-109274399D01*
X73257999Y-109274404D01*
X73257999Y-110814994D01*
X73257998Y-110814999D01*
X73301444Y-111033412D01*
X73313339Y-111093210D01*
X73436948Y-111278205D01*
X73470932Y-111329066D01*
X74755933Y-112614067D01*
X74991789Y-112771660D01*
X75037948Y-112780842D01*
X75270000Y-112827001D01*
X75270005Y-112827000D01*
X84294297Y-112827000D01*
X84534778Y-112926856D01*
X84863779Y-112927143D01*
X85167846Y-112801505D01*
X85400688Y-112569070D01*
X85526856Y-112265222D01*
X85527143Y-111936221D01*
X85401505Y-111632154D01*
X85169070Y-111399312D01*
X84865222Y-111273144D01*
X84536221Y-111272857D01*
X84293857Y-111373000D01*
X75571134Y-111373000D01*
X74730801Y-110532667D01*
X75129984Y-110532667D01*
X75231755Y-110778972D01*
X75420037Y-110967582D01*
X75666164Y-111069783D01*
X75834389Y-111069930D01*
X75943276Y-111142686D01*
X75969926Y-111160493D01*
X76142899Y-111194899D01*
X82043101Y-111194899D01*
X82216074Y-111160493D01*
X82362713Y-111062511D01*
X82773351Y-110651873D01*
X82936667Y-110652016D01*
X83182972Y-110550245D01*
X83371582Y-110361963D01*
X83473783Y-110115836D01*
X83474016Y-109849333D01*
X83372245Y-109603028D01*
X83183963Y-109414418D01*
X82937836Y-109312217D01*
X82671333Y-109311984D01*
X82425028Y-109413755D01*
X82236418Y-109602037D01*
X82134217Y-109848164D01*
X82134073Y-110012703D01*
X81855877Y-110290899D01*
X76469995Y-110290899D01*
X76470016Y-110267333D01*
X76368245Y-110021028D01*
X76179963Y-109832418D01*
X75933836Y-109730217D01*
X75667333Y-109729984D01*
X75421028Y-109831755D01*
X75232418Y-110020037D01*
X75130217Y-110266164D01*
X75129984Y-110532667D01*
X74730801Y-110532667D01*
X74711999Y-110513865D01*
X74711999Y-109294540D01*
X74717000Y-109269398D01*
X74717000Y-109182667D01*
X104179984Y-109182667D01*
X104281755Y-109428972D01*
X104470037Y-109617582D01*
X104716164Y-109719783D01*
X104760267Y-109719822D01*
X104692526Y-109763412D01*
X104617862Y-109872686D01*
X104591594Y-110002400D01*
X104591594Y-110967600D01*
X104614395Y-111088779D01*
X104633941Y-111119154D01*
X104617862Y-111142686D01*
X104591594Y-111272400D01*
X104591594Y-112237600D01*
X104614395Y-112358779D01*
X104686012Y-112470074D01*
X104795286Y-112544738D01*
X104925000Y-112571006D01*
X106195000Y-112571006D01*
X106316179Y-112548205D01*
X106427474Y-112476588D01*
X106502138Y-112367314D01*
X106528406Y-112237600D01*
X106528406Y-112207000D01*
X110645000Y-112207000D01*
X110817973Y-112172594D01*
X110964612Y-112074612D01*
X111789612Y-111249612D01*
X111887594Y-111102973D01*
X111895642Y-111062511D01*
X111922000Y-110930000D01*
X111922000Y-103739403D01*
X111925623Y-103738682D01*
X112311881Y-103480592D01*
X112569971Y-103094334D01*
X112660600Y-102638711D01*
X112660600Y-102281289D01*
X112569971Y-101825666D01*
X112311881Y-101439408D01*
X111925623Y-101181318D01*
X111470000Y-101090689D01*
X111014377Y-101181318D01*
X110628119Y-101439408D01*
X110370029Y-101825666D01*
X110279400Y-102281289D01*
X110279400Y-102638711D01*
X110370029Y-103094334D01*
X110628119Y-103480592D01*
X111014377Y-103738682D01*
X111018000Y-103739403D01*
X111018000Y-110742776D01*
X110457776Y-111303000D01*
X106528406Y-111303000D01*
X106528406Y-111272400D01*
X106505605Y-111151221D01*
X106486059Y-111120846D01*
X106502138Y-111097314D01*
X106528406Y-110967600D01*
X106528406Y-110002400D01*
X106505605Y-109881221D01*
X106433988Y-109769926D01*
X106324714Y-109695262D01*
X106195000Y-109668994D01*
X105993898Y-109668994D01*
X105977594Y-109587027D01*
X105962479Y-109564406D01*
X105879613Y-109440388D01*
X105519873Y-109080649D01*
X105520016Y-108917333D01*
X105418245Y-108671028D01*
X105229963Y-108482418D01*
X104983836Y-108380217D01*
X104717333Y-108379984D01*
X104471028Y-108481755D01*
X104282418Y-108670037D01*
X104180217Y-108916164D01*
X104179984Y-109182667D01*
X74717000Y-109182667D01*
X74717000Y-102935703D01*
X74816856Y-102695222D01*
X74817143Y-102366221D01*
X74691505Y-102062154D01*
X74459070Y-101829312D01*
X74155222Y-101703144D01*
X73826221Y-101702857D01*
X73522154Y-101828495D01*
X73289312Y-102060930D01*
X73163144Y-102364778D01*
X73162857Y-102693779D01*
X65362000Y-102693779D01*
X65362000Y-89748619D01*
X65635450Y-90410418D01*
X66584586Y-91361212D01*
X67825326Y-91876412D01*
X69168780Y-91877585D01*
X70410418Y-91364550D01*
X71361212Y-90415414D01*
X71876412Y-89174674D01*
X71877585Y-87831220D01*
X71629166Y-87230000D01*
X72156075Y-87230000D01*
X72246704Y-87685623D01*
X72504794Y-88071881D01*
X72891052Y-88329971D01*
X73346675Y-88420600D01*
X73393325Y-88420600D01*
X73848948Y-88329971D01*
X73910626Y-88288759D01*
X74123000Y-88501133D01*
X74123000Y-88572994D01*
X72506400Y-88572994D01*
X72385221Y-88595795D01*
X72273926Y-88667412D01*
X72199262Y-88776686D01*
X72172994Y-88906400D01*
X72172994Y-90633600D01*
X72195795Y-90754779D01*
X72267412Y-90866074D01*
X72376686Y-90940738D01*
X72506400Y-90967006D01*
X72793000Y-90967006D01*
X72793000Y-99531995D01*
X72792999Y-99532000D01*
X72836922Y-99752808D01*
X72961999Y-99940001D01*
X78839997Y-105817998D01*
X78839999Y-105818001D01*
X79536922Y-106514924D01*
X79536874Y-106569975D01*
X79647320Y-106837275D01*
X79851650Y-107041961D01*
X80118756Y-107152874D01*
X80407975Y-107153126D01*
X80675275Y-107042680D01*
X80879961Y-106838350D01*
X80990874Y-106571244D01*
X80991126Y-106282025D01*
X80880680Y-106014725D01*
X80676350Y-105810039D01*
X80409244Y-105699126D01*
X80353079Y-105699077D01*
X79656001Y-105001999D01*
X79655998Y-105001997D01*
X76786669Y-102132667D01*
X86829984Y-102132667D01*
X86931755Y-102378972D01*
X87048000Y-102495420D01*
X87048000Y-103704656D01*
X86932418Y-103820037D01*
X86830217Y-104066164D01*
X86829984Y-104332667D01*
X86931755Y-104578972D01*
X87120037Y-104767582D01*
X87366164Y-104869783D01*
X87632667Y-104870016D01*
X87878972Y-104768245D01*
X88067582Y-104579963D01*
X88169783Y-104333836D01*
X88170016Y-104067333D01*
X88068245Y-103821028D01*
X87952000Y-103704580D01*
X87952000Y-102693750D01*
X107639400Y-102693750D01*
X107639400Y-103560935D01*
X107704407Y-103717876D01*
X107824524Y-103837993D01*
X107981464Y-103903000D01*
X108696250Y-103903000D01*
X108803000Y-103796250D01*
X108803000Y-102587000D01*
X109057000Y-102587000D01*
X109057000Y-103796250D01*
X109163750Y-103903000D01*
X109878536Y-103903000D01*
X110035476Y-103837993D01*
X110155593Y-103717876D01*
X110220600Y-103560935D01*
X110220600Y-102693750D01*
X110113850Y-102587000D01*
X109057000Y-102587000D01*
X108803000Y-102587000D01*
X107746150Y-102587000D01*
X107639400Y-102693750D01*
X87952000Y-102693750D01*
X87952000Y-102495344D01*
X88067582Y-102379963D01*
X88169783Y-102133836D01*
X88170016Y-101867333D01*
X88068245Y-101621028D01*
X87879963Y-101432418D01*
X87703310Y-101359065D01*
X107639400Y-101359065D01*
X107639400Y-102226250D01*
X107746150Y-102333000D01*
X108803000Y-102333000D01*
X108803000Y-101123750D01*
X109057000Y-101123750D01*
X109057000Y-102333000D01*
X110113850Y-102333000D01*
X110220600Y-102226250D01*
X110220600Y-101359065D01*
X110155593Y-101202124D01*
X110035476Y-101082007D01*
X109878536Y-101017000D01*
X109163750Y-101017000D01*
X109057000Y-101123750D01*
X108803000Y-101123750D01*
X108696250Y-101017000D01*
X107981464Y-101017000D01*
X107824524Y-101082007D01*
X107704407Y-101202124D01*
X107639400Y-101359065D01*
X87703310Y-101359065D01*
X87633836Y-101330217D01*
X87367333Y-101329984D01*
X87121028Y-101431755D01*
X86932418Y-101620037D01*
X86830217Y-101866164D01*
X86829984Y-102132667D01*
X76786669Y-102132667D01*
X73947000Y-99292998D01*
X73947000Y-90967006D01*
X74233600Y-90967006D01*
X74354779Y-90944205D01*
X74424147Y-90899567D01*
X74885022Y-91360442D01*
X74928340Y-91578210D01*
X75013000Y-91704914D01*
X75013000Y-98814299D01*
X74913144Y-99054780D01*
X74912857Y-99383781D01*
X75038495Y-99687848D01*
X75270930Y-99920690D01*
X75574778Y-100046858D01*
X75903779Y-100047145D01*
X76207846Y-99921507D01*
X76440688Y-99689072D01*
X76566856Y-99385224D01*
X76567143Y-99056223D01*
X76467000Y-98813859D01*
X76467000Y-96132667D01*
X86829984Y-96132667D01*
X86931755Y-96378972D01*
X87048000Y-96495420D01*
X87048000Y-99504656D01*
X86932418Y-99620037D01*
X86830217Y-99866164D01*
X86829984Y-100132667D01*
X86931755Y-100378972D01*
X87120037Y-100567582D01*
X87366164Y-100669783D01*
X87632667Y-100670016D01*
X87878972Y-100568245D01*
X88067582Y-100379963D01*
X88169783Y-100133836D01*
X88170016Y-99867333D01*
X88068245Y-99621028D01*
X87952000Y-99504580D01*
X87952000Y-99365000D01*
X109383994Y-99365000D01*
X109383994Y-100635000D01*
X109406795Y-100756179D01*
X109478412Y-100867474D01*
X109587686Y-100942138D01*
X109717400Y-100968406D01*
X110682600Y-100968406D01*
X110803779Y-100945605D01*
X110834154Y-100926059D01*
X110857686Y-100942138D01*
X110987400Y-100968406D01*
X111952600Y-100968406D01*
X112073779Y-100945605D01*
X112185074Y-100873988D01*
X112259738Y-100764714D01*
X112286006Y-100635000D01*
X112286006Y-100577000D01*
X112826998Y-100577000D01*
X113433000Y-101183001D01*
X113433000Y-101262420D01*
X113168119Y-101439408D01*
X112910029Y-101825666D01*
X112819400Y-102281289D01*
X112819400Y-102638711D01*
X112910029Y-103094334D01*
X113168119Y-103480592D01*
X113554377Y-103738682D01*
X114010000Y-103829311D01*
X114465623Y-103738682D01*
X114851881Y-103480592D01*
X115109971Y-103094334D01*
X115200600Y-102638711D01*
X115200600Y-102281289D01*
X115359400Y-102281289D01*
X115359400Y-102638711D01*
X115450029Y-103094334D01*
X115708119Y-103480592D01*
X116094377Y-103738682D01*
X116550000Y-103829311D01*
X117005623Y-103738682D01*
X117391881Y-103480592D01*
X117649971Y-103094334D01*
X117740600Y-102638711D01*
X117740600Y-102281289D01*
X117899400Y-102281289D01*
X117899400Y-102638711D01*
X117990029Y-103094334D01*
X118248119Y-103480592D01*
X118634377Y-103738682D01*
X119090000Y-103829311D01*
X119545623Y-103738682D01*
X119931881Y-103480592D01*
X120189971Y-103094334D01*
X120280600Y-102638711D01*
X120280600Y-102281289D01*
X120189971Y-101825666D01*
X119931881Y-101439408D01*
X119545623Y-101181318D01*
X119090000Y-101090689D01*
X118634377Y-101181318D01*
X118248119Y-101439408D01*
X117990029Y-101825666D01*
X117899400Y-102281289D01*
X117740600Y-102281289D01*
X117649971Y-101825666D01*
X117391881Y-101439408D01*
X117005623Y-101181318D01*
X116550000Y-101090689D01*
X116094377Y-101181318D01*
X115708119Y-101439408D01*
X115450029Y-101825666D01*
X115359400Y-102281289D01*
X115200600Y-102281289D01*
X115109971Y-101825666D01*
X114851881Y-101439408D01*
X114587000Y-101262420D01*
X114587000Y-100944005D01*
X114587001Y-100944000D01*
X114543078Y-100723192D01*
X114507547Y-100670016D01*
X114418001Y-100535999D01*
X114417998Y-100535997D01*
X113474001Y-99591999D01*
X113286808Y-99466922D01*
X113066000Y-99422999D01*
X113065995Y-99423000D01*
X112286006Y-99423000D01*
X112286006Y-99365000D01*
X112263205Y-99243821D01*
X112191588Y-99132526D01*
X112082314Y-99057862D01*
X111952600Y-99031594D01*
X110987400Y-99031594D01*
X110866221Y-99054395D01*
X110835846Y-99073941D01*
X110812314Y-99057862D01*
X110756217Y-99046502D01*
X110756217Y-98996295D01*
X110795178Y-98957402D01*
X110906091Y-98690296D01*
X110906343Y-98401077D01*
X110795897Y-98133777D01*
X110591567Y-97929091D01*
X110324461Y-97818178D01*
X110035242Y-97817926D01*
X109767942Y-97928372D01*
X109563256Y-98132702D01*
X109452343Y-98399808D01*
X109452091Y-98689027D01*
X109562537Y-98956327D01*
X109602217Y-98996076D01*
X109602217Y-99053267D01*
X109596221Y-99054395D01*
X109484926Y-99126012D01*
X109410262Y-99235286D01*
X109383994Y-99365000D01*
X87952000Y-99365000D01*
X87952000Y-96790000D01*
X112826594Y-96790000D01*
X112826594Y-97990000D01*
X112849395Y-98111179D01*
X112921012Y-98222474D01*
X113030286Y-98297138D01*
X113160000Y-98323406D01*
X114860000Y-98323406D01*
X114981179Y-98300605D01*
X115092474Y-98228988D01*
X115167138Y-98119714D01*
X115193406Y-97990000D01*
X115193406Y-96790000D01*
X115170605Y-96668821D01*
X115098988Y-96557526D01*
X114989714Y-96482862D01*
X114860000Y-96456594D01*
X113160000Y-96456594D01*
X113038821Y-96479395D01*
X112927526Y-96551012D01*
X112852862Y-96660286D01*
X112826594Y-96790000D01*
X87952000Y-96790000D01*
X87952000Y-96495344D01*
X88067582Y-96379963D01*
X88169783Y-96133836D01*
X88170016Y-95867333D01*
X88090489Y-95674861D01*
X112773297Y-95674861D01*
X112782734Y-95751115D01*
X112995317Y-96097610D01*
X113324316Y-96336378D01*
X113719644Y-96431068D01*
X113883000Y-96317814D01*
X113883000Y-95517000D01*
X114137000Y-95517000D01*
X114137000Y-96317814D01*
X114300356Y-96431068D01*
X114695684Y-96336378D01*
X115024683Y-96097610D01*
X115237266Y-95751115D01*
X115246703Y-95674861D01*
X115171444Y-95517000D01*
X114137000Y-95517000D01*
X113883000Y-95517000D01*
X112848556Y-95517000D01*
X112773297Y-95674861D01*
X88090489Y-95674861D01*
X88068245Y-95621028D01*
X87879963Y-95432418D01*
X87633836Y-95330217D01*
X87367333Y-95329984D01*
X87121028Y-95431755D01*
X86932418Y-95620037D01*
X86830217Y-95866164D01*
X86829984Y-96132667D01*
X76467000Y-96132667D01*
X76467000Y-93892667D01*
X76469984Y-93892667D01*
X76571755Y-94138972D01*
X76760037Y-94327582D01*
X77006164Y-94429783D01*
X77208473Y-94429960D01*
X77470731Y-94692218D01*
X77470731Y-95351600D01*
X77493532Y-95472779D01*
X77565149Y-95584074D01*
X77674423Y-95658738D01*
X77804137Y-95685006D01*
X79074137Y-95685006D01*
X79195316Y-95662205D01*
X79306611Y-95590588D01*
X79381275Y-95481314D01*
X79407543Y-95351600D01*
X79407543Y-95105139D01*
X112773297Y-95105139D01*
X112848556Y-95263000D01*
X113883000Y-95263000D01*
X113883000Y-94462186D01*
X114137000Y-94462186D01*
X114137000Y-95263000D01*
X115171444Y-95263000D01*
X115246703Y-95105139D01*
X115237266Y-95028885D01*
X115024683Y-94682390D01*
X114695684Y-94443622D01*
X114300356Y-94348932D01*
X114137000Y-94462186D01*
X113883000Y-94462186D01*
X113719644Y-94348932D01*
X113324316Y-94443622D01*
X112995317Y-94682390D01*
X112782734Y-95028885D01*
X112773297Y-95105139D01*
X79407543Y-95105139D01*
X79407543Y-94386400D01*
X79384742Y-94265221D01*
X79313125Y-94153926D01*
X79203851Y-94079262D01*
X79074137Y-94052994D01*
X78109955Y-94052994D01*
X77809906Y-93752945D01*
X77810016Y-93627333D01*
X77708245Y-93381028D01*
X77519963Y-93192418D01*
X77273836Y-93090217D01*
X77007333Y-93089984D01*
X76761028Y-93191755D01*
X76572418Y-93380037D01*
X76470217Y-93626164D01*
X76469984Y-93892667D01*
X76467000Y-93892667D01*
X76467000Y-91560601D01*
X76516529Y-91560601D01*
X76718204Y-91520486D01*
X76889174Y-91406246D01*
X77559044Y-90736376D01*
X77624502Y-90638413D01*
X77798189Y-90754467D01*
X77682418Y-90870037D01*
X77580217Y-91116164D01*
X77579984Y-91382667D01*
X77681755Y-91628972D01*
X77870037Y-91817582D01*
X78116164Y-91919783D01*
X78382667Y-91920016D01*
X78628972Y-91818245D01*
X78817582Y-91629963D01*
X78908669Y-91410601D01*
X79041399Y-91410601D01*
X79214372Y-91376195D01*
X79361011Y-91278213D01*
X79615648Y-91023577D01*
X79577138Y-91116318D01*
X79576905Y-91382821D01*
X79678676Y-91629126D01*
X79866958Y-91817736D01*
X80113085Y-91919937D01*
X80379588Y-91920170D01*
X80625893Y-91818399D01*
X80814503Y-91630117D01*
X80905654Y-91410601D01*
X81560529Y-91410601D01*
X81733502Y-91376195D01*
X81880141Y-91278213D01*
X82569612Y-90588742D01*
X82609473Y-90529087D01*
X82664794Y-90611881D01*
X83051052Y-90869971D01*
X83506675Y-90960600D01*
X83553325Y-90960600D01*
X84008948Y-90869971D01*
X84395206Y-90611881D01*
X84653296Y-90225623D01*
X84743925Y-89770000D01*
X84856075Y-89770000D01*
X84946704Y-90225623D01*
X85204794Y-90611881D01*
X85591052Y-90869971D01*
X86046675Y-90960600D01*
X86093325Y-90960600D01*
X86548948Y-90869971D01*
X86935206Y-90611881D01*
X87193296Y-90225623D01*
X87283925Y-89770000D01*
X87396075Y-89770000D01*
X87486704Y-90225623D01*
X87744794Y-90611881D01*
X88131052Y-90869971D01*
X88586675Y-90960600D01*
X88633325Y-90960600D01*
X89088948Y-90869971D01*
X89475206Y-90611881D01*
X89733296Y-90225623D01*
X89823925Y-89770000D01*
X89936075Y-89770000D01*
X90026704Y-90225623D01*
X90284794Y-90611881D01*
X90671052Y-90869971D01*
X91126675Y-90960600D01*
X91173325Y-90960600D01*
X91628948Y-90869971D01*
X92015206Y-90611881D01*
X92273296Y-90225623D01*
X92363925Y-89770000D01*
X92476075Y-89770000D01*
X92566704Y-90225623D01*
X92824794Y-90611881D01*
X93211052Y-90869971D01*
X93666675Y-90960600D01*
X93713325Y-90960600D01*
X94168948Y-90869971D01*
X94555206Y-90611881D01*
X94813296Y-90225623D01*
X94903925Y-89770000D01*
X95016075Y-89770000D01*
X95106704Y-90225623D01*
X95364794Y-90611881D01*
X95751052Y-90869971D01*
X96206675Y-90960600D01*
X96253325Y-90960600D01*
X96708948Y-90869971D01*
X97095206Y-90611881D01*
X97353296Y-90225623D01*
X97443925Y-89770000D01*
X97556075Y-89770000D01*
X97646704Y-90225623D01*
X97904794Y-90611881D01*
X98291052Y-90869971D01*
X98746675Y-90960600D01*
X98793325Y-90960600D01*
X99248948Y-90869971D01*
X99635206Y-90611881D01*
X99893296Y-90225623D01*
X99983925Y-89770000D01*
X100096075Y-89770000D01*
X100186704Y-90225623D01*
X100444794Y-90611881D01*
X100831052Y-90869971D01*
X101286675Y-90960600D01*
X101333325Y-90960600D01*
X101788948Y-90869971D01*
X102175206Y-90611881D01*
X102433296Y-90225623D01*
X102459009Y-90096351D01*
X102601343Y-90096351D01*
X102736293Y-90422174D01*
X103070645Y-90798728D01*
X103523647Y-91018667D01*
X103723000Y-90947597D01*
X103723000Y-89897000D01*
X103977000Y-89897000D01*
X103977000Y-90947597D01*
X104176353Y-91018667D01*
X104629355Y-90798728D01*
X104963707Y-90422174D01*
X105098657Y-90096351D01*
X105027018Y-89897000D01*
X103977000Y-89897000D01*
X103723000Y-89897000D01*
X102672982Y-89897000D01*
X102601343Y-90096351D01*
X102459009Y-90096351D01*
X102523925Y-89770000D01*
X105176075Y-89770000D01*
X105266704Y-90225623D01*
X105524794Y-90611881D01*
X105911052Y-90869971D01*
X106366675Y-90960600D01*
X106413325Y-90960600D01*
X106868948Y-90869971D01*
X107255206Y-90611881D01*
X107513296Y-90225623D01*
X107603925Y-89770000D01*
X107716075Y-89770000D01*
X107806704Y-90225623D01*
X108064794Y-90611881D01*
X108451052Y-90869971D01*
X108906675Y-90960600D01*
X108953325Y-90960600D01*
X109408948Y-90869971D01*
X109795206Y-90611881D01*
X110053296Y-90225623D01*
X110143925Y-89770000D01*
X110256075Y-89770000D01*
X110346704Y-90225623D01*
X110604794Y-90611881D01*
X110991052Y-90869971D01*
X111446675Y-90960600D01*
X111493325Y-90960600D01*
X111948948Y-90869971D01*
X112335206Y-90611881D01*
X112593296Y-90225623D01*
X112683925Y-89770000D01*
X112796075Y-89770000D01*
X112886704Y-90225623D01*
X113144794Y-90611881D01*
X113531052Y-90869971D01*
X113986675Y-90960600D01*
X114033325Y-90960600D01*
X114488948Y-90869971D01*
X114875206Y-90611881D01*
X115133296Y-90225623D01*
X115223925Y-89770000D01*
X115336075Y-89770000D01*
X115426704Y-90225623D01*
X115684794Y-90611881D01*
X116071052Y-90869971D01*
X116526675Y-90960600D01*
X116573325Y-90960600D01*
X117028948Y-90869971D01*
X117415206Y-90611881D01*
X117673296Y-90225623D01*
X117763925Y-89770000D01*
X117876075Y-89770000D01*
X117966704Y-90225623D01*
X118224794Y-90611881D01*
X118611052Y-90869971D01*
X119066675Y-90960600D01*
X119113325Y-90960600D01*
X119568948Y-90869971D01*
X119955206Y-90611881D01*
X120213296Y-90225623D01*
X120239009Y-90096351D01*
X120381343Y-90096351D01*
X120516293Y-90422174D01*
X120850645Y-90798728D01*
X121303647Y-91018667D01*
X121503000Y-90947597D01*
X121503000Y-89897000D01*
X121757000Y-89897000D01*
X121757000Y-90947597D01*
X121956353Y-91018667D01*
X122409355Y-90798728D01*
X122743707Y-90422174D01*
X122878657Y-90096351D01*
X122807018Y-89897000D01*
X121757000Y-89897000D01*
X121503000Y-89897000D01*
X120452982Y-89897000D01*
X120381343Y-90096351D01*
X120239009Y-90096351D01*
X120303925Y-89770000D01*
X120239010Y-89443649D01*
X120381343Y-89443649D01*
X120452982Y-89643000D01*
X121503000Y-89643000D01*
X121503000Y-88592403D01*
X121757000Y-88592403D01*
X121757000Y-89643000D01*
X122807018Y-89643000D01*
X122878657Y-89443649D01*
X122743707Y-89117826D01*
X122409355Y-88741272D01*
X121956353Y-88521333D01*
X121757000Y-88592403D01*
X121503000Y-88592403D01*
X121303647Y-88521333D01*
X120850645Y-88741272D01*
X120516293Y-89117826D01*
X120381343Y-89443649D01*
X120239010Y-89443649D01*
X120213296Y-89314377D01*
X119955206Y-88928119D01*
X119568948Y-88670029D01*
X119113325Y-88579400D01*
X119066675Y-88579400D01*
X118611052Y-88670029D01*
X118224794Y-88928119D01*
X117966704Y-89314377D01*
X117876075Y-89770000D01*
X117763925Y-89770000D01*
X117673296Y-89314377D01*
X117415206Y-88928119D01*
X117028948Y-88670029D01*
X116573325Y-88579400D01*
X116526675Y-88579400D01*
X116071052Y-88670029D01*
X115684794Y-88928119D01*
X115426704Y-89314377D01*
X115336075Y-89770000D01*
X115223925Y-89770000D01*
X115133296Y-89314377D01*
X114875206Y-88928119D01*
X114488948Y-88670029D01*
X114033325Y-88579400D01*
X113986675Y-88579400D01*
X113531052Y-88670029D01*
X113144794Y-88928119D01*
X112886704Y-89314377D01*
X112796075Y-89770000D01*
X112683925Y-89770000D01*
X112593296Y-89314377D01*
X112335206Y-88928119D01*
X111948948Y-88670029D01*
X111493325Y-88579400D01*
X111446675Y-88579400D01*
X110991052Y-88670029D01*
X110604794Y-88928119D01*
X110346704Y-89314377D01*
X110256075Y-89770000D01*
X110143925Y-89770000D01*
X110053296Y-89314377D01*
X109795206Y-88928119D01*
X109408948Y-88670029D01*
X108953325Y-88579400D01*
X108906675Y-88579400D01*
X108451052Y-88670029D01*
X108064794Y-88928119D01*
X107806704Y-89314377D01*
X107716075Y-89770000D01*
X107603925Y-89770000D01*
X107513296Y-89314377D01*
X107255206Y-88928119D01*
X106868948Y-88670029D01*
X106413325Y-88579400D01*
X106366675Y-88579400D01*
X105911052Y-88670029D01*
X105524794Y-88928119D01*
X105266704Y-89314377D01*
X105176075Y-89770000D01*
X102523925Y-89770000D01*
X102459010Y-89443649D01*
X102601343Y-89443649D01*
X102672982Y-89643000D01*
X103723000Y-89643000D01*
X103723000Y-88592403D01*
X103977000Y-88592403D01*
X103977000Y-89643000D01*
X105027018Y-89643000D01*
X105098657Y-89443649D01*
X104963707Y-89117826D01*
X104629355Y-88741272D01*
X104176353Y-88521333D01*
X103977000Y-88592403D01*
X103723000Y-88592403D01*
X103523647Y-88521333D01*
X103070645Y-88741272D01*
X102736293Y-89117826D01*
X102601343Y-89443649D01*
X102459010Y-89443649D01*
X102433296Y-89314377D01*
X102175206Y-88928119D01*
X101788948Y-88670029D01*
X101333325Y-88579400D01*
X101286675Y-88579400D01*
X100831052Y-88670029D01*
X100444794Y-88928119D01*
X100186704Y-89314377D01*
X100096075Y-89770000D01*
X99983925Y-89770000D01*
X99893296Y-89314377D01*
X99635206Y-88928119D01*
X99248948Y-88670029D01*
X98793325Y-88579400D01*
X98746675Y-88579400D01*
X98291052Y-88670029D01*
X97904794Y-88928119D01*
X97646704Y-89314377D01*
X97556075Y-89770000D01*
X97443925Y-89770000D01*
X97353296Y-89314377D01*
X97095206Y-88928119D01*
X96708948Y-88670029D01*
X96253325Y-88579400D01*
X96206675Y-88579400D01*
X95751052Y-88670029D01*
X95364794Y-88928119D01*
X95106704Y-89314377D01*
X95016075Y-89770000D01*
X94903925Y-89770000D01*
X94813296Y-89314377D01*
X94555206Y-88928119D01*
X94168948Y-88670029D01*
X93713325Y-88579400D01*
X93666675Y-88579400D01*
X93211052Y-88670029D01*
X92824794Y-88928119D01*
X92566704Y-89314377D01*
X92476075Y-89770000D01*
X92363925Y-89770000D01*
X92273296Y-89314377D01*
X92015206Y-88928119D01*
X91628948Y-88670029D01*
X91173325Y-88579400D01*
X91126675Y-88579400D01*
X90671052Y-88670029D01*
X90284794Y-88928119D01*
X90026704Y-89314377D01*
X89936075Y-89770000D01*
X89823925Y-89770000D01*
X89733296Y-89314377D01*
X89475206Y-88928119D01*
X89088948Y-88670029D01*
X88633325Y-88579400D01*
X88586675Y-88579400D01*
X88131052Y-88670029D01*
X87744794Y-88928119D01*
X87486704Y-89314377D01*
X87396075Y-89770000D01*
X87283925Y-89770000D01*
X87193296Y-89314377D01*
X86935206Y-88928119D01*
X86548948Y-88670029D01*
X86093325Y-88579400D01*
X86046675Y-88579400D01*
X85591052Y-88670029D01*
X85204794Y-88928119D01*
X84946704Y-89314377D01*
X84856075Y-89770000D01*
X84743925Y-89770000D01*
X84653296Y-89314377D01*
X84395206Y-88928119D01*
X84008948Y-88670029D01*
X83553325Y-88579400D01*
X83506675Y-88579400D01*
X83051052Y-88670029D01*
X82702000Y-88903259D01*
X82702000Y-88697224D01*
X83066234Y-88332991D01*
X83506675Y-88420600D01*
X83553325Y-88420600D01*
X84008948Y-88329971D01*
X84395206Y-88071881D01*
X84653296Y-87685623D01*
X84743925Y-87230000D01*
X84856075Y-87230000D01*
X84946704Y-87685623D01*
X85204794Y-88071881D01*
X85591052Y-88329971D01*
X86046675Y-88420600D01*
X86093325Y-88420600D01*
X86548948Y-88329971D01*
X86935206Y-88071881D01*
X87193296Y-87685623D01*
X87219009Y-87556351D01*
X87361343Y-87556351D01*
X87496293Y-87882174D01*
X87830645Y-88258728D01*
X88283647Y-88478667D01*
X88483000Y-88407597D01*
X88483000Y-87357000D01*
X88737000Y-87357000D01*
X88737000Y-88407597D01*
X88936353Y-88478667D01*
X89389355Y-88258728D01*
X89723707Y-87882174D01*
X89858657Y-87556351D01*
X89787018Y-87357000D01*
X88737000Y-87357000D01*
X88483000Y-87357000D01*
X87432982Y-87357000D01*
X87361343Y-87556351D01*
X87219009Y-87556351D01*
X87283925Y-87230000D01*
X89936075Y-87230000D01*
X90026704Y-87685623D01*
X90284794Y-88071881D01*
X90671052Y-88329971D01*
X91126675Y-88420600D01*
X91173325Y-88420600D01*
X91628948Y-88329971D01*
X92015206Y-88071881D01*
X92273296Y-87685623D01*
X92363925Y-87230000D01*
X92476075Y-87230000D01*
X92566704Y-87685623D01*
X92824794Y-88071881D01*
X93211052Y-88329971D01*
X93666675Y-88420600D01*
X93713325Y-88420600D01*
X94168948Y-88329971D01*
X94555206Y-88071881D01*
X94813296Y-87685623D01*
X94839009Y-87556351D01*
X94981343Y-87556351D01*
X95116293Y-87882174D01*
X95450645Y-88258728D01*
X95903647Y-88478667D01*
X96103000Y-88407597D01*
X96103000Y-87357000D01*
X96357000Y-87357000D01*
X96357000Y-88407597D01*
X96556353Y-88478667D01*
X97009355Y-88258728D01*
X97343707Y-87882174D01*
X97478657Y-87556351D01*
X97407018Y-87357000D01*
X96357000Y-87357000D01*
X96103000Y-87357000D01*
X95052982Y-87357000D01*
X94981343Y-87556351D01*
X94839009Y-87556351D01*
X94903925Y-87230000D01*
X97556075Y-87230000D01*
X97646704Y-87685623D01*
X97904794Y-88071881D01*
X98291052Y-88329971D01*
X98746675Y-88420600D01*
X98793325Y-88420600D01*
X99248948Y-88329971D01*
X99635206Y-88071881D01*
X99893296Y-87685623D01*
X99983925Y-87230000D01*
X100096075Y-87230000D01*
X100186704Y-87685623D01*
X100444794Y-88071881D01*
X100831052Y-88329971D01*
X101286675Y-88420600D01*
X101333325Y-88420600D01*
X101788948Y-88329971D01*
X102175206Y-88071881D01*
X102433296Y-87685623D01*
X102523925Y-87230000D01*
X102636075Y-87230000D01*
X102726704Y-87685623D01*
X102984794Y-88071881D01*
X103371052Y-88329971D01*
X103826675Y-88420600D01*
X103873325Y-88420600D01*
X104328948Y-88329971D01*
X104715206Y-88071881D01*
X104973296Y-87685623D01*
X105063925Y-87230000D01*
X105176075Y-87230000D01*
X105266704Y-87685623D01*
X105524794Y-88071881D01*
X105911052Y-88329971D01*
X106366675Y-88420600D01*
X106413325Y-88420600D01*
X106868948Y-88329971D01*
X107255206Y-88071881D01*
X107513296Y-87685623D01*
X107539009Y-87556351D01*
X107681343Y-87556351D01*
X107816293Y-87882174D01*
X108150645Y-88258728D01*
X108603647Y-88478667D01*
X108803000Y-88407597D01*
X108803000Y-87357000D01*
X109057000Y-87357000D01*
X109057000Y-88407597D01*
X109256353Y-88478667D01*
X109709355Y-88258728D01*
X110043707Y-87882174D01*
X110178657Y-87556351D01*
X110107018Y-87357000D01*
X109057000Y-87357000D01*
X108803000Y-87357000D01*
X107752982Y-87357000D01*
X107681343Y-87556351D01*
X107539009Y-87556351D01*
X107603925Y-87230000D01*
X110256075Y-87230000D01*
X110346704Y-87685623D01*
X110604794Y-88071881D01*
X110991052Y-88329971D01*
X111446675Y-88420600D01*
X111493325Y-88420600D01*
X111948948Y-88329971D01*
X112335206Y-88071881D01*
X112593296Y-87685623D01*
X112619009Y-87556351D01*
X112761343Y-87556351D01*
X112896293Y-87882174D01*
X113230645Y-88258728D01*
X113683647Y-88478667D01*
X113883000Y-88407597D01*
X113883000Y-87357000D01*
X114137000Y-87357000D01*
X114137000Y-88407597D01*
X114336353Y-88478667D01*
X114789355Y-88258728D01*
X115123707Y-87882174D01*
X115258657Y-87556351D01*
X115187018Y-87357000D01*
X114137000Y-87357000D01*
X113883000Y-87357000D01*
X112832982Y-87357000D01*
X112761343Y-87556351D01*
X112619009Y-87556351D01*
X112683925Y-87230000D01*
X115336075Y-87230000D01*
X115426704Y-87685623D01*
X115684794Y-88071881D01*
X116071052Y-88329971D01*
X116526675Y-88420600D01*
X116573325Y-88420600D01*
X117028948Y-88329971D01*
X117415206Y-88071881D01*
X117673296Y-87685623D01*
X117763925Y-87230000D01*
X117876075Y-87230000D01*
X117966704Y-87685623D01*
X118224794Y-88071881D01*
X118611052Y-88329971D01*
X119066675Y-88420600D01*
X119113325Y-88420600D01*
X119568948Y-88329971D01*
X119955206Y-88071881D01*
X120213296Y-87685623D01*
X120303925Y-87230000D01*
X120416075Y-87230000D01*
X120506704Y-87685623D01*
X120764794Y-88071881D01*
X121151052Y-88329971D01*
X121606675Y-88420600D01*
X121653325Y-88420600D01*
X122108948Y-88329971D01*
X122495206Y-88071881D01*
X122753296Y-87685623D01*
X122843925Y-87230000D01*
X122753296Y-86774377D01*
X122495206Y-86388119D01*
X122108948Y-86130029D01*
X121653325Y-86039400D01*
X121606675Y-86039400D01*
X121151052Y-86130029D01*
X120764794Y-86388119D01*
X120506704Y-86774377D01*
X120416075Y-87230000D01*
X120303925Y-87230000D01*
X120213296Y-86774377D01*
X119955206Y-86388119D01*
X119568948Y-86130029D01*
X119113325Y-86039400D01*
X119066675Y-86039400D01*
X118611052Y-86130029D01*
X118224794Y-86388119D01*
X117966704Y-86774377D01*
X117876075Y-87230000D01*
X117763925Y-87230000D01*
X117673296Y-86774377D01*
X117415206Y-86388119D01*
X117028948Y-86130029D01*
X116573325Y-86039400D01*
X116526675Y-86039400D01*
X116071052Y-86130029D01*
X115684794Y-86388119D01*
X115426704Y-86774377D01*
X115336075Y-87230000D01*
X112683925Y-87230000D01*
X112619010Y-86903649D01*
X112761343Y-86903649D01*
X112832982Y-87103000D01*
X113883000Y-87103000D01*
X113883000Y-86052403D01*
X114137000Y-86052403D01*
X114137000Y-87103000D01*
X115187018Y-87103000D01*
X115258657Y-86903649D01*
X115123707Y-86577826D01*
X114789355Y-86201272D01*
X114336353Y-85981333D01*
X114137000Y-86052403D01*
X113883000Y-86052403D01*
X113683647Y-85981333D01*
X113230645Y-86201272D01*
X112896293Y-86577826D01*
X112761343Y-86903649D01*
X112619010Y-86903649D01*
X112593296Y-86774377D01*
X112335206Y-86388119D01*
X111948948Y-86130029D01*
X111493325Y-86039400D01*
X111446675Y-86039400D01*
X110991052Y-86130029D01*
X110604794Y-86388119D01*
X110346704Y-86774377D01*
X110256075Y-87230000D01*
X107603925Y-87230000D01*
X107539010Y-86903649D01*
X107681343Y-86903649D01*
X107752982Y-87103000D01*
X108803000Y-87103000D01*
X108803000Y-86052403D01*
X109057000Y-86052403D01*
X109057000Y-87103000D01*
X110107018Y-87103000D01*
X110178657Y-86903649D01*
X110043707Y-86577826D01*
X109709355Y-86201272D01*
X109256353Y-85981333D01*
X109057000Y-86052403D01*
X108803000Y-86052403D01*
X108603647Y-85981333D01*
X108150645Y-86201272D01*
X107816293Y-86577826D01*
X107681343Y-86903649D01*
X107539010Y-86903649D01*
X107513296Y-86774377D01*
X107255206Y-86388119D01*
X106868948Y-86130029D01*
X106413325Y-86039400D01*
X106366675Y-86039400D01*
X105911052Y-86130029D01*
X105524794Y-86388119D01*
X105266704Y-86774377D01*
X105176075Y-87230000D01*
X105063925Y-87230000D01*
X104973296Y-86774377D01*
X104715206Y-86388119D01*
X104328948Y-86130029D01*
X103873325Y-86039400D01*
X103826675Y-86039400D01*
X103371052Y-86130029D01*
X102984794Y-86388119D01*
X102726704Y-86774377D01*
X102636075Y-87230000D01*
X102523925Y-87230000D01*
X102433296Y-86774377D01*
X102175206Y-86388119D01*
X101788948Y-86130029D01*
X101333325Y-86039400D01*
X101286675Y-86039400D01*
X100831052Y-86130029D01*
X100444794Y-86388119D01*
X100186704Y-86774377D01*
X100096075Y-87230000D01*
X99983925Y-87230000D01*
X99893296Y-86774377D01*
X99635206Y-86388119D01*
X99248948Y-86130029D01*
X98793325Y-86039400D01*
X98746675Y-86039400D01*
X98291052Y-86130029D01*
X97904794Y-86388119D01*
X97646704Y-86774377D01*
X97556075Y-87230000D01*
X94903925Y-87230000D01*
X94839010Y-86903649D01*
X94981343Y-86903649D01*
X95052982Y-87103000D01*
X96103000Y-87103000D01*
X96103000Y-86052403D01*
X96357000Y-86052403D01*
X96357000Y-87103000D01*
X97407018Y-87103000D01*
X97478657Y-86903649D01*
X97343707Y-86577826D01*
X97009355Y-86201272D01*
X96556353Y-85981333D01*
X96357000Y-86052403D01*
X96103000Y-86052403D01*
X95903647Y-85981333D01*
X95450645Y-86201272D01*
X95116293Y-86577826D01*
X94981343Y-86903649D01*
X94839010Y-86903649D01*
X94813296Y-86774377D01*
X94555206Y-86388119D01*
X94168948Y-86130029D01*
X93713325Y-86039400D01*
X93666675Y-86039400D01*
X93211052Y-86130029D01*
X92824794Y-86388119D01*
X92566704Y-86774377D01*
X92476075Y-87230000D01*
X92363925Y-87230000D01*
X92273296Y-86774377D01*
X92015206Y-86388119D01*
X91628948Y-86130029D01*
X91173325Y-86039400D01*
X91126675Y-86039400D01*
X90671052Y-86130029D01*
X90284794Y-86388119D01*
X90026704Y-86774377D01*
X89936075Y-87230000D01*
X87283925Y-87230000D01*
X87219010Y-86903649D01*
X87361343Y-86903649D01*
X87432982Y-87103000D01*
X88483000Y-87103000D01*
X88483000Y-86052403D01*
X88737000Y-86052403D01*
X88737000Y-87103000D01*
X89787018Y-87103000D01*
X89858657Y-86903649D01*
X89723707Y-86577826D01*
X89389355Y-86201272D01*
X88936353Y-85981333D01*
X88737000Y-86052403D01*
X88483000Y-86052403D01*
X88283647Y-85981333D01*
X87830645Y-86201272D01*
X87496293Y-86577826D01*
X87361343Y-86903649D01*
X87219010Y-86903649D01*
X87193296Y-86774377D01*
X86935206Y-86388119D01*
X86548948Y-86130029D01*
X86093325Y-86039400D01*
X86046675Y-86039400D01*
X85591052Y-86130029D01*
X85204794Y-86388119D01*
X84946704Y-86774377D01*
X84856075Y-87230000D01*
X84743925Y-87230000D01*
X84653296Y-86774377D01*
X84395206Y-86388119D01*
X84008948Y-86130029D01*
X83553325Y-86039400D01*
X83506675Y-86039400D01*
X83051052Y-86130029D01*
X82664794Y-86388119D01*
X82406704Y-86774377D01*
X82316075Y-87230000D01*
X82406704Y-87685623D01*
X82418099Y-87702677D01*
X81930388Y-88190388D01*
X81832406Y-88337027D01*
X81798000Y-88510000D01*
X81798000Y-88889895D01*
X81468948Y-88670029D01*
X81013325Y-88579400D01*
X80966675Y-88579400D01*
X80511052Y-88670029D01*
X80152000Y-88909940D01*
X80152000Y-88707224D01*
X80526234Y-88332991D01*
X80966675Y-88420600D01*
X81013325Y-88420600D01*
X81468948Y-88329971D01*
X81855206Y-88071881D01*
X82113296Y-87685623D01*
X82203925Y-87230000D01*
X82113296Y-86774377D01*
X81855206Y-86388119D01*
X81468948Y-86130029D01*
X81013325Y-86039400D01*
X80966675Y-86039400D01*
X80511052Y-86130029D01*
X80124794Y-86388119D01*
X79866704Y-86774377D01*
X79776075Y-87230000D01*
X79866704Y-87685623D01*
X79878099Y-87702677D01*
X79380388Y-88200388D01*
X79282406Y-88347027D01*
X79248000Y-88520000D01*
X79248000Y-88883213D01*
X78928948Y-88670029D01*
X78473325Y-88579400D01*
X78426675Y-88579400D01*
X77971052Y-88670029D01*
X77795540Y-88787303D01*
X77821660Y-88748211D01*
X77877001Y-88470000D01*
X77852542Y-88347042D01*
X78123647Y-88478667D01*
X78323000Y-88407597D01*
X78323000Y-87357000D01*
X78577000Y-87357000D01*
X78577000Y-88407597D01*
X78776353Y-88478667D01*
X79229355Y-88258728D01*
X79563707Y-87882174D01*
X79698657Y-87556351D01*
X79627018Y-87357000D01*
X78577000Y-87357000D01*
X78323000Y-87357000D01*
X77272982Y-87357000D01*
X77218035Y-87509901D01*
X77093100Y-87384966D01*
X77123925Y-87230000D01*
X77059010Y-86903649D01*
X77201343Y-86903649D01*
X77272982Y-87103000D01*
X78323000Y-87103000D01*
X78323000Y-86052403D01*
X78577000Y-86052403D01*
X78577000Y-87103000D01*
X79627018Y-87103000D01*
X79698657Y-86903649D01*
X79563707Y-86577826D01*
X79229355Y-86201272D01*
X78776353Y-85981333D01*
X78577000Y-86052403D01*
X78323000Y-86052403D01*
X78123647Y-85981333D01*
X77670645Y-86201272D01*
X77336293Y-86577826D01*
X77201343Y-86903649D01*
X77059010Y-86903649D01*
X77033296Y-86774377D01*
X76775206Y-86388119D01*
X76388948Y-86130029D01*
X75933325Y-86039400D01*
X75886675Y-86039400D01*
X75431052Y-86130029D01*
X75044794Y-86388119D01*
X74786704Y-86774377D01*
X74731258Y-87053124D01*
X74503423Y-86825289D01*
X74493296Y-86774377D01*
X74235206Y-86388119D01*
X73848948Y-86130029D01*
X73393325Y-86039400D01*
X73346675Y-86039400D01*
X72891052Y-86130029D01*
X72504794Y-86388119D01*
X72246704Y-86774377D01*
X72156075Y-87230000D01*
X71629166Y-87230000D01*
X71364550Y-86589582D01*
X70415414Y-85638788D01*
X69748834Y-85362000D01*
X125251381Y-85362000D01*
X124589582Y-85635450D01*
X124589582Y-85635450D01*
G37*
X124589582Y-85635450D02*
X123638788Y-86584586D01*
X123123588Y-87825326D01*
X123122415Y-89168780D01*
X123635450Y-90410418D01*
X124584586Y-91361212D01*
X125825326Y-91876412D01*
X127168780Y-91877585D01*
X128410418Y-91364550D01*
X129361212Y-90415414D01*
X129638000Y-89748834D01*
X129638000Y-110251381D01*
X129364550Y-109589582D01*
X128415414Y-108638788D01*
X127174674Y-108123588D01*
X125831220Y-108122415D01*
X124589582Y-108635450D01*
X123638788Y-109584586D01*
X123123588Y-110825326D01*
X123122415Y-112168780D01*
X123635450Y-113410418D01*
X124584586Y-114361212D01*
X125251166Y-114638000D01*
X69748619Y-114638000D01*
X70410418Y-114364550D01*
X71361212Y-113415414D01*
X71876412Y-112174674D01*
X71877585Y-110831220D01*
X71364550Y-109589582D01*
X70415414Y-108638788D01*
X69174674Y-108123588D01*
X67831220Y-108122415D01*
X66589582Y-108635450D01*
X65638788Y-109584586D01*
X65362000Y-110251166D01*
X65362000Y-102693779D01*
X73162857Y-102693779D01*
X73263000Y-102936143D01*
X73263000Y-109249253D01*
X73257998Y-109274399D01*
X73257999Y-109274404D01*
X73257999Y-110814994D01*
X73257998Y-110814999D01*
X73301444Y-111033412D01*
X73313339Y-111093210D01*
X73436948Y-111278205D01*
X73470932Y-111329066D01*
X74755933Y-112614067D01*
X74991789Y-112771660D01*
X75037948Y-112780842D01*
X75270000Y-112827001D01*
X75270005Y-112827000D01*
X84294297Y-112827000D01*
X84534778Y-112926856D01*
X84863779Y-112927143D01*
X85167846Y-112801505D01*
X85400688Y-112569070D01*
X85526856Y-112265222D01*
X85527143Y-111936221D01*
X85401505Y-111632154D01*
X85169070Y-111399312D01*
X84865222Y-111273144D01*
X84536221Y-111272857D01*
X84293857Y-111373000D01*
X75571134Y-111373000D01*
X74730801Y-110532667D01*
X75129984Y-110532667D01*
X75231755Y-110778972D01*
X75420037Y-110967582D01*
X75666164Y-111069783D01*
X75834389Y-111069930D01*
X75943276Y-111142686D01*
X75969926Y-111160493D01*
X76142899Y-111194899D01*
X82043101Y-111194899D01*
X82216074Y-111160493D01*
X82362713Y-111062511D01*
X82773351Y-110651873D01*
X82936667Y-110652016D01*
X83182972Y-110550245D01*
X83371582Y-110361963D01*
X83473783Y-110115836D01*
X83474016Y-109849333D01*
X83372245Y-109603028D01*
X83183963Y-109414418D01*
X82937836Y-109312217D01*
X82671333Y-109311984D01*
X82425028Y-109413755D01*
X82236418Y-109602037D01*
X82134217Y-109848164D01*
X82134073Y-110012703D01*
X81855877Y-110290899D01*
X76469995Y-110290899D01*
X76470016Y-110267333D01*
X76368245Y-110021028D01*
X76179963Y-109832418D01*
X75933836Y-109730217D01*
X75667333Y-109729984D01*
X75421028Y-109831755D01*
X75232418Y-110020037D01*
X75130217Y-110266164D01*
X75129984Y-110532667D01*
X74730801Y-110532667D01*
X74711999Y-110513865D01*
X74711999Y-109294540D01*
X74717000Y-109269398D01*
X74717000Y-109182667D01*
X104179984Y-109182667D01*
X104281755Y-109428972D01*
X104470037Y-109617582D01*
X104716164Y-109719783D01*
X104760267Y-109719822D01*
X104692526Y-109763412D01*
X104617862Y-109872686D01*
X104591594Y-110002400D01*
X104591594Y-110967600D01*
X104614395Y-111088779D01*
X104633941Y-111119154D01*
X104617862Y-111142686D01*
X104591594Y-111272400D01*
X104591594Y-112237600D01*
X104614395Y-112358779D01*
X104686012Y-112470074D01*
X104795286Y-112544738D01*
X104925000Y-112571006D01*
X106195000Y-112571006D01*
X106316179Y-112548205D01*
X106427474Y-112476588D01*
X106502138Y-112367314D01*
X106528406Y-112237600D01*
X106528406Y-112207000D01*
X110645000Y-112207000D01*
X110817973Y-112172594D01*
X110964612Y-112074612D01*
X111789612Y-111249612D01*
X111887594Y-111102973D01*
X111895642Y-111062511D01*
X111922000Y-110930000D01*
X111922000Y-103739403D01*
X111925623Y-103738682D01*
X112311881Y-103480592D01*
X112569971Y-103094334D01*
X112660600Y-102638711D01*
X112660600Y-102281289D01*
X112569971Y-101825666D01*
X112311881Y-101439408D01*
X111925623Y-101181318D01*
X111470000Y-101090689D01*
X111014377Y-101181318D01*
X110628119Y-101439408D01*
X110370029Y-101825666D01*
X110279400Y-102281289D01*
X110279400Y-102638711D01*
X110370029Y-103094334D01*
X110628119Y-103480592D01*
X111014377Y-103738682D01*
X111018000Y-103739403D01*
X111018000Y-110742776D01*
X110457776Y-111303000D01*
X106528406Y-111303000D01*
X106528406Y-111272400D01*
X106505605Y-111151221D01*
X106486059Y-111120846D01*
X106502138Y-111097314D01*
X106528406Y-110967600D01*
X106528406Y-110002400D01*
X106505605Y-109881221D01*
X106433988Y-109769926D01*
X106324714Y-109695262D01*
X106195000Y-109668994D01*
X105993898Y-109668994D01*
X105977594Y-109587027D01*
X105962479Y-109564406D01*
X105879613Y-109440388D01*
X105519873Y-109080649D01*
X105520016Y-108917333D01*
X105418245Y-108671028D01*
X105229963Y-108482418D01*
X104983836Y-108380217D01*
X104717333Y-108379984D01*
X104471028Y-108481755D01*
X104282418Y-108670037D01*
X104180217Y-108916164D01*
X104179984Y-109182667D01*
X74717000Y-109182667D01*
X74717000Y-102935703D01*
X74816856Y-102695222D01*
X74817143Y-102366221D01*
X74691505Y-102062154D01*
X74459070Y-101829312D01*
X74155222Y-101703144D01*
X73826221Y-101702857D01*
X73522154Y-101828495D01*
X73289312Y-102060930D01*
X73163144Y-102364778D01*
X73162857Y-102693779D01*
X65362000Y-102693779D01*
X65362000Y-89748619D01*
X65635450Y-90410418D01*
X66584586Y-91361212D01*
X67825326Y-91876412D01*
X69168780Y-91877585D01*
X70410418Y-91364550D01*
X71361212Y-90415414D01*
X71876412Y-89174674D01*
X71877585Y-87831220D01*
X71629166Y-87230000D01*
X72156075Y-87230000D01*
X72246704Y-87685623D01*
X72504794Y-88071881D01*
X72891052Y-88329971D01*
X73346675Y-88420600D01*
X73393325Y-88420600D01*
X73848948Y-88329971D01*
X73910626Y-88288759D01*
X74123000Y-88501133D01*
X74123000Y-88572994D01*
X72506400Y-88572994D01*
X72385221Y-88595795D01*
X72273926Y-88667412D01*
X72199262Y-88776686D01*
X72172994Y-88906400D01*
X72172994Y-90633600D01*
X72195795Y-90754779D01*
X72267412Y-90866074D01*
X72376686Y-90940738D01*
X72506400Y-90967006D01*
X72793000Y-90967006D01*
X72793000Y-99531995D01*
X72792999Y-99532000D01*
X72836922Y-99752808D01*
X72961999Y-99940001D01*
X78839997Y-105817998D01*
X78839999Y-105818001D01*
X79536922Y-106514924D01*
X79536874Y-106569975D01*
X79647320Y-106837275D01*
X79851650Y-107041961D01*
X80118756Y-107152874D01*
X80407975Y-107153126D01*
X80675275Y-107042680D01*
X80879961Y-106838350D01*
X80990874Y-106571244D01*
X80991126Y-106282025D01*
X80880680Y-106014725D01*
X80676350Y-105810039D01*
X80409244Y-105699126D01*
X80353079Y-105699077D01*
X79656001Y-105001999D01*
X79655998Y-105001997D01*
X76786669Y-102132667D01*
X86829984Y-102132667D01*
X86931755Y-102378972D01*
X87048000Y-102495420D01*
X87048000Y-103704656D01*
X86932418Y-103820037D01*
X86830217Y-104066164D01*
X86829984Y-104332667D01*
X86931755Y-104578972D01*
X87120037Y-104767582D01*
X87366164Y-104869783D01*
X87632667Y-104870016D01*
X87878972Y-104768245D01*
X88067582Y-104579963D01*
X88169783Y-104333836D01*
X88170016Y-104067333D01*
X88068245Y-103821028D01*
X87952000Y-103704580D01*
X87952000Y-102693750D01*
X107639400Y-102693750D01*
X107639400Y-103560935D01*
X107704407Y-103717876D01*
X107824524Y-103837993D01*
X107981464Y-103903000D01*
X108696250Y-103903000D01*
X108803000Y-103796250D01*
X108803000Y-102587000D01*
X109057000Y-102587000D01*
X109057000Y-103796250D01*
X109163750Y-103903000D01*
X109878536Y-103903000D01*
X110035476Y-103837993D01*
X110155593Y-103717876D01*
X110220600Y-103560935D01*
X110220600Y-102693750D01*
X110113850Y-102587000D01*
X109057000Y-102587000D01*
X108803000Y-102587000D01*
X107746150Y-102587000D01*
X107639400Y-102693750D01*
X87952000Y-102693750D01*
X87952000Y-102495344D01*
X88067582Y-102379963D01*
X88169783Y-102133836D01*
X88170016Y-101867333D01*
X88068245Y-101621028D01*
X87879963Y-101432418D01*
X87703310Y-101359065D01*
X107639400Y-101359065D01*
X107639400Y-102226250D01*
X107746150Y-102333000D01*
X108803000Y-102333000D01*
X108803000Y-101123750D01*
X109057000Y-101123750D01*
X109057000Y-102333000D01*
X110113850Y-102333000D01*
X110220600Y-102226250D01*
X110220600Y-101359065D01*
X110155593Y-101202124D01*
X110035476Y-101082007D01*
X109878536Y-101017000D01*
X109163750Y-101017000D01*
X109057000Y-101123750D01*
X108803000Y-101123750D01*
X108696250Y-101017000D01*
X107981464Y-101017000D01*
X107824524Y-101082007D01*
X107704407Y-101202124D01*
X107639400Y-101359065D01*
X87703310Y-101359065D01*
X87633836Y-101330217D01*
X87367333Y-101329984D01*
X87121028Y-101431755D01*
X86932418Y-101620037D01*
X86830217Y-101866164D01*
X86829984Y-102132667D01*
X76786669Y-102132667D01*
X73947000Y-99292998D01*
X73947000Y-90967006D01*
X74233600Y-90967006D01*
X74354779Y-90944205D01*
X74424147Y-90899567D01*
X74885022Y-91360442D01*
X74928340Y-91578210D01*
X75013000Y-91704914D01*
X75013000Y-98814299D01*
X74913144Y-99054780D01*
X74912857Y-99383781D01*
X75038495Y-99687848D01*
X75270930Y-99920690D01*
X75574778Y-100046858D01*
X75903779Y-100047145D01*
X76207846Y-99921507D01*
X76440688Y-99689072D01*
X76566856Y-99385224D01*
X76567143Y-99056223D01*
X76467000Y-98813859D01*
X76467000Y-96132667D01*
X86829984Y-96132667D01*
X86931755Y-96378972D01*
X87048000Y-96495420D01*
X87048000Y-99504656D01*
X86932418Y-99620037D01*
X86830217Y-99866164D01*
X86829984Y-100132667D01*
X86931755Y-100378972D01*
X87120037Y-100567582D01*
X87366164Y-100669783D01*
X87632667Y-100670016D01*
X87878972Y-100568245D01*
X88067582Y-100379963D01*
X88169783Y-100133836D01*
X88170016Y-99867333D01*
X88068245Y-99621028D01*
X87952000Y-99504580D01*
X87952000Y-99365000D01*
X109383994Y-99365000D01*
X109383994Y-100635000D01*
X109406795Y-100756179D01*
X109478412Y-100867474D01*
X109587686Y-100942138D01*
X109717400Y-100968406D01*
X110682600Y-100968406D01*
X110803779Y-100945605D01*
X110834154Y-100926059D01*
X110857686Y-100942138D01*
X110987400Y-100968406D01*
X111952600Y-100968406D01*
X112073779Y-100945605D01*
X112185074Y-100873988D01*
X112259738Y-100764714D01*
X112286006Y-100635000D01*
X112286006Y-100577000D01*
X112826998Y-100577000D01*
X113433000Y-101183001D01*
X113433000Y-101262420D01*
X113168119Y-101439408D01*
X112910029Y-101825666D01*
X112819400Y-102281289D01*
X112819400Y-102638711D01*
X112910029Y-103094334D01*
X113168119Y-103480592D01*
X113554377Y-103738682D01*
X114010000Y-103829311D01*
X114465623Y-103738682D01*
X114851881Y-103480592D01*
X115109971Y-103094334D01*
X115200600Y-102638711D01*
X115200600Y-102281289D01*
X115359400Y-102281289D01*
X115359400Y-102638711D01*
X115450029Y-103094334D01*
X115708119Y-103480592D01*
X116094377Y-103738682D01*
X116550000Y-103829311D01*
X117005623Y-103738682D01*
X117391881Y-103480592D01*
X117649971Y-103094334D01*
X117740600Y-102638711D01*
X117740600Y-102281289D01*
X117899400Y-102281289D01*
X117899400Y-102638711D01*
X117990029Y-103094334D01*
X118248119Y-103480592D01*
X118634377Y-103738682D01*
X119090000Y-103829311D01*
X119545623Y-103738682D01*
X119931881Y-103480592D01*
X120189971Y-103094334D01*
X120280600Y-102638711D01*
X120280600Y-102281289D01*
X120189971Y-101825666D01*
X119931881Y-101439408D01*
X119545623Y-101181318D01*
X119090000Y-101090689D01*
X118634377Y-101181318D01*
X118248119Y-101439408D01*
X117990029Y-101825666D01*
X117899400Y-102281289D01*
X117740600Y-102281289D01*
X117649971Y-101825666D01*
X117391881Y-101439408D01*
X117005623Y-101181318D01*
X116550000Y-101090689D01*
X116094377Y-101181318D01*
X115708119Y-101439408D01*
X115450029Y-101825666D01*
X115359400Y-102281289D01*
X115200600Y-102281289D01*
X115109971Y-101825666D01*
X114851881Y-101439408D01*
X114587000Y-101262420D01*
X114587000Y-100944005D01*
X114587001Y-100944000D01*
X114543078Y-100723192D01*
X114507547Y-100670016D01*
X114418001Y-100535999D01*
X114417998Y-100535997D01*
X113474001Y-99591999D01*
X113286808Y-99466922D01*
X113066000Y-99422999D01*
X113065995Y-99423000D01*
X112286006Y-99423000D01*
X112286006Y-99365000D01*
X112263205Y-99243821D01*
X112191588Y-99132526D01*
X112082314Y-99057862D01*
X111952600Y-99031594D01*
X110987400Y-99031594D01*
X110866221Y-99054395D01*
X110835846Y-99073941D01*
X110812314Y-99057862D01*
X110756217Y-99046502D01*
X110756217Y-98996295D01*
X110795178Y-98957402D01*
X110906091Y-98690296D01*
X110906343Y-98401077D01*
X110795897Y-98133777D01*
X110591567Y-97929091D01*
X110324461Y-97818178D01*
X110035242Y-97817926D01*
X109767942Y-97928372D01*
X109563256Y-98132702D01*
X109452343Y-98399808D01*
X109452091Y-98689027D01*
X109562537Y-98956327D01*
X109602217Y-98996076D01*
X109602217Y-99053267D01*
X109596221Y-99054395D01*
X109484926Y-99126012D01*
X109410262Y-99235286D01*
X109383994Y-99365000D01*
X87952000Y-99365000D01*
X87952000Y-96790000D01*
X112826594Y-96790000D01*
X112826594Y-97990000D01*
X112849395Y-98111179D01*
X112921012Y-98222474D01*
X113030286Y-98297138D01*
X113160000Y-98323406D01*
X114860000Y-98323406D01*
X114981179Y-98300605D01*
X115092474Y-98228988D01*
X115167138Y-98119714D01*
X115193406Y-97990000D01*
X115193406Y-96790000D01*
X115170605Y-96668821D01*
X115098988Y-96557526D01*
X114989714Y-96482862D01*
X114860000Y-96456594D01*
X113160000Y-96456594D01*
X113038821Y-96479395D01*
X112927526Y-96551012D01*
X112852862Y-96660286D01*
X112826594Y-96790000D01*
X87952000Y-96790000D01*
X87952000Y-96495344D01*
X88067582Y-96379963D01*
X88169783Y-96133836D01*
X88170016Y-95867333D01*
X88090489Y-95674861D01*
X112773297Y-95674861D01*
X112782734Y-95751115D01*
X112995317Y-96097610D01*
X113324316Y-96336378D01*
X113719644Y-96431068D01*
X113883000Y-96317814D01*
X113883000Y-95517000D01*
X114137000Y-95517000D01*
X114137000Y-96317814D01*
X114300356Y-96431068D01*
X114695684Y-96336378D01*
X115024683Y-96097610D01*
X115237266Y-95751115D01*
X115246703Y-95674861D01*
X115171444Y-95517000D01*
X114137000Y-95517000D01*
X113883000Y-95517000D01*
X112848556Y-95517000D01*
X112773297Y-95674861D01*
X88090489Y-95674861D01*
X88068245Y-95621028D01*
X87879963Y-95432418D01*
X87633836Y-95330217D01*
X87367333Y-95329984D01*
X87121028Y-95431755D01*
X86932418Y-95620037D01*
X86830217Y-95866164D01*
X86829984Y-96132667D01*
X76467000Y-96132667D01*
X76467000Y-93892667D01*
X76469984Y-93892667D01*
X76571755Y-94138972D01*
X76760037Y-94327582D01*
X77006164Y-94429783D01*
X77208473Y-94429960D01*
X77470731Y-94692218D01*
X77470731Y-95351600D01*
X77493532Y-95472779D01*
X77565149Y-95584074D01*
X77674423Y-95658738D01*
X77804137Y-95685006D01*
X79074137Y-95685006D01*
X79195316Y-95662205D01*
X79306611Y-95590588D01*
X79381275Y-95481314D01*
X79407543Y-95351600D01*
X79407543Y-95105139D01*
X112773297Y-95105139D01*
X112848556Y-95263000D01*
X113883000Y-95263000D01*
X113883000Y-94462186D01*
X114137000Y-94462186D01*
X114137000Y-95263000D01*
X115171444Y-95263000D01*
X115246703Y-95105139D01*
X115237266Y-95028885D01*
X115024683Y-94682390D01*
X114695684Y-94443622D01*
X114300356Y-94348932D01*
X114137000Y-94462186D01*
X113883000Y-94462186D01*
X113719644Y-94348932D01*
X113324316Y-94443622D01*
X112995317Y-94682390D01*
X112782734Y-95028885D01*
X112773297Y-95105139D01*
X79407543Y-95105139D01*
X79407543Y-94386400D01*
X79384742Y-94265221D01*
X79313125Y-94153926D01*
X79203851Y-94079262D01*
X79074137Y-94052994D01*
X78109955Y-94052994D01*
X77809906Y-93752945D01*
X77810016Y-93627333D01*
X77708245Y-93381028D01*
X77519963Y-93192418D01*
X77273836Y-93090217D01*
X77007333Y-93089984D01*
X76761028Y-93191755D01*
X76572418Y-93380037D01*
X76470217Y-93626164D01*
X76469984Y-93892667D01*
X76467000Y-93892667D01*
X76467000Y-91560601D01*
X76516529Y-91560601D01*
X76718204Y-91520486D01*
X76889174Y-91406246D01*
X77559044Y-90736376D01*
X77624502Y-90638413D01*
X77798189Y-90754467D01*
X77682418Y-90870037D01*
X77580217Y-91116164D01*
X77579984Y-91382667D01*
X77681755Y-91628972D01*
X77870037Y-91817582D01*
X78116164Y-91919783D01*
X78382667Y-91920016D01*
X78628972Y-91818245D01*
X78817582Y-91629963D01*
X78908669Y-91410601D01*
X79041399Y-91410601D01*
X79214372Y-91376195D01*
X79361011Y-91278213D01*
X79615648Y-91023577D01*
X79577138Y-91116318D01*
X79576905Y-91382821D01*
X79678676Y-91629126D01*
X79866958Y-91817736D01*
X80113085Y-91919937D01*
X80379588Y-91920170D01*
X80625893Y-91818399D01*
X80814503Y-91630117D01*
X80905654Y-91410601D01*
X81560529Y-91410601D01*
X81733502Y-91376195D01*
X81880141Y-91278213D01*
X82569612Y-90588742D01*
X82609473Y-90529087D01*
X82664794Y-90611881D01*
X83051052Y-90869971D01*
X83506675Y-90960600D01*
X83553325Y-90960600D01*
X84008948Y-90869971D01*
X84395206Y-90611881D01*
X84653296Y-90225623D01*
X84743925Y-89770000D01*
X84856075Y-89770000D01*
X84946704Y-90225623D01*
X85204794Y-90611881D01*
X85591052Y-90869971D01*
X86046675Y-90960600D01*
X86093325Y-90960600D01*
X86548948Y-90869971D01*
X86935206Y-90611881D01*
X87193296Y-90225623D01*
X87283925Y-89770000D01*
X87396075Y-89770000D01*
X87486704Y-90225623D01*
X87744794Y-90611881D01*
X88131052Y-90869971D01*
X88586675Y-90960600D01*
X88633325Y-90960600D01*
X89088948Y-90869971D01*
X89475206Y-90611881D01*
X89733296Y-90225623D01*
X89823925Y-89770000D01*
X89936075Y-89770000D01*
X90026704Y-90225623D01*
X90284794Y-90611881D01*
X90671052Y-90869971D01*
X91126675Y-90960600D01*
X91173325Y-90960600D01*
X91628948Y-90869971D01*
X92015206Y-90611881D01*
X92273296Y-90225623D01*
X92363925Y-89770000D01*
X92476075Y-89770000D01*
X92566704Y-90225623D01*
X92824794Y-90611881D01*
X93211052Y-90869971D01*
X93666675Y-90960600D01*
X93713325Y-90960600D01*
X94168948Y-90869971D01*
X94555206Y-90611881D01*
X94813296Y-90225623D01*
X94903925Y-89770000D01*
X95016075Y-89770000D01*
X95106704Y-90225623D01*
X95364794Y-90611881D01*
X95751052Y-90869971D01*
X96206675Y-90960600D01*
X96253325Y-90960600D01*
X96708948Y-90869971D01*
X97095206Y-90611881D01*
X97353296Y-90225623D01*
X97443925Y-89770000D01*
X97556075Y-89770000D01*
X97646704Y-90225623D01*
X97904794Y-90611881D01*
X98291052Y-90869971D01*
X98746675Y-90960600D01*
X98793325Y-90960600D01*
X99248948Y-90869971D01*
X99635206Y-90611881D01*
X99893296Y-90225623D01*
X99983925Y-89770000D01*
X100096075Y-89770000D01*
X100186704Y-90225623D01*
X100444794Y-90611881D01*
X100831052Y-90869971D01*
X101286675Y-90960600D01*
X101333325Y-90960600D01*
X101788948Y-90869971D01*
X102175206Y-90611881D01*
X102433296Y-90225623D01*
X102459009Y-90096351D01*
X102601343Y-90096351D01*
X102736293Y-90422174D01*
X103070645Y-90798728D01*
X103523647Y-91018667D01*
X103723000Y-90947597D01*
X103723000Y-89897000D01*
X103977000Y-89897000D01*
X103977000Y-90947597D01*
X104176353Y-91018667D01*
X104629355Y-90798728D01*
X104963707Y-90422174D01*
X105098657Y-90096351D01*
X105027018Y-89897000D01*
X103977000Y-89897000D01*
X103723000Y-89897000D01*
X102672982Y-89897000D01*
X102601343Y-90096351D01*
X102459009Y-90096351D01*
X102523925Y-89770000D01*
X105176075Y-89770000D01*
X105266704Y-90225623D01*
X105524794Y-90611881D01*
X105911052Y-90869971D01*
X106366675Y-90960600D01*
X106413325Y-90960600D01*
X106868948Y-90869971D01*
X107255206Y-90611881D01*
X107513296Y-90225623D01*
X107603925Y-89770000D01*
X107716075Y-89770000D01*
X107806704Y-90225623D01*
X108064794Y-90611881D01*
X108451052Y-90869971D01*
X108906675Y-90960600D01*
X108953325Y-90960600D01*
X109408948Y-90869971D01*
X109795206Y-90611881D01*
X110053296Y-90225623D01*
X110143925Y-89770000D01*
X110256075Y-89770000D01*
X110346704Y-90225623D01*
X110604794Y-90611881D01*
X110991052Y-90869971D01*
X111446675Y-90960600D01*
X111493325Y-90960600D01*
X111948948Y-90869971D01*
X112335206Y-90611881D01*
X112593296Y-90225623D01*
X112683925Y-89770000D01*
X112796075Y-89770000D01*
X112886704Y-90225623D01*
X113144794Y-90611881D01*
X113531052Y-90869971D01*
X113986675Y-90960600D01*
X114033325Y-90960600D01*
X114488948Y-90869971D01*
X114875206Y-90611881D01*
X115133296Y-90225623D01*
X115223925Y-89770000D01*
X115336075Y-89770000D01*
X115426704Y-90225623D01*
X115684794Y-90611881D01*
X116071052Y-90869971D01*
X116526675Y-90960600D01*
X116573325Y-90960600D01*
X117028948Y-90869971D01*
X117415206Y-90611881D01*
X117673296Y-90225623D01*
X117763925Y-89770000D01*
X117876075Y-89770000D01*
X117966704Y-90225623D01*
X118224794Y-90611881D01*
X118611052Y-90869971D01*
X119066675Y-90960600D01*
X119113325Y-90960600D01*
X119568948Y-90869971D01*
X119955206Y-90611881D01*
X120213296Y-90225623D01*
X120239009Y-90096351D01*
X120381343Y-90096351D01*
X120516293Y-90422174D01*
X120850645Y-90798728D01*
X121303647Y-91018667D01*
X121503000Y-90947597D01*
X121503000Y-89897000D01*
X121757000Y-89897000D01*
X121757000Y-90947597D01*
X121956353Y-91018667D01*
X122409355Y-90798728D01*
X122743707Y-90422174D01*
X122878657Y-90096351D01*
X122807018Y-89897000D01*
X121757000Y-89897000D01*
X121503000Y-89897000D01*
X120452982Y-89897000D01*
X120381343Y-90096351D01*
X120239009Y-90096351D01*
X120303925Y-89770000D01*
X120239010Y-89443649D01*
X120381343Y-89443649D01*
X120452982Y-89643000D01*
X121503000Y-89643000D01*
X121503000Y-88592403D01*
X121757000Y-88592403D01*
X121757000Y-89643000D01*
X122807018Y-89643000D01*
X122878657Y-89443649D01*
X122743707Y-89117826D01*
X122409355Y-88741272D01*
X121956353Y-88521333D01*
X121757000Y-88592403D01*
X121503000Y-88592403D01*
X121303647Y-88521333D01*
X120850645Y-88741272D01*
X120516293Y-89117826D01*
X120381343Y-89443649D01*
X120239010Y-89443649D01*
X120213296Y-89314377D01*
X119955206Y-88928119D01*
X119568948Y-88670029D01*
X119113325Y-88579400D01*
X119066675Y-88579400D01*
X118611052Y-88670029D01*
X118224794Y-88928119D01*
X117966704Y-89314377D01*
X117876075Y-89770000D01*
X117763925Y-89770000D01*
X117673296Y-89314377D01*
X117415206Y-88928119D01*
X117028948Y-88670029D01*
X116573325Y-88579400D01*
X116526675Y-88579400D01*
X116071052Y-88670029D01*
X115684794Y-88928119D01*
X115426704Y-89314377D01*
X115336075Y-89770000D01*
X115223925Y-89770000D01*
X115133296Y-89314377D01*
X114875206Y-88928119D01*
X114488948Y-88670029D01*
X114033325Y-88579400D01*
X113986675Y-88579400D01*
X113531052Y-88670029D01*
X113144794Y-88928119D01*
X112886704Y-89314377D01*
X112796075Y-89770000D01*
X112683925Y-89770000D01*
X112593296Y-89314377D01*
X112335206Y-88928119D01*
X111948948Y-88670029D01*
X111493325Y-88579400D01*
X111446675Y-88579400D01*
X110991052Y-88670029D01*
X110604794Y-88928119D01*
X110346704Y-89314377D01*
X110256075Y-89770000D01*
X110143925Y-89770000D01*
X110053296Y-89314377D01*
X109795206Y-88928119D01*
X109408948Y-88670029D01*
X108953325Y-88579400D01*
X108906675Y-88579400D01*
X108451052Y-88670029D01*
X108064794Y-88928119D01*
X107806704Y-89314377D01*
X107716075Y-89770000D01*
X107603925Y-89770000D01*
X107513296Y-89314377D01*
X107255206Y-88928119D01*
X106868948Y-88670029D01*
X106413325Y-88579400D01*
X106366675Y-88579400D01*
X105911052Y-88670029D01*
X105524794Y-88928119D01*
X105266704Y-89314377D01*
X105176075Y-89770000D01*
X102523925Y-89770000D01*
X102459010Y-89443649D01*
X102601343Y-89443649D01*
X102672982Y-89643000D01*
X103723000Y-89643000D01*
X103723000Y-88592403D01*
X103977000Y-88592403D01*
X103977000Y-89643000D01*
X105027018Y-89643000D01*
X105098657Y-89443649D01*
X104963707Y-89117826D01*
X104629355Y-88741272D01*
X104176353Y-88521333D01*
X103977000Y-88592403D01*
X103723000Y-88592403D01*
X103523647Y-88521333D01*
X103070645Y-88741272D01*
X102736293Y-89117826D01*
X102601343Y-89443649D01*
X102459010Y-89443649D01*
X102433296Y-89314377D01*
X102175206Y-88928119D01*
X101788948Y-88670029D01*
X101333325Y-88579400D01*
X101286675Y-88579400D01*
X100831052Y-88670029D01*
X100444794Y-88928119D01*
X100186704Y-89314377D01*
X100096075Y-89770000D01*
X99983925Y-89770000D01*
X99893296Y-89314377D01*
X99635206Y-88928119D01*
X99248948Y-88670029D01*
X98793325Y-88579400D01*
X98746675Y-88579400D01*
X98291052Y-88670029D01*
X97904794Y-88928119D01*
X97646704Y-89314377D01*
X97556075Y-89770000D01*
X97443925Y-89770000D01*
X97353296Y-89314377D01*
X97095206Y-88928119D01*
X96708948Y-88670029D01*
X96253325Y-88579400D01*
X96206675Y-88579400D01*
X95751052Y-88670029D01*
X95364794Y-88928119D01*
X95106704Y-89314377D01*
X95016075Y-89770000D01*
X94903925Y-89770000D01*
X94813296Y-89314377D01*
X94555206Y-88928119D01*
X94168948Y-88670029D01*
X93713325Y-88579400D01*
X93666675Y-88579400D01*
X93211052Y-88670029D01*
X92824794Y-88928119D01*
X92566704Y-89314377D01*
X92476075Y-89770000D01*
X92363925Y-89770000D01*
X92273296Y-89314377D01*
X92015206Y-88928119D01*
X91628948Y-88670029D01*
X91173325Y-88579400D01*
X91126675Y-88579400D01*
X90671052Y-88670029D01*
X90284794Y-88928119D01*
X90026704Y-89314377D01*
X89936075Y-89770000D01*
X89823925Y-89770000D01*
X89733296Y-89314377D01*
X89475206Y-88928119D01*
X89088948Y-88670029D01*
X88633325Y-88579400D01*
X88586675Y-88579400D01*
X88131052Y-88670029D01*
X87744794Y-88928119D01*
X87486704Y-89314377D01*
X87396075Y-89770000D01*
X87283925Y-89770000D01*
X87193296Y-89314377D01*
X86935206Y-88928119D01*
X86548948Y-88670029D01*
X86093325Y-88579400D01*
X86046675Y-88579400D01*
X85591052Y-88670029D01*
X85204794Y-88928119D01*
X84946704Y-89314377D01*
X84856075Y-89770000D01*
X84743925Y-89770000D01*
X84653296Y-89314377D01*
X84395206Y-88928119D01*
X84008948Y-88670029D01*
X83553325Y-88579400D01*
X83506675Y-88579400D01*
X83051052Y-88670029D01*
X82702000Y-88903259D01*
X82702000Y-88697224D01*
X83066234Y-88332991D01*
X83506675Y-88420600D01*
X83553325Y-88420600D01*
X84008948Y-88329971D01*
X84395206Y-88071881D01*
X84653296Y-87685623D01*
X84743925Y-87230000D01*
X84856075Y-87230000D01*
X84946704Y-87685623D01*
X85204794Y-88071881D01*
X85591052Y-88329971D01*
X86046675Y-88420600D01*
X86093325Y-88420600D01*
X86548948Y-88329971D01*
X86935206Y-88071881D01*
X87193296Y-87685623D01*
X87219009Y-87556351D01*
X87361343Y-87556351D01*
X87496293Y-87882174D01*
X87830645Y-88258728D01*
X88283647Y-88478667D01*
X88483000Y-88407597D01*
X88483000Y-87357000D01*
X88737000Y-87357000D01*
X88737000Y-88407597D01*
X88936353Y-88478667D01*
X89389355Y-88258728D01*
X89723707Y-87882174D01*
X89858657Y-87556351D01*
X89787018Y-87357000D01*
X88737000Y-87357000D01*
X88483000Y-87357000D01*
X87432982Y-87357000D01*
X87361343Y-87556351D01*
X87219009Y-87556351D01*
X87283925Y-87230000D01*
X89936075Y-87230000D01*
X90026704Y-87685623D01*
X90284794Y-88071881D01*
X90671052Y-88329971D01*
X91126675Y-88420600D01*
X91173325Y-88420600D01*
X91628948Y-88329971D01*
X92015206Y-88071881D01*
X92273296Y-87685623D01*
X92363925Y-87230000D01*
X92476075Y-87230000D01*
X92566704Y-87685623D01*
X92824794Y-88071881D01*
X93211052Y-88329971D01*
X93666675Y-88420600D01*
X93713325Y-88420600D01*
X94168948Y-88329971D01*
X94555206Y-88071881D01*
X94813296Y-87685623D01*
X94839009Y-87556351D01*
X94981343Y-87556351D01*
X95116293Y-87882174D01*
X95450645Y-88258728D01*
X95903647Y-88478667D01*
X96103000Y-88407597D01*
X96103000Y-87357000D01*
X96357000Y-87357000D01*
X96357000Y-88407597D01*
X96556353Y-88478667D01*
X97009355Y-88258728D01*
X97343707Y-87882174D01*
X97478657Y-87556351D01*
X97407018Y-87357000D01*
X96357000Y-87357000D01*
X96103000Y-87357000D01*
X95052982Y-87357000D01*
X94981343Y-87556351D01*
X94839009Y-87556351D01*
X94903925Y-87230000D01*
X97556075Y-87230000D01*
X97646704Y-87685623D01*
X97904794Y-88071881D01*
X98291052Y-88329971D01*
X98746675Y-88420600D01*
X98793325Y-88420600D01*
X99248948Y-88329971D01*
X99635206Y-88071881D01*
X99893296Y-87685623D01*
X99983925Y-87230000D01*
X100096075Y-87230000D01*
X100186704Y-87685623D01*
X100444794Y-88071881D01*
X100831052Y-88329971D01*
X101286675Y-88420600D01*
X101333325Y-88420600D01*
X101788948Y-88329971D01*
X102175206Y-88071881D01*
X102433296Y-87685623D01*
X102523925Y-87230000D01*
X102636075Y-87230000D01*
X102726704Y-87685623D01*
X102984794Y-88071881D01*
X103371052Y-88329971D01*
X103826675Y-88420600D01*
X103873325Y-88420600D01*
X104328948Y-88329971D01*
X104715206Y-88071881D01*
X104973296Y-87685623D01*
X105063925Y-87230000D01*
X105176075Y-87230000D01*
X105266704Y-87685623D01*
X105524794Y-88071881D01*
X105911052Y-88329971D01*
X106366675Y-88420600D01*
X106413325Y-88420600D01*
X106868948Y-88329971D01*
X107255206Y-88071881D01*
X107513296Y-87685623D01*
X107539009Y-87556351D01*
X107681343Y-87556351D01*
X107816293Y-87882174D01*
X108150645Y-88258728D01*
X108603647Y-88478667D01*
X108803000Y-88407597D01*
X108803000Y-87357000D01*
X109057000Y-87357000D01*
X109057000Y-88407597D01*
X109256353Y-88478667D01*
X109709355Y-88258728D01*
X110043707Y-87882174D01*
X110178657Y-87556351D01*
X110107018Y-87357000D01*
X109057000Y-87357000D01*
X108803000Y-87357000D01*
X107752982Y-87357000D01*
X107681343Y-87556351D01*
X107539009Y-87556351D01*
X107603925Y-87230000D01*
X110256075Y-87230000D01*
X110346704Y-87685623D01*
X110604794Y-88071881D01*
X110991052Y-88329971D01*
X111446675Y-88420600D01*
X111493325Y-88420600D01*
X111948948Y-88329971D01*
X112335206Y-88071881D01*
X112593296Y-87685623D01*
X112619009Y-87556351D01*
X112761343Y-87556351D01*
X112896293Y-87882174D01*
X113230645Y-88258728D01*
X113683647Y-88478667D01*
X113883000Y-88407597D01*
X113883000Y-87357000D01*
X114137000Y-87357000D01*
X114137000Y-88407597D01*
X114336353Y-88478667D01*
X114789355Y-88258728D01*
X115123707Y-87882174D01*
X115258657Y-87556351D01*
X115187018Y-87357000D01*
X114137000Y-87357000D01*
X113883000Y-87357000D01*
X112832982Y-87357000D01*
X112761343Y-87556351D01*
X112619009Y-87556351D01*
X112683925Y-87230000D01*
X115336075Y-87230000D01*
X115426704Y-87685623D01*
X115684794Y-88071881D01*
X116071052Y-88329971D01*
X116526675Y-88420600D01*
X116573325Y-88420600D01*
X117028948Y-88329971D01*
X117415206Y-88071881D01*
X117673296Y-87685623D01*
X117763925Y-87230000D01*
X117876075Y-87230000D01*
X117966704Y-87685623D01*
X118224794Y-88071881D01*
X118611052Y-88329971D01*
X119066675Y-88420600D01*
X119113325Y-88420600D01*
X119568948Y-88329971D01*
X119955206Y-88071881D01*
X120213296Y-87685623D01*
X120303925Y-87230000D01*
X120416075Y-87230000D01*
X120506704Y-87685623D01*
X120764794Y-88071881D01*
X121151052Y-88329971D01*
X121606675Y-88420600D01*
X121653325Y-88420600D01*
X122108948Y-88329971D01*
X122495206Y-88071881D01*
X122753296Y-87685623D01*
X122843925Y-87230000D01*
X122753296Y-86774377D01*
X122495206Y-86388119D01*
X122108948Y-86130029D01*
X121653325Y-86039400D01*
X121606675Y-86039400D01*
X121151052Y-86130029D01*
X120764794Y-86388119D01*
X120506704Y-86774377D01*
X120416075Y-87230000D01*
X120303925Y-87230000D01*
X120213296Y-86774377D01*
X119955206Y-86388119D01*
X119568948Y-86130029D01*
X119113325Y-86039400D01*
X119066675Y-86039400D01*
X118611052Y-86130029D01*
X118224794Y-86388119D01*
X117966704Y-86774377D01*
X117876075Y-87230000D01*
X117763925Y-87230000D01*
X117673296Y-86774377D01*
X117415206Y-86388119D01*
X117028948Y-86130029D01*
X116573325Y-86039400D01*
X116526675Y-86039400D01*
X116071052Y-86130029D01*
X115684794Y-86388119D01*
X115426704Y-86774377D01*
X115336075Y-87230000D01*
X112683925Y-87230000D01*
X112619010Y-86903649D01*
X112761343Y-86903649D01*
X112832982Y-87103000D01*
X113883000Y-87103000D01*
X113883000Y-86052403D01*
X114137000Y-86052403D01*
X114137000Y-87103000D01*
X115187018Y-87103000D01*
X115258657Y-86903649D01*
X115123707Y-86577826D01*
X114789355Y-86201272D01*
X114336353Y-85981333D01*
X114137000Y-86052403D01*
X113883000Y-86052403D01*
X113683647Y-85981333D01*
X113230645Y-86201272D01*
X112896293Y-86577826D01*
X112761343Y-86903649D01*
X112619010Y-86903649D01*
X112593296Y-86774377D01*
X112335206Y-86388119D01*
X111948948Y-86130029D01*
X111493325Y-86039400D01*
X111446675Y-86039400D01*
X110991052Y-86130029D01*
X110604794Y-86388119D01*
X110346704Y-86774377D01*
X110256075Y-87230000D01*
X107603925Y-87230000D01*
X107539010Y-86903649D01*
X107681343Y-86903649D01*
X107752982Y-87103000D01*
X108803000Y-87103000D01*
X108803000Y-86052403D01*
X109057000Y-86052403D01*
X109057000Y-87103000D01*
X110107018Y-87103000D01*
X110178657Y-86903649D01*
X110043707Y-86577826D01*
X109709355Y-86201272D01*
X109256353Y-85981333D01*
X109057000Y-86052403D01*
X108803000Y-86052403D01*
X108603647Y-85981333D01*
X108150645Y-86201272D01*
X107816293Y-86577826D01*
X107681343Y-86903649D01*
X107539010Y-86903649D01*
X107513296Y-86774377D01*
X107255206Y-86388119D01*
X106868948Y-86130029D01*
X106413325Y-86039400D01*
X106366675Y-86039400D01*
X105911052Y-86130029D01*
X105524794Y-86388119D01*
X105266704Y-86774377D01*
X105176075Y-87230000D01*
X105063925Y-87230000D01*
X104973296Y-86774377D01*
X104715206Y-86388119D01*
X104328948Y-86130029D01*
X103873325Y-86039400D01*
X103826675Y-86039400D01*
X103371052Y-86130029D01*
X102984794Y-86388119D01*
X102726704Y-86774377D01*
X102636075Y-87230000D01*
X102523925Y-87230000D01*
X102433296Y-86774377D01*
X102175206Y-86388119D01*
X101788948Y-86130029D01*
X101333325Y-86039400D01*
X101286675Y-86039400D01*
X100831052Y-86130029D01*
X100444794Y-86388119D01*
X100186704Y-86774377D01*
X100096075Y-87230000D01*
X99983925Y-87230000D01*
X99893296Y-86774377D01*
X99635206Y-86388119D01*
X99248948Y-86130029D01*
X98793325Y-86039400D01*
X98746675Y-86039400D01*
X98291052Y-86130029D01*
X97904794Y-86388119D01*
X97646704Y-86774377D01*
X97556075Y-87230000D01*
X94903925Y-87230000D01*
X94839010Y-86903649D01*
X94981343Y-86903649D01*
X95052982Y-87103000D01*
X96103000Y-87103000D01*
X96103000Y-86052403D01*
X96357000Y-86052403D01*
X96357000Y-87103000D01*
X97407018Y-87103000D01*
X97478657Y-86903649D01*
X97343707Y-86577826D01*
X97009355Y-86201272D01*
X96556353Y-85981333D01*
X96357000Y-86052403D01*
X96103000Y-86052403D01*
X95903647Y-85981333D01*
X95450645Y-86201272D01*
X95116293Y-86577826D01*
X94981343Y-86903649D01*
X94839010Y-86903649D01*
X94813296Y-86774377D01*
X94555206Y-86388119D01*
X94168948Y-86130029D01*
X93713325Y-86039400D01*
X93666675Y-86039400D01*
X93211052Y-86130029D01*
X92824794Y-86388119D01*
X92566704Y-86774377D01*
X92476075Y-87230000D01*
X92363925Y-87230000D01*
X92273296Y-86774377D01*
X92015206Y-86388119D01*
X91628948Y-86130029D01*
X91173325Y-86039400D01*
X91126675Y-86039400D01*
X90671052Y-86130029D01*
X90284794Y-86388119D01*
X90026704Y-86774377D01*
X89936075Y-87230000D01*
X87283925Y-87230000D01*
X87219010Y-86903649D01*
X87361343Y-86903649D01*
X87432982Y-87103000D01*
X88483000Y-87103000D01*
X88483000Y-86052403D01*
X88737000Y-86052403D01*
X88737000Y-87103000D01*
X89787018Y-87103000D01*
X89858657Y-86903649D01*
X89723707Y-86577826D01*
X89389355Y-86201272D01*
X88936353Y-85981333D01*
X88737000Y-86052403D01*
X88483000Y-86052403D01*
X88283647Y-85981333D01*
X87830645Y-86201272D01*
X87496293Y-86577826D01*
X87361343Y-86903649D01*
X87219010Y-86903649D01*
X87193296Y-86774377D01*
X86935206Y-86388119D01*
X86548948Y-86130029D01*
X86093325Y-86039400D01*
X86046675Y-86039400D01*
X85591052Y-86130029D01*
X85204794Y-86388119D01*
X84946704Y-86774377D01*
X84856075Y-87230000D01*
X84743925Y-87230000D01*
X84653296Y-86774377D01*
X84395206Y-86388119D01*
X84008948Y-86130029D01*
X83553325Y-86039400D01*
X83506675Y-86039400D01*
X83051052Y-86130029D01*
X82664794Y-86388119D01*
X82406704Y-86774377D01*
X82316075Y-87230000D01*
X82406704Y-87685623D01*
X82418099Y-87702677D01*
X81930388Y-88190388D01*
X81832406Y-88337027D01*
X81798000Y-88510000D01*
X81798000Y-88889895D01*
X81468948Y-88670029D01*
X81013325Y-88579400D01*
X80966675Y-88579400D01*
X80511052Y-88670029D01*
X80152000Y-88909940D01*
X80152000Y-88707224D01*
X80526234Y-88332991D01*
X80966675Y-88420600D01*
X81013325Y-88420600D01*
X81468948Y-88329971D01*
X81855206Y-88071881D01*
X82113296Y-87685623D01*
X82203925Y-87230000D01*
X82113296Y-86774377D01*
X81855206Y-86388119D01*
X81468948Y-86130029D01*
X81013325Y-86039400D01*
X80966675Y-86039400D01*
X80511052Y-86130029D01*
X80124794Y-86388119D01*
X79866704Y-86774377D01*
X79776075Y-87230000D01*
X79866704Y-87685623D01*
X79878099Y-87702677D01*
X79380388Y-88200388D01*
X79282406Y-88347027D01*
X79248000Y-88520000D01*
X79248000Y-88883213D01*
X78928948Y-88670029D01*
X78473325Y-88579400D01*
X78426675Y-88579400D01*
X77971052Y-88670029D01*
X77795540Y-88787303D01*
X77821660Y-88748211D01*
X77877001Y-88470000D01*
X77852542Y-88347042D01*
X78123647Y-88478667D01*
X78323000Y-88407597D01*
X78323000Y-87357000D01*
X78577000Y-87357000D01*
X78577000Y-88407597D01*
X78776353Y-88478667D01*
X79229355Y-88258728D01*
X79563707Y-87882174D01*
X79698657Y-87556351D01*
X79627018Y-87357000D01*
X78577000Y-87357000D01*
X78323000Y-87357000D01*
X77272982Y-87357000D01*
X77218035Y-87509901D01*
X77093100Y-87384966D01*
X77123925Y-87230000D01*
X77059010Y-86903649D01*
X77201343Y-86903649D01*
X77272982Y-87103000D01*
X78323000Y-87103000D01*
X78323000Y-86052403D01*
X78577000Y-86052403D01*
X78577000Y-87103000D01*
X79627018Y-87103000D01*
X79698657Y-86903649D01*
X79563707Y-86577826D01*
X79229355Y-86201272D01*
X78776353Y-85981333D01*
X78577000Y-86052403D01*
X78323000Y-86052403D01*
X78123647Y-85981333D01*
X77670645Y-86201272D01*
X77336293Y-86577826D01*
X77201343Y-86903649D01*
X77059010Y-86903649D01*
X77033296Y-86774377D01*
X76775206Y-86388119D01*
X76388948Y-86130029D01*
X75933325Y-86039400D01*
X75886675Y-86039400D01*
X75431052Y-86130029D01*
X75044794Y-86388119D01*
X74786704Y-86774377D01*
X74731258Y-87053124D01*
X74503423Y-86825289D01*
X74493296Y-86774377D01*
X74235206Y-86388119D01*
X73848948Y-86130029D01*
X73393325Y-86039400D01*
X73346675Y-86039400D01*
X72891052Y-86130029D01*
X72504794Y-86388119D01*
X72246704Y-86774377D01*
X72156075Y-87230000D01*
X71629166Y-87230000D01*
X71364550Y-86589582D01*
X70415414Y-85638788D01*
X69748834Y-85362000D01*
X125251381Y-85362000D01*
X124589582Y-85635450D01*
M02*
